<svg width="345" height="328" viewBox="0 0 345 328" fill="none" xmlns="http://www.w3.org/2000/svg">
<g opacity="0.2">
<path d="M234.637 62.265C221.102 62.265 210.082 73.2787 210.082 86.8159C210.082 100.356 221.102 111.368 234.637 111.368C238.957 111.368 243.197 110.237 246.905 108.095C254.49 103.713 259.194 95.5596 259.194 86.8159C259.194 73.2787 248.18 62.265 234.637 62.265V62.265ZM234.637 113.388C219.99 113.388 208.067 101.467 208.067 86.8159C208.067 72.1702 219.99 60.25 234.637 60.25C249.289 60.25 261.209 72.1702 261.209 86.8159C261.209 96.2778 256.117 105.097 247.913 109.841C243.899 112.162 239.311 113.388 234.637 113.388" fill="#0B0A15"/>
<path d="M294.813 166.469C290.498 166.469 286.256 167.602 282.545 169.746C274.968 174.124 270.259 182.278 270.259 191.021C270.259 204.562 281.279 215.578 294.813 215.578C308.35 215.578 319.368 204.562 319.368 191.021C319.368 177.483 308.35 166.469 294.813 166.469V166.469ZM294.813 217.589C280.166 217.589 268.244 205.671 268.244 191.021C268.244 181.56 273.34 172.74 281.538 168.002C285.556 165.682 290.148 164.454 294.813 164.454C309.467 164.454 321.383 176.374 321.383 191.021C321.383 205.671 309.467 217.589 294.813 217.589" fill="#0B0A15"/>
<path d="M282.099 169.925C281.756 169.925 281.416 169.747 281.232 169.421L246.622 109.527C246.341 109.048 246.507 108.431 246.99 108.153C247.464 107.876 248.087 108.034 248.366 108.519L282.976 168.414C283.253 168.897 283.089 169.511 282.603 169.792C282.448 169.883 282.276 169.925 282.099 169.925" fill="#0B0A15"/>
<path d="M50.0303 166.469C36.4932 166.469 25.4736 177.483 25.4736 191.021C25.4736 204.562 36.4932 215.578 50.0303 215.578C63.5708 215.578 74.587 204.562 74.587 191.021C74.587 182.278 69.881 174.124 62.2963 169.746C58.5857 167.602 54.3454 166.469 50.0303 166.469V166.469ZM50.0303 217.589C35.3808 217.589 23.4586 205.671 23.4586 191.021C23.4586 176.374 35.3808 164.454 50.0303 164.454C54.6974 164.454 59.2897 165.682 63.3057 168.002C71.5096 172.74 76.5996 181.565 76.5996 191.021C76.5996 205.671 64.6818 217.589 50.0303 217.589" fill="#0B0A15"/>
<path d="M233.279 276.282C219.742 276.282 208.724 287.294 208.724 300.833C208.724 314.373 219.742 325.39 233.279 325.39C246.816 325.39 257.832 314.373 257.832 300.833C257.832 287.294 246.816 276.282 233.279 276.282ZM233.279 327.403C218.628 327.403 206.707 315.484 206.707 300.833C206.707 286.187 218.628 274.267 233.279 274.267C247.931 274.267 259.845 286.187 259.845 300.833C259.845 315.484 247.931 327.403 233.279 327.403" fill="#0B0A15"/>
<path d="M207.663 301.78H137.679C137.125 301.78 136.672 301.329 136.672 300.773C136.672 300.22 137.125 299.765 137.679 299.765H207.663C208.219 299.765 208.67 300.22 208.67 300.773C208.67 301.329 208.219 301.78 207.663 301.78Z" fill="#0B0A15"/>
<path d="M112.249 276.282C98.71 276.282 87.69 287.294 87.69 300.833C87.69 314.373 98.71 325.39 112.249 325.39C125.785 325.39 136.799 314.373 136.799 300.833C136.799 287.294 125.785 276.282 112.249 276.282ZM112.249 327.403C97.5971 327.403 85.6749 315.484 85.6749 300.833C85.6749 286.187 97.5971 274.267 112.249 274.267C126.898 274.267 138.814 286.187 138.814 300.833C138.814 315.484 126.898 327.403 112.249 327.403" fill="#0B0A15"/>
<path d="M110.205 62.265C96.6675 62.265 85.648 73.2787 85.648 86.8159C85.648 95.5635 90.3578 103.717 97.9343 108.095C101.649 110.237 105.891 111.368 110.205 111.368C123.741 111.368 134.757 100.356 134.757 86.8159C134.757 73.2787 123.741 62.265 110.205 62.265V62.265ZM110.205 113.388C105.537 113.388 100.947 112.162 96.9287 109.841C88.7312 105.103 83.6349 96.2778 83.6349 86.8159C83.6349 72.1702 95.5551 60.25 110.205 60.25C124.856 60.25 136.772 72.1702 136.772 86.8159C136.772 101.467 124.856 113.388 110.205 113.388" fill="#0B0A15"/>
<path d="M62.5435 169.923C62.3735 169.923 62.1992 169.88 62.0395 169.79C61.5603 169.508 61.3923 168.895 61.6714 168.412L96.2829 108.517C96.562 108.038 97.1772 107.876 97.6526 108.151C98.1401 108.428 98.3061 109.045 98.025 109.525L63.4175 169.419C63.2271 169.745 62.8873 169.923 62.5435 169.923" fill="#0B0A15"/>
<path d="M172.483 121.419C159.943 121.419 147.576 124.735 136.714 131C114.654 143.74 100.947 167.479 100.947 192.951C100.947 218.426 114.654 242.161 136.714 254.904C147.576 261.176 159.943 264.486 172.483 264.486C185.022 264.486 197.391 261.176 208.254 254.904C230.314 242.161 244.014 218.426 244.014 192.951C244.014 167.479 230.314 143.74 208.254 131C197.391 124.735 185.022 121.419 172.483 121.419V121.419ZM172.483 266.501C159.589 266.501 146.874 263.092 135.706 256.65C113.023 243.549 98.9341 219.144 98.9341 192.951C98.9341 166.761 113.023 142.356 135.706 129.261C146.874 122.811 159.589 119.406 172.483 119.406C185.378 119.406 198.095 122.811 209.261 129.261C231.942 142.356 246.029 166.761 246.029 192.951C246.029 219.144 231.942 243.553 209.261 256.65C198.095 263.092 185.378 266.501 172.483 266.501" fill="#0B0A15"/>
<path d="M172.469 156.412C166.068 156.412 159.754 158.106 154.206 161.308C142.942 167.815 135.94 179.939 135.94 192.944C135.94 205.953 142.942 218.075 154.206 224.579C159.754 227.776 166.068 229.471 172.469 229.471C178.874 229.471 185.189 227.776 190.734 224.579C202.001 218.075 208.997 205.953 208.997 192.944C208.997 179.939 202.001 167.815 190.734 161.308C185.189 158.106 178.874 156.412 172.469 156.412ZM172.469 233.501C165.36 233.501 158.348 231.62 152.191 228.067C139.685 220.845 131.912 207.383 131.912 192.944C131.912 178.502 139.685 165.043 152.191 157.818C158.348 154.264 165.36 152.384 172.469 152.384C179.578 152.384 186.589 154.264 192.749 157.818C205.258 165.043 213.027 178.502 213.027 192.944C213.027 207.383 205.258 220.845 192.749 228.067C186.589 231.62 179.578 233.501 172.469 233.501" fill="#0B0A15"/>
<path d="M180.965 97.4591C180.933 97.4591 180.906 97.4591 180.874 97.4548C178.899 97.277 176.89 97.1634 174.906 97.1129C174.35 97.0969 173.91 96.6376 173.927 96.0753C173.937 95.5228 174.461 95.1363 174.957 95.0979C176.986 95.1547 179.037 95.2678 181.052 95.446C181.606 95.4965 182.017 95.986 181.968 96.5405C181.924 97.0663 181.481 97.4591 180.965 97.4591ZM162.86 97.548C162.348 97.548 161.911 97.1634 161.856 96.6439C161.804 96.0894 162.206 95.6 162.761 95.5431C164.78 95.3426 166.829 95.2033 168.855 95.1285C169.498 95.0576 169.876 95.5431 169.897 96.1015C169.915 96.658 169.484 97.1251 168.929 97.1435C166.943 97.2144 164.938 97.3479 162.959 97.546C162.925 97.548 162.893 97.548 162.86 97.548V97.548ZM192.907 99.2717C192.839 99.2717 192.766 99.2659 192.695 99.2493C190.761 98.8308 188.78 98.4666 186.814 98.169C186.265 98.084 185.885 97.5703 185.97 97.0221C186.055 96.4715 186.583 96.1015 187.115 96.1763C189.122 96.4798 191.145 96.8522 193.122 97.2809C193.662 97.4004 194.01 97.9345 193.893 98.4788C193.79 98.9502 193.373 99.2717 192.907 99.2717V99.2717ZM150.936 99.4863C150.477 99.4863 150.06 99.1707 149.953 98.7031C149.829 98.1612 150.167 97.6208 150.711 97.4955C152.69 97.0445 154.707 96.658 156.706 96.3283C157.238 96.2433 157.77 96.6133 157.859 97.1634C157.948 97.714 157.574 98.2297 157.03 98.319C155.067 98.6385 153.099 99.0207 151.158 99.4601C151.082 99.48 151.007 99.4863 150.936 99.4863ZM204.532 102.559C204.423 102.559 204.31 102.539 204.199 102.501C202.321 101.843 200.399 101.234 198.497 100.694C197.961 100.544 197.652 99.9898 197.799 99.4499C197.951 98.9158 198.513 98.6002 199.046 98.758C200.992 99.31 202.948 99.9252 204.866 100.599C205.39 100.785 205.668 101.36 205.481 101.882C205.335 102.301 204.947 102.559 204.532 102.559V102.559ZM139.345 102.889C138.931 102.889 138.544 102.638 138.397 102.228C138.204 101.703 138.477 101.125 138.997 100.939C140.909 100.245 142.862 99.6057 144.801 99.0328C145.332 98.875 145.896 99.1828 146.052 99.7169C146.21 100.249 145.902 100.813 145.366 100.969C143.469 101.524 141.555 102.152 139.687 102.83C139.57 102.871 139.457 102.889 139.345 102.889ZM215.655 107.265C215.508 107.265 215.354 107.229 215.211 107.16C213.432 106.27 211.605 105.432 209.776 104.657C209.263 104.441 209.022 103.85 209.242 103.338C209.459 102.826 210.055 102.586 210.561 102.804C212.429 103.589 214.294 104.451 216.109 105.355C216.605 105.604 216.808 106.211 216.56 106.707C216.388 107.061 216.028 107.265 215.655 107.265V107.265ZM128.267 107.714C127.9 107.714 127.545 107.514 127.37 107.162C127.113 106.666 127.31 106.061 127.807 105.811C129.602 104.888 131.459 104.012 133.326 103.196C133.834 102.98 134.429 103.207 134.652 103.718C134.874 104.228 134.641 104.821 134.134 105.046C132.303 105.841 130.484 106.703 128.722 107.605C128.576 107.68 128.417 107.714 128.267 107.714V107.714ZM226.111 113.318C225.921 113.318 225.728 113.266 225.555 113.15C223.906 112.05 222.194 110.987 220.474 109.99C219.995 109.715 219.829 109.1 220.108 108.615C220.387 108.129 221.007 107.973 221.484 108.249C223.24 109.264 224.986 110.35 226.673 111.471C227.135 111.783 227.262 112.41 226.953 112.869C226.758 113.16 226.441 113.318 226.111 113.318V113.318ZM117.872 113.871C117.552 113.871 117.234 113.719 117.043 113.434C116.729 112.972 116.848 112.343 117.307 112.031C118.979 110.895 120.71 109.792 122.457 108.758C122.936 108.471 123.557 108.631 123.84 109.108C124.121 109.588 123.964 110.205 123.484 110.486C121.774 111.504 120.077 112.588 118.441 113.699C118.266 113.818 118.07 113.871 117.872 113.871ZM235.735 120.624C235.502 120.624 235.266 120.547 235.077 120.379C233.57 119.082 232.006 117.816 230.431 116.618C229.983 116.282 229.898 115.647 230.236 115.206C230.576 114.763 231.205 114.676 231.65 115.016C233.261 116.238 234.857 117.528 236.391 118.853C236.817 119.222 236.862 119.853 236.5 120.274C236.297 120.506 236.018 120.624 235.735 120.624V120.624ZM108.333 121.273C108.052 121.273 107.771 121.162 107.576 120.933C107.206 120.514 107.244 119.877 107.661 119.511C109.184 118.17 110.771 116.861 112.369 115.619C112.808 115.283 113.441 115.359 113.783 115.801C114.123 116.24 114.044 116.871 113.603 117.215C112.037 118.429 110.488 119.709 108.995 121.022C108.802 121.192 108.565 121.273 108.333 121.273V121.273ZM244.374 129.07C244.099 129.07 243.822 128.959 243.625 128.739C242.286 127.258 240.894 125.807 239.484 124.427C239.085 124.037 239.077 123.4 239.464 123.001C239.854 122.606 240.497 122.598 240.89 122.985C242.33 124.395 243.755 125.88 245.12 127.391C245.495 127.804 245.46 128.439 245.048 128.812C244.853 128.989 244.612 129.07 244.374 129.07V129.07ZM99.7789 129.804C99.5425 129.804 99.3036 129.724 99.1137 129.554C98.6986 129.19 98.6563 128.55 99.0244 128.132C100.366 126.618 101.77 125.123 103.206 123.687C103.601 123.296 104.238 123.294 104.632 123.687C105.025 124.083 105.025 124.723 104.632 125.117C103.224 126.515 101.847 127.984 100.536 129.465C100.335 129.693 100.061 129.804 99.7789 129.804V129.804ZM251.889 138.53C251.574 138.53 251.258 138.379 251.06 138.098C249.925 136.469 248.726 134.854 247.489 133.307C247.143 132.87 247.216 132.232 247.651 131.888C248.084 131.547 248.719 131.613 249.067 132.05C250.326 133.633 251.556 135.277 252.717 136.944C253.035 137.401 252.924 138.031 252.468 138.35C252.29 138.47 252.088 138.53 251.889 138.53V138.53ZM92.3583 139.336C92.1602 139.336 91.9659 139.283 91.7916 139.163C91.3304 138.848 91.2133 138.223 91.5289 137.764C92.6637 136.095 93.8775 134.434 95.122 132.831C95.4638 132.392 96.097 132.315 96.5403 132.655C96.9749 132.995 97.054 133.633 96.7141 134.07C95.4939 135.639 94.3068 137.264 93.19 138.899C92.9977 139.182 92.6802 139.336 92.3583 139.336ZM258.173 148.842C257.811 148.842 257.465 148.652 257.285 148.31C256.356 146.548 255.364 144.794 254.334 143.105C254.044 142.629 254.194 142.012 254.674 141.721C255.143 141.43 255.764 141.581 256.051 142.055C257.103 143.782 258.119 145.569 259.066 147.369C259.325 147.859 259.139 148.472 258.645 148.731C258.493 148.808 258.333 148.842 258.173 148.842V148.842ZM86.1777 149.718C86.0257 149.718 85.8679 149.68 85.7184 149.607C85.2289 149.352 85.0304 148.747 85.2877 148.25C86.2141 146.439 87.2114 144.644 88.2413 142.91C88.5287 142.425 89.1478 142.275 89.6232 142.558C90.1024 142.844 90.2583 143.461 89.9732 143.942C88.9614 145.636 87.9844 147.4 87.0779 149.172C86.8978 149.516 86.5457 149.718 86.1777 149.718V149.718ZM263.128 159.862C262.722 159.862 262.337 159.617 262.187 159.209C261.487 157.356 260.719 155.498 259.907 153.686C259.677 153.176 259.901 152.577 260.411 152.352C260.915 152.126 261.513 152.346 261.744 152.858C262.576 154.707 263.361 156.609 264.071 158.5C264.269 159.02 264.004 159.603 263.482 159.795C263.367 159.842 263.247 159.862 263.128 159.862V159.862ZM81.3402 160.783C81.2232 160.783 81.1076 160.765 80.9925 160.724C80.4686 160.532 80.2016 159.953 80.3914 159.431C81.0916 157.522 81.8544 155.618 82.6657 153.766C82.8881 153.257 83.4829 153.022 83.9908 153.249C84.4962 153.469 84.7332 154.064 84.5108 154.574C83.7174 156.382 82.9692 158.254 82.2831 160.123C82.1336 160.532 81.749 160.783 81.3402 160.783ZM266.674 171.408C266.217 171.408 265.805 171.097 265.694 170.637C265.232 168.709 264.702 166.769 264.121 164.867C263.958 164.337 264.255 163.773 264.789 163.609C265.315 163.451 265.883 163.749 266.043 164.277C266.642 166.217 267.18 168.199 267.654 170.168C267.781 170.708 267.447 171.252 266.907 171.38C266.83 171.4 266.752 171.408 266.674 171.408V171.408ZM77.9112 172.367C77.8384 172.367 77.7617 172.361 77.6888 172.347C77.1445 172.22 76.8047 171.681 76.9319 171.139C77.3854 169.161 77.9049 167.174 78.4779 165.23C78.6376 164.698 79.2062 164.392 79.7282 164.55C80.2661 164.706 80.5657 165.27 80.4099 165.8C79.8471 167.706 79.3353 169.654 78.8964 171.586C78.7872 172.054 78.3725 172.367 77.9112 172.367ZM268.753 183.308C268.249 183.308 267.812 182.928 267.751 182.41C267.534 180.441 267.251 178.449 266.907 176.492C266.812 175.946 267.178 175.422 267.729 175.327C268.259 175.228 268.795 175.596 268.892 176.146C269.244 178.145 269.533 180.176 269.756 182.187C269.816 182.742 269.416 183.239 268.864 183.3C268.825 183.306 268.789 183.308 268.753 183.308ZM75.9569 184.291C75.9205 184.291 75.886 184.289 75.8535 184.289C75.2995 184.231 74.8926 183.737 74.9513 183.183C75.1518 181.18 75.4189 179.141 75.7505 177.131C75.8394 176.579 76.3735 176.213 76.9057 176.3C77.4601 176.391 77.8282 176.907 77.7374 177.457C77.4155 179.428 77.1523 181.425 76.9562 183.389C76.9037 183.903 76.4628 184.291 75.9569 184.291V184.291ZM75.4937 196.369C74.9494 196.369 74.5002 195.934 74.4862 195.39C74.4677 194.599 74.4556 193.808 74.4556 193.013C74.4556 191.765 74.4779 190.519 74.5284 189.275C74.5507 188.718 74.9635 188.271 75.5723 188.305C76.1288 188.33 76.5638 188.799 76.5434 189.351C76.4949 190.569 76.4706 191.787 76.4706 193.013C76.4706 193.792 76.4827 194.567 76.5012 195.34C76.5133 195.894 76.0763 196.357 75.5199 196.369H75.4937V196.369ZM269.159 200.066C269.141 200.066 269.114 200.066 269.098 200.06C268.542 200.027 268.121 199.548 268.151 198.993C268.275 197.011 268.337 194.994 268.337 193.013C268.337 191.461 268.299 189.912 268.226 188.37C268.2 187.814 268.629 187.342 269.181 187.314C269.814 187.286 270.209 187.714 270.239 188.275C270.312 189.847 270.352 191.427 270.352 193.013C270.352 195.038 270.29 197.094 270.165 199.119C270.132 199.651 269.687 200.066 269.159 200.066V200.066ZM76.5294 208.403C76.0419 208.403 75.6131 208.045 75.5379 207.547C75.2388 205.55 74.9999 203.511 74.8241 201.486C74.7731 200.932 75.1858 200.442 75.7403 200.391C76.2662 200.329 76.7784 200.753 76.8289 201.308C77.0008 203.295 77.2373 205.289 77.5286 207.246C77.6116 207.796 77.2315 208.31 76.6833 208.389C76.6328 208.395 76.5799 208.403 76.5294 208.403V208.403ZM267.662 212.051C267.597 212.051 267.534 212.042 267.472 212.03C266.925 211.929 266.568 211.403 266.669 210.853C267.035 208.9 267.344 206.914 267.593 204.946C267.664 204.393 268.17 204.003 268.72 204.076C269.268 204.142 269.663 204.646 269.594 205.198C269.343 207.207 269.023 209.236 268.649 211.229C268.558 211.711 268.135 212.051 267.662 212.051V212.051ZM79.0683 220.214C78.6293 220.214 78.2229 219.919 78.0952 219.476C77.5509 217.523 77.0576 215.528 76.6328 213.548C76.5133 213.008 76.861 212.474 77.4072 212.356C77.9476 212.237 78.4856 212.585 78.6031 213.129C79.0159 215.065 79.5033 217.021 80.0355 218.933C80.187 219.467 79.8738 220.022 79.3417 220.172C79.2504 220.198 79.1596 220.214 79.0683 220.214ZM264.676 223.758C264.572 223.758 264.47 223.742 264.368 223.712C263.836 223.538 263.543 222.969 263.717 222.44C264.328 220.546 264.882 218.614 265.374 216.694C265.507 216.156 266.053 215.824 266.598 215.968C267.138 216.105 267.463 216.655 267.328 217.191C266.826 219.156 266.256 221.122 265.635 223.057C265.497 223.485 265.101 223.758 264.676 223.758V223.758ZM83.0517 231.618C82.6575 231.618 82.2894 231.386 82.1214 230.997C81.3324 229.122 80.5958 227.204 79.9301 225.3C79.75 224.778 80.0272 224.202 80.5512 224.02C81.0692 223.834 81.6519 224.11 81.8359 224.641C82.4836 226.502 83.2037 228.377 83.9806 230.22C84.1952 230.73 83.9563 231.323 83.4445 231.535C83.313 231.586 83.1794 231.618 83.0517 231.618V231.618ZM260.257 235.001C260.118 235.001 259.974 234.973 259.833 234.906C259.33 234.673 259.11 234.072 259.345 233.566C260.188 231.764 260.979 229.915 261.702 228.07C261.908 227.552 262.493 227.303 263.011 227.505C263.53 227.71 263.788 228.29 263.581 228.808C262.841 230.694 262.028 232.579 261.174 234.416C261.004 234.787 260.641 235.001 260.257 235.001V235.001ZM88.4195 242.438C88.0733 242.438 87.7334 242.26 87.5455 241.932C86.5297 240.17 85.5625 238.355 84.6642 236.549C84.4156 236.051 84.622 235.448 85.1197 235.201C85.613 234.953 86.2199 235.155 86.471 235.652C87.3488 237.423 88.2957 239.193 89.291 240.929C89.5702 241.406 89.4047 242.023 88.923 242.302C88.7633 242.394 88.5914 242.438 88.4195 242.438V242.438ZM254.479 245.61C254.293 245.61 254.109 245.559 253.941 245.457C253.472 245.159 253.328 244.54 253.63 244.064C254.684 242.385 255.695 240.652 256.65 238.91C256.917 238.422 257.526 238.236 258.016 238.501C258.503 238.77 258.685 239.379 258.42 239.873C257.451 241.651 256.411 243.425 255.333 245.141C255.139 245.444 254.813 245.61 254.479 245.61ZM95.0934 252.505C94.788 252.505 94.4864 252.367 94.2883 252.107C93.0706 250.486 91.881 248.811 90.7598 247.123C90.4525 246.662 90.5778 246.037 91.0434 245.726C91.5027 245.424 92.1296 245.543 92.4394 246.013C93.5377 247.666 94.701 249.308 95.8926 250.893C96.2325 251.336 96.1436 251.965 95.7003 252.305C95.5163 252.442 95.306 252.505 95.0934 252.505V252.505ZM247.427 255.419C247.202 255.419 246.973 255.343 246.785 255.188C246.357 254.833 246.292 254.2 246.648 253.773C247.896 252.248 249.12 250.648 250.29 249.027C250.609 248.578 251.238 248.471 251.691 248.799C252.147 249.122 252.246 249.752 251.924 250.205C250.732 251.862 249.48 253.492 248.206 255.046C248.003 255.291 247.718 255.419 247.427 255.419V255.419ZM102.962 261.67C102.702 261.67 102.44 261.567 102.243 261.364C100.839 259.922 99.4536 258.409 98.1222 256.861C97.7581 256.442 97.8086 255.801 98.2295 255.44C98.6524 255.079 99.2856 255.125 99.6498 255.544C100.951 257.061 102.31 258.548 103.688 259.958C104.072 260.357 104.062 260.994 103.668 261.381C103.469 261.575 103.217 261.67 102.962 261.67V261.67ZM239.211 264.273C238.946 264.273 238.677 264.162 238.48 263.956C238.094 263.553 238.11 262.918 238.515 262.534C239.961 261.16 241.373 259.725 242.719 258.283C243.099 257.873 243.738 257.848 244.143 258.226C244.55 258.603 244.572 259.238 244.196 259.649C242.826 261.128 241.382 262.59 239.907 263.992C239.708 264.178 239.462 264.273 239.211 264.273ZM111.918 269.776C111.702 269.776 111.473 269.71 111.289 269.56C109.708 268.295 108.147 266.964 106.637 265.605C106.231 265.229 106.198 264.593 106.567 264.178C106.945 263.768 107.584 263.739 107.993 264.112C109.466 265.447 110.999 266.75 112.549 267.984C112.982 268.33 113.053 268.963 112.707 269.402C112.505 269.651 112.215 269.776 111.918 269.776V269.776ZM229.961 272.034C229.645 272.034 229.342 271.895 229.146 271.626C228.816 271.177 228.911 270.547 229.36 270.216C230.962 269.03 232.545 267.79 234.058 266.517C234.485 266.161 235.122 266.214 235.474 266.642C235.834 267.065 235.777 267.703 235.355 268.059C233.805 269.358 232.188 270.63 230.556 271.836C230.376 271.966 230.167 272.034 229.961 272.034V272.034ZM121.811 276.716C121.633 276.716 121.449 276.665 121.289 276.566C119.545 275.502 117.825 274.377 116.183 273.218C115.723 272.898 115.614 272.271 115.932 271.812C116.257 271.359 116.885 271.251 117.338 271.571C118.952 272.702 120.633 273.804 122.337 274.846C122.81 275.14 122.96 275.759 122.675 276.234C122.483 276.546 122.151 276.716 121.811 276.716ZM219.809 278.589C219.459 278.589 219.115 278.403 218.931 278.071C218.656 277.59 218.83 276.973 219.313 276.7L220.373 276.095C221.751 275.302 223.107 274.472 224.436 273.614C224.905 273.313 225.526 273.445 225.832 273.91C226.133 274.381 226 275 225.53 275.306C224.171 276.182 222.789 277.027 221.381 277.843L220.299 278.453C220.149 278.545 219.979 278.589 219.809 278.589V278.589ZM132.495 282.367C132.355 282.367 132.216 282.342 132.08 282.275C130.229 281.446 128.388 280.537 126.596 279.596C126.106 279.332 125.916 278.719 126.181 278.233C126.438 277.735 127.047 277.553 127.543 277.81C129.293 278.739 131.099 279.625 132.91 280.446C133.415 280.671 133.642 281.272 133.413 281.774C133.243 282.15 132.877 282.367 132.495 282.367V282.367ZM208.916 283.829C208.518 283.829 208.146 283.586 207.984 283.2C207.775 282.682 208.022 282.097 208.54 281.885C210.377 281.138 212.218 280.323 214.009 279.461C214.5 279.225 215.109 279.427 215.352 279.932C215.595 280.434 215.382 281.035 214.885 281.276C213.056 282.156 211.176 282.991 209.299 283.754C209.171 283.805 209.042 283.829 208.916 283.829V283.829ZM143.79 286.649C143.691 286.649 143.594 286.633 143.495 286.603C141.555 286.002 139.612 285.342 137.717 284.618C137.199 284.422 136.934 283.839 137.132 283.319C137.332 282.801 137.917 282.536 138.431 282.735C140.288 283.437 142.188 284.092 144.088 284.679C144.619 284.845 144.921 285.409 144.753 285.935C144.619 286.368 144.223 286.649 143.79 286.649V286.649ZM197.468 287.669C197.025 287.669 196.616 287.373 196.493 286.926C196.351 286.384 196.67 285.836 197.209 285.69C199.122 285.18 201.052 284.596 202.934 283.966C203.462 283.789 204.031 284.074 204.208 284.598C204.387 285.128 204.106 285.696 203.577 285.875C201.653 286.52 199.685 287.113 197.729 287.637C197.644 287.661 197.551 287.669 197.468 287.669ZM155.536 289.488C155.476 289.488 155.419 289.484 155.358 289.472C153.364 289.12 151.354 288.701 149.382 288.223C148.842 288.096 148.508 287.547 148.637 287.009C148.773 286.467 149.313 286.135 149.854 286.263C151.786 286.728 153.754 287.139 155.71 287.487C156.257 287.582 156.623 288.104 156.524 288.652C156.437 289.148 156.014 289.488 155.536 289.488V289.488ZM185.626 290.06C185.133 290.06 184.702 289.696 184.629 289.19C184.554 288.642 184.94 288.132 185.489 288.053C187.463 287.784 189.446 287.453 191.384 287.052C191.92 286.943 192.464 287.297 192.574 287.843C192.685 288.391 192.329 288.917 191.783 289.028C189.804 289.431 187.777 289.775 185.768 290.052C185.719 290.06 185.671 290.06 185.626 290.06ZM167.537 290.845C167.521 290.845 167.503 290.845 167.487 290.841C165.458 290.74 163.41 290.574 161.403 290.344C160.851 290.281 160.451 289.787 160.515 289.231C160.578 288.676 161.11 288.29 161.628 288.341C163.597 288.565 165.598 288.729 167.59 288.83C168.144 288.858 168.573 289.332 168.543 289.89C168.521 290.422 168.069 290.845 167.537 290.845V290.845ZM173.582 290.961C173.032 290.961 172.579 290.514 172.575 289.965C172.567 289.407 173.01 288.95 173.573 288.941C175.547 288.917 177.556 288.834 179.545 288.684C180.073 288.638 180.585 289.061 180.623 289.613C180.668 290.169 180.249 290.653 179.695 290.696C177.667 290.845 175.614 290.932 173.593 290.961H173.582V290.961Z" fill="#0B0A15"/>
<path d="M172.498 4.61356C164.841 4.61356 157.284 6.63684 150.65 10.4707C137.176 18.2497 128.801 32.7492 128.801 48.3111C128.801 63.8729 137.176 78.3729 150.65 86.1538C157.284 89.9833 164.841 92.0085 172.498 92.0085C180.162 92.0085 187.714 89.9833 194.345 86.1538C207.822 78.3729 216.198 63.8729 216.198 48.3111C216.198 32.7492 207.822 18.2497 194.345 10.4707C187.714 6.63684 180.162 4.61356 172.498 4.61356V4.61356ZM172.498 96.0386C164.13 96.0386 155.88 93.8274 148.633 89.6434C133.919 81.1444 124.773 65.3072 124.773 48.3111C124.773 31.3129 133.919 15.4758 148.633 6.97867C155.88 2.79517 164.13 0.583496 172.498 0.583496C180.866 0.583496 189.116 2.79517 196.363 6.97867C211.081 15.4758 220.23 31.3129 220.23 48.3111C220.23 65.3096 211.081 81.1483 196.363 89.6434C189.116 93.8274 180.866 96.0386 172.498 96.0386Z" fill="#0B0A15"/>
<path d="M174.725 23.7784C174.693 23.7784 174.663 23.7784 174.632 23.7745C173.991 23.7138 173.344 23.6837 172.7 23.6754C172.146 23.6672 171.701 23.2103 171.703 22.6577C171.711 22.1032 172.16 21.6624 172.71 21.6624H172.723C173.425 21.6706 174.12 21.7051 174.816 21.7658C175.367 21.8182 175.778 22.3076 175.725 22.8621C175.678 23.3841 175.239 23.7784 174.725 23.7784ZM164.776 24.8446C164.345 24.8446 163.948 24.5698 163.809 24.1387C163.645 23.6065 163.94 23.0423 164.472 22.8762C165.14 22.6699 165.814 22.4858 166.489 22.33C167.042 22.2003 167.572 22.5427 167.695 23.0845C167.822 23.6269 167.487 24.1668 166.941 24.2945C166.317 24.4382 165.69 24.6062 165.073 24.798C164.976 24.8286 164.873 24.8446 164.776 24.8446V24.8446ZM182.506 25.7449C182.371 25.7449 182.239 25.7186 182.106 25.6642C181.517 25.4113 180.914 25.1787 180.301 24.9723C179.773 24.7941 179.49 24.2236 179.67 23.6958C179.848 23.1695 180.418 22.8845 180.949 23.0646C181.608 23.287 182.262 23.538 182.905 23.8129C183.415 24.0313 183.651 24.6242 183.437 25.136C183.269 25.5166 182.897 25.7449 182.506 25.7449V25.7449ZM157.587 28.4178C157.274 28.4178 156.965 28.2721 156.766 27.9929C156.444 27.5414 156.55 26.9145 157.001 26.5907C157.571 26.1862 158.152 25.8017 158.757 25.4414C159.23 25.1583 159.847 25.3079 160.139 25.7895C160.426 26.2649 160.268 26.8839 159.793 27.1714C159.233 27.505 158.694 27.8594 158.17 28.2314C157.992 28.3571 157.788 28.4178 157.587 28.4178ZM189.29 30.0342C189.053 30.0342 188.817 29.9512 188.624 29.7832C188.141 29.3583 187.641 28.9495 187.121 28.5591C186.676 28.2275 186.585 27.5943 186.919 27.151C187.255 26.7038 187.89 26.6188 188.329 26.949C188.893 27.3676 189.431 27.8084 189.953 28.2678C190.37 28.6363 190.414 29.2714 190.05 29.6924C189.85 29.9186 189.569 30.0342 189.29 30.0342V30.0342ZM151.87 34.0502C151.664 34.0502 151.454 33.9851 151.271 33.8516C150.826 33.5238 150.729 32.8907 151.059 32.4435C151.471 31.8812 151.91 31.3369 152.368 30.8067C152.732 30.3882 153.371 30.3415 153.79 30.7077C154.209 31.0738 154.256 31.7113 153.889 32.1279C153.462 32.6178 153.064 33.1213 152.681 33.6394C152.485 33.9064 152.177 34.0502 151.87 34.0502ZM194.408 36.2167C194.066 36.2167 193.733 36.0409 193.544 35.7253C193.215 35.1689 192.865 34.6246 192.495 34.0963C192.171 33.6394 192.286 33.0101 192.737 32.6926C193.19 32.3726 193.822 32.4818 194.141 32.9392C194.54 33.5098 194.916 34.0944 195.276 34.6955C195.561 35.1689 195.406 35.788 194.924 36.0749C194.763 36.1701 194.588 36.2167 194.408 36.2167V36.2167ZM148.17 41.1712C148.065 41.1712 147.96 41.1552 147.852 41.1188C147.324 40.9425 147.037 40.3745 147.213 39.8442C147.436 39.1805 147.684 38.5269 147.96 37.8836C148.176 37.3718 148.766 37.1354 149.281 37.3519C149.792 37.5704 150.029 38.1628 149.813 38.675C149.56 39.2674 149.329 39.8685 149.129 40.4813C148.987 40.9042 148.591 41.1712 148.17 41.1712ZM197.364 43.6738C196.907 43.6738 196.488 43.3562 196.381 42.8872C196.241 42.2579 196.074 41.6325 195.885 41.0178C195.723 40.4856 196.019 39.921 196.553 39.7593C197.087 39.5976 197.647 39.8928 197.809 40.425C198.013 41.0882 198.198 41.766 198.351 42.4477C198.471 42.9901 198.129 43.5281 197.585 43.6519C197.516 43.666 197.441 43.6738 197.364 43.6738ZM146.857 49.0901H146.855C146.295 49.0838 145.845 48.6327 145.851 48.0724C145.853 47.3741 145.888 46.6764 145.946 45.9826C145.997 45.4281 146.503 45.0192 147.037 45.0639C147.589 45.1105 148.004 45.5999 147.956 46.1544C147.901 46.7934 147.868 47.4392 147.864 48.0864C147.862 48.6409 147.413 49.0901 146.857 49.0901ZM197.866 51.6853C197.834 51.6853 197.797 51.6834 197.767 51.6814C197.21 51.6271 196.806 51.1352 196.86 50.5807C196.925 49.9437 196.96 49.2984 196.972 48.6487C196.984 48.0947 197.433 47.6494 197.997 47.6616C198.552 47.6698 198.997 48.1287 198.987 48.6832C198.975 49.3872 198.936 50.083 198.869 50.7774C198.817 51.2969 198.374 51.6853 197.866 51.6853V51.6853ZM148.081 57.0186C147.65 57.0186 147.257 56.7472 147.12 56.3204C146.907 55.6571 146.717 54.9832 146.56 54.3034C146.434 53.7635 146.768 53.2192 147.306 53.0895C147.852 52.9599 148.388 53.2959 148.518 53.8383C148.665 54.4675 148.844 55.0905 149.042 55.7032C149.212 56.2354 148.92 56.802 148.388 56.97C148.287 57.0021 148.184 57.0186 148.081 57.0186V57.0186ZM195.843 59.4541C195.703 59.4541 195.568 59.4279 195.432 59.3672C194.924 59.1429 194.694 58.55 194.92 58.0383C195.181 57.4493 195.414 56.8506 195.626 56.2398C195.81 55.7115 196.381 55.4362 196.909 55.6183C197.433 55.8004 197.71 56.3733 197.53 56.9011C197.3 57.5629 197.047 58.214 196.763 58.8515C196.597 59.2298 196.227 59.4541 195.843 59.4541V59.4541ZM151.698 64.1843C151.388 64.1843 151.077 64.0387 150.879 63.7658C150.47 63.1972 150.084 62.6165 149.724 62.0154C149.434 61.54 149.582 60.9229 150.061 60.6359C150.537 60.3466 151.16 60.498 151.445 60.9739C151.779 61.526 152.135 62.0639 152.513 62.5859C152.839 63.0375 152.736 63.6663 152.287 63.9901C152.107 64.1217 151.903 64.1843 151.698 64.1843V64.1843ZM191.519 66.2154C191.283 66.2154 191.042 66.1328 190.85 65.9629C190.437 65.5905 190.4 64.953 190.771 64.5383C191.2 64.0547 191.608 63.557 191.993 63.0433C192.327 62.598 192.966 62.5131 193.401 62.8471C193.848 63.1807 193.937 63.8119 193.603 64.2552C193.182 64.8155 192.739 65.3516 192.274 65.8779C192.072 66.1003 191.796 66.2154 191.519 66.2154V66.2154ZM157.349 69.8813C157.145 69.8813 156.936 69.8186 156.752 69.6851C156.193 69.2743 155.645 68.8398 155.113 68.3843C154.693 68.0221 154.646 67.389 155.006 66.9641C155.368 66.5431 156.007 66.4926 156.426 66.8549C156.92 67.2778 157.424 67.6784 157.941 68.0605C158.395 68.3907 158.49 69.0194 158.162 69.4666C157.966 69.74 157.658 69.8813 157.349 69.8813ZM185.319 71.3078C184.976 71.3078 184.639 71.1296 184.449 70.8082C184.171 70.3265 184.333 69.7138 184.813 69.4283C185.371 69.1025 185.913 68.7524 186.445 68.3863C186.903 68.0687 187.525 68.1799 187.845 68.6393C188.165 69.0947 188.052 69.7235 187.592 70.0391C187.022 70.4358 186.431 70.814 185.83 71.168C185.668 71.2632 185.491 71.3078 185.319 71.3078V71.3078ZM164.494 73.5375C164.393 73.5375 164.288 73.521 164.185 73.4889C163.521 73.2743 162.866 73.0296 162.221 72.7625C161.704 72.544 161.464 71.9594 161.676 71.4452C161.888 70.9296 162.475 70.6849 162.993 70.9009C163.588 71.15 164.195 71.3724 164.81 71.5749C165.334 71.7429 165.623 72.3134 165.453 72.8393C165.314 73.2661 164.917 73.5375 164.494 73.5375ZM177.839 74.2192C177.38 74.2192 176.959 73.8953 176.858 73.4239C176.739 72.882 177.084 72.3435 177.627 72.2221C178.256 72.0886 178.883 71.9288 179.498 71.7385C180.042 71.5807 180.597 71.8803 180.752 72.4163C180.916 72.9466 180.611 73.5108 180.082 73.6666C179.411 73.871 178.735 74.0449 178.055 74.1949C177.982 74.2109 177.914 74.2192 177.839 74.2192V74.2192ZM172.419 74.7955C171.719 74.7955 171.023 74.7693 170.325 74.7149C169.777 74.6703 169.36 74.1886 169.405 73.6322C169.451 73.0781 169.931 72.6756 170.487 72.7077C171.13 72.7582 171.776 72.7824 172.419 72.7824C172.977 72.7824 173.427 73.234 173.427 73.788C173.427 74.3483 172.977 74.7955 172.419 74.7955Z" fill="#0B0A15"/>
<path d="M297.276 220.501C289.617 220.501 282.061 222.528 275.427 226.358C261.949 234.137 253.575 248.638 253.575 264.196C253.575 279.76 261.949 294.262 275.427 302.043C282.061 305.87 289.617 307.897 297.276 307.897C304.936 307.897 312.493 305.87 319.124 302.043C332.603 294.262 340.972 279.76 340.972 264.196C340.972 248.638 332.603 234.137 319.124 226.358C312.493 222.528 304.936 220.501 297.276 220.501V220.501ZM297.276 311.928C288.909 311.928 280.656 309.716 273.412 305.53C258.692 297.035 249.545 281.199 249.545 264.196C249.545 247.2 258.692 231.363 273.412 222.868C280.656 218.684 288.909 216.47 297.276 216.47C305.642 216.47 313.894 218.684 321.139 222.868C335.86 231.367 345 247.2 345 264.196C345 281.199 335.86 297.031 321.139 305.53C313.894 309.716 305.642 311.928 297.276 311.928Z" fill="#0B0A15"/>
<path d="M299.5 239.837C299.467 239.837 299.435 239.837 299.405 239.833C298.761 239.775 298.122 239.742 297.473 239.734C296.918 239.726 296.473 239.269 296.477 238.714C296.485 238.162 296.975 237.723 297.495 237.719C298.195 237.727 298.893 237.764 299.585 237.826C300.139 237.877 300.551 238.367 300.499 238.921C300.452 239.443 300.015 239.837 299.5 239.837V239.837ZM289.542 240.904C289.115 240.904 288.716 240.628 288.583 240.197C288.415 239.668 288.712 239.103 289.244 238.937C289.91 238.727 290.584 238.544 291.263 238.387C291.808 238.265 292.346 238.601 292.471 239.146C292.593 239.687 292.259 240.224 291.714 240.351C291.088 240.497 290.458 240.667 289.848 240.861C289.744 240.892 289.643 240.904 289.542 240.904V240.904ZM307.279 241.806C307.143 241.806 307.012 241.782 306.88 241.723C306.285 241.47 305.684 241.239 305.075 241.035C304.549 240.853 304.262 240.285 304.44 239.754C304.618 239.224 305.193 238.945 305.719 239.121C306.381 239.352 307.032 239.597 307.675 239.874C308.187 240.09 308.424 240.683 308.203 241.197C308.039 241.575 307.667 241.806 307.279 241.806V241.806ZM282.358 244.476C282.046 244.476 281.736 244.331 281.54 244.053C281.217 243.602 281.322 242.975 281.773 242.652C282.343 242.247 282.924 241.865 283.525 241.5C283.999 241.217 284.622 241.371 284.907 241.848C285.194 242.326 285.041 242.943 284.561 243.232C284.006 243.564 283.466 243.92 282.943 244.29C282.766 244.418 282.564 244.476 282.358 244.476V244.476ZM314.064 246.089C313.827 246.089 313.587 246.01 313.399 245.844C312.913 245.417 312.409 245.01 311.895 244.618C311.45 244.282 311.357 243.655 311.689 243.208C312.029 242.761 312.662 242.678 313.103 243.01C313.661 243.424 314.206 243.868 314.726 244.327C315.145 244.693 315.185 245.334 314.819 245.749C314.616 245.978 314.341 246.089 314.064 246.089V246.089ZM276.643 250.107C276.436 250.107 276.225 250.044 276.046 249.916C275.599 249.585 275.503 248.954 275.833 248.506C276.246 247.942 276.685 247.396 277.142 246.868C277.506 246.449 278.141 246.404 278.564 246.773C278.979 247.131 279.028 247.772 278.661 248.191C278.237 248.68 277.834 249.178 277.456 249.696C277.257 249.969 276.95 250.107 276.643 250.107V250.107ZM319.179 252.275C318.837 252.275 318.503 252.1 318.313 251.782C317.983 251.229 317.633 250.683 317.263 250.155C316.939 249.696 317.052 249.067 317.505 248.747C317.961 248.432 318.594 248.543 318.912 249C319.308 249.571 319.688 250.155 320.042 250.754C320.332 251.229 320.174 251.848 319.692 252.134C319.533 252.229 319.354 252.275 319.179 252.275V252.275ZM272.944 257.228C272.839 257.228 272.732 257.216 272.627 257.179C272.098 257.002 271.813 256.433 271.989 255.903C272.212 255.243 272.461 254.584 272.732 253.945C272.952 253.435 273.539 253.198 274.055 253.414C274.567 253.627 274.805 254.224 274.587 254.737C274.336 255.326 274.106 255.931 273.901 256.54C273.759 256.963 273.365 257.228 272.944 257.228ZM322.137 259.733C321.679 259.733 321.263 259.413 321.153 258.946C321.012 258.318 320.847 257.694 320.658 257.076C320.495 256.548 320.791 255.98 321.327 255.816C321.855 255.65 322.42 255.951 322.581 256.485C322.788 257.149 322.968 257.825 323.122 258.509C323.243 259.049 322.899 259.587 322.359 259.709C322.288 259.725 322.213 259.733 322.137 259.733V259.733ZM271.629 265.151H271.627C271.065 265.151 270.62 264.691 270.624 264.139C270.628 263.439 270.662 262.735 270.721 262.045C270.769 261.487 271.285 261.08 271.811 261.127C272.361 261.175 272.776 261.661 272.729 262.219C272.673 262.854 272.643 263.498 272.637 264.151C272.635 264.703 272.183 265.151 271.629 265.151V265.151ZM322.64 267.746C322.606 267.746 322.571 267.746 322.539 267.742C321.983 267.688 321.58 267.192 321.633 266.64C321.7 266.004 321.732 265.355 321.744 264.708C321.754 264.151 322.158 263.692 322.774 263.72C323.326 263.728 323.773 264.19 323.759 264.744C323.745 265.446 323.708 266.142 323.642 266.838C323.589 267.356 323.15 267.746 322.64 267.746V267.746ZM272.855 273.081C272.424 273.081 272.034 272.808 271.892 272.381C271.68 271.718 271.491 271.046 271.33 270.362C271.206 269.816 271.544 269.28 272.084 269.148C272.651 269.031 273.167 269.363 273.294 269.903C273.44 270.532 273.618 271.155 273.814 271.768C273.984 272.294 273.693 272.867 273.159 273.037C273.057 273.065 272.958 273.081 272.855 273.081V273.081ZM320.615 275.511C320.477 275.511 320.34 275.487 320.204 275.428C319.699 275.201 319.466 274.609 319.692 274.101C319.954 273.508 320.188 272.911 320.398 272.298C320.583 271.773 321.153 271.495 321.681 271.677C322.205 271.859 322.484 272.432 322.302 272.962C322.07 273.621 321.819 274.271 321.537 274.91C321.369 275.288 320.999 275.511 320.615 275.511V275.511ZM276.471 280.245C276.159 280.245 275.849 280.102 275.651 279.826C275.242 279.26 274.856 278.679 274.496 278.078C274.207 277.605 274.356 276.984 274.834 276.696C275.309 276.411 275.93 276.561 276.218 277.036C276.551 277.585 276.908 278.127 277.286 278.649C277.612 279.098 277.508 279.731 277.061 280.055C276.877 280.185 276.677 280.245 276.471 280.245V280.245ZM316.295 282.273C316.059 282.273 315.818 282.193 315.626 282.023C315.213 281.651 315.171 281.016 315.543 280.595C315.972 280.114 316.376 279.62 316.767 279.102C317.103 278.655 317.734 278.57 318.175 278.906C318.62 279.242 318.709 279.869 318.376 280.316C317.955 280.872 317.514 281.415 317.05 281.937C316.85 282.161 316.573 282.273 316.295 282.273V282.273ZM282.121 285.942C281.917 285.942 281.706 285.88 281.526 285.748C280.96 285.337 280.418 284.898 279.886 284.449C279.465 284.081 279.412 283.45 279.78 283.027C280.142 282.6 280.774 282.552 281.2 282.916C281.688 283.338 282.192 283.737 282.714 284.121C283.165 284.449 283.262 285.077 282.934 285.528C282.74 285.797 282.431 285.942 282.121 285.942V285.942ZM310.091 287.364C309.749 287.364 309.409 287.186 309.227 286.871C308.944 286.389 309.105 285.772 309.579 285.491C310.141 285.159 310.687 284.815 311.214 284.449C311.663 284.134 312.294 284.239 312.613 284.698C312.935 285.151 312.824 285.781 312.365 286.1C311.794 286.494 311.207 286.875 310.602 287.227C310.443 287.322 310.269 287.364 310.091 287.364V287.364ZM289.267 289.598C289.165 289.598 289.06 289.582 288.957 289.549C288.296 289.333 287.638 289.092 286.993 288.823C286.477 288.605 286.236 288.016 286.451 287.504C286.661 286.99 287.252 286.747 287.767 286.962C288.362 287.211 288.969 287.431 289.584 287.633C290.108 287.803 290.398 288.372 290.228 288.902C290.088 289.325 289.694 289.598 289.267 289.598V289.598ZM302.611 290.278C302.152 290.278 301.733 289.956 301.632 289.483C301.515 288.941 301.855 288.405 302.401 288.281C303.028 288.152 303.655 287.99 304.27 287.8C304.817 287.638 305.371 287.941 305.526 288.475C305.691 289.01 305.387 289.57 304.853 289.728C304.185 289.93 303.507 290.108 302.828 290.253C302.757 290.27 302.684 290.278 302.611 290.278V290.278ZM297.193 290.855C296.493 290.855 295.797 290.83 295.099 290.775C294.549 290.731 294.133 290.245 294.177 289.693C294.221 289.135 294.711 288.728 295.261 288.769C295.902 288.819 296.548 288.843 297.193 288.843C297.754 288.843 298.201 289.293 298.201 289.851C298.201 290.407 297.754 290.855 297.193 290.855" fill="#0B0A15"/>
<path d="M47.7295 220.501C40.0719 220.501 32.5153 222.528 25.8817 226.358C12.4038 234.137 4.02812 248.638 4.02812 264.196C4.02812 279.76 12.4038 294.262 25.8817 302.043C32.5153 305.87 40.0719 307.897 47.7295 307.897C55.391 307.897 62.9452 305.87 69.5748 302.043C83.0552 294.262 91.4246 279.76 91.4246 264.196C91.4246 248.638 83.0552 234.137 69.5748 226.358C62.9452 222.528 55.391 220.501 47.7295 220.501V220.501ZM47.7295 311.928C39.3615 311.928 31.1096 309.716 23.8667 305.53C9.14629 297.035 0 281.199 0 264.196C0 247.2 9.14629 231.363 23.8667 222.868C31.1096 218.684 39.3615 216.47 47.7295 216.47C56.095 216.47 64.3474 218.684 71.5923 222.868C86.3142 231.367 95.4546 247.2 95.4546 264.196C95.4546 281.199 86.3142 297.031 71.5923 305.53C64.3474 309.716 56.095 311.928 47.7295 311.928Z" fill="#0B0A15"/>
<path d="M49.9567 239.837C49.9222 239.837 49.8921 239.837 49.8596 239.833C49.2182 239.775 48.5772 239.742 47.9276 239.734C47.3731 239.726 46.9283 239.269 46.9322 238.714C46.9385 238.162 47.4279 237.723 47.9519 237.719C48.652 237.727 49.3478 237.764 50.0397 237.826C50.5942 237.877 51.005 238.367 50.9521 238.921C50.9079 239.443 50.4709 239.837 49.9567 239.837V239.837ZM39.999 240.904C39.5679 240.904 39.1736 240.628 39.0381 240.197C38.8721 239.668 39.1697 239.103 39.7014 238.937C40.3671 238.727 41.0367 238.544 41.7189 238.387C42.2729 238.265 42.8031 238.601 42.9245 239.146C43.0478 239.687 42.7142 240.224 42.1699 240.351C41.5407 240.497 40.9153 240.667 40.3025 240.861C40.1991 240.892 40.0962 240.904 39.999 240.904ZM57.7337 241.806C57.6002 241.806 57.4667 241.782 57.3351 241.723C56.7422 241.47 56.1416 241.239 55.5327 241.035C55.0025 240.853 54.7194 240.285 54.8952 239.754C55.0734 239.224 55.6498 238.945 56.1761 239.121C56.8355 239.352 57.489 239.597 58.1324 239.874C58.6441 240.09 58.8787 240.683 58.6602 241.197C58.4946 241.575 58.1241 241.806 57.7337 241.806V241.806ZM32.8129 244.476C32.5031 244.476 32.1919 244.331 31.9933 244.053C31.6738 243.602 31.7792 242.975 32.2302 242.652C32.7988 242.247 33.3795 241.865 33.9821 241.5C34.4536 241.217 35.0765 241.371 35.362 241.848C35.6514 242.326 35.4975 242.943 35.0158 243.232C34.4618 243.564 33.9234 243.92 33.3995 244.29C33.2237 244.418 33.0173 244.476 32.8129 244.476V244.476ZM64.5173 246.089C64.2804 246.089 64.0439 246.01 63.8517 245.844C63.37 245.417 62.8665 245.01 62.3523 244.618C61.9031 244.282 61.8143 243.655 62.1459 243.208C62.4839 242.761 63.117 242.678 63.5603 243.01C64.1168 243.424 64.6611 243.868 65.183 244.327C65.5996 244.693 65.6399 245.334 65.2719 245.749C65.0738 245.978 64.7985 246.089 64.5173 246.089ZM27.0975 250.107C26.8911 250.107 26.6828 250.044 26.5008 249.916C26.0536 249.585 25.9584 248.954 26.2905 248.506C26.7008 247.942 27.1378 247.396 27.5991 246.868C27.9594 246.449 28.5988 246.404 29.0174 246.773C29.4364 247.131 29.485 247.772 29.1189 248.191C28.6916 248.68 28.291 249.178 27.9127 249.696C27.7127 249.969 27.4073 250.107 27.0975 250.107ZM69.6355 252.275C69.2937 252.275 68.9601 252.1 68.7678 251.782C68.4401 251.229 68.0881 250.683 67.7157 250.155C67.3962 249.696 67.5093 249.067 67.9604 248.747C68.4139 248.432 69.049 248.543 69.3665 249C69.7652 249.571 70.1434 250.155 70.4998 250.754C70.7887 251.229 70.6309 251.848 70.1497 252.134C69.9875 252.229 69.8098 252.275 69.6355 252.275V252.275ZM23.4015 257.228C23.2923 257.228 23.1888 257.216 23.0835 257.179C22.5537 257.002 22.2702 256.433 22.4445 255.903C22.6688 255.243 22.916 254.584 23.1888 253.945C23.4093 253.435 23.9939 253.198 24.512 253.414C25.0198 253.627 25.2626 254.224 25.0422 254.737C24.7892 255.326 24.5605 255.931 24.358 256.54C24.2148 256.963 23.822 257.228 23.4015 257.228ZM72.5935 259.733C72.1342 259.733 71.7156 259.413 71.6102 258.946C71.4685 258.318 71.3048 257.694 71.1145 257.076C70.9528 256.548 71.2461 255.98 71.7821 255.816C72.3123 255.65 72.8766 255.951 73.0387 256.485C73.2431 257.149 73.4252 257.825 73.5787 258.509C73.6981 259.049 73.3563 259.587 72.8159 259.709C72.743 259.725 72.6702 259.733 72.5935 259.733ZM22.0862 265.151H22.0842C21.5219 265.151 21.0748 264.691 21.0786 264.139C21.085 263.439 21.117 262.735 21.1757 262.045C21.2243 261.487 21.72 261.08 22.2644 261.127C22.8188 261.175 23.2316 261.661 23.183 262.219C23.1281 262.854 23.1 263.498 23.0937 264.151C23.0917 264.703 22.6407 265.151 22.0862 265.151V265.151ZM73.0931 267.746C73.063 267.746 73.0246 267.746 72.996 267.742C72.4396 267.688 72.0332 267.192 72.09 266.64C72.1526 266.004 72.1871 265.355 72.2012 264.708C72.2114 264.151 72.7047 263.692 73.2266 263.72C73.7811 263.728 74.2264 264.19 74.2162 264.744C74.2021 265.446 74.1657 266.142 74.0987 266.838C74.0462 267.356 73.6029 267.746 73.0931 267.746V267.746ZM23.3083 273.081C22.8815 273.081 22.4867 272.808 22.3493 272.381C22.1367 271.718 21.9468 271.046 21.7871 270.362C21.6613 269.816 21.9992 269.28 22.5372 269.148C23.1019 269.031 23.6239 269.363 23.7511 269.903C23.8948 270.532 24.075 271.155 24.2692 271.768C24.4391 272.294 24.1478 272.867 23.6156 273.037C23.5146 273.065 23.4112 273.081 23.3083 273.081V273.081ZM71.0723 275.511C70.9344 275.511 70.7969 275.487 70.6615 275.428C70.1517 275.201 69.921 274.609 70.1497 274.101C70.4085 273.508 70.6411 272.911 70.8538 272.298C71.0397 271.773 71.6102 271.495 72.1361 271.677C72.6624 271.859 72.9373 272.432 72.7595 272.962C72.527 273.621 72.2759 274.271 71.9948 274.91C71.8268 275.288 71.4563 275.511 71.0723 275.511V275.511ZM26.9256 280.245C26.6158 280.245 26.3065 280.102 26.106 279.826C25.6996 279.26 25.3131 278.679 24.9509 278.078C24.6639 277.605 24.8115 276.984 25.2908 276.696C25.7661 276.411 26.3876 276.561 26.6746 277.036C27.0087 277.585 27.3626 278.127 27.7428 278.649C28.0686 279.098 27.9657 279.731 27.5165 280.055C27.3345 280.185 27.13 280.245 26.9256 280.245V280.245ZM66.7509 282.273C66.5159 282.273 66.2711 282.193 66.0813 282.023C65.6662 281.651 65.6278 281.016 65.9983 280.595C66.427 280.114 66.8339 279.62 67.2199 279.102C67.5579 278.655 68.191 278.57 68.6304 278.906C69.0752 279.242 69.1665 279.869 68.8324 280.316C68.4095 280.872 67.9686 281.415 67.5074 281.937C67.3049 282.161 67.0281 282.273 66.7509 282.273V282.273ZM32.576 285.942C32.372 285.942 32.1632 285.88 31.9836 285.748C31.417 285.337 30.8727 284.898 30.3424 284.449C29.9219 284.081 29.869 283.45 30.2376 283.027C30.5973 282.6 31.231 282.552 31.6534 282.916C32.1433 283.338 32.6449 283.737 33.1708 284.121C33.6223 284.449 33.7194 285.077 33.3917 285.528C33.195 285.797 32.8877 285.942 32.576 285.942ZM60.548 287.364C60.2061 287.364 59.8663 287.186 59.6818 286.871C59.3987 286.389 59.5604 285.772 60.0362 285.491C60.5946 285.159 61.1408 284.815 61.6706 284.449C62.1241 284.134 62.747 284.239 63.0709 284.698C63.3904 285.151 63.2792 285.781 62.8218 286.1C62.2513 286.494 61.6628 286.875 61.0578 287.227C60.8981 287.322 60.7237 287.364 60.548 287.364V287.364ZM39.7218 289.598C39.6208 289.598 39.5154 289.582 39.4125 289.549C38.7526 289.333 38.0952 289.092 37.448 288.823C36.9338 288.605 36.6934 288.016 36.9056 287.504C37.1183 286.99 37.7029 286.747 38.2229 286.962C38.8196 287.211 39.4266 287.431 40.0374 287.633C40.5657 287.803 40.8507 288.372 40.6846 288.902C40.5414 289.325 40.1466 289.598 39.7218 289.598V289.598ZM53.0661 290.278C52.6092 290.278 52.1902 289.956 52.0892 289.483C51.9698 288.941 52.3116 288.405 52.8559 288.281C53.4832 288.152 54.1125 287.99 54.7272 287.8C55.2676 287.638 55.8241 287.941 55.9838 288.475C56.1436 289.01 55.8401 289.57 55.3099 289.728C54.6422 289.93 53.9625 290.108 53.2846 290.253C53.2142 290.27 53.1414 290.278 53.0661 290.278V290.278ZM47.6484 290.855C46.9506 290.855 46.2505 290.83 45.5566 290.775C45.0041 290.731 44.5875 290.245 44.6341 289.693C44.6783 289.135 45.1663 288.728 45.7164 288.769C46.3597 288.819 47.0031 288.843 47.6484 288.843C48.2087 288.843 48.654 289.293 48.654 289.851C48.654 290.407 48.2087 290.855 47.6484 290.855" fill="#0B0A15"/>
<path d="M172.357 265.336C171.803 265.336 171.35 264.889 171.35 264.329V48.3383C171.35 47.7838 171.803 47.3308 172.357 47.3308C172.913 47.3308 173.365 47.7838 173.365 48.3383V264.329C173.365 264.889 172.913 265.336 172.357 265.336Z" fill="#0B0A15"/>
<path d="M297.194 265.281C297.024 265.281 296.85 265.239 296.688 265.147L109.634 157.151C109.155 156.872 108.991 156.257 109.268 155.775C109.544 155.294 110.163 155.132 110.642 155.409L297.698 263.404C298.179 263.68 298.345 264.298 298.066 264.779C297.88 265.103 297.54 265.281 297.194 265.281" fill="#0B0A15"/>
<path d="M47.5835 265.283C47.2353 265.283 46.8993 265.106 46.7134 264.782C46.4342 264.3 46.5983 263.683 47.0795 263.406L234.133 155.412C234.613 155.131 235.232 155.292 235.511 155.778C235.788 156.26 235.625 156.874 235.141 157.154L48.0851 265.15C47.9292 265.241 47.7573 265.283 47.5835 265.283" fill="#0B0A15"/>
</g>
<path d="M220.337 85.7677C209.929 85.7677 201.458 94.2366 201.458 104.643C201.458 115.055 209.929 123.523 220.337 123.523C223.658 123.523 226.919 122.651 229.769 121.004C235.6 117.634 239.217 111.366 239.217 104.643C239.217 94.2366 230.749 85.7677 220.337 85.7677V85.7677ZM220.337 125.073C209.075 125.073 199.908 115.908 199.908 104.643C199.908 93.383 209.075 84.2183 220.337 84.2183C231.602 84.2183 240.767 93.383 240.767 104.643C240.767 111.919 236.852 118.7 230.544 122.348C227.459 124.13 223.929 125.073 220.337 125.073Z" fill="#0B0A15"/>
<path d="M266.575 165.833C263.255 165.833 259.994 166.705 257.141 168.354C251.316 171.72 247.695 177.99 247.695 184.711C247.695 195.122 256.166 203.591 266.575 203.591C276.984 203.591 285.453 195.122 285.453 184.711C285.453 174.304 276.984 165.833 266.575 165.833V165.833ZM266.575 205.14C255.312 205.14 246.145 195.973 246.145 184.711C246.145 177.436 250.064 170.656 256.366 167.012C259.456 165.228 262.988 164.283 266.575 164.283C277.839 164.283 287.002 173.45 287.002 184.711C287.002 195.973 277.839 205.14 266.575 205.14Z" fill="#0B0A15"/>
<path d="M256.869 168.535C256.604 168.535 256.343 168.4 256.201 168.149L229.591 122.098C229.375 121.728 229.504 121.253 229.872 121.04C230.238 120.828 230.716 120.949 230.933 121.324L257.541 167.374C257.755 167.744 257.63 168.218 257.255 168.432C257.136 168.501 257.002 168.535 256.869 168.535Z" fill="#0B0A15"/>
<path d="M78.226 165.833C67.8173 165.833 59.3464 174.304 59.3464 184.711C59.3464 195.122 67.8173 203.591 78.226 203.591C88.6372 203.591 97.1061 195.122 97.1061 184.711C97.1061 177.99 93.4888 171.72 87.6578 168.354C84.8052 166.705 81.5443 165.833 78.226 165.833V165.833ZM78.226 205.14C66.9637 205.14 57.7965 195.973 57.7965 184.711C57.7965 173.45 66.9637 164.283 78.226 164.283C81.8132 164.283 85.3476 165.228 88.4327 167.012C94.741 170.656 98.6555 177.439 98.6555 184.711C98.6555 195.973 89.4908 205.14 78.226 205.14Z" fill="#0B0A15"/>
<path d="M219.32 250.318C208.909 250.318 200.44 258.787 200.44 269.194C200.44 279.607 208.909 288.074 219.32 288.074C229.728 288.074 238.195 279.607 238.195 269.194C238.195 258.787 229.728 250.318 219.32 250.318ZM219.32 289.623C208.055 289.623 198.888 280.459 198.888 269.194C198.888 257.933 208.055 248.768 219.32 248.768C230.582 248.768 239.745 257.933 239.745 269.194C239.745 280.459 230.582 289.623 219.32 289.623" fill="#0B0A15"/>
<path d="M199.415 269.867H145.606C145.179 269.867 144.833 269.523 144.833 269.092C144.833 268.666 145.179 268.317 145.606 268.317H199.415C199.843 268.317 200.19 268.666 200.19 269.092C200.19 269.523 199.843 269.867 199.415 269.867Z" fill="#0B0A15"/>
<path d="M126.165 250.318C115.754 250.318 107.283 258.787 107.283 269.194C107.283 279.607 115.754 288.074 126.165 288.074C136.574 288.074 145.041 279.607 145.041 269.194C145.041 258.787 136.574 250.318 126.165 250.318ZM126.165 289.623C114.9 289.623 105.734 280.459 105.734 269.194C105.734 257.933 114.9 248.768 126.165 248.768C137.428 248.768 146.591 257.933 146.591 269.194C146.591 280.459 137.428 289.623 126.165 289.623Z" fill="#0B0A15"/>
<path d="M124.463 85.7677C114.054 85.7677 105.584 94.2366 105.584 104.643C105.584 111.371 109.205 117.638 115.029 121.004C117.886 122.651 121.147 123.523 124.463 123.523C134.872 123.523 143.341 115.055 143.341 104.643C143.341 94.2366 134.872 85.7677 124.463 85.7677ZM124.463 125.073C120.876 125.073 117.344 124.13 114.255 122.348C107.953 118.704 104.034 111.919 104.034 104.643C104.034 93.383 113.2 84.2183 124.463 84.2183C135.728 84.2183 144.891 93.383 144.891 104.643C144.891 115.908 135.728 125.073 124.463 125.073Z" fill="#0B0A15"/>
<path d="M88.1483 168.533C88.0192 168.533 87.8837 168.499 87.7623 168.43C87.3918 168.216 87.2646 167.743 87.4788 167.372L114.089 121.322C114.305 120.952 114.777 120.828 115.145 121.039C115.517 121.251 115.645 121.727 115.428 122.097L88.8203 168.147C88.6747 168.398 88.4134 168.533 88.1483 168.533" fill="#0B0A15"/>
<path d="M172.483 131.325C162.841 131.325 153.332 133.874 144.981 138.693C128.019 148.486 117.481 166.738 117.481 186.324C117.481 205.912 128.019 224.158 144.981 233.958C153.332 238.779 162.841 241.325 172.483 241.325C182.125 241.325 191.634 238.779 199.985 233.958C216.948 224.158 227.482 205.912 227.482 186.324C227.482 166.738 216.948 148.486 199.985 138.693C191.634 133.874 182.125 131.325 172.483 131.325ZM172.483 242.872C162.57 242.872 152.794 240.252 144.206 235.297C126.767 225.227 115.933 206.46 115.933 186.324C115.933 166.186 126.767 147.421 144.206 137.352C152.794 132.395 162.57 129.775 172.483 129.775C182.396 129.775 192.174 132.395 200.76 137.352C218.2 147.421 229.029 166.186 229.029 186.324C229.029 206.46 218.2 225.231 200.76 235.297C192.174 240.252 182.396 242.872 172.483 242.872" fill="#0B0A15"/>
<path d="M172.277 158.202C167.355 158.202 162.499 159.504 158.235 161.965C149.574 166.968 144.19 176.288 144.19 186.289C144.19 196.289 149.574 205.609 158.235 210.613C162.499 213.071 167.355 214.373 172.277 214.373C177.201 214.373 182.057 213.071 186.32 210.613C194.983 205.609 200.362 196.289 200.362 186.289C200.362 176.288 194.983 166.968 186.32 161.965C182.057 159.504 177.201 158.202 172.277 158.202ZM172.277 217.471C166.811 217.471 161.419 216.027 156.685 213.295C147.069 207.74 141.093 197.391 141.093 186.289C141.093 175.186 147.069 164.835 156.685 159.282C161.419 156.551 166.811 155.104 172.277 155.104C177.742 155.104 183.133 156.551 187.869 159.282C197.488 164.835 203.46 175.186 203.46 186.289C203.46 197.391 197.488 207.74 187.869 213.295C183.133 216.027 177.742 217.471 172.277 217.471Z" fill="#0B0A15"/>
<path d="M179.126 112.892C179.102 112.892 179.082 112.892 179.057 112.887C177.538 112.752 175.994 112.665 174.467 112.625C174.04 112.612 173.702 112.26 173.714 111.829C173.722 111.404 174.125 111.105 174.507 111.077C176.067 111.119 177.645 111.206 179.193 111.344C179.62 111.382 179.933 111.758 179.899 112.186C179.863 112.59 179.523 112.892 179.126 112.892V112.892ZM165.205 112.96C164.812 112.96 164.477 112.665 164.434 112.264C164.396 111.838 164.703 111.461 165.13 111.417C166.684 111.263 168.258 111.158 169.814 111.099C170.311 111.047 170.601 111.417 170.617 111.848C170.631 112.275 170.299 112.635 169.872 112.649C168.347 112.703 166.803 112.807 165.282 112.958C165.258 112.96 165.231 112.96 165.205 112.96V112.96ZM188.309 114.286C188.257 114.286 188.2 114.281 188.145 114.269C186.658 113.946 185.137 113.667 183.624 113.438C183.203 113.371 182.909 112.977 182.974 112.556C183.041 112.133 183.447 111.848 183.856 111.906C185.4 112.139 186.953 112.426 188.473 112.756C188.89 112.847 189.157 113.258 189.066 113.676C188.987 114.037 188.667 114.286 188.309 114.286V114.286ZM156.038 114.451C155.684 114.451 155.365 114.207 155.282 113.849C155.188 113.432 155.448 113.017 155.866 112.92C157.388 112.574 158.937 112.275 160.473 112.022C160.884 111.957 161.294 112.242 161.361 112.665C161.43 113.088 161.143 113.484 160.722 113.553C159.215 113.798 157.699 114.093 156.208 114.431C156.152 114.445 156.093 114.451 156.038 114.451V114.451ZM197.247 116.812C197.162 116.812 197.075 116.798 196.99 116.768C195.546 116.262 194.071 115.795 192.606 115.378C192.195 115.265 191.957 114.838 192.07 114.423C192.187 114.012 192.618 113.77 193.027 113.889C194.524 114.314 196.027 114.787 197.504 115.305C197.907 115.449 198.119 115.89 197.975 116.292C197.864 116.614 197.565 116.812 197.247 116.812V116.812ZM147.126 117.065C146.807 117.065 146.512 116.873 146.396 116.558C146.25 116.155 146.461 115.712 146.859 115.566C148.328 115.034 149.831 114.541 151.322 114.104C151.729 113.98 152.164 114.217 152.283 114.627C152.405 115.038 152.168 115.469 151.757 115.59C150.296 116.017 148.824 116.501 147.388 117.021C147.301 117.053 147.213 117.065 147.126 117.065V117.065ZM205.801 120.432C205.685 120.432 205.567 120.404 205.457 120.351C204.089 119.667 202.685 119.022 201.279 118.425C200.885 118.259 200.699 117.806 200.866 117.411C201.034 117.019 201.494 116.832 201.882 117C203.316 117.605 204.751 118.267 206.147 118.963C206.529 119.155 206.685 119.62 206.493 120.003C206.361 120.274 206.084 120.432 205.801 120.432V120.432ZM138.609 120.776C138.326 120.776 138.053 120.622 137.919 120.353C137.721 119.97 137.873 119.507 138.255 119.313C139.635 118.603 141.065 117.929 142.499 117.304C142.89 117.138 143.345 117.312 143.517 117.704C143.687 118.095 143.511 118.552 143.119 118.726C141.712 119.337 140.313 119.999 138.959 120.691C138.848 120.749 138.724 120.776 138.609 120.776V120.776ZM213.839 125.085C213.691 125.085 213.544 125.046 213.41 124.956C212.141 124.11 210.826 123.295 209.505 122.528C209.135 122.313 209.01 121.842 209.222 121.467C209.436 121.097 209.914 120.976 210.28 121.188C211.63 121.967 212.971 122.803 214.27 123.665C214.626 123.903 214.723 124.387 214.486 124.739C214.335 124.963 214.09 125.085 213.839 125.085V125.085ZM130.616 125.51C130.371 125.51 130.126 125.395 129.979 125.172C129.738 124.82 129.829 124.337 130.183 124.096C131.467 123.22 132.799 122.374 134.142 121.579C134.51 121.36 134.988 121.481 135.204 121.848C135.421 122.216 135.301 122.691 134.931 122.908C133.618 123.691 132.311 124.522 131.053 125.378C130.919 125.469 130.77 125.51 130.616 125.51ZM221.238 130.703C221.059 130.703 220.877 130.642 220.732 130.515C219.572 129.517 218.37 128.542 217.159 127.622C216.817 127.363 216.75 126.875 217.011 126.538C217.27 126.196 217.756 126.129 218.098 126.39C219.334 127.33 220.562 128.322 221.741 129.342C222.071 129.625 222.103 130.11 221.824 130.434C221.668 130.612 221.456 130.703 221.238 130.703ZM123.28 131.203C123.065 131.203 122.851 131.116 122.699 130.94C122.416 130.62 122.444 130.129 122.766 129.848C123.937 128.816 125.155 127.808 126.386 126.853C126.723 126.594 127.211 126.655 127.474 126.995C127.735 127.332 127.672 127.816 127.334 128.081C126.131 129.016 124.939 129.999 123.79 131.008C123.642 131.14 123.46 131.203 123.28 131.203ZM227.879 137.197C227.667 137.197 227.457 137.112 227.303 136.942C226.275 135.801 225.203 134.686 224.118 133.627C223.813 133.327 223.807 132.836 224.104 132.53C224.406 132.227 224.899 132.22 225.201 132.518C226.307 133.602 227.404 134.743 228.454 135.905C228.741 136.222 228.715 136.712 228.397 136.997C228.248 137.133 228.062 137.197 227.879 137.197V137.197ZM116.705 137.762C116.525 137.762 116.341 137.699 116.195 137.568C115.873 137.289 115.843 136.797 116.124 136.475C117.156 135.312 118.236 134.163 119.341 133.058C119.644 132.756 120.134 132.755 120.435 133.058C120.739 133.361 120.739 133.853 120.435 134.157C119.355 135.233 118.295 136.362 117.287 137.501C117.131 137.675 116.921 137.762 116.705 137.762ZM233.657 144.468C233.417 144.468 233.174 144.353 233.022 144.137C232.148 142.885 231.225 141.644 230.275 140.452C230.008 140.117 230.066 139.629 230.4 139.362C230.732 139.099 231.222 139.15 231.489 139.488C232.456 140.703 233.401 141.97 234.295 143.251C234.539 143.603 234.454 144.086 234.102 144.331C233.965 144.424 233.811 144.468 233.657 144.468V144.468ZM110.999 145.089C110.848 145.089 110.698 145.049 110.562 144.958C110.21 144.713 110.12 144.234 110.362 143.88C111.234 142.597 112.167 141.321 113.126 140.088C113.389 139.748 113.874 139.69 114.214 139.953C114.55 140.216 114.611 140.703 114.348 141.039C113.411 142.247 112.496 143.495 111.641 144.754C111.489 144.97 111.246 145.089 110.999 145.089V145.089ZM238.491 152.399C238.211 152.399 237.944 152.251 237.807 151.989C237.091 150.633 236.328 149.286 235.537 147.989C235.314 147.623 235.43 147.149 235.798 146.922C236.158 146.7 236.637 146.815 236.858 147.179C237.667 148.509 238.446 149.882 239.176 151.266C239.375 151.642 239.231 152.114 238.851 152.312C238.735 152.373 238.612 152.399 238.491 152.399V152.399ZM106.249 153.071C106.132 153.071 106.008 153.045 105.895 152.986C105.517 152.792 105.365 152.324 105.563 151.944C106.276 150.55 107.042 149.172 107.835 147.837C108.054 147.465 108.531 147.349 108.896 147.568C109.266 147.786 109.385 148.26 109.167 148.63C108.388 149.935 107.637 151.288 106.939 152.65C106.801 152.917 106.53 153.071 106.249 153.071V153.071ZM242.3 160.872C241.987 160.872 241.691 160.682 241.576 160.37C241.038 158.946 240.447 157.518 239.822 156.122C239.646 155.731 239.818 155.27 240.208 155.096C240.596 154.922 241.058 155.092 241.234 155.486C241.875 156.909 242.476 158.369 243.024 159.824C243.176 160.224 242.974 160.672 242.571 160.819C242.482 160.856 242.391 160.872 242.3 160.872V160.872ZM102.529 161.578C102.44 161.578 102.348 161.566 102.262 161.533C101.859 161.386 101.653 160.941 101.798 160.54C102.336 159.071 102.923 157.609 103.548 156.184C103.72 155.792 104.176 155.612 104.566 155.786C104.956 155.955 105.136 156.413 104.967 156.805C104.356 158.197 103.781 159.634 103.253 161.07C103.137 161.386 102.842 161.578 102.529 161.578ZM245.025 169.749C244.673 169.749 244.356 169.509 244.271 169.157C243.917 167.674 243.508 166.183 243.063 164.72C242.937 164.311 243.164 163.878 243.575 163.753C243.981 163.632 244.416 163.858 244.54 164.267C245.001 165.758 245.416 167.281 245.778 168.796C245.877 169.211 245.62 169.628 245.205 169.727C245.147 169.743 245.086 169.749 245.025 169.749V169.749ZM99.8925 170.488C99.8381 170.488 99.7774 170.482 99.7206 170.47C99.3016 170.372 99.0409 169.958 99.1399 169.541C99.4881 168.021 99.8867 166.492 100.328 164.999C100.449 164.591 100.888 164.354 101.288 164.475C101.701 164.596 101.934 165.029 101.812 165.438C101.38 166.901 100.987 168.4 100.649 169.885C100.566 170.245 100.246 170.488 99.8925 170.488V170.488ZM246.622 178.898C246.235 178.898 245.899 178.604 245.853 178.208C245.687 176.693 245.47 175.161 245.205 173.658C245.131 173.237 245.414 172.835 245.837 172.762C246.245 172.687 246.656 172.968 246.731 173.391C247.002 174.928 247.224 176.49 247.394 178.036C247.443 178.463 247.133 178.847 246.709 178.892C246.68 178.896 246.652 178.898 246.622 178.898V178.898ZM98.3893 179.655C98.3611 179.655 98.3329 179.653 98.3106 179.653C97.8838 179.608 97.5701 179.228 97.6167 178.801C97.7702 177.261 97.9765 175.693 98.2314 174.148C98.3004 173.725 98.7092 173.444 99.1195 173.511C99.5444 173.579 99.8299 173.976 99.759 174.399C99.5104 175.914 99.3079 177.449 99.1584 178.958C99.1176 179.355 98.7777 179.655 98.3893 179.655ZM98.0334 188.941C97.6143 188.941 97.2686 188.607 97.2584 188.188C97.2443 187.579 97.2341 186.97 97.2341 186.359C97.2341 185.4 97.2526 184.441 97.2909 183.486C97.3089 183.059 97.6265 182.714 98.094 182.74C98.5208 182.758 98.8549 183.12 98.8384 183.545C98.8039 184.482 98.784 185.419 98.784 186.359C98.784 186.958 98.7942 187.555 98.8083 188.147C98.8185 188.575 98.4825 188.931 98.0537 188.941H98.0334V188.941ZM246.937 191.781C246.923 191.781 246.903 191.781 246.889 191.777C246.462 191.753 246.138 191.385 246.162 190.958C246.258 189.434 246.304 187.883 246.304 186.359C246.304 185.168 246.274 183.976 246.219 182.79C246.199 182.364 246.528 181.999 246.953 181.977C247.441 181.957 247.744 182.287 247.767 182.718C247.823 183.926 247.854 185.141 247.854 186.359C247.854 187.917 247.805 189.497 247.708 191.055C247.686 191.464 247.344 191.781 246.937 191.781V191.781ZM98.8306 198.192C98.4543 198.192 98.1241 197.917 98.0678 197.533C97.8372 195.999 97.6532 194.431 97.5172 192.874C97.4789 192.447 97.7964 192.073 98.2237 192.032C98.6281 191.986 99.0205 192.311 99.0613 192.738C99.1924 194.265 99.3744 195.799 99.5973 197.304C99.6619 197.727 99.3686 198.12 98.9476 198.182C98.9093 198.189 98.869 198.192 98.8306 198.192V198.192ZM245.784 200.998C245.736 200.998 245.687 200.993 245.638 200.982C245.219 200.903 244.942 200.499 245.021 200.078C245.302 198.577 245.541 197.049 245.734 195.536C245.786 195.111 246.176 194.81 246.599 194.866C247.022 194.917 247.324 195.303 247.271 195.728C247.077 197.272 246.832 198.834 246.543 200.365C246.474 200.738 246.148 200.998 245.784 200.998V200.998ZM100.781 207.272C100.443 207.272 100.131 207.047 100.034 206.708C99.6133 205.205 99.2351 203.671 98.9093 202.15C98.8185 201.733 99.0855 201.322 99.506 201.231C99.9207 201.14 100.333 201.409 100.425 201.826C100.742 203.315 101.115 204.818 101.527 206.289C101.64 206.7 101.402 207.127 100.991 207.24C100.922 207.264 100.851 207.272 100.781 207.272V207.272ZM243.488 210C243.409 210 243.33 209.987 243.251 209.963C242.842 209.83 242.62 209.395 242.751 208.988C243.223 207.529 243.65 206.042 244.026 204.569C244.129 204.155 244.548 203.898 244.966 204.007C245.382 204.114 245.632 204.537 245.527 204.952C245.143 206.459 244.704 207.976 244.226 209.461C244.121 209.789 243.816 210 243.488 210V210ZM103.844 216.04C103.542 216.04 103.257 215.863 103.13 215.565C102.523 214.124 101.954 212.65 101.444 211.183C101.304 210.78 101.521 210.341 101.922 210.2C102.32 210.058 102.769 210.271 102.909 210.677C103.407 212.109 103.961 213.55 104.558 214.966C104.724 215.361 104.54 215.816 104.145 215.982C104.046 216.02 103.943 216.04 103.844 216.04V216.04ZM240.093 218.644C239.984 218.644 239.873 218.62 239.767 218.57C239.379 218.391 239.209 217.928 239.391 217.542C240.038 216.156 240.647 214.731 241.203 213.313C241.361 212.919 241.81 212.724 242.209 212.878C242.608 213.036 242.806 213.483 242.646 213.882C242.077 215.328 241.454 216.779 240.795 218.193C240.665 218.478 240.386 218.644 240.093 218.644V218.644ZM107.971 224.362C107.704 224.362 107.443 224.224 107.299 223.971C106.518 222.616 105.774 221.224 105.084 219.834C104.894 219.449 105.051 218.984 105.434 218.798C105.814 218.604 106.279 218.764 106.474 219.146C107.148 220.505 107.876 221.869 108.643 223.2C108.857 223.568 108.73 224.042 108.36 224.254C108.236 224.327 108.105 224.362 107.971 224.362ZM235.648 226.8C235.506 226.8 235.365 226.761 235.236 226.682C234.875 226.455 234.764 225.978 234.995 225.614C235.806 224.323 236.585 222.986 237.319 221.646C237.523 221.272 237.993 221.133 238.367 221.335C238.744 221.541 238.883 222.011 238.681 222.391C237.932 223.757 237.135 225.12 236.306 226.437C236.156 226.674 235.905 226.8 235.648 226.8ZM113.101 232.102C112.869 232.102 112.636 231.997 112.484 231.794C111.548 230.55 110.633 229.261 109.772 227.965C109.535 227.607 109.63 227.127 109.988 226.89C110.342 226.658 110.824 226.749 111.062 227.109C111.906 228.38 112.802 229.644 113.719 230.862C113.98 231.202 113.911 231.687 113.571 231.944C113.427 232.051 113.266 232.102 113.101 232.102V232.102ZM230.226 234.34C230.054 234.34 229.878 234.283 229.735 234.165C229.405 233.892 229.354 233.407 229.627 233.075C230.588 231.906 231.527 230.676 232.427 229.427C232.674 229.079 233.158 229.001 233.506 229.249C233.856 229.502 233.932 229.984 233.686 230.332C232.769 231.608 231.806 232.861 230.827 234.054C230.671 234.245 230.451 234.34 230.226 234.34V234.34ZM119.153 239.149C118.954 239.149 118.75 239.069 118.6 238.916C117.52 237.805 116.454 236.64 115.432 235.45C115.151 235.124 115.189 234.635 115.515 234.36C115.841 234.078 116.326 234.113 116.606 234.439C117.607 235.604 118.651 236.749 119.711 237.831C120.006 238.137 119.998 238.627 119.695 238.926C119.543 239.074 119.349 239.149 119.153 239.149V239.149ZM223.91 241.148C223.706 241.148 223.501 241.065 223.347 240.907C223.052 240.599 223.064 240.108 223.376 239.812C224.486 238.752 225.573 237.654 226.609 236.545C226.898 236.227 227.39 236.209 227.701 236.5C228.015 236.79 228.033 237.279 227.742 237.595C226.69 238.73 225.579 239.855 224.444 240.935C224.292 241.077 224.102 241.148 223.91 241.148V241.148ZM126.039 245.384C125.871 245.384 125.698 245.327 125.556 245.214C124.34 244.241 123.138 243.217 121.979 242.175C121.666 241.886 121.641 241.396 121.924 241.077C122.216 240.761 122.705 240.741 123.021 241.024C124.154 242.052 125.331 243.051 126.523 244.004C126.857 244.269 126.909 244.755 126.646 245.09C126.488 245.284 126.266 245.384 126.039 245.384V245.384ZM216.797 247.117C216.556 247.117 216.323 247.008 216.173 246.802C215.918 246.458 215.991 245.972 216.337 245.719C217.567 244.807 218.786 243.855 219.949 242.875C220.276 242.602 220.766 242.641 221.037 242.972C221.314 243.298 221.27 243.787 220.944 244.058C219.754 245.06 218.512 246.035 217.256 246.964C217.116 247.067 216.957 247.117 216.797 247.117ZM133.646 250.715C133.507 250.715 133.367 250.678 133.244 250.604C131.902 249.782 130.581 248.916 129.317 248.026C128.965 247.781 128.88 247.299 129.125 246.947C129.374 246.595 129.857 246.513 130.205 246.758C131.447 247.627 132.738 248.477 134.051 249.281C134.413 249.505 134.528 249.978 134.31 250.346C134.16 250.583 133.905 250.715 133.646 250.715ZM208.994 252.155C208.725 252.155 208.459 252.014 208.318 251.757C208.105 251.386 208.241 250.915 208.611 250.707L209.427 250.239C210.487 249.626 211.529 248.991 212.55 248.331C212.91 248.103 213.39 248.2 213.622 248.56C213.855 248.92 213.752 249.398 213.392 249.63C212.348 250.306 211.284 250.956 210.199 251.583L209.37 252.054C209.254 252.121 209.123 252.155 208.994 252.155V252.155ZM141.86 255.06C141.751 255.06 141.646 255.04 141.541 254.993C140.118 254.352 138.702 253.654 137.324 252.93C136.946 252.725 136.801 252.258 137.005 251.884C137.201 251.499 137.67 251.358 138.051 251.56C139.396 252.271 140.786 252.954 142.178 253.583C142.568 253.755 142.742 254.219 142.566 254.605C142.435 254.894 142.156 255.06 141.86 255.06ZM200.618 256.187C200.312 256.187 200.025 256.001 199.902 255.699C199.74 255.305 199.93 254.854 200.326 254.688C201.74 254.116 203.157 253.488 204.535 252.827C204.911 252.647 205.38 252.801 205.564 253.187C205.752 253.575 205.588 254.036 205.206 254.223C203.8 254.898 202.354 255.538 200.913 256.127C200.814 256.167 200.715 256.187 200.618 256.187V256.187ZM150.544 258.356C150.469 258.356 150.394 258.34 150.317 258.316C148.824 257.858 147.331 257.348 145.874 256.79C145.475 256.64 145.273 256.195 145.425 255.795C145.579 255.396 146.028 255.19 146.422 255.346C147.851 255.886 149.313 256.387 150.772 256.839C151.181 256.964 151.413 257.399 151.284 257.806C151.181 258.137 150.877 258.356 150.544 258.356V258.356ZM191.815 259.139C191.475 259.139 191.16 258.908 191.065 258.564C190.957 258.15 191.202 257.727 191.617 257.617C193.085 257.221 194.571 256.776 196.019 256.288C196.424 256.155 196.863 256.371 196.999 256.78C197.134 257.183 196.917 257.622 196.513 257.759C195.032 258.253 193.519 258.712 192.015 259.115C191.951 259.131 191.88 259.139 191.815 259.139V259.139ZM159.575 260.537C159.528 260.537 159.485 260.533 159.439 260.525C157.905 260.252 156.36 259.928 154.843 259.566C154.428 259.467 154.171 259.044 154.272 258.629C154.375 258.215 154.792 257.957 155.207 258.054C156.692 258.415 158.205 258.73 159.708 258.999C160.129 259.07 160.41 259.475 160.335 259.894C160.269 260.272 159.943 260.537 159.575 260.537V260.537ZM182.709 260.976C182.331 260.976 181.999 260.695 181.945 260.308C181.886 259.885 182.183 259.493 182.606 259.434C184.123 259.226 185.649 258.969 187.137 258.664C187.55 258.581 187.967 258.854 188.052 259.273C188.137 259.691 187.864 260.098 187.443 260.185C185.922 260.494 184.364 260.757 182.819 260.968C182.782 260.976 182.746 260.976 182.709 260.976V260.976ZM168.802 261.581C168.792 261.581 168.776 261.581 168.764 261.577C167.202 261.498 165.63 261.371 164.086 261.196C163.659 261.146 163.354 260.766 163.404 260.339C163.451 259.912 163.86 259.613 164.258 259.655C165.771 259.825 167.311 259.952 168.842 260.031C169.269 260.051 169.599 260.414 169.575 260.844C169.559 261.255 169.213 261.581 168.802 261.581ZM173.449 261.668C173.026 261.668 172.678 261.324 172.676 260.901C172.671 260.474 173.012 260.122 173.441 260.118C174.96 260.098 176.506 260.035 178.033 259.916C178.44 259.881 178.833 260.205 178.863 260.632C178.898 261.059 178.578 261.429 178.151 261.465C176.591 261.581 175.013 261.647 173.46 261.668H173.449V261.668Z" fill="#0B0A15"/>
<path d="M172.348 41.4186C166.461 41.4186 160.653 42.9762 155.55 45.9221C145.19 51.9021 138.752 63.0518 138.752 75.0142C138.752 86.9811 145.19 98.1308 155.55 104.111C160.653 107.057 166.461 108.612 172.348 108.612C178.24 108.612 184.048 107.057 189.146 104.111C199.509 98.1308 205.946 86.9811 205.946 75.0142C205.946 63.0498 199.509 51.9021 189.146 45.9221C184.048 42.9762 178.24 41.4186 172.348 41.4186V41.4186ZM172.348 111.714C165.915 111.714 159.572 110.013 154.001 106.796C142.685 100.259 135.653 88.0838 135.653 75.0142C135.653 61.9471 142.685 49.7701 154.001 43.2375C159.572 40.0207 165.915 38.3213 172.348 38.3213C178.782 38.3213 185.124 40.0207 190.696 43.2375C202.013 49.7701 209.048 61.9471 209.048 75.0142C209.048 88.0857 202.013 100.263 190.696 106.796C185.124 110.013 178.782 111.714 172.348 111.714" fill="#0B0A15"/>
<path d="M174.172 56.2687C174.148 56.2687 174.126 56.2687 174.102 56.2648C173.608 56.2201 173.112 56.1958 172.614 56.1895C172.19 56.1837 171.848 55.8317 171.85 55.4068C171.854 54.98 172.2 54.6401 172.623 54.6401H172.633C173.173 54.646 173.709 54.6746 174.243 54.7207C174.666 54.7615 174.979 55.1378 174.941 55.5627C174.905 55.9652 174.567 56.2687 174.172 56.2687V56.2687ZM166.523 57.0878C166.193 57.0878 165.886 56.8756 165.78 56.5459C165.653 56.1371 165.879 55.702 166.29 55.5748C166.802 55.4151 167.32 55.2733 167.84 55.1538C168.265 55.0548 168.671 55.318 168.768 55.7346C168.865 56.1512 168.607 56.5683 168.188 56.6654C167.708 56.7746 167.225 56.9038 166.751 57.0514C166.677 57.0757 166.598 57.0878 166.523 57.0878ZM180.154 57.7821C180.052 57.7821 179.948 57.7617 179.849 57.7171C179.396 57.5248 178.931 57.3451 178.459 57.1873C178.054 57.0494 177.838 56.6105 177.976 56.2041C178.111 55.8011 178.55 55.5806 178.957 55.7205C179.465 55.8904 179.967 56.0846 180.46 56.2949C180.855 56.4629 181.037 56.9178 180.871 57.3126C180.741 57.6059 180.454 57.7821 180.154 57.7821V57.7821ZM160.996 59.8355C160.755 59.8355 160.516 59.7243 160.364 59.5097C160.118 59.1616 160.198 58.6804 160.547 58.4294C160.982 58.1196 161.429 57.8244 161.896 57.5471C162.258 57.3286 162.733 57.4461 162.958 57.8142C163.177 58.1803 163.057 58.6561 162.691 58.8766C162.26 59.1334 161.847 59.4063 161.445 59.6918C161.309 59.7889 161.15 59.8355 160.996 59.8355V59.8355ZM185.37 61.0775C185.188 61.0775 185.006 61.0149 184.858 60.8853C184.488 60.5595 184.102 60.2439 183.703 59.9448C183.361 59.6879 183.293 59.2024 183.549 58.86C183.806 58.5182 184.294 58.4536 184.632 58.7066C185.067 59.028 185.479 59.366 185.882 59.72C186.202 60.0035 186.236 60.491 185.955 60.8144C185.801 60.9887 185.587 61.0775 185.37 61.0775V61.0775ZM156.599 64.1647C156.44 64.1647 156.28 64.1161 156.14 64.0132C155.796 63.7622 155.724 63.2747 155.977 62.9309C156.294 62.4997 156.63 62.0812 156.984 61.6723C157.263 61.3509 157.755 61.3145 158.077 61.5956C158.398 61.8768 158.434 62.3681 158.153 62.6881C157.825 63.0644 157.518 63.4509 157.224 63.8515C157.073 64.0554 156.838 64.1647 156.599 64.1647V64.1647ZM189.305 65.8321C189.044 65.8321 188.788 65.6966 188.642 65.4538C188.387 65.0265 188.12 64.608 187.834 64.2011C187.586 63.8515 187.675 63.3659 188.023 63.1207C188.37 62.876 188.856 62.961 189.101 63.3111C189.407 63.75 189.698 64.1991 189.975 64.6604C190.193 65.0265 190.072 65.5024 189.704 65.7228C189.578 65.7956 189.445 65.8321 189.305 65.8321V65.8321ZM153.755 69.6417C153.674 69.6417 153.593 69.6295 153.51 69.6009C153.105 69.4654 152.885 69.0284 153.02 68.622C153.19 68.1122 153.383 67.6082 153.593 67.1124C153.759 66.7201 154.214 66.538 154.609 66.706C155.001 66.874 155.183 67.329 155.018 67.7213C154.823 68.1768 154.647 68.64 154.491 69.1115C154.384 69.4353 154.079 69.6417 153.755 69.6417V69.6417ZM191.579 71.5654C191.227 71.5654 190.905 71.3207 190.822 70.9604C190.715 70.4768 190.586 69.9956 190.442 69.5242C190.317 69.1134 190.545 68.6783 190.956 68.555C191.365 68.4317 191.798 68.6584 191.921 69.0668C192.079 69.5786 192.218 70.0986 192.338 70.6225C192.429 71.0396 192.168 71.4542 191.749 71.5475C191.695 71.5596 191.638 71.5654 191.579 71.5654V71.5654ZM152.745 75.729H152.743C152.313 75.7251 151.966 75.377 151.971 74.9482C151.973 74.4098 152.001 73.8737 152.046 73.3396C152.084 72.9148 152.472 72.5992 152.885 72.6336C153.308 72.67 153.627 73.0444 153.589 73.4712C153.549 73.965 153.522 74.4607 153.52 74.9584C153.518 75.3833 153.172 75.729 152.745 75.729V75.729ZM191.964 77.7261C191.939 77.7261 191.913 77.7236 191.889 77.7217C191.462 77.6795 191.15 77.3012 191.193 76.8764C191.241 76.3845 191.268 75.8887 191.278 75.3911C191.286 74.9643 191.632 74.6224 192.067 74.6307C192.494 74.6365 192.836 74.9905 192.827 75.4173C192.818 75.9577 192.787 76.4937 192.736 77.0278C192.696 77.4265 192.356 77.7261 191.964 77.7261ZM153.686 81.8246C153.356 81.8246 153.055 81.6163 152.95 81.2885C152.786 80.7787 152.638 80.2606 152.517 79.7387C152.42 79.3221 152.677 78.9035 153.091 78.8064C153.51 78.7049 153.923 78.9642 154.022 79.3808C154.137 79.8644 154.273 80.3417 154.425 80.8151C154.556 81.224 154.331 81.659 153.923 81.7882C153.844 81.8125 153.765 81.8246 153.686 81.8246V81.8246ZM190.408 83.6983C190.302 83.6983 190.198 83.6779 190.094 83.6313C189.704 83.4594 189.526 83.002 189.702 82.6097C189.9 82.1567 190.078 81.6954 190.242 81.2259C190.385 80.8214 190.822 80.6088 191.229 80.7486C191.632 80.888 191.844 81.3288 191.707 81.7338C191.528 82.2436 191.334 82.7432 191.116 83.2346C190.99 83.526 190.705 83.6983 190.408 83.6983ZM156.468 87.3356C156.229 87.3356 155.991 87.2224 155.837 87.0122C155.523 86.5772 155.228 86.13 154.949 85.6687C154.728 85.3026 154.841 84.8272 155.209 84.6063C155.576 84.3839 156.053 84.5014 156.274 84.8656C156.531 85.2924 156.804 85.7051 157.095 86.1076C157.346 86.4538 157.267 86.9369 156.921 87.186C156.782 87.287 156.624 87.3356 156.468 87.3356ZM187.086 88.8956C186.902 88.8956 186.718 88.833 186.57 88.7014C186.252 88.4179 186.224 87.9265 186.509 87.607C186.839 87.2365 187.153 86.852 187.448 86.4577C187.705 86.1159 188.197 86.0489 188.533 86.3057C188.876 86.565 188.945 87.0486 188.688 87.3904C188.365 87.8192 188.025 88.2338 187.664 88.6388C187.511 88.8087 187.298 88.8956 187.086 88.8956V88.8956ZM160.812 91.7157C160.654 91.7157 160.494 91.6672 160.354 91.5642C159.924 91.2506 159.503 90.9146 159.094 90.5645C158.77 90.2853 158.734 89.7978 159.011 89.472C159.29 89.1486 159.782 89.1098 160.104 89.389C160.482 89.7128 160.87 90.0226 161.269 90.3159C161.617 90.5708 161.689 91.052 161.439 91.3982C161.287 91.6065 161.052 91.7157 160.812 91.7157ZM182.318 92.8101C182.054 92.8101 181.796 92.6747 181.648 92.428C181.435 92.0575 181.559 91.5861 181.929 91.3676C182.358 91.117 182.774 90.848 183.183 90.5664C183.535 90.3217 184.015 90.4086 184.26 90.7606C184.504 91.1107 184.418 91.5943 184.067 91.8371C183.629 92.1425 183.173 92.4319 182.712 92.7053C182.587 92.7781 182.451 92.8101 182.318 92.8101V92.8101ZM166.307 94.5261C166.227 94.5261 166.146 94.5139 166.068 94.4897C165.558 94.3236 165.054 94.1352 164.559 93.9313C164.162 93.7633 163.978 93.3141 164.14 92.9174C164.304 92.5208 164.755 92.3328 165.153 92.4989C165.61 92.6888 166.076 92.8631 166.547 93.0165C166.954 93.1481 167.174 93.5851 167.045 93.992C166.935 94.3173 166.632 94.5261 166.307 94.5261ZM176.568 95.05C176.214 95.05 175.892 94.8009 175.813 94.4387C175.722 94.0221 175.985 93.6094 176.404 93.5161C176.887 93.4132 177.369 93.2899 177.842 93.1442C178.261 93.0228 178.686 93.2535 178.807 93.6642C178.933 94.0726 178.698 94.5057 178.291 94.6251C177.775 94.7829 177.256 94.9165 176.734 95.0315C176.677 95.0437 176.625 95.05 176.568 95.05V95.05ZM172.4 95.4947C171.86 95.4947 171.326 95.4729 170.79 95.4302C170.367 95.3976 170.047 95.0257 170.084 94.5989C170.116 94.1716 170.486 93.8643 170.915 93.8885C171.409 93.9269 171.904 93.9454 172.4 93.9454C172.829 93.9454 173.175 94.293 173.175 94.7203C173.175 95.149 172.829 95.4947 172.4 95.4947Z" fill="#0B0A15"/>
<path d="M268.226 207.501C262.337 207.501 256.529 209.059 251.426 212.002C241.064 217.984 234.626 229.134 234.626 241.095C234.626 253.063 241.064 264.211 251.426 270.193C256.529 273.137 262.337 274.698 268.226 274.698C274.116 274.698 279.924 273.137 285.025 270.193C295.387 264.211 301.821 253.063 301.821 241.095C301.821 229.134 295.387 217.984 285.025 212.002C279.924 209.059 274.116 207.501 268.226 207.501ZM268.226 277.796C261.793 277.796 255.449 276.092 249.879 272.876C238.559 266.345 231.527 254.166 231.527 241.095C231.527 228.027 238.559 215.85 249.879 209.317C255.449 206.102 261.793 204.401 268.226 204.401C274.658 204.401 281.003 206.102 286.572 209.317C297.892 215.854 304.92 228.027 304.92 241.095C304.92 254.166 297.892 266.341 286.572 272.876C281.003 276.092 274.658 277.796 268.226 277.796Z" fill="#0B0A15"/>
<path d="M270.049 222.349C270.025 222.349 270 222.349 269.976 222.345C269.483 222.302 268.991 222.278 268.489 222.27C268.064 222.266 267.723 221.914 267.726 221.487C267.73 221.06 268.109 220.724 268.507 220.72C269.048 220.728 269.584 220.757 270.114 220.803C270.541 220.844 270.856 221.218 270.818 221.645C270.781 222.045 270.445 222.349 270.049 222.349ZM262.394 223.17C262.066 223.17 261.758 222.958 261.657 222.626C261.527 222.22 261.754 221.785 262.165 221.657C262.675 221.495 263.193 221.358 263.717 221.234C264.135 221.139 264.548 221.4 264.645 221.815C264.738 222.234 264.481 222.648 264.064 222.744C263.581 222.859 263.098 222.988 262.626 223.136C262.547 223.158 262.47 223.17 262.394 223.17V223.17ZM276.029 223.862C275.926 223.862 275.823 223.842 275.726 223.8C275.267 223.605 274.805 223.427 274.336 223.269C273.931 223.132 273.713 222.693 273.848 222.286C273.984 221.88 274.427 221.661 274.831 221.801C275.339 221.972 275.839 222.163 276.335 222.377C276.729 222.543 276.912 223 276.742 223.393C276.614 223.684 276.329 223.862 276.029 223.862ZM256.869 225.918C256.63 225.918 256.391 225.802 256.241 225.594C255.992 225.246 256.073 224.759 256.421 224.514C256.856 224.202 257.303 223.907 257.769 223.63C258.131 223.411 258.61 223.531 258.829 223.895C259.049 224.265 258.932 224.74 258.564 224.957C258.137 225.213 257.722 225.487 257.32 225.774C257.184 225.869 257.026 225.918 256.869 225.918V225.918ZM281.247 227.158C281.065 227.158 280.881 227.095 280.735 226.968C280.363 226.64 279.974 226.324 279.58 226.023C279.238 225.766 279.167 225.284 279.422 224.941C279.683 224.596 280.169 224.534 280.508 224.787C280.937 225.106 281.356 225.446 281.757 225.802C282.078 226.084 282.109 226.573 281.828 226.893C281.672 227.071 281.462 227.158 281.247 227.158V227.158ZM252.474 230.247C252.314 230.247 252.154 230.197 252.017 230.098C251.671 229.845 251.598 229.359 251.853 229.015C252.171 228.58 252.506 228.161 252.86 227.755C253.14 227.431 253.629 227.398 253.953 227.68C254.273 227.959 254.309 228.451 254.028 228.775C253.702 229.148 253.392 229.533 253.099 229.932C252.948 230.138 252.713 230.247 252.474 230.247V230.247ZM285.18 231.912C284.917 231.912 284.66 231.777 284.512 231.536C284.259 231.109 283.992 230.686 283.707 230.284C283.458 229.932 283.545 229.446 283.895 229.201C284.243 228.957 284.729 229.044 284.974 229.394C285.279 229.833 285.57 230.284 285.846 230.741C286.066 231.109 285.945 231.582 285.577 231.805C285.451 231.876 285.315 231.912 285.18 231.912ZM249.631 235.72C249.551 235.72 249.468 235.71 249.387 235.685C248.982 235.545 248.764 235.109 248.897 234.7C249.069 234.194 249.259 233.688 249.468 233.195C249.638 232.805 250.089 232.622 250.486 232.788C250.878 232.954 251.062 233.409 250.894 233.804C250.702 234.259 250.526 234.724 250.366 235.192C250.259 235.515 249.955 235.72 249.631 235.72V235.72ZM287.456 237.645C287.102 237.645 286.782 237.399 286.697 237.041C286.59 236.557 286.463 236.076 286.317 235.606C286.191 235.196 286.42 234.761 286.833 234.638C287.237 234.508 287.672 234.74 287.796 235.147C287.956 235.657 288.093 236.179 288.213 236.705C288.304 237.12 288.043 237.534 287.626 237.629C287.569 237.642 287.513 237.645 287.456 237.645V237.645ZM248.62 241.809H248.618C248.187 241.809 247.843 241.457 247.845 241.03C247.849 240.494 247.878 239.956 247.922 239.422C247.959 238.997 248.355 238.68 248.762 238.72C249.185 238.754 249.502 239.131 249.466 239.558C249.423 240.047 249.399 240.541 249.395 241.042C249.393 241.469 249.047 241.809 248.62 241.809V241.809ZM287.84 243.804H287.764C287.337 243.761 287.027 243.381 287.067 242.956C287.118 242.465 287.143 241.971 287.152 241.469C287.161 241.042 287.47 240.69 287.944 240.711C288.37 240.719 288.712 241.071 288.702 241.498C288.692 242.038 288.662 242.576 288.611 243.11C288.571 243.509 288.233 243.804 287.84 243.804ZM249.563 247.911C249.233 247.911 248.932 247.701 248.824 247.369C248.66 246.859 248.515 246.341 248.391 245.821C248.294 245.402 248.555 244.986 248.97 244.888C249.405 244.793 249.804 245.05 249.901 245.465C250.014 245.951 250.15 246.428 250.299 246.9C250.431 247.306 250.206 247.745 249.797 247.875C249.719 247.899 249.642 247.911 249.563 247.911V247.911ZM286.283 249.78C286.179 249.78 286.072 249.76 285.969 249.711C285.581 249.538 285.4 249.085 285.577 248.692C285.775 248.235 285.955 247.776 286.117 247.306C286.26 246.903 286.697 246.689 287.104 246.829C287.507 246.97 287.721 247.409 287.581 247.816C287.403 248.326 287.209 248.823 286.993 249.317C286.865 249.607 286.58 249.78 286.283 249.78V249.78ZM252.343 253.414C252.104 253.414 251.865 253.309 251.713 253.094C251.398 252.659 251.103 252.214 250.823 251.751C250.603 251.389 250.718 250.909 251.084 250.689C251.45 250.47 251.928 250.585 252.149 250.95C252.405 251.372 252.678 251.787 252.97 252.19C253.221 252.534 253.142 253.019 252.798 253.272C252.656 253.371 252.501 253.414 252.343 253.414ZM282.962 254.976C282.78 254.976 282.596 254.913 282.449 254.781C282.131 254.498 282.099 254.007 282.384 253.687C282.714 253.317 283.025 252.936 283.325 252.538C283.583 252.198 284.069 252.131 284.409 252.388C284.751 252.645 284.82 253.131 284.563 253.471C284.239 253.902 283.902 254.316 283.543 254.719C283.389 254.889 283.177 254.976 282.962 254.976V254.976ZM256.688 257.796C256.529 257.796 256.368 257.75 256.231 257.65C255.794 257.331 255.377 256.995 254.969 256.647C254.645 256.366 254.604 255.88 254.888 255.556C255.167 255.229 255.652 255.192 255.98 255.47C256.354 255.793 256.743 256.103 257.143 256.398C257.49 256.647 257.564 257.133 257.313 257.48C257.164 257.687 256.927 257.796 256.688 257.796V257.796ZM278.192 258.891C277.931 258.891 277.67 258.757 277.526 258.512C277.31 258.14 277.434 257.667 277.8 257.45C278.23 257.197 278.651 256.932 279.056 256.647C279.4 256.406 279.886 256.489 280.132 256.841C280.377 257.193 280.292 257.674 279.942 257.92C279.503 258.223 279.05 258.516 278.587 258.785C278.463 258.86 278.33 258.891 278.192 258.891V258.891ZM262.181 260.606C262.102 260.606 262.021 260.594 261.943 260.572C261.435 260.406 260.929 260.22 260.433 260.013C260.037 259.843 259.852 259.394 260.016 258.998C260.178 258.603 260.633 258.417 261.03 258.579C261.487 258.773 261.952 258.943 262.424 259.097C262.831 259.228 263.051 259.665 262.921 260.072C262.812 260.402 262.509 260.606 262.181 260.606V260.606ZM272.443 261.132C272.088 261.132 271.769 260.883 271.69 260.519C271.599 260.105 271.862 259.689 272.28 259.599C272.762 259.495 273.244 259.37 273.717 259.224C274.138 259.101 274.562 259.334 274.684 259.744C274.81 260.155 274.575 260.586 274.166 260.709C273.652 260.863 273.13 260.998 272.608 261.112C272.554 261.124 272.499 261.132 272.443 261.132V261.132ZM268.277 261.575C267.737 261.575 267.202 261.555 266.666 261.51C266.242 261.48 265.922 261.108 265.958 260.681C265.991 260.254 266.367 259.939 266.792 259.971C267.284 260.009 267.779 260.025 268.277 260.025C268.706 260.025 269.051 260.374 269.051 260.8C269.051 261.231 268.706 261.575 268.277 261.575Z" fill="#0B0A15"/>
<path d="M76.4766 207.501C70.5893 207.501 64.7807 209.059 59.6786 212.002C49.316 217.984 42.8786 229.134 42.8786 241.095C42.8786 253.063 49.316 264.211 59.6786 270.193C64.7807 273.137 70.5893 274.698 76.4766 274.698C82.3678 274.698 88.1759 273.137 93.2742 270.193C103.639 264.211 110.072 253.063 110.072 241.095C110.072 229.134 103.639 217.984 93.2742 212.002C88.1759 209.059 82.3678 207.501 76.4766 207.501ZM76.4766 277.796C70.0431 277.796 63.7004 276.092 58.1306 272.876C46.8115 266.345 39.7788 254.166 39.7788 241.095C39.7788 228.027 46.8115 215.85 58.1306 209.317C63.7004 206.102 70.0431 204.401 76.4766 204.401C82.9102 204.401 89.2524 206.102 94.8241 209.317C106.144 215.854 113.172 228.027 113.172 241.095C113.172 254.166 106.144 266.341 94.8241 272.876C89.2524 276.092 82.9102 277.796 76.4766 277.796" fill="#0B0A15"/>
<path d="M78.3003 222.349C78.2741 222.349 78.2517 222.349 78.2274 222.345C77.7341 222.302 77.2423 222.278 76.7407 222.27C76.3158 222.266 75.974 221.914 75.9759 221.487C75.9818 221.06 76.3561 220.724 76.7587 220.72C77.2991 220.728 77.8351 220.757 78.3653 220.803C78.7921 220.844 79.1058 221.218 79.067 221.645C79.0305 222.045 78.695 222.349 78.3003 222.349V222.349ZM70.6451 223.17C70.3149 223.17 70.0095 222.958 69.9066 222.626C69.7789 222.22 70.0056 221.785 70.4164 221.657C70.9262 221.495 71.4419 221.358 71.9658 221.234C72.3931 221.139 72.7995 221.4 72.8947 221.815C72.9898 222.234 72.733 222.648 72.3139 222.744C71.8303 222.859 71.3491 222.988 70.8777 223.136C70.7985 223.158 70.7199 223.17 70.6451 223.17V223.17ZM84.2808 223.862C84.1774 223.862 84.0744 223.842 83.9754 223.8C83.518 223.605 83.0567 223.427 82.5872 223.269C82.1808 223.132 81.9642 222.693 82.0997 222.286C82.2352 221.88 82.6785 221.661 83.0829 221.801C83.5908 221.972 84.0905 222.163 84.5862 222.377C84.9809 222.543 85.163 223 84.9931 223.393C84.8654 223.684 84.5804 223.862 84.2808 223.862ZM65.1196 225.918C64.8811 225.918 64.6423 225.802 64.4908 225.594C64.2436 225.246 64.3247 224.759 64.6728 224.514C65.1074 224.202 65.5546 223.907 66.0202 223.63C66.38 223.411 66.8598 223.531 67.0802 223.895C67.3006 224.265 67.1831 224.74 66.8132 224.957C66.3864 225.213 65.9736 225.487 65.5711 225.774C65.4352 225.869 65.2774 225.918 65.1196 225.918V225.918ZM89.4966 227.158C89.3145 227.158 89.1324 227.095 88.9843 226.968C88.6143 226.64 88.2259 226.324 87.8311 226.023C87.4874 225.766 87.4184 225.284 87.6733 224.941C87.9345 224.596 88.4201 224.534 88.76 224.787C89.1887 225.106 89.6058 225.446 90.0083 225.802C90.3278 226.084 90.3603 226.573 90.0768 226.893C89.9234 227.071 89.7126 227.158 89.4966 227.158V227.158ZM60.7253 230.247C60.5656 230.247 60.4058 230.197 60.2665 230.098C59.9222 229.845 59.8494 229.359 60.1043 229.015C60.4199 228.58 60.7559 228.161 61.1118 227.755C61.3891 227.431 61.8809 227.398 62.2024 227.68C62.5243 227.959 62.5607 228.451 62.2791 228.775C61.9513 229.148 61.644 229.533 61.3507 229.932C61.1987 230.138 60.9642 230.247 60.7253 230.247V230.247ZM93.4315 231.912C93.1683 231.912 92.9114 231.777 92.7638 231.536C92.5109 231.109 92.2419 230.686 91.9564 230.284C91.7097 229.932 91.7966 229.446 92.1447 229.201C92.4924 228.957 92.9804 229.044 93.2251 229.394C93.5305 229.833 93.8218 230.284 94.0971 230.741C94.3176 231.109 94.1962 231.582 93.8277 231.805C93.7024 231.876 93.5669 231.912 93.4315 231.912V231.912ZM57.8829 235.72C57.7999 235.72 57.7193 235.71 57.6382 235.685C57.2318 235.545 57.0152 235.109 57.1488 234.7C57.3207 234.194 57.511 233.688 57.7193 233.195C57.8892 232.805 58.3403 232.622 58.737 232.788C59.1274 232.954 59.3134 233.409 59.1434 233.804C58.9511 234.259 58.7754 234.724 58.6176 235.192C58.5103 235.515 58.2068 235.72 57.8829 235.72V235.72ZM95.7072 237.645C95.3533 237.645 95.0318 237.399 94.9488 237.041C94.8415 236.557 94.7138 236.076 94.5681 235.606C94.4428 235.196 94.6715 234.761 95.0823 234.638C95.4887 234.508 95.9238 234.74 96.0471 235.147C96.2049 235.657 96.3447 236.179 96.4642 236.705C96.555 237.12 96.2942 237.534 95.8772 237.629C95.8208 237.642 95.764 237.645 95.7072 237.645V237.645ZM56.8715 241.809H56.8696C56.4384 241.809 56.0927 241.457 56.0966 241.03C56.1005 240.494 56.1272 239.956 56.1714 239.422C56.2097 238.997 56.5923 238.68 57.0109 238.72C57.4357 238.754 57.7538 239.131 57.7149 239.558C57.6746 240.047 57.6503 240.541 57.6465 241.042C57.6445 241.469 57.2983 241.809 56.8715 241.809V241.809ZM96.0898 243.804H96.0151C95.5878 243.761 95.2765 243.381 95.3188 242.956C95.3673 242.465 95.3936 241.971 95.4038 241.469C95.412 241.042 95.7922 240.69 96.1928 240.711C96.6196 240.719 96.9619 241.071 96.9536 241.498C96.9434 242.038 96.9133 242.576 96.8623 243.11C96.822 243.509 96.4822 243.804 96.0898 243.804V243.804ZM57.812 247.911C57.4843 247.911 57.1808 247.701 57.0759 247.369C56.9118 246.859 56.7642 246.341 56.6428 245.821C56.5457 245.402 56.8045 244.986 57.2197 244.888C57.6523 244.793 58.0548 245.05 58.1519 245.465C58.2636 245.951 58.401 246.428 58.5506 246.9C58.6821 247.306 58.4578 247.745 58.049 247.875C57.9698 247.899 57.8912 247.911 57.812 247.911ZM94.5341 249.78C94.4307 249.78 94.3234 249.76 94.2205 249.711C93.8301 249.538 93.6519 249.085 93.8277 248.692C94.0263 248.235 94.204 247.776 94.3681 247.306C94.5118 246.903 94.9488 246.689 95.3552 246.829C95.7577 246.97 95.9704 247.409 95.833 247.816C95.6548 248.326 95.4606 248.823 95.244 249.317C95.1168 249.607 94.8313 249.78 94.5341 249.78V249.78ZM60.5942 253.414C60.3553 253.414 60.1165 253.309 59.965 253.094C59.6494 252.659 59.3537 252.214 59.0745 251.751C58.854 251.389 58.9676 250.909 59.3357 250.689C59.7018 250.47 60.1791 250.585 60.4 250.95C60.6569 251.372 60.9297 251.787 61.2211 252.19C61.4721 252.534 61.393 253.019 61.0492 253.272C60.9074 253.371 60.7496 253.414 60.5942 253.414V253.414ZM91.214 254.976C91.0319 254.976 90.8459 254.913 90.6983 254.781C90.3803 254.498 90.3502 254.007 90.6352 253.687C90.9653 253.317 91.2766 252.936 91.5762 252.538C91.833 252.198 92.3205 252.131 92.6604 252.388C93.0022 252.645 93.0712 253.131 92.8143 253.471C92.4905 253.902 92.1506 254.316 91.7947 254.719C91.6407 254.889 91.4266 254.976 91.214 254.976V254.976ZM64.9399 257.796C64.7797 257.796 64.6199 257.75 64.4825 257.65C64.0455 257.331 63.6289 256.995 63.2201 256.647C62.8962 256.366 62.8559 255.88 63.139 255.556C63.4162 255.229 63.9037 255.192 64.2295 255.47C64.6039 255.793 64.9923 256.103 65.3949 256.398C65.7411 256.647 65.8158 257.133 65.5648 257.48C65.4133 257.687 65.1783 257.796 64.9399 257.796V257.796ZM86.4434 258.891C86.1827 258.891 85.9215 258.757 85.7777 258.512C85.5612 258.14 85.685 257.667 86.0511 257.45C86.4798 257.197 86.9008 256.932 87.3072 256.647C87.6554 256.406 88.1346 256.489 88.3837 256.841C88.6284 257.193 88.5434 257.674 88.1933 257.92C87.7544 258.223 87.3014 258.516 86.8382 258.785C86.7124 258.86 86.5808 258.891 86.4434 258.891ZM70.4324 260.606C70.3538 260.606 70.2727 260.594 70.1935 260.572C69.6861 260.406 69.1802 260.22 68.6845 260.013C68.2878 259.843 68.1037 259.394 68.2659 258.998C68.4295 258.603 68.8806 258.417 69.2793 258.579C69.7386 258.773 70.2037 258.943 70.6733 259.097C71.0821 259.228 71.3006 259.665 71.1729 260.072C71.0617 260.402 70.7582 260.606 70.4324 260.606V260.606ZM80.6935 261.132C80.3396 261.132 80.0181 260.883 79.9409 260.519C79.8501 260.105 80.1133 259.689 80.5299 259.599C81.0135 259.495 81.4947 259.37 81.9681 259.224C82.3852 259.101 82.812 259.334 82.9353 259.744C83.0587 260.155 82.8241 260.586 82.4173 260.709C81.9035 260.863 81.3816 260.998 80.8596 261.112C80.8052 261.124 80.7504 261.132 80.6935 261.132V261.132ZM76.5261 261.575C75.9881 261.575 75.452 261.555 74.9179 261.51C74.4931 261.48 74.1731 261.108 74.2095 260.681C74.2421 260.254 74.6184 259.939 75.0413 259.971C75.5346 260.009 76.0303 260.025 76.5261 260.025C76.9573 260.025 77.301 260.374 77.301 260.8C77.301 261.231 76.9573 261.575 76.5261 261.575" fill="#0B0A15"/>
<path d="M172.465 241.809C172.037 241.809 171.69 241.465 171.69 241.034V74.9641C171.69 74.5374 172.037 74.1892 172.465 74.1892C172.893 74.1892 173.239 74.5374 173.239 74.9641V241.034C173.239 241.465 172.893 241.809 172.465 241.809Z" fill="#0B0A15"/>
<path d="M268.346 241.896C268.217 241.896 268.082 241.86 267.958 241.793L124.138 158.758C123.768 158.541 123.643 158.07 123.857 157.698C124.07 157.33 124.543 157.204 124.913 157.419L268.733 240.454C269.105 240.664 269.23 241.138 269.016 241.51C268.875 241.759 268.611 241.896 268.346 241.896Z" fill="#0B0A15"/>
<path d="M76.5888 241.897C76.3217 241.897 76.0624 241.76 75.9211 241.511C75.7046 241.139 75.8318 240.666 76.2023 240.455L220.02 157.42C220.39 157.204 220.865 157.329 221.08 157.699C221.295 158.071 221.169 158.543 220.794 158.759L76.9748 241.795C76.8558 241.861 76.7223 241.897 76.5888 241.897" fill="#0B0A15"/>
</svg>
