<svg width="400" height="400" viewBox="0 0 400 400" fill="none" xmlns="http://www.w3.org/2000/svg">
<g opacity="0.05">
<g opacity="0.05">
<path opacity="0.05" d="M200.006 313.618C254.95 313.618 304.152 285.21 331.624 237.626C359.095 190.046 359.095 133.231 331.624 85.6532C304.152 38.0658 254.95 9.66079 200.006 9.66079C145.063 9.66079 95.8603 38.0658 68.3886 85.6532C40.9118 133.231 40.9118 190.046 68.3835 237.626C95.8603 285.21 145.063 313.618 200.006 313.618ZM200.006 2.37778C257.581 2.37778 309.143 32.1488 337.931 82.013C366.718 131.872 366.718 191.404 337.931 241.266C309.143 291.132 257.581 320.898 200.006 320.898C142.431 320.898 90.8691 291.132 62.0791 241.266C33.2967 191.404 33.2967 131.872 62.0791 82.013C90.8691 32.1488 142.431 2.37778 200.006 2.37778Z" fill="#0B0A15"/>
</g>
<g opacity="0.05">
<path opacity="0.05" d="M331.623 85.5865L68.3883 85.5865L200.006 313.551L331.623 85.5865ZM65.2336 81.9462L334.778 81.9462C335.427 81.9462 336.026 82.2883 336.353 82.8544C336.678 83.4179 336.678 84.1122 336.353 84.6783L201.583 318.102C200.932 319.227 199.08 319.227 198.429 318.102L63.6562 84.6783C63.3317 84.1122 63.3317 83.4179 63.6562 82.8544C63.9807 82.2883 64.582 81.9462 65.2336 81.9462Z" fill="#0B0A15"/>
</g>
<g opacity="0.05">
<path opacity="0.05" d="M328.472 391.35L200.006 168.847L71.5386 391.35L328.472 391.35ZM200.006 157.924C201.307 157.924 202.51 158.615 203.159 159.745L337.928 393.171C338.578 394.293 338.578 395.682 337.928 396.812C337.279 397.936 336.077 398.633 334.776 398.633L65.2342 398.633C63.931 398.633 62.7335 397.936 62.0794 396.812C61.4304 395.682 61.4304 394.293 62.0794 393.171L196.852 159.745C197.501 158.615 198.703 157.924 200.006 157.924Z" fill="#0B0A15"/>
</g>
<g opacity="0.05">
<path opacity="0.05" d="M198.324 389.305C199.028 389.305 199.697 389.718 199.997 390.402L201.443 393.741C201.843 394.666 201.418 395.741 200.495 396.138C199.567 396.541 198.505 396.11 198.103 395.192L196.656 391.851C196.258 390.926 196.681 389.856 197.602 389.454C197.838 389.356 198.082 389.305 198.324 389.305ZM205.559 380.332C205.803 380.332 206.05 380.382 206.284 380.48C207.207 380.878 207.63 381.952 207.232 382.875L205.783 386.219C205.383 387.134 204.314 387.559 203.391 387.165C202.467 386.767 202.045 385.69 202.442 384.767L203.889 381.426C204.188 380.744 204.86 380.332 205.559 380.332ZM192.538 375.944C193.24 375.944 193.911 376.352 194.208 377.039L195.657 380.382C196.057 381.305 195.635 382.375 194.709 382.777C193.783 383.167 192.716 382.749 192.316 381.829L190.867 378.485C190.47 377.565 190.892 376.49 191.816 376.093C192.052 375.99 192.296 375.944 192.538 375.944ZM211.35 366.968C211.589 366.968 211.836 367.016 212.072 367.119C212.993 367.517 213.418 368.591 213.018 369.512L211.572 372.85C211.172 373.776 210.11 374.201 209.177 373.798C208.253 373.398 207.831 372.327 208.231 371.406L209.677 368.065C209.977 367.378 210.643 366.968 211.35 366.968ZM186.749 362.578C187.456 362.578 188.125 362.988 188.425 363.678L189.871 367.016C190.269 367.937 189.846 369.011 188.925 369.409C187.994 369.806 186.928 369.381 186.53 368.463L185.084 365.122C184.684 364.201 185.106 363.129 186.03 362.729C186.264 362.626 186.513 362.578 186.749 362.578ZM217.136 353.607C217.375 353.607 217.619 353.653 217.858 353.753C218.779 354.156 219.202 355.225 218.804 356.148L217.358 359.487C216.958 360.41 215.894 360.837 214.963 360.432C214.04 360.037 213.617 358.963 214.017 358.04L215.464 354.704C215.763 354.015 216.432 353.607 217.136 353.607ZM180.965 349.212C181.67 349.212 182.339 349.625 182.638 350.309L184.082 353.653C184.482 354.576 184.06 355.65 183.136 356.048C182.206 356.445 181.144 356.02 180.741 355.102L179.297 351.761C178.897 350.835 179.32 349.763 180.243 349.363C180.48 349.263 180.726 349.212 180.965 349.212ZM222.923 340.241C223.164 340.241 223.406 340.289 223.642 340.39C224.565 340.787 224.991 341.861 224.591 342.787L223.144 346.126C222.744 347.046 221.672 347.461 220.749 347.074C219.828 346.671 219.403 345.602 219.803 344.679L221.25 341.336C221.547 340.654 222.218 340.241 222.923 340.241ZM175.179 335.851C175.884 335.851 176.555 336.264 176.85 336.948L178.296 340.289C178.696 341.21 178.269 342.282 177.348 342.682C176.419 343.084 175.353 342.656 174.953 341.733L173.509 338.395C173.111 337.474 173.534 336.4 174.457 336.002C174.691 335.899 174.938 335.851 175.179 335.851ZM228.709 326.88C228.948 326.88 229.194 326.926 229.428 327.029C230.354 327.426 230.777 328.5 230.377 329.421L228.933 332.759C228.535 333.68 227.466 334.103 226.538 333.708C225.614 333.305 225.192 332.236 225.589 331.315L227.036 327.975C227.333 327.288 228.004 326.88 228.709 326.88ZM169.391 322.483C170.092 322.483 170.764 322.898 171.064 323.582L172.51 326.926C172.908 327.846 172.485 328.921 171.562 329.318C170.631 329.723 169.567 329.295 169.169 328.372L167.72 325.029C167.323 324.105 167.745 323.036 168.669 322.634C168.905 322.533 169.149 322.483 169.391 322.483ZM234.497 313.512C234.736 313.512 234.983 313.56 235.219 313.66C236.14 314.063 236.563 315.132 236.165 316.055L234.719 319.398C234.316 320.319 233.255 320.742 232.326 320.344C231.401 319.944 230.978 318.87 231.378 317.952L232.825 314.609C233.124 313.922 233.793 313.512 234.497 313.512ZM163.602 309.124C164.309 309.124 164.978 309.537 165.277 310.219L166.721 313.56C167.121 314.485 166.699 315.554 165.775 315.957C164.85 316.354 163.78 315.929 163.38 315.006L161.936 311.668C161.536 310.744 161.959 309.67 162.882 309.275C163.116 309.172 163.365 309.124 163.602 309.124ZM240.281 300.148C240.523 300.148 240.769 300.201 241.006 300.299C241.926 300.697 242.349 301.771 241.952 302.694L240.505 306.032C240.103 306.953 239.031 307.371 238.11 306.983C237.187 306.581 236.764 305.509 237.164 304.586L238.611 301.245C238.91 300.563 239.579 300.148 240.281 300.148ZM157.816 295.758C158.523 295.758 159.189 296.168 159.489 296.858L160.938 300.201C161.338 301.119 160.913 302.191 159.989 302.593C159.066 302.986 157.997 302.566 157.594 301.643L156.148 298.302C155.75 297.378 156.173 296.309 157.094 295.909C157.333 295.804 157.579 295.758 157.816 295.758ZM246.07 286.785C246.309 286.785 246.553 286.832 246.792 286.933C247.713 287.336 248.138 288.407 247.738 289.326L246.291 292.669C245.894 293.595 244.827 294.02 243.896 293.617C242.975 293.217 242.553 292.146 242.95 291.225L244.397 287.884C244.696 287.195 245.365 286.785 246.07 286.785ZM152.032 282.392C152.736 282.392 153.408 282.807 153.703 283.492L155.149 286.832C155.549 287.756 155.121 288.83 154.203 289.227C153.277 289.625 152.206 289.2 151.806 288.282L150.362 284.941C149.962 284.015 150.384 282.943 151.31 282.543C151.544 282.443 151.791 282.392 152.032 282.392ZM251.856 273.421C252.097 273.421 252.341 273.469 252.575 273.57C253.501 273.97 253.924 275.041 253.524 275.967L252.08 279.305C251.682 280.226 250.616 280.651 249.685 280.251C248.762 279.856 248.339 278.782 248.736 277.856L250.183 274.518C250.48 273.834 251.152 273.421 251.856 273.421ZM146.243 269.031C146.945 269.031 147.619 269.444 147.916 270.128L149.363 273.469C149.76 274.395 149.338 275.464 148.414 275.866C147.486 276.264 146.419 275.836 146.022 274.915L144.573 271.58C144.175 270.654 144.598 269.582 145.521 269.182C145.755 269.082 146.002 269.031 146.243 269.031ZM257.645 260.06C257.884 260.06 258.13 260.105 258.367 260.209C259.287 260.606 259.71 261.68 259.315 262.601L257.866 265.944C257.464 266.865 256.399 267.288 255.471 266.893C254.548 266.49 254.125 265.421 254.525 264.498L255.972 261.154C256.271 260.468 256.94 260.06 257.645 260.06ZM140.455 255.668C141.157 255.668 141.831 256.078 142.13 256.765L143.574 260.105C143.974 261.024 143.552 262.1 142.626 262.498C141.697 262.895 140.631 262.47 140.233 261.552L138.789 258.209C138.387 257.288 138.809 256.219 139.733 255.816C139.969 255.713 140.213 255.668 140.455 255.668ZM263.431 246.694C263.672 246.694 263.916 246.739 264.153 246.845C265.074 247.245 265.499 248.317 265.099 249.235L263.652 252.578C263.252 253.499 262.191 253.927 261.26 253.524C260.334 253.124 259.911 252.05 260.311 251.132L261.758 247.793C262.055 247.102 262.726 246.694 263.431 246.694ZM134.666 242.302C135.375 242.302 136.042 242.714 136.341 243.401L137.788 246.739C138.191 247.665 137.768 248.739 136.84 249.137C135.914 249.534 134.85 249.109 134.445 248.191L133.001 244.848C132.603 243.924 133.026 242.855 133.949 242.45C134.186 242.352 134.432 242.302 134.666 242.302ZM269.214 233.331C269.456 233.331 269.703 233.378 269.939 233.479C270.86 233.876 271.285 234.951 270.885 235.874L269.438 239.217C269.038 240.133 267.967 240.558 267.043 240.163C266.123 239.763 265.7 238.689 266.097 237.766L267.544 234.425C267.843 233.741 268.513 233.331 269.214 233.331ZM128.882 228.943C129.587 228.943 130.258 229.351 130.555 230.038L131.999 233.378C132.402 234.304 131.974 235.373 131.051 235.776C130.133 236.176 129.056 235.746 128.658 234.822L127.212 231.482C126.814 230.558 127.237 229.489 128.16 229.092C128.397 228.988 128.643 228.943 128.882 228.943ZM275.003 219.967C275.242 219.967 275.489 220.015 275.725 220.118C276.648 220.515 277.071 221.59 276.671 222.51L275.227 225.849C274.827 226.772 273.755 227.195 272.832 226.797C271.909 226.397 271.489 225.326 271.884 224.405L273.33 221.064C273.627 220.377 274.299 219.967 275.003 219.967ZM123.096 215.577C123.798 215.577 124.472 215.985 124.767 216.676L126.216 220.015C126.613 220.936 126.191 222.01 125.267 222.407C124.334 222.807 123.272 222.382 122.875 221.461L121.426 218.121C121.026 217.197 121.448 216.128 122.374 215.726C122.608 215.622 122.855 215.577 123.096 215.577ZM280.792 206.601C281.031 206.601 281.277 206.651 281.514 206.749C282.437 207.152 282.86 208.221 282.462 209.144L281.016 212.485C280.613 213.406 279.552 213.831 278.618 213.431C277.695 213.036 277.272 211.962 277.672 211.041L279.119 207.698C279.418 207.014 280.087 206.601 280.792 206.601ZM117.308 202.211C118.009 202.211 118.684 202.624 118.983 203.308L120.427 206.651C120.825 207.575 120.402 208.646 119.479 209.046C118.55 209.446 117.489 209.016 117.086 208.1L115.642 204.76C115.24 203.834 115.662 202.76 116.586 202.362C116.822 202.261 117.066 202.211 117.308 202.211ZM286.578 193.238C286.817 193.238 287.064 193.288 287.3 193.388C288.221 193.786 288.643 194.86 288.248 195.786L286.799 199.124C286.397 200.045 285.325 200.463 284.407 200.07C283.481 199.67 283.058 198.601 283.458 197.678L284.905 194.334C285.204 193.653 285.874 193.238 286.578 193.238ZM111.524 188.85C112.226 188.85 112.895 189.26 113.194 189.947L114.638 193.288C115.043 194.209 114.621 195.28 113.69 195.68C112.767 196.075 111.7 195.655 111.297 194.732L109.853 191.393C109.456 190.473 109.879 189.399 110.802 189.001C111.038 188.895 111.282 188.85 111.524 188.85ZM292.364 179.874C292.606 179.874 292.85 179.919 293.086 180.025C294.007 180.425 294.432 181.494 294.032 182.417L292.586 185.758C292.188 186.684 291.124 187.109 290.193 186.707C289.27 186.307 288.847 185.235 289.245 184.314L290.691 180.973C290.991 180.282 291.662 179.874 292.364 179.874ZM105.735 175.482C106.44 175.482 107.111 175.897 107.406 176.583L108.852 179.927C109.255 180.848 108.827 181.919 107.904 182.317C106.983 182.714 105.914 182.292 105.509 181.371L104.065 178.027C103.667 177.104 104.09 176.035 105.013 175.63C105.25 175.532 105.496 175.482 105.735 175.482ZM298.15 166.508C298.389 166.508 298.638 166.558 298.872 166.659C299.796 167.059 300.218 168.131 299.818 169.054L298.374 172.397C297.977 173.313 296.91 173.738 295.979 173.343C295.058 172.943 294.636 171.869 295.031 170.946L296.477 167.607C296.774 166.921 297.446 166.508 298.15 166.508ZM99.9491 162.123C100.651 162.123 101.323 162.533 101.619 163.215L103.069 166.558C103.466 167.484 103.043 168.553 102.12 168.956C101.192 169.353 100.125 168.926 99.7277 168.005L98.2761 164.666C97.8786 163.743 98.3012 162.669 99.2245 162.269C99.461 162.171 99.7075 162.123 99.9491 162.123ZM303.936 153.147C304.178 153.147 304.425 153.197 304.661 153.298C305.584 153.695 306.007 154.77 305.609 155.693L304.163 159.031C303.758 159.952 302.686 160.375 301.768 159.982C300.842 159.58 300.419 158.508 300.819 157.585L302.266 154.241C302.565 153.562 303.235 153.147 303.936 153.147ZM94.1604 148.757C94.8673 148.757 95.5365 149.165 95.8358 149.856L97.2799 153.197C97.6773 154.118 97.2547 155.187 96.3314 155.592C95.4082 155.985 94.3365 155.565 93.939 154.641L92.495 151.3C92.0899 150.377 92.5126 149.308 93.4383 148.905C93.6723 148.802 93.9189 148.757 94.1604 148.757ZM309.725 139.781C309.964 139.781 310.211 139.831 310.447 139.932C311.37 140.334 311.793 141.404 311.396 142.324L309.949 145.668C309.547 146.588 308.485 147.011 307.552 146.614C306.628 146.216 306.206 145.142 306.606 144.219L308.052 140.883C308.352 140.193 309.021 139.781 309.725 139.781ZM88.3717 135.391C89.0786 135.391 89.7478 135.804 90.0472 136.49L91.4912 139.831C91.8937 140.754 91.4711 141.826 90.5478 142.226C89.6195 142.621 88.5528 142.196 88.1503 141.28L86.7063 137.939C86.3088 137.016 86.7314 135.942 87.6547 135.542C87.8912 135.441 88.1352 135.391 88.3717 135.391ZM315.511 126.42C315.753 126.42 315.997 126.468 316.233 126.568C317.154 126.971 317.579 128.038 317.182 128.963L315.733 132.304C315.333 133.222 314.266 133.65 313.34 133.253C312.417 132.855 311.994 131.781 312.392 130.855L313.838 127.517C314.138 126.83 314.807 126.42 315.511 126.42ZM82.588 122.03C83.2899 122.03 83.9641 122.44 84.2585 123.124L85.7075 126.468C86.1075 127.393 85.6849 128.46 84.7591 128.865C83.8258 129.258 82.7641 128.835 82.3667 127.917L80.9176 124.576C80.5201 123.653 80.9428 122.578 81.866 122.181C82.1025 122.075 82.3465 122.03 82.588 122.03ZM321.297 113.056C321.539 113.056 321.786 113.102 322.019 113.207C322.943 113.602 323.365 114.679 322.965 115.6L321.519 118.943C321.121 119.861 320.057 120.289 319.126 119.892C318.203 119.489 317.78 118.417 318.178 117.494L319.625 114.153C319.924 113.466 320.596 113.056 321.297 113.056ZM76.7994 108.664C77.5038 108.664 78.1755 109.077 78.4698 109.766L79.9214 113.102C80.3189 114.022 79.8962 115.099 78.9729 115.494C78.0396 115.897 76.978 115.469 76.578 114.551L75.1289 111.207C74.7314 110.287 75.1541 109.217 76.0774 108.817C76.3138 108.714 76.5604 108.664 76.7994 108.664ZM327.086 99.6929C327.325 99.6929 327.572 99.7356 327.808 99.8413C328.731 100.244 329.154 101.313 328.757 102.236L327.31 105.577C326.908 106.498 325.848 106.921 324.915 106.523C323.992 106.126 323.569 105.051 323.967 104.131L325.416 100.792C325.713 100.1 326.382 99.6929 327.086 99.6929ZM71.0132 95.3004C71.7201 95.3004 72.3868 95.713 72.6887 96.3948L74.1327 99.7356C74.5302 100.661 74.1075 101.736 73.1843 102.136C72.256 102.533 71.1943 102.108 70.7918 101.19L69.3453 97.8463C68.9428 96.9205 69.3654 95.8514 70.2937 95.4488C70.5251 95.3507 70.7717 95.3004 71.0132 95.3004ZM332.87 86.3268C333.111 86.3268 333.358 86.3771 333.594 86.4753C334.518 86.8727 334.94 87.9495 334.543 88.8727L333.096 92.2136C332.694 93.1344 331.622 93.5495 330.701 93.162C329.775 92.762 329.353 91.6878 329.753 90.7646L331.199 87.4237C331.499 86.7394 332.168 86.3268 332.87 86.3268ZM65.2295 81.9394C65.9314 81.9394 66.6006 82.347 66.9 83.0363L68.344 86.3771C68.7465 87.2979 68.3239 88.3671 67.4006 88.7696C66.4723 89.1646 65.4057 88.7444 65.0031 87.8212L63.5591 84.4828C63.1591 83.562 63.5817 82.4878 64.5075 82.0878C64.7415 81.9872 64.988 81.9394 65.2295 81.9394Z" fill="#0B0A15"/>
</g>
<g opacity="0.05">
<path opacity="0.05" d="M333.33 389.895C334.032 389.895 334.701 390.31 335 390.992L336.447 394.333C336.844 395.256 336.422 396.328 335.501 396.728C334.57 397.12 333.504 396.703 333.106 395.779L331.657 392.441C331.26 391.518 331.682 390.444 332.605 390.046C332.842 389.948 333.086 389.895 333.33 389.895ZM68.5803 385.505C68.8193 385.505 69.0709 385.551 69.3024 385.654C70.2256 386.056 70.6483 387.128 70.2508 388.049L68.8067 391.39C68.4017 392.313 67.3325 392.733 66.4068 392.34C65.4885 391.938 65.0659 390.866 65.4634 389.948L66.9099 386.605C67.2093 385.913 67.8759 385.505 68.5803 385.505ZM327.541 376.532C328.246 376.532 328.915 376.942 329.212 377.631L330.658 380.972C331.058 381.893 330.636 382.964 329.712 383.364C328.782 383.759 327.72 383.337 327.317 382.413L325.871 379.073C325.473 378.152 325.896 377.083 326.819 376.68C327.056 376.579 327.302 376.532 327.541 376.532ZM74.3665 372.139C74.608 372.139 74.8545 372.189 75.091 372.29C76.0143 372.69 76.4369 373.762 76.0394 374.688L74.5879 378.028C74.1904 378.944 73.1288 379.367 72.1954 378.974C71.2722 378.574 70.8495 377.503 71.247 376.579L72.6961 373.239C72.9929 372.552 73.6646 372.139 74.3665 372.139ZM321.753 363.166C322.457 363.166 323.129 363.581 323.426 364.265L324.875 367.606C325.272 368.529 324.847 369.603 323.926 370.001C322.998 370.398 321.934 369.973 321.531 369.055L320.085 365.714C319.687 364.788 320.11 363.717 321.033 363.317C321.27 363.216 321.514 363.166 321.753 363.166ZM80.1552 358.778C80.3967 358.778 80.6432 358.826 80.8772 358.929C81.803 359.327 82.2256 360.401 81.8256 361.322L80.3816 364.662C79.9791 365.583 78.9174 366.008 77.9841 365.613C77.0608 365.211 76.6382 364.139 77.0357 363.216L78.4847 359.873C78.7841 359.188 79.4533 358.778 80.1552 358.778ZM315.967 349.805C316.668 349.805 317.34 350.215 317.639 350.901L319.086 354.242C319.483 355.168 319.061 356.237 318.138 356.64C317.212 357.03 316.143 356.61 315.743 355.689L314.299 352.348C313.899 351.427 314.321 350.353 315.244 349.956C315.481 349.852 315.725 349.805 315.967 349.805ZM85.9439 345.415C86.1854 345.415 86.4294 345.46 86.6659 345.563C87.5841 345.966 88.0118 347.035 87.6143 347.956L86.1652 351.299C85.7678 352.217 84.7011 352.642 83.7728 352.245C82.8495 351.845 82.4269 350.771 82.8244 349.852L84.2684 346.512C84.5678 345.822 85.242 345.415 85.9439 345.415ZM310.18 336.441C310.885 336.441 311.554 336.849 311.853 337.538L313.3 340.879C313.697 341.797 313.275 342.871 312.354 343.271C311.421 343.674 310.356 343.246 309.956 342.325L308.51 338.982C308.112 338.061 308.535 336.992 309.458 336.589C309.692 336.486 309.941 336.441 310.18 336.441ZM91.7275 332.051C91.969 332.051 92.2181 332.099 92.4495 332.197C93.3728 332.602 93.7954 333.671 93.3979 334.595L91.9539 337.938C91.5564 338.854 90.4898 339.281 89.5564 338.884C88.6357 338.484 88.213 337.412 88.613 336.486L90.0571 333.148C90.3564 332.461 91.0256 332.051 91.7275 332.051ZM304.394 323.075C305.099 323.075 305.765 323.49 306.067 324.172L307.511 327.513C307.911 328.436 307.489 329.513 306.565 329.91C305.634 330.31 304.57 329.88 304.17 328.964L302.724 325.621C302.326 324.698 302.749 323.623 303.67 323.226C303.909 323.125 304.153 323.075 304.394 323.075ZM97.5162 318.69C97.7552 318.69 98.0017 318.735 98.2382 318.839C99.1615 319.236 99.5841 320.308 99.1866 321.231L97.7376 324.569C97.3325 325.493 96.2634 325.913 95.3426 325.52C94.4193 325.115 93.9967 324.046 94.3942 323.125L95.8457 319.784C96.1401 319.098 96.8118 318.69 97.5162 318.69ZM298.605 309.714C299.31 309.714 299.982 310.124 300.278 310.808L301.725 314.152C302.125 315.073 301.7 316.144 300.779 316.544C299.848 316.942 298.787 316.517 298.384 315.593L296.938 312.257C296.54 311.337 296.963 310.262 297.886 309.865C298.122 309.762 298.367 309.714 298.605 309.714ZM103.302 305.324C103.544 305.324 103.79 305.369 104.027 305.473C104.95 305.875 105.373 306.944 104.975 307.867L103.529 311.208C103.131 312.129 102.06 312.552 101.131 312.154C100.208 311.754 99.7854 310.683 100.183 309.762L101.632 306.423C101.929 305.732 102.595 305.324 103.302 305.324ZM292.822 296.345C293.526 296.345 294.195 296.761 294.492 297.447L295.939 300.791C296.336 301.712 295.914 302.783 294.99 303.178C294.067 303.586 292.995 303.156 292.598 302.232L291.151 298.894C290.751 297.966 291.177 296.896 292.1 296.496C292.336 296.396 292.58 296.345 292.822 296.345ZM109.091 291.958C109.333 291.958 109.579 292.008 109.813 292.109C110.734 292.509 111.156 293.581 110.761 294.506L109.312 297.847C108.915 298.763 107.853 299.191 106.92 298.793C105.997 298.393 105.574 297.322 105.972 296.396L107.416 293.055C107.715 292.371 108.389 291.958 109.091 291.958ZM287.036 282.984C287.735 282.984 288.407 283.397 288.706 284.081L290.153 287.422C290.55 288.348 290.128 289.417 289.204 289.82C288.278 290.21 287.209 289.79 286.809 288.869L285.363 285.533C284.965 284.605 285.388 283.533 286.311 283.135C286.545 283.035 286.792 282.984 287.036 282.984ZM114.875 278.597C115.116 278.597 115.36 278.645 115.597 278.745C116.52 279.145 116.943 280.22 116.545 281.14L115.101 284.479C114.699 285.402 113.637 285.827 112.704 285.427C111.785 285.027 111.363 283.956 111.76 283.035L113.204 279.691C113.504 279.007 114.173 278.597 114.875 278.597ZM281.244 269.621C281.951 269.621 282.618 270.028 282.917 270.718L284.367 274.061C284.764 274.982 284.341 276.051 283.418 276.454C282.485 276.856 281.423 276.428 281.023 275.505L279.577 272.162C279.179 271.241 279.602 270.172 280.522 269.769C280.761 269.666 281.005 269.621 281.244 269.621ZM120.663 265.228C120.905 265.228 121.149 265.279 121.385 265.377C122.309 265.782 122.731 266.851 122.334 267.774L120.885 271.118C120.487 272.039 119.426 272.466 118.492 272.064C117.566 271.664 117.144 270.592 117.544 269.669L118.993 266.328C119.287 265.641 119.961 265.228 120.663 265.228ZM275.461 256.255C276.163 256.255 276.832 256.667 277.131 257.354L278.578 260.693C278.978 261.616 278.555 262.69 277.632 263.09C276.701 263.485 275.637 263.06 275.237 262.144L273.79 258.801C273.393 257.878 273.816 256.808 274.736 256.403C274.975 256.305 275.219 256.255 275.461 256.255ZM126.452 251.87C126.691 251.87 126.938 251.918 127.174 252.018C128.092 252.416 128.52 253.49 128.122 254.413L126.676 257.752C126.273 258.673 125.207 259.1 124.278 258.7C123.355 258.3 122.933 257.231 123.33 256.305L124.777 252.962C125.076 252.28 125.743 251.87 126.452 251.87ZM269.672 242.894C270.379 242.894 271.048 243.304 271.345 243.988L272.792 247.332C273.189 248.255 272.767 249.327 271.843 249.729C270.92 250.127 269.848 249.699 269.448 248.776L268.004 245.432C267.607 244.512 268.029 243.442 268.953 243.042C269.189 242.942 269.433 242.894 269.672 242.894ZM132.238 238.504C132.48 238.504 132.726 238.549 132.963 238.652C133.881 239.055 134.304 240.124 133.909 241.047L132.46 244.388C132.057 245.312 130.985 245.732 130.067 245.339C129.144 244.934 128.721 243.865 129.119 242.944L130.563 239.603C130.865 238.912 131.536 238.504 132.238 238.504ZM263.886 229.528C264.588 229.528 265.26 229.938 265.559 230.627L267.005 233.966C267.403 234.889 266.98 235.963 266.057 236.358C265.131 236.761 264.062 236.335 263.665 235.412L262.216 232.071C261.818 231.151 262.241 230.081 263.164 229.679C263.4 229.576 263.644 229.528 263.886 229.528ZM138.022 225.138C138.263 225.138 138.51 225.188 138.744 225.289C139.67 225.689 140.09 226.761 139.692 227.684L138.248 231.027C137.846 231.943 136.779 232.371 135.851 231.973C134.933 231.573 134.51 230.501 134.902 229.576L136.351 226.237C136.651 225.551 137.32 225.138 138.022 225.138ZM258.097 216.164C258.802 216.164 259.471 216.577 259.77 217.261L261.217 220.602C261.617 221.528 261.194 222.6 260.268 222.997C259.34 223.397 258.278 222.969 257.876 222.051L256.429 218.71C256.032 217.784 256.455 216.715 257.375 216.315C257.612 216.215 257.858 216.164 258.097 216.164ZM143.811 211.777C144.052 211.777 144.296 211.822 144.533 211.928C145.456 212.328 145.878 213.4 145.481 214.318L144.032 217.661C143.634 218.582 142.568 219.01 141.639 218.612C140.716 218.207 140.294 217.14 140.691 216.215L142.14 212.874C142.434 212.184 143.109 211.777 143.811 211.777ZM252.311 202.803C253.016 202.803 253.685 203.211 253.984 203.9L255.433 207.241C255.831 208.162 255.408 209.231 254.485 209.634C253.551 210.028 252.49 209.606 252.09 208.685L250.643 205.347C250.246 204.423 250.668 203.352 251.589 202.954C251.828 202.849 252.072 202.803 252.311 202.803ZM149.599 198.413C149.838 198.413 150.085 198.459 150.321 198.562C151.242 198.964 151.665 200.034 151.27 200.954L149.826 204.298C149.423 205.216 148.361 205.649 147.428 205.244C146.502 204.846 146.08 203.769 146.482 202.849L147.926 199.51C148.223 198.821 148.895 198.413 149.599 198.413ZM246.528 189.44C247.232 189.44 247.901 189.847 248.198 190.537L249.644 193.878C250.042 194.796 249.619 195.87 248.696 196.27C247.773 196.665 246.701 196.242 246.301 195.324L244.857 191.981C244.457 191.06 244.882 189.991 245.803 189.588C246.042 189.485 246.286 189.44 246.528 189.44ZM155.388 185.047C155.627 185.047 155.871 185.098 156.11 185.196C157.031 185.596 157.453 186.67 157.058 187.593L155.607 190.937C155.204 191.852 154.143 192.285 153.214 191.883C152.291 191.483 151.868 190.411 152.266 189.485L153.715 186.142C154.012 185.46 154.683 185.047 155.388 185.047ZM240.739 176.074C241.441 176.074 242.112 176.486 242.412 177.168L243.858 180.512C244.256 181.435 243.833 182.509 242.91 182.909C241.979 183.304 240.915 182.879 240.515 181.963L239.068 178.62C238.671 177.696 239.094 176.622 240.017 176.222C240.251 176.124 240.497 176.074 240.739 176.074ZM161.169 171.689C161.413 171.689 161.66 171.734 161.894 171.835C162.819 172.235 163.242 173.309 162.839 174.23L161.395 177.568C160.993 178.491 159.921 178.912 159 178.517C158.08 178.114 157.657 177.045 158.052 176.124L159.499 172.781C159.798 172.096 160.467 171.689 161.169 171.689ZM234.95 162.713C235.655 162.713 236.324 163.123 236.623 163.807L238.07 167.151C238.47 168.071 238.047 169.14 237.121 169.543C236.195 169.945 235.129 169.518 234.729 168.595L233.28 165.256C232.885 164.335 233.307 163.261 234.228 162.861C234.465 162.761 234.711 162.713 234.95 162.713ZM166.958 158.318C167.199 158.318 167.446 158.368 167.68 158.469C168.603 158.869 169.026 159.938 168.628 160.864L167.179 164.207C166.782 165.128 165.715 165.551 164.787 165.153C163.863 164.753 163.441 163.681 163.838 162.761L165.285 159.417C165.584 158.73 166.256 158.318 166.958 158.318ZM229.164 149.344C229.868 149.344 230.538 149.757 230.837 150.444L232.283 153.784C232.683 154.708 232.261 155.779 231.338 156.177C230.407 156.579 229.345 156.154 228.943 155.231L227.496 151.89C227.096 150.964 227.521 149.895 228.442 149.493C228.678 149.395 228.925 149.344 229.164 149.344ZM172.746 144.957C172.985 144.957 173.232 145.007 173.468 145.108C174.389 145.503 174.812 146.579 174.417 147.503L172.973 150.841C172.57 151.762 171.504 152.19 170.575 151.792C169.65 151.39 169.229 150.32 169.629 149.395L171.073 146.054C171.37 145.369 172.042 144.957 172.746 144.957ZM223.378 135.986C224.085 135.986 224.754 136.396 225.051 137.08L226.497 140.418C226.892 141.347 226.47 142.416 225.549 142.816C224.621 143.216 223.554 142.791 223.154 141.87L221.71 138.532C221.31 137.603 221.735 136.532 222.656 136.132C222.895 136.034 223.139 135.986 223.378 135.986ZM178.533 131.598C178.774 131.598 179.018 131.641 179.257 131.744C180.178 132.142 180.6 133.218 180.206 134.137L178.756 137.478C178.354 138.401 177.292 138.828 176.361 138.428C175.438 138.023 175.016 136.954 175.416 136.034L176.862 132.69C177.159 132.006 177.831 131.598 178.533 131.598ZM217.592 122.62C218.294 122.62 218.965 123.027 219.265 123.719L220.711 127.06C221.109 127.981 220.686 129.05 219.763 129.452C218.834 129.847 217.768 129.422 217.368 128.501L215.921 125.161C215.521 124.24 215.944 123.171 216.87 122.768C217.104 122.665 217.35 122.62 217.592 122.62ZM184.321 118.227C184.56 118.227 184.807 118.278 185.041 118.376C185.964 118.778 186.389 119.85 185.989 120.773L184.543 124.114C184.14 125.032 183.073 125.46 182.145 125.062C181.227 124.665 180.804 123.588 181.199 122.665L182.648 119.327C182.948 118.64 183.614 118.227 184.321 118.227ZM211.803 109.256C212.507 109.256 213.177 109.666 213.476 110.351L214.922 113.691C215.322 114.617 214.9 115.686 213.974 116.089C213.043 116.484 211.982 116.059 211.579 115.143L210.133 111.802C209.738 110.876 210.16 109.807 211.081 109.402C211.317 109.304 211.564 109.256 211.803 109.256ZM190.105 104.866C190.346 104.866 190.593 104.917 190.827 105.015C191.753 105.412 192.175 106.489 191.775 107.412L190.326 110.751C189.929 111.674 188.867 112.099 187.934 111.699C187.011 111.299 186.588 110.23 186.985 109.304L188.432 105.961C188.729 105.281 189.403 104.866 190.105 104.866ZM206.017 95.8901C206.719 95.8901 207.39 96.3027 207.69 96.987L209.136 100.33C209.536 101.254 209.114 102.323 208.188 102.725C207.26 103.118 206.195 102.695 205.795 101.777L204.346 98.4361C203.951 97.5153 204.374 96.4411 205.295 96.0436C205.531 95.9379 205.775 95.8901 206.017 95.8901ZM195.891 91.5027C196.133 91.5027 196.379 91.548 196.616 91.6511C197.536 92.0536 197.959 93.1228 197.564 94.0436L196.115 97.387C195.712 98.3103 194.641 98.7304 193.722 98.3329C192.799 97.9354 192.377 96.8637 192.774 95.9404L194.221 92.5996C194.517 91.9103 195.189 91.5027 195.891 91.5027ZM200.231 82.5266C200.935 82.5266 201.604 82.9392 201.904 83.626L203.35 86.9643C203.748 87.8876 203.325 88.9593 202.404 89.3568C201.471 89.7568 200.409 89.3316 200.009 88.4134L198.563 85.0725C198.163 84.1493 198.588 83.0826 199.509 82.6776C199.745 82.5744 199.992 82.5266 200.231 82.5266Z" fill="#0B0A15"/>
</g>
<g opacity="0.05">
<path opacity="0.05" d="M200.009 2.334C202.019 2.334 203.65 3.96167 203.65 5.97425L203.65 161.594C203.65 163.602 202.019 165.235 200.009 165.235C197.999 165.235 196.369 163.602 196.369 161.594L196.369 5.97425C196.369 3.96167 197.999 2.334 200.009 2.334Z" fill="#0B0A15"/>
</g>
</g>
<path d="M200.008 276.733C237.044 276.733 270.209 257.583 288.727 225.507C307.246 193.437 307.246 155.14 288.727 123.067C270.209 90.9918 237.044 71.8446 200.008 71.8446C162.971 71.8446 129.804 90.9918 111.291 123.067C92.7726 155.14 92.7726 193.437 111.286 225.507C129.804 257.583 162.971 276.733 200.008 276.733ZM200.008 66.9364C238.818 66.9364 273.573 87.0043 292.979 120.617C312.383 154.224 312.383 194.353 292.979 227.963C273.573 261.575 238.818 281.641 200.008 281.641C161.198 281.641 126.443 261.575 107.034 227.963C87.633 194.353 87.633 154.224 107.034 120.617C126.443 87.0043 161.198 66.9364 200.008 66.9364Z" fill="#0B0A15"/>
<path d="M288.725 122.974L111.289 122.974L200.006 276.639L288.725 122.974ZM109.163 120.521L290.851 120.521C291.291 120.521 291.694 120.752 291.915 121.135C292.132 121.512 292.132 121.98 291.915 122.36L201.07 279.706C200.63 280.463 199.382 280.463 198.944 279.706L108.102 122.36C107.88 121.98 107.88 121.512 108.102 121.135C108.318 120.752 108.725 120.521 109.163 120.521Z" fill="#0B0A15"/>
<path d="M286.595 329.271L200.001 179.289L113.405 329.271H286.595ZM200.001 171.928C200.877 171.928 201.69 172.393 202.127 173.153L292.97 330.499C293.408 331.256 293.408 332.192 292.97 332.952C292.532 333.712 291.722 334.18 290.844 334.18H109.156C108.276 334.18 107.471 333.712 107.028 332.952C106.59 332.192 106.59 331.256 107.028 330.499L197.873 173.153C198.313 172.393 199.123 171.928 200.001 171.928Z" fill="#0B0A15"/>
<path d="M198.874 327.715C199.347 327.715 199.8 327.992 200.001 328.455L200.978 330.704C201.247 331.33 200.96 332.052 200.339 332.321C199.712 332.591 198.995 332.301 198.724 331.682L197.75 329.431C197.481 328.807 197.768 328.085 198.389 327.816C198.547 327.748 198.713 327.715 198.874 327.715ZM203.752 321.665C203.916 321.665 204.082 321.7 204.24 321.765C204.862 322.035 205.149 322.759 204.879 323.381L203.903 325.635C203.634 326.251 202.912 326.538 202.288 326.271C201.667 326.004 201.383 325.28 201.652 324.656L202.625 322.404C202.827 321.944 203.279 321.665 203.752 321.665ZM194.975 318.709C195.448 318.709 195.901 318.983 196.102 319.446L197.078 321.7C197.345 322.321 197.061 323.043 196.439 323.315C195.815 323.577 195.093 323.295 194.824 322.676L193.848 320.422C193.579 319.801 193.863 319.076 194.487 318.81C194.648 318.739 194.812 318.709 194.975 318.709ZM207.654 312.659C207.815 312.659 207.981 312.691 208.142 312.759C208.764 313.028 209.048 313.753 208.781 314.372L207.805 316.623C207.534 317.247 206.819 317.534 206.19 317.262C205.569 316.993 205.282 316.271 205.551 315.65L206.527 313.398C206.729 312.935 207.179 312.659 207.654 312.659ZM191.073 309.7C191.549 309.7 192.001 309.974 192.203 310.44L193.176 312.691C193.446 313.31 193.161 314.035 192.537 314.304C191.913 314.571 191.194 314.284 190.925 313.667L189.949 311.413C189.679 310.792 189.964 310.07 190.588 309.801C190.746 309.73 190.91 309.7 191.073 309.7ZM211.556 303.652C211.717 303.652 211.881 303.682 212.042 303.75C212.663 304.022 212.947 304.744 212.681 305.365L211.705 307.617C211.435 308.238 210.718 308.525 210.09 308.254C209.468 307.987 209.184 307.262 209.453 306.641L210.427 304.392C210.628 303.927 211.081 303.652 211.556 303.652ZM187.171 300.691C187.649 300.691 188.1 300.968 188.301 301.428L189.274 303.682C189.546 304.304 189.259 305.028 188.635 305.298C188.007 305.564 187.295 305.277 187.025 304.659L186.047 302.407C185.78 301.783 186.067 301.061 186.686 300.792C186.847 300.724 187.013 300.691 187.171 300.691ZM215.456 294.643C215.617 294.643 215.783 294.676 215.941 294.744C216.562 295.011 216.849 295.735 216.58 296.359L215.604 298.608C215.335 299.23 214.613 299.509 213.991 299.25C213.37 298.978 213.083 298.256 213.352 297.632L214.329 295.381C214.53 294.92 214.98 294.643 215.456 294.643ZM183.272 291.685C183.747 291.685 184.2 291.962 184.401 292.422L185.373 294.676C185.644 295.295 185.357 296.017 184.734 296.289C184.11 296.56 183.39 296.271 183.124 295.647L182.147 293.398C181.881 292.777 182.165 292.055 182.786 291.786C182.945 291.715 183.111 291.685 183.272 291.685ZM219.355 285.635C219.518 285.635 219.682 285.667 219.84 285.735C220.464 286.004 220.749 286.729 220.479 287.35L219.506 289.599C219.239 290.221 218.52 290.505 217.893 290.241C217.269 289.969 216.985 289.247 217.254 288.626L218.228 286.374C218.427 285.911 218.882 285.635 219.355 285.635ZM179.373 282.674C179.846 282.674 180.298 282.953 180.5 283.413L181.473 285.667C181.742 286.289 181.458 287.011 180.837 287.28C180.21 287.554 179.491 287.262 179.222 286.641L178.246 284.389C177.979 283.765 178.263 283.046 178.885 282.774C179.046 282.706 179.209 282.674 179.373 282.674ZM223.257 276.623C223.418 276.623 223.584 276.659 223.745 276.724C224.366 276.996 224.651 277.718 224.384 278.342L223.408 280.593C223.136 281.215 222.419 281.499 221.793 281.23C221.171 280.963 220.887 280.238 221.154 279.617L222.13 277.365C222.331 276.903 222.781 276.623 223.257 276.623ZM175.473 273.667C175.944 273.667 176.396 273.944 176.598 274.404L177.576 276.659C177.84 277.282 177.556 278.002 176.937 278.274C176.311 278.543 175.591 278.254 175.32 277.632L174.346 275.383C174.077 274.759 174.361 274.037 174.985 273.768C175.144 273.7 175.31 273.667 175.473 273.667ZM227.156 267.617C227.32 267.617 227.486 267.652 227.644 267.718C228.266 267.987 228.55 268.711 228.283 269.333L227.307 271.584C227.035 272.206 226.313 272.485 225.695 272.223C225.071 271.954 224.786 271.232 225.056 270.608L226.029 268.357C226.233 267.896 226.683 267.617 227.156 267.617ZM171.571 264.659C172.044 264.659 172.495 264.933 172.696 265.398L173.674 267.652C173.941 268.274 173.657 268.993 173.035 269.265C172.412 269.532 171.69 269.247 171.418 268.626L170.447 266.372C170.175 265.75 170.462 265.031 171.086 264.759C171.242 264.689 171.41 264.659 171.571 264.659ZM231.058 258.608C231.219 258.608 231.385 258.641 231.544 258.709C232.165 258.981 232.452 259.703 232.183 260.321L231.209 262.576C230.94 263.199 230.22 263.486 229.594 263.215C228.973 262.945 228.688 262.223 228.955 261.602L229.931 259.35C230.132 258.885 230.583 258.608 231.058 258.608ZM167.669 255.65C168.147 255.65 168.598 255.926 168.796 256.389L169.773 258.641C170.042 259.265 169.752 259.987 169.134 260.256C168.51 260.525 167.788 260.236 167.518 259.62L166.545 257.365C166.276 256.744 166.562 256.02 167.184 255.75C167.342 255.682 167.508 255.65 167.669 255.65ZM234.957 249.602C235.121 249.602 235.287 249.635 235.446 249.703C236.067 249.972 236.351 250.694 236.085 251.318L235.108 253.569C234.842 254.188 234.122 254.475 233.496 254.206C232.874 253.939 232.588 253.215 232.857 252.591L233.83 250.342C234.032 249.879 234.485 249.602 234.957 249.602ZM163.768 246.643C164.243 246.643 164.696 246.92 164.897 247.381L165.871 249.635C166.14 250.256 165.856 250.978 165.232 251.25C164.608 251.516 163.888 251.23 163.619 250.611L162.643 248.359C162.374 247.735 162.658 247.013 163.282 246.744C163.443 246.676 163.607 246.643 163.768 246.643ZM238.862 240.596C239.02 240.596 239.186 240.626 239.347 240.696C239.969 240.963 240.253 241.687 239.986 242.309L239.01 244.56C238.739 245.182 238.022 245.466 237.398 245.202C236.774 244.93 236.49 244.208 236.759 243.587L237.732 241.333C237.934 240.87 238.386 240.596 238.862 240.596ZM159.868 237.635C160.344 237.635 160.796 237.911 160.998 238.374L161.971 240.626C162.24 241.245 161.956 241.972 161.332 242.238C160.703 242.508 159.986 242.221 159.72 241.602L158.741 239.348C158.474 238.726 158.759 238.007 159.38 237.735C159.541 237.667 159.705 237.635 159.868 237.635ZM242.761 231.587C242.922 231.587 243.088 231.617 243.247 231.687C243.868 231.957 244.155 232.679 243.886 233.3L242.91 235.552C242.64 236.173 241.924 236.46 241.297 236.191C240.673 235.921 240.389 235.197 240.658 234.578L241.634 232.326C241.835 231.861 242.286 231.587 242.761 231.587ZM155.966 228.626C156.442 228.626 156.895 228.905 157.096 229.365L158.069 231.617C158.339 232.241 158.054 232.963 157.43 233.232C156.807 233.501 156.09 233.215 155.818 232.593L154.842 230.342C154.575 229.718 154.859 228.998 155.478 228.726C155.642 228.659 155.805 228.626 155.966 228.626ZM246.661 222.578C246.824 222.578 246.988 222.611 247.146 222.679C247.77 222.945 248.054 223.67 247.785 224.294L246.812 226.545C246.54 227.164 245.818 227.451 245.196 227.184C244.575 226.915 244.291 226.191 244.557 225.567L245.534 223.315C245.735 222.855 246.188 222.578 246.661 222.578ZM152.067 219.62C152.542 219.62 152.993 219.896 153.194 220.359L154.168 222.611C154.437 223.235 154.152 223.954 153.529 224.226C152.91 224.498 152.185 224.206 151.916 223.584L150.942 221.33C150.673 220.709 150.96 219.989 151.584 219.72C151.74 219.65 151.906 219.62 152.067 219.62ZM250.56 213.569C250.724 213.569 250.89 213.602 251.048 213.67C251.669 213.939 251.956 214.664 251.687 215.285L250.711 217.534C250.444 218.158 249.72 218.44 249.098 218.176C248.477 217.904 248.193 217.182 248.459 216.56L249.433 214.309C249.634 213.846 250.087 213.569 250.56 213.569ZM148.165 210.611C148.64 210.611 149.091 210.887 149.295 211.353L150.268 213.602C150.537 214.223 150.251 214.945 149.629 215.215C149.003 215.486 148.286 215.197 148.017 214.578L147.04 212.324C146.774 211.703 147.058 210.983 147.679 210.711C147.838 210.641 148.004 210.611 148.165 210.611ZM254.464 204.56C254.625 204.56 254.791 204.593 254.95 204.659C255.571 204.93 255.856 205.652 255.589 206.276L254.613 208.528C254.344 209.147 253.627 209.433 253 209.164C252.376 208.898 252.092 208.173 252.361 207.552L253.335 205.3C253.539 204.837 253.989 204.56 254.464 204.56ZM144.266 201.602C144.739 201.602 145.191 201.879 145.393 202.342L146.369 204.593C146.635 205.217 146.351 205.939 145.73 206.208C145.101 206.48 144.384 206.188 144.115 205.572L143.141 203.318C142.872 202.696 143.156 201.972 143.78 201.703C143.939 201.635 144.105 201.602 144.266 201.602ZM258.364 195.554C258.525 195.554 258.691 195.587 258.849 195.655C259.471 195.921 259.757 196.646 259.488 197.27L258.515 199.519C258.243 200.14 257.521 200.422 256.9 200.158C256.276 199.889 255.991 199.167 256.261 198.545L257.237 196.291C257.438 195.831 257.888 195.554 258.364 195.554ZM140.366 192.596C140.837 192.596 141.29 192.872 141.491 193.333L142.469 195.587C142.734 196.208 142.449 196.93 141.83 197.199C141.207 197.466 140.485 197.182 140.213 196.56L139.239 194.309C138.97 193.69 139.254 192.965 139.878 192.696C140.037 192.626 140.203 192.596 140.366 192.596ZM262.263 186.545C262.427 186.545 262.59 186.576 262.751 186.646C263.373 186.915 263.657 187.637 263.39 188.259L262.414 190.51C262.145 191.134 261.428 191.421 260.799 191.152C260.178 190.88 259.893 190.158 260.16 189.539L261.136 187.285C261.337 186.82 261.79 186.545 262.263 186.545ZM136.464 183.584C136.94 183.584 137.393 183.864 137.589 184.326L138.568 186.581C138.832 187.202 138.547 187.924 137.923 188.191C137.305 188.46 136.583 188.176 136.311 187.554L135.34 185.3C135.068 184.679 135.352 183.957 135.979 183.685C136.135 183.62 136.301 183.584 136.464 183.584ZM266.165 177.537C266.326 177.537 266.492 177.569 266.651 177.637C267.272 177.906 267.559 178.628 267.29 179.252L266.316 181.504C266.047 182.123 265.33 182.407 264.701 182.143C264.079 181.874 263.795 181.149 264.062 180.528L265.035 178.276C265.237 177.813 265.69 177.537 266.165 177.537ZM132.562 174.578C133.035 174.578 133.486 174.857 133.687 175.315L134.666 177.569C134.932 178.193 134.646 178.915 134.027 179.184C133.403 179.454 132.681 179.167 132.412 178.545L131.438 176.294C131.166 175.67 131.453 174.948 132.077 174.679C132.233 174.613 132.401 174.578 132.562 174.578ZM270.064 168.53C270.228 168.53 270.394 168.563 270.552 168.631C271.174 168.9 271.461 169.622 271.191 170.246L270.215 172.495C269.944 173.116 269.222 173.401 268.603 173.137C267.979 172.865 267.695 172.143 267.964 171.521L268.94 169.267C269.141 168.807 269.591 168.53 270.064 168.53ZM128.661 165.569C129.139 165.569 129.589 165.846 129.793 166.311L130.764 168.563C131.035 169.184 130.749 169.906 130.125 170.176C129.501 170.442 128.779 170.16 128.515 169.537L127.536 167.285C127.267 166.661 127.551 165.942 128.175 165.67C128.331 165.602 128.5 165.569 128.661 165.569ZM273.966 159.521C274.127 159.521 274.293 159.552 274.452 159.622C275.076 159.894 275.36 160.613 275.091 161.235L274.117 163.486C273.846 164.108 273.131 164.394 272.502 164.125C271.881 163.856 271.594 163.134 271.863 162.513L272.839 160.261C273.04 159.796 273.491 159.521 273.966 159.521ZM124.761 156.56C125.237 156.56 125.69 156.84 125.891 157.303L126.862 159.552C127.134 160.176 126.849 160.898 126.225 161.167C125.601 161.436 124.882 161.149 124.613 160.53L123.634 158.276C123.37 157.655 123.654 156.933 124.273 156.661C124.437 156.593 124.598 156.56 124.761 156.56ZM277.866 150.513C278.029 150.513 278.193 150.545 278.354 150.613C278.975 150.882 279.262 151.604 278.993 152.228L278.017 154.48C277.747 155.099 277.028 155.388 276.401 155.119C275.78 154.85 275.496 154.128 275.762 153.501L276.739 151.252C276.94 150.789 277.393 150.513 277.866 150.513ZM120.864 147.554C121.335 147.554 121.788 147.831 121.989 148.294L122.963 150.545C123.232 151.169 122.947 151.889 122.323 152.16C121.7 152.427 120.983 152.14 120.711 151.521L119.735 149.267C119.468 148.648 119.752 147.924 120.371 147.655C120.535 147.584 120.696 147.554 120.864 147.554ZM281.768 141.506C281.929 141.506 282.095 141.539 282.253 141.607C282.877 141.874 283.161 142.601 282.892 143.22L281.916 145.474C281.647 146.093 280.93 146.379 280.303 146.113C279.682 145.841 279.395 145.119 279.664 144.498L280.638 142.246C280.842 141.781 281.292 141.506 281.768 141.506ZM116.957 138.545C117.433 138.545 117.886 138.822 118.087 139.287L119.061 141.539C119.33 142.158 119.046 142.882 118.422 143.149C117.793 143.421 117.081 143.132 116.809 142.51L115.833 140.261C115.566 139.64 115.853 138.92 116.472 138.646C116.633 138.578 116.796 138.545 116.957 138.545ZM285.669 132.498C285.83 132.498 285.996 132.528 286.155 132.598C286.776 132.867 287.063 133.589 286.794 134.213L285.82 136.462C285.549 137.084 284.834 137.368 284.205 137.101C283.581 136.832 283.297 136.108 283.566 135.489L284.542 133.24C284.744 132.772 285.194 132.498 285.669 132.498ZM113.061 129.537C113.534 129.537 113.984 129.813 114.185 130.276L115.164 132.528C115.43 133.152 115.144 133.876 114.525 134.143C113.896 134.415 113.179 134.123 112.91 133.504L111.936 131.255C111.664 130.631 111.951 129.909 112.575 129.637C112.731 129.572 112.9 129.537 113.061 129.537ZM289.569 123.489C289.73 123.489 289.896 123.521 290.057 123.589C290.678 123.856 290.962 124.581 290.696 125.204L289.72 127.456C289.448 128.077 288.726 128.357 288.105 128.095C287.483 127.823 287.196 127.101 287.466 126.477L288.442 124.228C288.643 123.765 289.093 123.489 289.569 123.489ZM109.159 120.533C109.632 120.533 110.085 120.807 110.286 121.27L111.262 123.521C111.529 124.145 111.244 124.865 110.623 125.134C109.999 125.403 109.277 125.116 109.008 124.493L108.034 122.246C107.765 121.625 108.049 120.903 108.673 120.631C108.832 120.563 108.998 120.533 109.159 120.533Z" fill="#0B0A15"/>
<path d="M289.875 328.108C290.348 328.108 290.801 328.387 291.002 328.845L291.976 331.099C292.245 331.723 291.961 332.445 291.339 332.714C290.713 332.978 289.993 332.696 289.724 332.075L288.748 329.823C288.479 329.202 288.766 328.477 289.387 328.208C289.546 328.143 289.712 328.108 289.875 328.108ZM111.415 325.149C111.578 325.149 111.744 325.179 111.903 325.25C112.527 325.519 112.811 326.241 112.542 326.862L111.568 329.114C111.299 329.738 110.577 330.019 109.951 329.755C109.332 329.484 109.048 328.762 109.314 328.143L110.29 325.889C110.492 325.423 110.944 325.149 111.415 325.149ZM285.973 319.099C286.449 319.099 286.899 319.375 287.1 319.838L288.076 322.092C288.346 322.714 288.059 323.436 287.437 323.705C286.809 323.972 286.094 323.687 285.822 323.066L284.846 320.812C284.58 320.193 284.864 319.471 285.485 319.199C285.646 319.131 285.812 319.099 285.973 319.099ZM115.317 316.14C115.48 316.14 115.646 316.173 115.805 316.241C116.429 316.51 116.713 317.232 116.444 317.856L115.47 320.108C115.199 320.726 114.482 321.011 113.853 320.747C113.234 320.477 112.949 319.753 113.214 319.131L114.192 316.88C114.393 316.417 114.846 316.14 115.317 316.14ZM282.071 310.09C282.547 310.09 283 310.369 283.201 310.832L284.175 313.081C284.444 313.705 284.159 314.43 283.536 314.696C282.912 314.965 282.195 314.679 281.923 314.06L280.947 311.808C280.68 311.182 280.965 310.462 281.586 310.191C281.747 310.125 281.91 310.09 282.071 310.09ZM119.219 307.134C119.382 307.134 119.548 307.164 119.704 307.235C120.328 307.504 120.615 308.226 120.343 308.847L119.372 311.099C119.1 311.72 118.383 312.007 117.754 311.74C117.136 311.469 116.851 310.747 117.115 310.125L118.094 307.871C118.295 307.408 118.748 307.134 119.219 307.134ZM278.172 301.084C278.645 301.084 279.098 301.36 279.299 301.823L280.275 304.075C280.542 304.699 280.258 305.418 279.636 305.69C279.01 305.954 278.29 305.672 278.021 305.051L277.045 302.797C276.776 302.178 277.063 301.453 277.684 301.184C277.845 301.116 278.009 301.084 278.172 301.084ZM123.121 298.125C123.282 298.125 123.45 298.155 123.606 298.226C124.23 298.495 124.517 299.217 124.245 299.838L123.271 302.09C123.002 302.709 122.285 302.998 121.656 302.729C121.038 302.46 120.746 301.735 121.017 301.116L121.996 298.865C122.197 298.399 122.648 298.125 123.121 298.125ZM274.27 292.075C274.746 292.075 275.198 292.352 275.4 292.817L276.373 295.066C276.643 295.687 276.356 296.409 275.734 296.679C275.105 296.953 274.391 296.661 274.122 296.042L273.146 293.788C272.876 293.169 273.161 292.447 273.785 292.175C273.943 292.105 274.109 292.075 274.27 292.075ZM127.022 289.116C127.183 289.116 127.349 289.149 127.508 289.217C128.132 289.486 128.416 290.208 128.147 290.832L127.168 293.084C126.904 293.702 126.187 293.989 125.558 293.723C124.934 293.453 124.648 292.729 124.919 292.105L125.89 289.856C126.092 289.393 126.544 289.116 127.022 289.116ZM270.371 283.066C270.846 283.066 271.297 283.345 271.498 283.806L272.474 286.057C272.741 286.681 272.456 287.406 271.835 287.672C271.209 287.944 270.489 287.652 270.22 287.036L269.244 284.782C268.977 284.16 269.261 283.436 269.883 283.167C270.044 283.101 270.21 283.066 270.371 283.066ZM130.922 280.11C131.085 280.11 131.246 280.14 131.41 280.211C132.029 280.477 132.313 281.202 132.049 281.823L131.07 284.075C130.801 284.696 130.076 284.978 129.458 284.714C128.834 284.442 128.549 283.72 128.819 283.101L129.792 280.847C129.993 280.384 130.446 280.11 130.922 280.11ZM266.469 274.06C266.944 274.06 267.395 274.336 267.598 274.799L268.572 277.051C268.841 277.672 268.554 278.394 267.933 278.663C267.307 278.933 266.59 278.646 266.321 278.024L265.344 275.773C265.078 275.154 265.362 274.43 265.983 274.16C266.142 274.092 266.308 274.06 266.469 274.06ZM134.824 271.101C134.982 271.101 135.148 271.131 135.312 271.202C135.931 271.471 136.215 272.193 135.948 272.814L134.972 275.069C134.705 275.687 133.983 275.972 133.36 275.705C132.736 275.436 132.451 274.711 132.721 274.092L133.694 271.841C133.895 271.375 134.348 271.101 134.824 271.101ZM262.57 265.051C263.045 265.051 263.498 265.328 263.697 265.791L264.67 268.045C264.939 268.666 264.655 269.388 264.031 269.655C263.41 269.929 262.688 269.64 262.419 269.018L261.445 266.767C261.176 266.143 261.463 265.421 262.084 265.152C262.243 265.084 262.409 265.051 262.57 265.051ZM138.726 262.092C138.887 262.092 139.05 262.125 139.211 262.193C139.83 262.462 140.117 263.184 139.85 263.808L138.874 266.06C138.602 266.679 137.89 266.965 137.261 266.699C136.637 266.43 136.353 265.705 136.622 265.084L137.596 262.83C137.797 262.369 138.25 262.092 138.726 262.092ZM258.67 256.042C259.143 256.042 259.593 256.321 259.795 256.782L260.771 259.033C261.04 259.657 260.753 260.379 260.132 260.651C259.508 260.913 258.788 260.631 258.519 260.009L257.543 257.76C257.274 257.136 257.558 256.412 258.182 256.145C258.341 256.077 258.507 256.042 258.67 256.042ZM142.622 253.086C142.783 253.086 142.952 253.116 143.108 253.187C143.732 253.456 144.016 254.178 143.747 254.799L142.773 257.048C142.504 257.672 141.787 257.959 141.158 257.69C140.539 257.418 140.253 256.696 140.519 256.077L141.498 253.823C141.699 253.363 142.149 253.086 142.622 253.086ZM254.766 247.033C255.241 247.033 255.694 247.31 255.895 247.775L256.869 250.027C257.138 250.648 256.854 251.37 256.23 251.64C255.601 251.911 254.887 251.625 254.617 251.001L253.641 248.749C253.375 248.128 253.659 247.406 254.28 247.134C254.441 247.066 254.605 247.033 254.766 247.033ZM146.524 244.075C146.685 244.075 146.851 244.108 147.01 244.175C147.634 244.447 147.918 245.167 147.649 245.791L146.675 248.042C146.406 248.663 145.689 248.953 145.06 248.681C144.439 248.412 144.154 247.69 144.421 247.069L145.397 244.814C145.598 244.354 146.051 244.075 146.524 244.075ZM250.866 238.024C251.342 238.024 251.792 238.304 251.993 238.767L252.97 241.016C253.239 241.64 252.954 242.364 252.331 242.631C251.704 242.9 250.987 242.613 250.718 241.994L249.742 239.743C249.473 239.119 249.759 238.397 250.381 238.125C250.539 238.06 250.705 238.024 250.866 238.024ZM150.424 235.069C150.587 235.069 150.753 235.101 150.912 235.169C151.536 235.438 151.82 236.16 151.551 236.784L150.577 239.033C150.305 239.655 149.588 239.944 148.962 239.675C148.341 239.403 148.056 238.684 148.323 238.06L149.299 235.806C149.498 235.345 149.951 235.069 150.424 235.069ZM246.967 229.018C247.443 229.018 247.895 229.295 248.094 229.758L249.068 232.009C249.337 232.633 249.05 233.355 248.429 233.624C247.807 233.894 247.085 233.607 246.816 232.983L245.843 230.729C245.573 230.11 245.858 229.388 246.482 229.119C246.64 229.051 246.804 229.018 246.967 229.018ZM154.326 226.06C154.489 226.06 154.655 226.09 154.811 226.16C155.437 226.43 155.722 227.152 155.45 227.773L154.479 230.027C154.202 230.648 153.483 230.933 152.861 230.666C152.243 230.394 151.956 229.675 152.222 229.053L153.201 226.799C153.402 226.334 153.855 226.06 154.326 226.06ZM243.065 220.009C243.541 220.009 243.991 220.286 244.192 220.752L245.168 223.001C245.435 223.622 245.151 224.347 244.529 224.613C243.905 224.885 243.183 224.598 242.914 223.977L241.941 221.723C241.671 221.104 241.956 220.382 242.58 220.11C242.738 220.042 242.904 220.009 243.065 220.009ZM158.227 217.051C158.388 217.051 158.557 217.084 158.713 217.152C159.337 217.421 159.624 218.145 159.352 218.767L158.376 221.021C158.109 221.637 157.387 221.924 156.763 221.657C156.142 221.388 155.858 220.666 156.124 220.042L157.1 217.791C157.302 217.328 157.752 217.051 158.227 217.051ZM239.163 211.003C239.639 211.003 240.089 211.28 240.293 211.743L241.266 213.992C241.536 214.616 241.251 215.34 240.627 215.607C240.001 215.876 239.287 215.589 239.015 214.97L238.039 212.716C237.772 212.095 238.056 211.373 238.678 211.104C238.836 211.036 239.002 211.003 239.163 211.003ZM162.129 208.045C162.29 208.045 162.456 208.075 162.615 208.145C163.236 208.414 163.521 209.136 163.254 209.758L162.275 212.012C162.009 212.631 161.292 212.918 160.665 212.651C160.041 212.379 159.754 211.657 160.026 211.036L160.997 208.782C161.201 208.319 161.651 208.045 162.129 208.045ZM235.264 201.997C235.737 201.997 236.19 202.271 236.391 202.734L237.367 204.988C237.636 205.607 237.352 206.329 236.728 206.601C236.099 206.865 235.385 206.58 235.113 205.959L234.139 203.71C233.87 203.089 234.157 202.364 234.778 202.097C234.937 202.027 235.103 201.997 235.264 201.997ZM166.029 199.036C166.19 199.036 166.353 199.069 166.517 199.136C167.136 199.408 167.42 200.128 167.156 200.749L166.18 203.003C165.913 203.622 165.193 203.914 164.565 203.64C163.941 203.37 163.656 202.646 163.928 202.027L164.899 199.775C165.1 199.313 165.553 199.036 166.029 199.036ZM231.365 192.988C231.84 192.988 232.29 193.262 232.492 193.728L233.465 195.979C233.734 196.598 233.448 197.323 232.826 197.592C232.205 197.858 231.483 197.574 231.214 196.953L230.237 194.701C229.971 194.08 230.255 193.358 230.876 193.089C231.037 193.018 231.201 192.988 231.365 192.988ZM169.931 190.027C170.094 190.027 170.255 190.06 170.419 190.128C171.037 190.397 171.322 191.119 171.058 191.743L170.079 193.994C169.807 194.616 169.09 194.905 168.466 194.633C167.843 194.364 167.558 193.642 167.827 193.018L168.801 190.764C169.002 190.306 169.455 190.027 169.931 190.027ZM227.463 183.977C227.936 183.977 228.388 184.256 228.59 184.716L229.566 186.968C229.832 187.592 229.548 188.316 228.927 188.586C228.298 188.852 227.581 188.565 227.312 187.947L226.338 185.695C226.069 185.071 226.353 184.347 226.977 184.08C227.136 184.012 227.299 183.977 227.463 183.977ZM173.827 181.021C173.993 181.021 174.157 181.051 174.315 181.121C174.937 181.391 175.224 182.113 174.954 182.734L173.981 184.986C173.709 185.607 172.987 185.891 172.366 185.625C171.744 185.353 171.46 184.633 171.727 184.012L172.703 181.758C172.904 181.297 173.357 181.021 173.827 181.021ZM223.561 174.97C224.036 174.97 224.487 175.247 224.688 175.71L225.664 177.962C225.933 178.583 225.649 179.305 225.025 179.574C224.401 179.846 223.682 179.559 223.412 178.935L222.436 176.686C222.167 176.065 222.454 175.34 223.075 175.071C223.234 175.003 223.4 174.97 223.561 174.97ZM177.729 172.009C177.89 172.009 178.059 172.042 178.215 172.11C178.839 172.382 179.126 173.101 178.854 173.725L177.88 175.979C177.611 176.598 176.892 176.885 176.265 176.616C175.646 176.347 175.359 175.625 175.626 175.003L176.605 172.752C176.806 172.289 177.256 172.009 177.729 172.009ZM219.661 165.959C220.134 165.959 220.587 166.238 220.788 166.701L221.765 168.953C222.034 169.574 221.747 170.299 221.126 170.565C220.499 170.837 219.782 170.55 219.51 169.929L218.537 167.677C218.268 167.053 218.552 166.331 219.173 166.06C219.334 165.994 219.498 165.959 219.661 165.959ZM181.631 163.003C181.792 163.003 181.961 163.036 182.117 163.104C182.741 163.373 183.025 164.097 182.756 164.719L181.782 166.97C181.513 167.589 180.796 167.879 180.17 167.609C179.548 167.338 179.261 166.618 179.531 165.994L180.504 163.743C180.703 163.28 181.156 163.003 181.631 163.003ZM215.762 156.955C216.237 156.955 216.688 157.232 216.889 157.692L217.863 159.944C218.129 160.568 217.845 161.29 217.224 161.559C216.6 161.828 215.878 161.541 215.609 160.92L214.635 158.671C214.366 158.047 214.653 157.323 215.274 157.056C215.435 156.988 215.598 156.955 215.762 156.955ZM185.531 153.997C185.694 153.997 185.86 154.027 186.019 154.097C186.643 154.367 186.927 155.091 186.658 155.71L185.684 157.962C185.415 158.583 184.695 158.872 184.066 158.601C183.448 158.329 183.161 157.609 183.427 156.988L184.406 154.734C184.607 154.271 185.06 153.997 185.531 153.997ZM211.86 147.947C212.333 147.947 212.786 148.221 212.987 148.686L213.963 150.94C214.23 151.559 213.946 152.281 213.324 152.553C212.698 152.817 211.981 152.533 211.709 151.911L210.736 149.66C210.466 149.038 210.751 148.316 211.372 148.047C211.531 147.977 211.697 147.947 211.86 147.947ZM189.432 144.986C189.596 144.986 189.762 145.021 189.921 145.086C190.544 145.358 190.829 146.08 190.557 146.701L189.583 148.955C189.312 149.574 188.592 149.861 187.968 149.592C187.347 149.325 187.063 148.601 187.329 147.977L188.305 145.725C188.507 145.265 188.96 144.986 189.432 144.986ZM207.958 138.938C208.434 138.938 208.884 139.214 209.085 139.677L210.061 141.929C210.331 142.55 210.046 143.275 209.422 143.541C208.796 143.813 208.079 143.521 207.807 142.905L206.834 140.653C206.565 140.03 206.851 139.308 207.473 139.036C207.631 138.97 207.797 138.938 207.958 138.938ZM193.334 135.979C193.495 135.979 193.661 136.014 193.82 136.077C194.441 136.349 194.728 137.071 194.459 137.695L193.483 139.947C193.214 140.568 192.499 140.855 191.87 140.583C191.246 140.314 190.962 139.594 191.231 138.97L192.205 136.716C192.406 136.258 192.859 135.979 193.334 135.979ZM204.059 129.931C204.532 129.931 204.985 130.206 205.186 130.669L206.162 132.923C206.431 133.544 206.144 134.266 205.523 134.535C204.897 134.802 204.18 134.515 203.908 133.896L202.932 131.645C202.665 131.023 202.949 130.301 203.571 130.03C203.732 129.962 203.895 129.931 204.059 129.931ZM197.234 126.97C197.395 126.97 197.561 127.003 197.722 127.071C198.343 127.343 198.627 128.065 198.361 128.684L197.382 130.938C197.113 131.562 196.391 131.843 195.772 131.577C195.148 131.308 194.861 130.586 195.133 129.964L196.107 127.71C196.308 127.247 196.758 126.97 197.234 126.97ZM200.157 120.92C200.632 120.92 201.085 121.197 201.287 121.662L202.26 123.914C202.529 124.533 202.245 125.26 201.621 125.524C200.995 125.796 200.278 125.506 200.009 124.887L199.032 122.636C198.763 122.017 199.05 121.295 199.671 121.023C199.832 120.955 199.996 120.92 200.157 120.92Z" fill="#0B0A15"/>
<path d="M200.01 66.9517C201.366 66.9517 202.466 68.051 202.466 69.407V174.303C202.466 175.656 201.366 176.758 200.01 176.758C198.654 176.758 197.555 175.656 197.555 174.303V69.407C197.555 68.051 198.654 66.9517 200.01 66.9517Z" fill="#0B0A15"/>
</svg>
