<svg width="282" height="282" viewBox="0 0 282 282" fill="none" xmlns="http://www.w3.org/2000/svg">
<path d="M41.472 91.3189L141.027 263.759L240.584 91.3189H41.472ZM141.027 281.562C138.905 281.562 136.947 280.432 135.887 278.595L26.0486 88.3517C24.9893 86.518 24.9893 84.257 26.0486 82.4174C27.1109 80.5837 29.0692 79.4502 31.1907 79.4502H250.865C252.987 79.4502 254.945 80.5837 256.005 82.4174C257.067 84.257 257.067 86.518 256.005 88.3517L146.169 278.595C145.106 280.432 143.148 281.562 141.027 281.562Z" fill="#0B0A15"/>
<path d="M49.5803 79.4639H232.474L141.026 13.5927L49.5803 79.4639ZM250.921 91.3326H31.1897C28.6113 91.3326 26.3325 89.6769 25.5403 87.2261C24.751 84.7722 25.6322 82.0899 27.7211 80.5855L137.557 1.46583C139.631 -0.0296256 142.423 -0.0296256 144.494 1.46583L253.843 80.2354C255.645 81.2532 256.855 83.1848 256.855 85.3983C256.855 88.68 254.203 91.3326 250.921 91.3326Z" fill="#0B0A15"/>
<path d="M141.028 88.3313C139.39 88.3313 138.061 87.005 138.061 85.3641V9.57655C138.061 7.9357 139.39 6.60938 141.028 6.60938C142.669 6.60938 143.995 7.9357 143.995 9.57655V85.3641C143.995 87.005 142.669 88.3313 141.028 88.3313Z" fill="#0B0A15"/>
<path d="M141.027 278.585C139.724 278.585 138.57 277.734 138.187 276.488L80.0276 86.2443C79.5499 84.6777 80.4311 83.016 81.9978 82.5383C83.5615 82.0666 85.2261 82.9419 85.7067 84.5085L140.982 265.319L194.101 85.8883C194.566 84.3157 196.219 83.4226 197.786 83.8854C199.358 84.3513 200.254 86.001 199.792 87.5736L143.872 276.458C143.501 277.716 142.35 278.58 141.039 278.585H141.027Z" fill="#0B0A15"/>
<path d="M139.905 129.014C139.311 129.014 138.721 128.836 138.207 128.483L79.8995 87.8117C78.5554 86.8741 78.2231 85.0226 79.1637 83.6785C80.1013 82.3403 81.9498 82.0079 83.294 82.9426L139.884 122.415L195.225 82.9604C196.56 82.0109 198.411 82.3225 199.361 83.6547C200.313 84.9899 200.002 86.8444 198.667 87.7939L141.629 128.465C141.115 128.83 140.51 129.014 139.905 129.014Z" fill="#0B0A15"/>
</svg>
