<svg width="400" height="400" viewBox="0 0 400 400" fill="none" xmlns="http://www.w3.org/2000/svg">
<g opacity="0.05">
<path d="M205.163 297.848C212.119 298.616 218.626 300.91 224.334 304.385L220.343 309.635C214.357 306.128 207.394 304.118 199.968 304.118C192.545 304.118 185.579 306.128 179.593 309.632L175.603 304.382C181.313 300.908 187.818 298.616 194.774 297.848L195.711 299.47C196.586 300.986 198.214 301.926 199.968 301.926C201.728 301.926 203.348 300.986 204.225 299.47L205.163 297.848ZM167.779 310.345L171.769 315.593C164.218 322.945 159.524 333.216 159.524 344.563C159.524 366.866 177.665 385.007 199.968 385.007C222.272 385.007 240.413 366.866 240.413 344.563C240.413 333.216 235.718 322.947 228.17 315.595L232.163 310.348C241.272 318.924 246.971 331.093 246.971 344.563C246.971 370.48 225.885 391.565 199.968 391.565C174.052 391.565 152.966 370.48 152.966 344.563C152.966 331.091 158.665 318.922 167.779 310.345Z" fill="#0B0A15"/>
<path d="M78.6003 8.646C79.7207 8.646 80.8364 8.66914 81.9498 8.71544C82.8549 8.75248 83.5563 9.52099 83.5193 10.4261C83.4799 11.3196 82.686 11.9956 81.8318 11.9956H81.8086C80.7484 11.9493 79.6767 11.9261 78.6003 11.9261C77.6975 11.9261 76.9614 11.1877 76.9614 10.2849C76.9614 9.37518 77.6975 8.646 78.6003 8.646ZM73.2021 8.83119C74.054 8.83119 74.7693 9.49092 74.8364 10.3543C74.8989 11.2571 74.2207 12.0442 73.3179 12.1113C72.2438 12.1877 71.1813 12.2826 70.1235 12.4053C70.0656 12.4099 70.0077 12.4122 69.9522 12.4122C69.1096 12.4122 68.4012 11.7965 68.304 10.9585C68.2068 10.0534 68.8549 9.24556 69.7507 9.14371C70.8526 9.01639 71.9661 8.92148 73.0818 8.83815L73.2021 8.83119ZM91.6443 9.75943L91.929 9.77794C92.1281 9.81266 92.3295 9.84971 92.5286 9.88443V11.9631L92.2022 11.5488L91.8457 11.1715L90.6929 10.065C90.966 9.87055 91.2971 9.75943 91.6443 9.75943ZM93.5841 10.0835C94.1327 10.1923 94.6767 10.3057 95.2184 10.4261C96.1003 10.6182 96.6605 11.4886 96.4684 12.3729C96.2994 13.1391 95.6235 13.6645 94.8688 13.6645C94.7554 13.6645 94.6374 13.653 94.5216 13.6275C94.2091 13.5581 93.8966 13.4909 93.5841 13.4284V10.0835ZM90.0563 11.0002L92.3225 13.1807C92.0054 13.1229 91.6883 13.065 91.3688 13.0117C90.4799 12.859 89.8781 12.0141 90.0309 11.1159C90.0378 11.0766 90.0471 11.0372 90.0563 11.0002ZM148.29 59.3289H151.772C152.054 60.0812 152.325 60.8428 152.589 61.609C152.883 62.4678 152.42 63.3961 151.563 63.69C151.39 63.7502 151.209 63.7803 151.033 63.7803C150.355 63.7803 149.716 63.3474 149.482 62.6646C149.135 61.653 148.772 60.6484 148.38 59.6576C148.339 59.5488 148.309 59.44 148.29 59.3289ZM153.605 69.9794C154.369 69.9794 155.052 70.5164 155.207 71.2988C155.431 72.3868 155.63 73.4863 155.802 74.5905C155.943 75.4863 155.327 76.3243 154.438 76.4655C154.357 76.4771 154.276 76.484 154.195 76.484C153.376 76.484 152.691 75.9123 152.563 75.1021C152.397 74.0442 152.205 72.9863 151.992 71.9447C151.813 71.0604 152.39 70.1947 153.279 70.0095L153.605 69.9794ZM154.336 96.0674L154.573 96.079C155.471 96.2086 156.091 97.0396 155.964 97.9377C155.802 99.0442 155.624 100.146 155.418 101.239C155.267 102.028 154.582 102.574 153.809 102.574C153.709 102.574 153.607 102.565 153.503 102.547C152.612 102.382 152.024 101.523 152.198 100.632C152.39 99.5905 152.563 98.5326 152.716 97.4771C152.832 96.6553 153.536 96.0674 154.336 96.0674Z" fill="#0B0A15"/>
<path d="M92.5284 9.88447C92.8803 9.94928 93.2344 10.0164 93.584 10.0835V13.4285C93.165 13.3405 92.7437 13.2595 92.3224 13.1808L90.0562 11.0002C90.1534 10.6113 90.3849 10.2849 90.6928 10.065L91.8455 11.1715L92.202 11.5488L92.5284 11.9632V9.88447Z" fill="#0B0A15"/>
<path d="M60.2669 10.8657C61.003 10.8657 61.6697 11.3657 61.8549 12.1111C62.0725 12.9907 61.5355 13.8773 60.6582 14.0949C59.6165 14.3495 58.5841 14.6319 57.5656 14.9328C57.4105 14.9768 57.2554 14.9976 57.1026 14.9976C56.385 14.9976 55.7345 14.537 55.5285 13.8194C55.2739 12.956 55.7716 12.037 56.635 11.7893C57.7044 11.4675 58.7808 11.1805 59.8711 10.912L60.2669 10.8657ZM105.501 13.4143C106.343 13.7245 107.179 14.0509 108.005 14.3888C108.846 14.7268 109.248 15.6875 108.911 16.5208C108.647 17.162 108.035 17.5486 107.392 17.5486C107.184 17.5486 106.975 17.5092 106.772 17.4259C105.779 17.0208 104.779 16.6365 103.767 16.2708C102.945 15.9814 102.505 15.0949 102.746 14.2685C102.827 14.2731 102.91 14.2754 102.996 14.2754C103.524 14.2754 104.019 14.1875 104.482 14.0115C104.862 13.868 105.202 13.6689 105.501 13.4143Z" fill="#0B0A15"/>
<path d="M104.318 13.0879L104.873 13.1851C105.084 13.2615 105.292 13.3379 105.501 13.4143C105.202 13.6689 104.862 13.868 104.482 14.0115C104.019 14.1874 103.524 14.2754 102.996 14.2754C102.91 14.2754 102.827 14.2731 102.746 14.2684C102.753 14.2383 102.765 14.2082 102.774 14.1782C103.019 13.5045 103.644 13.0879 104.318 13.0879Z" fill="#0B0A15"/>
<path d="M47.8688 15.0879C48.4985 15.0879 49.1004 15.4513 49.3689 16.0671C49.7323 16.8935 49.3619 17.8657 48.5309 18.2245C47.5494 18.662 46.5911 19.1087 45.6304 19.5809C45.3966 19.6967 45.1489 19.7522 44.9059 19.7522C44.3017 19.7522 43.723 19.4143 43.4383 18.8333C43.0355 18.0254 43.3689 17.0393 44.1814 16.6434C45.1791 16.1504 46.186 15.6782 47.2092 15.2268C47.4291 15.1319 47.6536 15.0879 47.8688 15.0879ZM116.235 18.5509C116.51 18.5509 116.786 18.6203 117.043 18.7708C118.015 19.3194 118.975 19.8888 119.922 20.486C120.691 20.9652 120.922 21.9768 120.443 22.7453C120.13 23.243 119.598 23.5162 119.054 23.5162C118.756 23.5162 118.455 23.4328 118.181 23.2638C117.279 22.6944 116.355 22.1504 115.422 21.618C114.633 21.1712 114.357 20.1712 114.806 19.3842C115.107 18.8518 115.663 18.5509 116.235 18.5509ZM36.3874 21.3703C36.9198 21.3703 37.4406 21.6249 37.7577 22.0995C38.2577 22.8541 38.0541 23.8726 37.2971 24.3703C36.4082 24.9606 35.5309 25.5763 34.6651 26.2036C34.3758 26.412 34.0402 26.5115 33.7045 26.5115C33.1953 26.5115 32.6952 26.28 32.3735 25.8379C31.8434 25.1087 32.0031 24.0833 32.7369 23.5532C33.6351 22.8934 34.5494 22.2592 35.4869 21.6388C35.7624 21.4536 36.0749 21.3703 36.3874 21.3703ZM127.038 25.9675C127.404 25.9675 127.767 26.0902 128.075 26.3379C128.445 26.6411 128.811 26.9467 129.172 27.2569V31.3402C128.906 31.2823 128.651 31.155 128.434 30.9606C127.633 30.2522 126.82 29.5532 125.994 28.8749C125.297 28.2985 125.195 27.2662 125.769 26.5694C126.089 26.1712 126.563 25.9675 127.038 25.9675ZM130.57 28.4722C130.587 28.486 130.603 28.4999 130.617 28.5161C131.295 29.1157 131.353 30.155 130.746 30.8333C130.691 30.8935 130.633 30.9513 130.57 31.0023V28.4722Z" fill="#0B0A15"/>
<path d="M129.172 27.2569C129.642 27.6574 130.107 28.0625 130.57 28.4722V31.0023C130.269 31.2523 129.896 31.3773 129.524 31.3773C129.406 31.3773 129.288 31.3657 129.172 31.3403V27.2569Z" fill="#0B0A15"/>
<path d="M26.1441 29.507C26.5769 29.507 27.0075 29.6806 27.3339 30.0278C27.9543 30.6852 27.9219 31.7223 27.2621 32.345C26.489 33.0741 25.7251 33.8288 24.9774 34.5926C24.658 34.9237 24.232 35.0904 23.8061 35.0904C23.3941 35.0904 22.9797 34.9353 22.6603 34.6251C22.0121 33.9908 22.0006 32.9538 22.6279 32.3056C23.408 31.507 24.202 30.7246 25.0145 29.9561C25.3293 29.6621 25.739 29.507 26.1441 29.507ZM136.417 35.0973C136.878 35.0973 137.334 35.2894 137.66 35.6667C138.392 36.507 139.1 37.3658 139.799 38.2431C140.362 38.9515 140.241 39.9838 139.538 40.5487C139.237 40.7871 138.878 40.9028 138.521 40.9028C138.035 40.9028 137.556 40.6876 137.232 40.2801C136.565 39.4468 135.88 38.6204 135.181 37.8126C134.586 37.1274 134.663 36.0973 135.348 35.5024C135.656 35.2339 136.04 35.0973 136.417 35.0973ZM17.4149 39.2732C17.7552 39.2732 18.1001 39.382 18.3941 39.5996C19.1163 40.1436 19.2645 41.1737 18.7228 41.9005C18.0793 42.75 17.4543 43.6227 16.8455 44.5047C16.526 44.9653 16.0121 45.2153 15.489 45.2153C15.1695 45.2153 14.8478 45.1204 14.5654 44.926C13.82 44.4167 13.6302 43.3913 14.1418 42.6482C14.7737 41.7269 15.4311 40.8241 16.1024 39.926C16.4218 39.4977 16.9149 39.2732 17.4149 39.2732ZM144.121 45.6829C144.681 45.6829 145.218 45.9653 145.531 46.4769C146.1 47.4237 146.658 48.3913 147.197 49.3704C147.633 50.1667 147.343 51.1598 146.549 51.5927C146.299 51.7316 146.026 51.7964 145.76 51.7964C145.181 51.7964 144.619 51.4908 144.32 50.9538C143.809 50.014 143.269 49.0834 142.721 48.1691C142.253 47.3936 142.501 46.3866 143.276 45.9191C143.538 45.7616 143.834 45.6829 144.121 45.6829ZM10.4589 50.3774C10.7112 50.3774 10.9658 50.4353 11.2043 50.5556C12.0098 50.9677 12.3292 51.9584 11.9195 52.7663C11.4334 53.72 10.9589 54.6806 10.5121 55.6598C10.2413 56.257 9.65332 56.6135 9.03295 56.6135C8.80147 56.6135 8.56768 56.5649 8.34083 56.4607C7.51444 56.0834 7.15563 55.1112 7.53526 54.2894C8.00285 53.2709 8.4959 52.2663 9.00053 51.2755C9.28756 50.7015 9.86396 50.3774 10.4589 50.3774ZM5.51212 62.5117L5.99592 62.5881C6.86166 62.8566 7.34313 63.7802 7.0723 64.6436C6.7598 65.6552 6.46581 66.6876 6.18803 67.7177C5.9959 68.4561 5.32926 68.9445 4.60472 68.9445C4.46814 68.9445 4.32925 68.9283 4.19036 68.8913C3.31305 68.6598 2.78987 67.764 3.01904 66.8867C3.30608 65.8033 3.61395 64.7269 3.94728 63.6644C4.16488 62.9654 4.81305 62.5117 5.51212 62.5117ZM2.71581 75.3056L2.92879 75.3195C3.82694 75.433 4.45889 76.2547 4.34546 77.1575C4.20889 78.213 4.09545 79.2755 4.00518 80.345C3.92879 81.183 3.26675 81.8496 2.42879 81.8496C2.36397 81.8496 2.29914 81.845 2.23201 81.8381C1.32923 81.7594 0.655646 80.9677 0.738979 80.0649C0.836202 78.9446 0.951926 77.8358 1.09081 76.7362C1.19961 75.9075 1.90562 75.3056 2.71581 75.3056ZM2.08387 88.389H2.15331C3.03063 88.389 3.75747 89.0742 3.79219 89.9561C3.83848 91.0325 3.91028 92.102 3.99129 93.1598C4.06768 94.0626 3.4033 94.8566 2.50052 94.933C2.44728 94.9376 2.39404 94.9399 2.3408 94.9399C1.51673 94.9399 0.799153 94.2848 0.727394 93.433C0.637116 92.3334 0.567683 91.2177 0.514442 90.0996C0.477405 89.1876 1.18109 88.426 2.08387 88.389ZM3.81999 101.375C4.57462 101.375 5.25284 101.901 5.41951 102.669C5.64405 103.72 5.89636 104.757 6.16257 105.787C6.39173 106.664 5.8686 107.56 4.99823 107.792C4.85703 107.827 4.71814 107.845 4.57925 107.845C3.8524 107.845 3.18574 107.357 2.99361 106.621C2.71352 105.544 2.44961 104.461 2.2135 103.366C2.02137 102.477 2.58386 101.607 3.46812 101.414L3.81999 101.375ZM150.325 109.202L152.343 112.699C152.172 113.181 151.998 113.662 151.82 114.144C151.57 114.806 150.947 115.208 150.283 115.208C150.091 115.208 149.896 115.174 149.707 115.104C148.859 114.785 148.434 113.836 148.744 112.993C149.126 111.986 149.475 110.975 149.815 109.956C149.915 109.651 150.093 109.394 150.325 109.202ZM7.6811 113.887C8.32693 113.887 8.94268 114.271 9.20426 114.912C9.60241 115.901 10.026 116.877 10.4728 117.845C10.8431 118.671 10.4866 119.646 9.66026 120.023C9.44035 120.123 9.20887 120.171 8.98202 120.171C8.36165 120.171 7.76441 119.815 7.48895 119.208C7.0283 118.204 6.58618 117.178 6.16257 116.148C5.82229 115.31 6.22738 114.35 7.06534 114.009L7.6811 113.887ZM146.248 120.894C146.512 120.894 146.774 120.952 147.017 121.086C147.818 121.507 148.119 122.5 147.695 123.301C147.172 124.289 146.626 125.266 146.063 126.227C145.758 126.748 145.209 127.04 144.647 127.04C144.362 127.04 144.077 126.965 143.815 126.81C143.035 126.35 142.776 125.352 143.232 124.57C143.776 123.646 144.297 122.713 144.802 121.764C145.096 121.206 145.658 120.894 146.248 120.894ZM13.6302 125.544C14.1741 125.544 14.7112 125.813 15.0191 126.313C15.5885 127.22 16.1718 128.111 16.7806 128.995C17.2853 129.743 17.1001 130.759 16.3524 131.273C16.07 131.468 15.7483 131.56 15.4311 131.56C14.908 131.56 14.3918 131.308 14.0723 130.845C13.445 129.928 12.8362 128.996 12.2413 128.046C11.7598 127.278 11.9959 126.273 12.7644 125.792C13.0353 125.621 13.3339 125.544 13.6302 125.544ZM139.146 131.903C139.491 131.903 139.846 132.009 140.146 132.241C140.862 132.796 140.991 133.829 140.44 134.546C139.755 135.424 139.056 136.294 138.332 137.146C138.01 137.533 137.547 137.732 137.082 137.732C136.709 137.732 136.332 137.604 136.021 137.345C135.332 136.762 135.246 135.725 135.829 135.033C136.521 134.213 137.193 133.38 137.846 132.535C138.167 132.118 138.653 131.903 139.146 131.903ZM21.4797 136.019C21.9288 136.019 22.3779 136.197 22.7043 136.563C23.4149 137.364 24.1441 138.146 24.8895 138.914C25.5214 139.565 25.5029 140.602 24.8547 141.232C24.5353 141.542 24.1232 141.695 23.7112 141.695C23.283 141.695 22.857 141.53 22.5376 141.199C21.7621 140.398 21.0006 139.579 20.2598 138.748C19.6557 138.074 19.7135 137.037 20.3848 136.435C20.6996 136.155 21.0908 136.019 21.4797 136.019ZM130.278 141.539C130.718 141.539 131.163 141.718 131.48 142.07C132.096 142.743 132.054 143.778 131.385 144.389C130.559 145.144 129.721 145.882 128.871 146.597C128.561 146.859 128.186 146.984 127.815 146.984C127.346 146.984 126.883 146.785 126.556 146.398C125.975 145.706 126.065 144.669 126.755 144.086C127.575 143.401 128.383 142.692 129.17 141.975C129.484 141.685 129.88 141.539 130.278 141.539ZM30.9959 145.016C31.3547 145.016 31.7135 145.137 32.0144 145.375C32.8547 146.039 33.7043 146.692 34.5677 147.322C35.3015 147.859 35.4589 148.884 34.9219 149.614C34.6001 150.053 34.1024 150.287 33.5978 150.287C33.2621 150.287 32.9265 150.185 32.6348 149.972C31.7344 149.313 30.8432 148.634 29.9728 147.935C29.2598 147.373 29.1464 146.343 29.7089 145.637C30.0353 145.227 30.5098 145.016 30.9959 145.016ZM120.584 149.683C120.864 149.81 121.109 150.016 121.288 150.292C121.498 150.616 121.579 150.986 121.542 151.343L120.584 149.683ZM41.8941 152.276C42.1626 152.276 42.4334 152.35 42.6834 152.482C43.6163 152.996 44.5723 153.496 45.533 153.968C46.3385 154.366 46.6788 155.35 46.276 156.165C45.9867 156.741 45.4057 157.074 44.7992 157.074C44.5585 157.074 44.3108 157.021 44.0793 156.908C43.0723 156.412 42.0816 155.896 41.1024 155.357C40.3084 154.921 40.0191 153.924 40.4543 153.13C40.7552 152.583 41.3131 152.276 41.8941 152.276ZM108.343 155.658C108.987 155.658 109.586 156.028 109.857 156.658C110.209 157.489 109.818 158.449 108.987 158.803C107.961 159.239 106.924 159.648 105.88 160.04C105.69 160.111 105.496 160.144 105.306 160.144C104.644 160.144 104.021 159.739 103.774 159.079C103.452 158.234 103.89 157.285 104.734 156.972C105.732 156.595 106.725 156.204 107.704 155.787C107.917 155.697 108.128 155.658 108.343 155.658ZM53.8825 157.579L54.4126 157.669C55.4265 158.009 56.4427 158.336 57.482 158.641C58.3455 158.898 58.8478 159.808 58.5886 160.678C58.3802 161.387 57.7298 161.857 57.0214 161.857C56.8686 161.857 56.7112 161.833 56.5538 161.787C55.4774 161.465 54.408 161.127 53.357 160.769C52.4983 160.479 52.0376 159.546 52.3339 158.688C52.5631 158.009 53.2043 157.579 53.8825 157.579ZM96.1557 159.72C96.7946 159.822 97.3386 160.299 97.4983 160.968C97.6673 161.702 97.3154 162.438 96.6835 162.783L96.1557 159.72ZM66.6001 160.732L66.8548 160.755C67.908 160.924 68.9705 161.063 70.033 161.185C70.9358 161.287 71.5839 162.1 71.4751 163.002C71.3849 163.824 70.702 164.461 69.8895 164.461C69.8154 164.461 69.739 164.456 69.6603 164.445C68.5469 164.317 67.4381 164.169 66.3455 163.989C65.4474 163.847 64.8386 163.009 64.9798 162.111C65.1094 161.308 65.8062 160.732 66.6001 160.732ZM82.9358 161.549C83.8015 161.549 84.5237 162.229 84.577 163.1C84.6256 164.002 83.9335 164.778 83.0261 164.829C81.9173 164.894 80.8038 164.931 79.6835 164.945C79.6302 164.952 79.5793 164.956 79.5284 164.956C78.7691 164.956 78.0353 164.176 78.026 163.324C78.0122 162.419 78.7344 161.678 79.6395 161.665C80.7136 161.651 81.783 161.616 82.8478 161.556L82.9358 161.549Z" fill="#0B0A15"/>
<path d="M78.6002 39.7988C81.9659 39.7988 85.2529 40.1529 88.4196 40.8288V41.6483H78.9659V42.9237H89.8039V41.1483C108.783 45.8057 123.274 62.0279 125.348 81.8821H118.748C116.313 61.889 99.2391 46.3566 78.6002 46.3566C56.2969 46.3566 38.1557 64.4955 38.1557 86.8011C38.1557 109.104 56.2969 127.246 78.6002 127.246C79.2599 127.246 79.9173 127.229 80.5701 127.197L81.6905 133.702C80.6696 133.769 79.6372 133.803 78.6002 133.803C52.6835 133.803 31.5978 112.718 31.5978 86.8011C31.5978 60.8867 52.6835 39.7988 78.6002 39.7988ZM118.748 91.7178H125.348C123.931 105.29 116.709 117.165 106.223 124.808L102.924 119.095C111.475 112.639 117.392 102.873 118.748 91.7178ZM94.415 124.026L97.7136 129.739C95.6766 130.648 93.5631 131.419 91.3872 132.035L90.2645 125.53C91.6835 125.104 93.0678 124.6 94.415 124.026Z" fill="#0B0A15"/>
<path d="M88.4197 40.8287C88.885 40.9282 89.3433 41.0347 89.804 41.1481V42.9236H78.966V41.6481H88.4197V40.8287Z" fill="#0B0A15"/>
<path d="M321.336 8.64601C322.457 8.64601 323.57 8.66916 324.686 8.71545C325.586 8.75249 326.292 9.521 326.255 10.4261C326.216 11.3196 325.404 11.9956 324.566 11.9956H324.545C323.48 11.9493 322.411 11.9261 321.336 11.9261C320.434 11.9261 319.698 11.1877 319.698 10.2849C319.698 9.3752 320.434 8.64601 321.336 8.64601ZM315.936 8.8312C316.061 8.8312 316.184 8.84509 316.299 8.87055H315.373C315.519 8.85897 315.667 8.84742 315.816 8.83816L315.936 8.8312ZM312.619 9.12981L314.082 12.2757C313.672 12.315 313.265 12.3567 312.857 12.4053C312.802 12.4099 312.744 12.4122 312.686 12.4122C311.843 12.4122 311.133 11.7965 311.038 10.9585C310.943 10.0534 311.591 9.24557 312.487 9.14372C312.531 9.13909 312.575 9.13444 312.619 9.12981ZM317.311 9.58121C317.457 9.80575 317.549 10.0673 317.573 10.3544C317.633 11.2294 316.998 11.9956 316.137 12.1021L317.311 9.58121ZM314.07 9.82426H316.036L315.313 11.44L315.181 11.808L315.073 12.1854C315.063 12.1877 315.052 12.1877 315.042 12.1877L314.924 11.7919L314.792 11.44L314.07 9.82426ZM250.415 113.887C251.063 113.887 251.677 114.271 251.941 114.912C252.336 115.901 252.758 116.878 253.207 117.845C253.579 118.672 253.218 119.646 252.394 120.023C252.172 120.123 251.941 120.172 251.714 120.172C251.093 120.172 250.501 119.815 250.223 119.209C249.762 118.204 249.32 117.179 248.897 116.148C248.559 115.31 248.961 114.35 249.802 114.01L250.415 113.887ZM256.364 125.544C256.908 125.544 257.445 125.813 257.753 126.313C258.323 127.22 258.906 128.111 259.515 128.996C260.022 129.743 259.836 130.76 259.084 131.273C258.804 131.468 258.482 131.56 258.165 131.56C257.642 131.56 257.126 131.308 256.806 130.845C256.179 129.929 255.57 128.996 254.975 128.047C254.494 127.278 254.732 126.273 255.501 125.792C255.769 125.621 256.07 125.544 256.364 125.544ZM264.214 136.019C264.663 136.019 265.112 136.197 265.438 136.563C266.149 137.364 266.88 138.146 267.621 138.915C268.255 139.565 268.237 140.602 267.589 141.232C267.269 141.542 266.857 141.695 266.445 141.695C266.017 141.695 265.591 141.53 265.272 141.199C264.496 140.398 263.735 139.579 262.992 138.748C262.39 138.074 262.448 137.037 263.121 136.435C263.434 136.155 263.825 136.019 264.214 136.019ZM273.732 145.016C274.089 145.016 274.448 145.137 274.748 145.375C275.586 146.04 276.441 146.692 277.304 147.322C278.033 147.859 278.193 148.885 277.656 149.614C277.336 150.054 276.836 150.287 276.332 150.287C275.998 150.287 275.66 150.185 275.371 149.973C274.468 149.313 273.577 148.635 272.704 147.935C271.996 147.373 271.88 146.343 272.443 145.637C272.772 145.227 273.244 145.016 273.732 145.016ZM288.242 153.954C288.248 153.959 288.258 153.963 288.267 153.968C289.075 154.366 289.413 155.35 289.01 156.165C288.721 156.741 288.14 157.074 287.536 157.074C287.292 157.074 287.045 157.021 286.813 156.908C286.742 156.873 286.67 156.838 286.598 156.801L288.242 153.954ZM296.617 157.579L297.149 157.669C298.161 158.01 299.179 158.336 300.216 158.642C301.079 158.898 301.579 159.808 301.325 160.679C301.114 161.387 300.468 161.857 299.758 161.857C299.603 161.857 299.445 161.834 299.288 161.787C298.211 161.466 297.142 161.128 296.093 160.769C295.235 160.479 294.772 159.547 295.066 158.688C295.297 158.01 295.938 157.579 296.617 157.579Z" fill="#0B0A15"/>
<path d="M315.374 8.87028H316.299C316.718 8.9675 317.082 9.22446 317.311 9.58094L316.137 12.1018C316.11 12.1064 316.082 12.1087 316.052 12.111C315.725 12.1342 315.399 12.1596 315.073 12.1851L315.181 11.8078L315.313 11.4397L316.036 9.82399H314.07L314.793 11.4397L314.924 11.7916L315.043 12.1874C314.721 12.2152 314.401 12.243 314.082 12.2754L312.619 9.12953C313.531 9.02537 314.452 8.94203 315.374 8.87028Z" fill="#0B0A15"/>
<path d="M334.378 9.75937L334.66 9.77788C335.762 9.97232 336.864 10.183 337.952 10.426C338.836 10.6182 339.394 11.4885 339.202 12.3728C339.035 13.139 338.36 13.6645 337.603 13.6645C337.489 13.6645 337.371 13.6529 337.253 13.6274C336.211 13.396 335.16 13.1899 334.105 13.0117C333.214 12.8589 332.614 12.014 332.767 11.1159C332.908 10.3219 333.598 9.75937 334.378 9.75937ZM302.519 10.933C302.343 11.0325 302.197 11.1645 302.084 11.3265C301.913 11.5765 301.825 11.8913 301.825 12.2686C301.825 12.5834 301.885 12.8728 302.008 13.1321C302.128 13.3913 302.297 13.6043 302.515 13.7617C302.686 13.889 302.894 13.9793 303.135 14.0348C303.221 14.0534 303.325 14.0696 303.443 14.0811C303.427 14.0858 303.41 14.0904 303.394 14.095C302.348 14.3497 301.318 14.6321 300.299 14.933C300.144 14.977 299.989 14.9978 299.836 14.9978C299.119 14.9978 298.468 14.5371 298.262 13.8196C298.008 12.9561 298.508 12.0371 299.371 11.7895C300.413 11.477 301.459 11.1969 302.519 10.933ZM303.941 11.1645C304.253 11.382 304.491 11.7108 304.591 12.1112C304.681 12.477 304.642 12.8427 304.501 13.1622H304.48C303.897 13.1622 303.501 13.0858 303.292 12.926C303.084 12.7709 302.98 12.5024 302.98 12.1135C302.98 11.7594 303.093 11.5071 303.318 11.3566C303.461 11.264 303.67 11.1992 303.941 11.1645Z" fill="#0B0A15"/>
<path d="M303.003 10.8658C303.343 10.8658 303.67 10.9745 303.941 11.1644C303.67 11.1991 303.461 11.2639 303.318 11.3565C303.093 11.507 302.98 11.7593 302.98 12.1134C302.98 12.5023 303.084 12.7708 303.292 12.9259C303.501 13.0857 303.897 13.1621 304.48 13.1621H304.501C304.311 13.5973 303.934 13.9445 303.443 14.0811C303.325 14.0695 303.221 14.0533 303.135 14.0347C302.894 13.9792 302.686 13.8889 302.515 13.7616C302.297 13.6042 302.128 13.3912 302.008 13.132C301.885 12.8727 301.825 12.5834 301.825 12.2685C301.825 11.8912 301.913 11.5764 302.084 11.3264C302.197 11.1644 302.343 11.0324 302.519 10.9329C302.547 10.926 302.575 10.919 302.605 10.9121L303.003 10.8658Z" fill="#0B0A15"/>
<path d="M347.052 13.0881L347.61 13.1853C348.661 13.5649 349.709 13.9654 350.742 14.389C351.58 14.727 351.985 15.6877 351.644 16.521C351.383 17.1622 350.772 17.5488 350.126 17.5488C349.92 17.5488 349.709 17.5094 349.505 17.4261C348.512 17.021 347.512 16.6367 346.503 16.271C345.649 15.9724 345.209 15.0279 345.51 14.1784C345.753 13.5048 346.38 13.0881 347.052 13.0881ZM290.605 15.0881C291.232 15.0881 291.834 15.4515 292.103 16.0673C292.466 16.8937 292.096 17.8659 291.265 18.2247C290.283 18.6622 289.325 19.1089 288.362 19.5812C288.128 19.6969 287.883 19.7525 287.64 19.7525C287.035 19.7525 286.457 19.4145 286.174 18.8335C285.769 18.0256 286.1 17.0395 286.915 16.6437C287.915 16.1506 288.92 15.6784 289.945 15.227C290.16 15.1321 290.387 15.0881 290.605 15.0881ZM358.968 18.5511C359.244 18.5511 359.522 18.6205 359.776 18.771C360.751 19.3196 361.711 19.889 362.658 20.4863C363.427 20.9654 363.658 21.977 363.179 22.7455C362.867 23.2432 362.336 23.5164 361.79 23.5164C361.494 23.5164 361.191 23.433 360.917 23.264C360.015 22.6946 359.091 22.1506 358.156 21.6182C357.369 21.1714 357.093 20.1714 357.542 19.3844C357.843 18.852 358.399 18.5511 358.968 18.5511ZM279.123 21.3705C279.654 21.3705 280.174 21.6252 280.494 22.0997C280.827 22.6043 280.846 23.227 280.596 23.7339C279.417 23.1344 278.047 22.8312 276.487 22.8242C277.056 22.4214 277.635 22.0279 278.221 21.639C278.494 21.4539 278.809 21.3705 279.123 21.3705ZM276.42 24.1252C277.598 24.1252 278.637 24.3173 279.542 24.6992C278.82 25.1876 278.105 25.6923 277.401 26.2039C277.11 26.4122 276.774 26.5117 276.438 26.5117C275.931 26.5117 275.429 26.2802 275.107 25.8381C274.758 25.3566 274.707 24.7478 274.924 24.2363C275.397 24.1622 275.894 24.1252 276.42 24.1252Z" fill="#0B0A15"/>
<path d="M276.487 22.8242C278.047 22.8312 279.417 23.1344 280.596 23.734C280.473 23.984 280.283 24.2062 280.031 24.3705C279.869 24.4793 279.707 24.5881 279.542 24.6992C278.637 24.3173 277.598 24.1252 276.42 24.1252C275.894 24.1252 275.397 24.1622 274.924 24.2363C275.038 23.9724 275.221 23.734 275.473 23.5534C275.809 23.3057 276.147 23.0626 276.487 22.8242Z" fill="#0B0A15"/>
<path d="M369.772 25.9675C370.138 25.9675 370.503 26.0902 370.811 26.3379C371.675 27.0485 372.519 27.7707 373.353 28.5161C374.031 29.1156 374.089 30.155 373.48 30.8333C373.158 31.1944 372.709 31.3772 372.258 31.3772C371.871 31.3772 371.48 31.2406 371.17 30.9605C370.367 30.2522 369.557 29.5531 368.73 28.8749C368.031 28.2985 367.927 27.2661 368.503 26.5694C368.825 26.1712 369.3 25.9675 369.772 25.9675ZM269.429 29.6041C269.663 29.6897 269.883 29.8309 270.07 30.0277C270.688 30.6851 270.656 31.7221 269.996 32.3448C269.681 32.6434 269.367 32.9443 269.056 33.2499C269.054 33.1781 269.054 33.1087 269.054 33.0369C269.054 31.7615 269.179 30.6156 269.429 29.6041ZM267.862 29.8587C267.654 30.8309 267.549 31.8911 267.549 33.0369C267.549 33.6041 267.575 34.1504 267.626 34.6759C267.316 34.9513 266.927 35.0902 266.538 35.0902C266.126 35.0902 265.714 34.9351 265.394 34.6249C264.749 33.9907 264.735 32.9536 265.36 32.3055C266.142 31.5069 266.936 30.7245 267.751 29.9559C267.786 29.9212 267.823 29.8888 267.862 29.8587Z" fill="#0B0A15"/>
<path d="M268.876 29.5068C269.063 29.5068 269.251 29.5392 269.429 29.604C269.179 30.6156 269.054 31.7614 269.054 33.0369C269.054 33.1086 269.054 33.1781 269.056 33.2498C268.603 33.692 268.153 34.141 267.711 34.5924C267.684 34.6202 267.653 34.648 267.626 34.6758C267.575 34.1503 267.549 33.604 267.549 33.0369C267.549 31.891 267.654 30.8309 267.862 29.8586C268.158 29.6271 268.519 29.5068 268.876 29.5068Z" fill="#0B0A15"/>
<path d="M379.154 35.0971C379.614 35.0971 380.07 35.2893 380.397 35.6666C381.128 36.5069 381.836 37.3657 382.536 38.243C383.098 38.9513 382.975 39.9837 382.274 40.5485C381.975 40.787 381.617 40.9027 381.26 40.9027C380.774 40.9027 380.293 40.6874 379.968 40.28C379.302 39.4467 378.617 38.6203 377.918 37.8124C377.323 37.1272 377.399 36.0971 378.084 35.5022C378.392 35.2337 378.776 35.0971 379.154 35.0971ZM260.542 39.3217C260.748 39.3726 260.948 39.4652 261.128 39.5995C261.239 39.6805 261.334 39.7754 261.417 39.8772C261.436 40.3911 261.459 40.9004 261.494 41.405H261.385L260.542 39.3217ZM259.216 39.5601L260.57 42.9235H260.698C260.318 43.4444 259.945 43.9721 259.579 44.5045C259.262 44.9652 258.746 45.2152 258.223 45.2152C257.904 45.2152 257.582 45.1203 257.299 44.9259C256.556 44.4166 256.364 43.3911 256.876 42.6481C257.51 41.7268 258.163 40.824 258.836 39.9258C258.945 39.78 259.073 39.6574 259.216 39.5601Z" fill="#0B0A15"/>
<path d="M260.149 39.2731C260.281 39.2731 260.413 39.2893 260.542 39.3217L261.385 41.4051H261.494C261.459 40.9005 261.436 40.3912 261.417 39.8773C261.88 40.4491 261.917 41.2847 261.457 41.9004C261.202 42.2384 260.947 42.5787 260.697 42.9236H260.57L259.216 39.5602C259.491 39.3704 259.818 39.2731 260.149 39.2731Z" fill="#0B0A15"/>
<path d="M386.857 45.6829C387.413 45.6829 387.952 45.9653 388.267 46.4769C388.837 47.4237 389.394 48.3913 389.929 49.3704C390.367 50.1667 390.08 51.1598 389.283 51.5927C389.033 51.7316 388.763 51.7964 388.494 51.7964C387.918 51.7964 387.357 51.4908 387.057 50.9538C386.543 50.014 386.006 49.0834 385.455 48.169C384.989 47.3936 385.237 46.3866 386.013 45.919C386.274 45.7616 386.57 45.6829 386.857 45.6829ZM253.195 50.3774C253.445 50.3774 253.7 50.4353 253.938 50.5556C254.744 50.9677 255.063 51.9584 254.654 52.7663C254.168 53.72 253.693 54.6806 253.246 55.6598C253.181 55.8056 253.096 55.9352 252.999 56.051H250.524C250.112 55.5811 249.992 54.8936 250.267 54.2894C250.737 53.2709 251.23 52.2663 251.735 51.2755C252.024 50.7014 252.6 50.3774 253.195 50.3774ZM392.647 57.4214C393.3 57.4214 393.922 57.8126 394.17 58.4584C394.58 59.4954 394.957 60.5441 395.323 61.6089C395.617 62.4677 395.156 63.3959 394.297 63.6899C394.121 63.7501 393.943 63.7802 393.765 63.7802C393.084 63.7802 392.45 63.3473 392.219 62.6644C391.871 61.6528 391.508 60.6482 391.117 59.6575C390.788 58.8102 391.205 57.8635 392.05 57.5302L392.647 57.4214ZM248.246 62.5116L248.732 62.588C249.596 62.8566 250.077 63.7802 249.809 64.6436C249.494 65.6552 249.2 66.6876 248.924 67.7177C248.73 68.4561 248.07 68.9445 247.343 68.9445C247.205 68.9445 247.066 68.9283 246.927 68.8913C246.049 68.6598 245.524 67.764 245.755 66.8866C246.042 65.8033 246.35 64.7269 246.681 63.6644C246.899 62.9654 247.547 62.5116 248.246 62.5116ZM396.341 69.9792C397.103 69.9792 397.788 70.5163 397.941 71.2987C398.168 72.3867 398.364 73.4862 398.538 74.5904C398.679 75.4862 398.063 76.3242 397.172 76.4654C397.091 76.4769 397.01 76.4839 396.929 76.4839C396.117 76.4839 395.427 75.9121 395.297 75.1019C395.131 74.0441 394.938 72.9862 394.728 71.9445C394.547 71.0603 395.124 70.1945 396.015 70.0093L396.341 69.9792ZM245.452 75.3056L245.665 75.3195C246.559 75.433 247.195 76.2547 247.08 77.1575C246.943 78.213 246.832 79.2755 246.739 80.345C246.67 81.1829 246.008 81.8496 245.165 81.8496C245.1 81.8496 245.033 81.845 244.966 81.838C244.063 81.7593 243.39 80.9677 243.473 80.0649C243.57 78.9445 243.684 77.8357 243.827 76.7362C243.936 75.9075 244.637 75.3056 245.452 75.3056ZM397.769 82.9908H397.818C398.705 82.9908 399.434 83.6945 399.462 84.5834C399.478 85.3219 399.492 86.058 399.492 86.801L399.478 87.9283C399.473 88.7709 398.85 89.5626 398.019 89.5626C397.955 89.5626 397.888 89.558 397.818 89.5487C396.918 89.5348 396.193 88.7941 396.2 87.889L396.214 86.801C396.214 86.0904 396.2 85.3867 396.179 84.6806C396.156 83.7732 396.864 83.0209 397.769 82.9908ZM243.336 91.7177H246.624C246.654 92.2015 246.688 92.683 246.728 93.1598C246.804 94.0626 246.14 94.8566 245.235 94.933C245.181 94.9376 245.128 94.9399 245.075 94.9399C244.242 94.9399 243.536 94.2848 243.461 93.433C243.415 92.8658 243.374 92.2918 243.336 91.7177ZM397.07 96.0672L397.309 96.0788C398.205 96.2085 398.825 97.0395 398.698 97.9376C398.538 99.0441 398.357 100.146 398.154 101.239C398.001 102.028 397.316 102.574 396.545 102.574C396.443 102.574 396.341 102.565 396.239 102.546C395.348 102.382 394.758 101.523 394.932 100.632C395.124 99.5904 395.297 98.5325 395.45 97.4769C395.568 96.6552 396.272 96.0672 397.07 96.0672ZM246.554 101.375C247.311 101.375 247.989 101.901 248.156 102.669C248.283 103.269 248.42 103.866 248.563 104.461L246.684 107.718C246.228 107.528 245.862 107.134 245.728 106.621C245.448 105.544 245.186 104.461 244.945 103.366C244.755 102.477 245.318 101.607 246.202 101.414L246.554 101.375ZM394.107 108.822L394.612 108.905C395.478 109.188 395.943 110.111 395.663 110.975C395.316 112.037 394.945 113.095 394.554 114.144C394.307 114.806 393.684 115.208 393.019 115.208C392.827 115.208 392.633 115.174 392.441 115.104C391.596 114.785 391.168 113.836 391.48 112.993C391.857 111.986 392.212 110.975 392.55 109.956C392.774 109.264 393.415 108.822 394.107 108.822ZM388.985 120.894C389.246 120.894 389.51 120.952 389.751 121.086C390.554 121.507 390.853 122.5 390.432 123.301C389.906 124.289 389.36 125.266 388.797 126.227C388.492 126.748 387.943 127.039 387.381 127.039C387.098 127.039 386.811 126.965 386.55 126.81C385.767 126.35 385.513 125.352 385.966 124.57C386.513 123.646 387.031 122.713 387.536 121.764C387.832 121.206 388.394 120.894 388.985 120.894ZM381.883 131.903C382.228 131.903 382.58 132.009 382.881 132.241C383.598 132.796 383.728 133.829 383.175 134.546C382.489 135.424 381.793 136.294 381.068 137.146C380.744 137.533 380.283 137.732 379.818 137.732C379.443 137.732 379.068 137.604 378.758 137.345C378.066 136.762 377.982 135.725 378.563 135.033C379.256 134.213 379.929 133.38 380.582 132.535C380.901 132.118 381.39 131.903 381.883 131.903ZM373.013 141.539C373.455 141.539 373.899 141.718 374.216 142.07C374.832 142.743 374.786 143.778 374.119 144.389C373.295 145.144 372.457 145.882 371.603 146.597C371.297 146.859 370.925 146.984 370.552 146.984C370.084 146.984 369.617 146.785 369.293 146.398C368.709 145.706 368.797 144.669 369.489 144.086C370.311 143.401 371.117 142.692 371.904 141.975C372.219 141.685 372.617 141.539 373.013 141.539ZM362.644 149.537C363.184 149.537 363.707 149.806 364.022 150.292C364.517 151.053 364.297 152.067 363.536 152.558C362.596 153.16 361.647 153.743 360.681 154.306C360.42 154.458 360.135 154.53 359.855 154.53C359.29 154.53 358.742 154.239 358.438 153.718C357.985 152.935 358.246 151.931 359.029 151.477C359.95 150.938 360.86 150.375 361.762 149.799C362.031 149.627 362.337 149.537 362.644 149.537ZM351.08 155.658C351.721 155.658 352.323 156.028 352.591 156.658C352.945 157.489 352.554 158.449 351.721 158.803C350.695 159.239 349.661 159.648 348.617 160.04C348.427 160.111 348.232 160.144 348.043 160.144C347.381 160.144 346.758 159.739 346.51 159.079C346.188 158.234 346.624 157.285 347.471 156.972C348.469 156.595 349.462 156.204 350.441 155.787C350.651 155.697 350.862 155.658 351.08 155.658ZM338.637 159.699C339.381 159.699 340.052 160.211 340.235 160.968C340.436 161.85 339.887 162.734 339.003 162.94C337.922 163.188 336.827 163.419 335.725 163.625C335.631 163.641 335.533 163.648 335.438 163.648C334.663 163.648 333.966 163.104 333.816 162.31C333.651 161.426 334.235 160.57 335.124 160.403C336.179 160.204 337.223 159.986 338.26 159.743L338.637 159.699ZM313.468 161.433C313.98 161.759 314.288 162.359 314.209 163.002C314.133 163.713 313.621 164.287 312.952 164.428L313.468 161.433ZM325.672 161.549C326.536 161.549 327.258 162.229 327.311 163.1C327.362 164.002 326.67 164.778 325.762 164.829C324.654 164.894 323.54 164.931 322.418 164.945C322.362 164.952 322.306 164.956 322.251 164.956C321.434 164.956 320.765 164.176 320.76 163.324C320.749 162.419 321.471 161.678 322.374 161.665C323.45 161.651 324.519 161.616 325.58 161.556L325.672 161.549Z" fill="#0B0A15"/>
<path d="M321.337 39.7988C347.251 39.7988 368.339 60.8867 368.339 86.8011C368.339 112.718 347.251 133.803 321.337 133.803C320.297 133.803 319.267 133.769 318.246 133.704L319.367 127.197C320.019 127.229 320.674 127.246 321.337 127.246C343.64 127.246 361.781 109.104 361.781 86.8011C361.781 64.4955 343.64 46.3566 321.337 46.3566C300.695 46.3566 283.621 61.889 281.188 81.8821H274.589C276.51 63.477 289.103 48.1946 306.049 42.3497C307.582 42.94 309.281 43.2363 311.142 43.2363C313.14 43.2363 314.911 42.8103 316.452 41.9608C317.455 41.4099 318.304 40.7062 319.003 39.8543C319.776 39.8173 320.554 39.7988 321.337 39.7988ZM316.999 39.9955C315.517 41.3219 313.593 41.9886 311.223 41.9886C310.228 41.9886 309.249 41.8728 308.29 41.639C311.096 40.8265 314.005 40.271 316.999 39.9955Z" fill="#0B0A15"/>
<path d="M319.003 39.8541C318.304 40.706 317.455 41.4097 316.452 41.9606C314.911 42.8101 313.14 43.2361 311.142 43.2361C309.281 43.2361 307.582 42.9398 306.049 42.3495C306.788 42.0949 307.536 41.8588 308.29 41.6389C309.249 41.8727 310.228 41.9884 311.223 41.9884C313.593 41.9884 315.517 41.3217 316.999 39.9953C317.663 39.9351 318.332 39.8889 319.003 39.8541Z" fill="#0B0A15"/>
<path d="M274.589 91.7178H281.188C282.545 102.873 288.461 112.641 297.012 119.095L293.714 124.808C283.225 117.165 276.005 105.292 274.589 91.7178ZM305.522 124.026C306.869 124.6 308.255 125.104 309.672 125.533L308.552 132.037C306.374 131.419 304.26 130.651 302.223 129.739L305.522 124.026Z" fill="#0B0A15"/>
<path d="M78.6003 81.882C78.561 81.882 78.5147 81.882 78.4684 81.8843C78.5124 81.882 78.5563 81.882 78.6003 81.882ZM78.6003 81.882H134.552L140.23 91.7176H87.1165L102.924 119.095L106.223 124.808L120.584 149.683L121.543 151.343L154.681 208.739L143.325 208.739L97.7138 129.739L94.4151 124.026L88.1304 113.139L83.4476 85.963C83.0402 83.5741 80.9568 81.882 78.6073 81.882H78.6003ZM138.343 81.882L261.601 81.882L255.922 91.7176L144.022 91.7176L138.343 81.882ZM265.385 81.882H321.337C318.98 81.882 316.904 83.5741 316.489 85.963L311.807 113.139L305.522 124.026L302.223 129.739L288.242 153.954L286.598 156.801L256.61 208.739H245.256L293.714 124.808L297.013 119.095L312.82 91.7176H259.707L265.385 81.882ZM321.337 81.882H321.341H321.332H321.337ZM321.346 81.882H321.383H321.346ZM321.397 81.882H321.399H321.397ZM149.003 218.574H160.36L199.968 287.174L239.577 218.574H250.932L205.163 297.847L204.225 299.47C203.348 300.986 201.728 301.926 199.968 301.926C198.214 301.926 196.587 300.986 195.712 299.47L194.774 297.847L180.066 272.371L178.374 269.442L149.003 218.574Z" fill="#0B0A15"/>
<path d="M122.478 56.0512L277.457 56.0512C278.047 56.0512 278.584 56.366 278.878 56.8706C279.174 57.3753 279.174 58.0049 278.878 58.5118L265.385 81.8822L259.707 91.7179L201.39 192.723C201.096 193.232 200.531 193.486 199.968 193.486C199.404 193.486 198.841 193.232 198.545 192.723L152.343 112.699L150.325 109.202L140.23 91.7179L134.552 81.8822L121.059 58.5118C120.769 58.0049 120.769 57.3753 121.059 56.8706C121.353 56.366 121.897 56.0512 122.478 56.0512ZM274.621 59.3289L125.32 59.3289L138.343 81.8822L144.022 91.7179L199.968 188.623L246.684 107.718L248.563 104.461L255.922 91.7179L261.6 81.8822L274.621 59.3289Z" fill="#0B0A15"/>
<path d="M104.6 208.739L295.334 208.739L294.633 212.817C294.172 215.493 295.971 218.042 298.647 218.505C298.929 218.553 299.212 218.577 299.489 218.577C301.827 218.577 303.915 216.882 304.327 214.489L304.344 214.387C304.225 215.188 303.906 215.961 303.399 216.632L251.068 285.473L249.08 288.088L232.163 310.348L228.17 315.595L203.887 347.54C202.955 348.764 201.461 349.375 199.968 349.375C198.475 349.375 196.982 348.764 196.054 347.54L171.769 315.593L167.779 310.345L96.6489 216.771C97.5656 217.889 98.9545 218.577 100.45 218.577C100.73 218.577 101.012 218.553 101.295 218.505C103.973 218.042 105.765 215.493 105.304 212.817L104.6 208.739ZM289.566 218.574L110.373 218.574L156.693 279.507L158.681 282.123L175.603 304.382L179.593 309.632L199.968 336.438L220.343 309.635L224.334 304.385L289.566 218.574Z" fill="#0B0A15"/>
<path d="M321.332 81.882H321.399C321.656 81.8866 321.911 81.9074 322.177 81.9514C324.853 82.4144 326.645 84.9561 326.184 87.6343L319.367 127.197L318.246 133.704L313.469 161.433L312.952 164.428L304.344 214.387L304.327 214.489C303.915 216.882 301.827 218.577 299.489 218.577C299.212 218.577 298.929 218.553 298.647 218.505C295.971 218.042 294.172 215.493 294.633 212.817L295.334 208.739L308.552 132.037L309.672 125.532L311.807 113.139L316.489 85.963C316.904 83.5741 318.98 81.882 321.332 81.882Z" fill="#0B0A15"/>
<path d="M78.6072 81.882C80.9568 81.882 83.0401 83.5741 83.4475 85.963L88.1304 113.139L90.2646 125.53L91.3873 132.035L96.1558 159.72L96.6837 162.783L104.6 208.739L105.304 212.817C105.765 215.493 103.973 218.042 101.295 218.505C101.012 218.553 100.73 218.577 100.45 218.577C98.9545 218.577 97.5656 217.889 96.6489 216.771C96.1281 216.134 95.7577 215.359 95.6072 214.489L81.6906 133.701L80.5702 127.197L73.7531 87.6343C73.2924 84.9561 75.091 82.4144 77.7669 81.9514C78.0031 81.9121 78.2392 81.8913 78.4684 81.8843C78.5146 81.882 78.5609 81.882 78.6072 81.882Z" fill="#0B0A15"/>
</g>
<path d="M203.04 359.449C203.649 359.449 204.161 359.928 204.198 360.544C204.232 361.181 203.744 361.727 203.103 361.764C202.32 361.808 201.533 361.836 200.741 361.845H200.728C200.096 361.845 199.575 361.338 199.57 360.702C199.563 360.065 200.073 359.54 200.711 359.53C201.471 359.521 202.225 359.493 202.975 359.454L203.04 359.449ZM191.505 358.871L191.686 358.889C192.429 359.007 193.179 359.104 193.929 359.192C194.566 359.264 195.024 359.838 194.945 360.475C194.873 361.109 194.313 361.584 193.667 361.493C192.88 361.403 192.098 361.299 191.325 361.171C190.693 361.072 190.262 360.479 190.362 359.847C190.452 359.278 190.945 358.871 191.505 358.871ZM212.195 358.141C212.718 358.141 213.193 358.505 213.32 359.037C213.464 359.662 213.075 360.285 212.452 360.431C211.688 360.607 210.915 360.769 210.137 360.915C209.505 361.023 208.908 360.616 208.79 359.986C208.672 359.364 209.084 358.757 209.711 358.639C210.459 358.5 211.195 358.345 211.927 358.174L212.195 358.141ZM182.526 356.646L182.901 356.709C183.616 356.949 184.334 357.178 185.068 357.396C185.679 357.577 186.031 358.22 185.85 358.834C185.67 359.445 185.026 359.796 184.413 359.616C183.654 359.391 182.897 359.151 182.156 358.898C181.549 358.695 181.225 358.035 181.434 357.428C181.596 356.949 182.047 356.646 182.526 356.646ZM220.98 355.29C221.431 355.29 221.855 355.551 222.045 355.996C222.295 356.584 222.019 357.262 221.431 357.509C220.707 357.817 219.975 358.107 219.239 358.382C218.647 358.609 217.973 358.306 217.751 357.704C217.524 357.107 217.832 356.438 218.429 356.215C219.135 355.949 219.834 355.674 220.526 355.38L220.98 355.29ZM174.063 352.903L174.619 353.046C175.279 353.41 175.952 353.762 176.63 354.095C177.2 354.377 177.441 355.072 177.156 355.646C176.871 356.215 176.179 356.452 175.605 356.171C174.894 355.824 174.195 355.456 173.503 355.077C172.943 354.769 172.739 354.065 173.047 353.505C173.258 353.121 173.651 352.903 174.063 352.903ZM229.144 350.968C229.524 350.968 229.894 351.158 230.117 351.5C230.466 352.04 230.311 352.753 229.772 353.102C229.107 353.526 228.438 353.938 227.755 354.336C227.205 354.658 226.494 354.472 226.174 353.919C225.853 353.368 226.038 352.658 226.589 352.338C227.242 351.959 227.883 351.56 228.519 351.153C228.709 351.03 228.927 350.968 229.144 350.968ZM166.369 347.776C166.621 347.776 166.873 347.861 167.086 348.028C167.679 348.498 168.281 348.961 168.892 349.403C169.406 349.783 169.519 350.507 169.14 351.021C168.765 351.537 168.04 351.651 167.526 351.276C166.887 350.81 166.26 350.329 165.644 349.838C165.142 349.44 165.061 348.711 165.459 348.213C165.691 347.924 166.024 347.776 166.369 347.776ZM236.464 345.32C236.776 345.32 237.089 345.447 237.313 345.697C237.748 346.171 237.716 346.903 237.246 347.334C236.663 347.866 236.07 348.387 235.471 348.891C234.98 349.303 234.248 349.241 233.839 348.752C233.424 348.264 233.489 347.53 233.978 347.121C234.556 346.637 235.126 346.134 235.681 345.627C235.904 345.424 236.184 345.32 236.464 345.32ZM159.649 341.424C159.966 341.424 160.283 341.551 160.512 341.808C161.015 342.373 161.531 342.924 162.054 343.468C162.503 343.928 162.489 344.66 162.033 345.104C161.57 345.546 160.839 345.537 160.397 345.081C159.848 344.516 159.311 343.938 158.785 343.35C158.362 342.875 158.401 342.141 158.876 341.718C159.098 341.519 159.373 341.424 159.649 341.424ZM242.725 338.516C242.971 338.516 243.218 338.593 243.431 338.755C243.938 339.148 244.029 339.877 243.64 340.384C243.156 341.002 242.663 341.618 242.151 342.22C241.739 342.709 241.012 342.776 240.519 342.359C240.031 341.947 239.973 341.215 240.383 340.727C240.871 340.148 241.346 339.56 241.809 338.963C242.033 338.669 242.378 338.516 242.725 338.516ZM154.107 334.028C154.491 334.028 154.871 334.218 155.089 334.57C155.491 335.211 155.901 335.84 156.332 336.463C156.688 336.993 156.556 337.711 156.029 338.074C155.498 338.431 154.781 338.294 154.42 337.771C153.975 337.123 153.547 336.463 153.126 335.794C152.788 335.252 152.954 334.542 153.496 334.204L154.107 334.028ZM247.739 330.746L248.281 330.88C248.848 331.178 249.059 331.88 248.76 332.445C248.39 333.141 248.005 333.833 247.607 334.509C247.283 335.063 246.577 335.248 246.022 334.921C245.471 334.597 245.288 333.891 245.61 333.34C245.994 332.688 246.36 332.028 246.718 331.359C246.927 330.965 247.323 330.746 247.739 330.746ZM149.906 325.799C150.364 325.799 150.797 326.07 150.982 326.521C151.262 327.218 151.561 327.91 151.878 328.593C152.14 329.176 151.887 329.864 151.304 330.13C150.725 330.396 150.038 330.139 149.772 329.556C149.445 328.845 149.133 328.123 148.836 327.394C148.596 326.801 148.88 326.123 149.473 325.884L149.906 325.799ZM251.357 322.222L251.714 322.28C252.325 322.479 252.654 323.13 252.454 323.741C252.211 324.491 251.948 325.239 251.672 325.979C251.448 326.577 250.783 326.875 250.181 326.658C249.584 326.431 249.281 325.762 249.503 325.165C249.769 324.456 250.017 323.741 250.258 323.023C250.415 322.535 250.869 322.222 251.357 322.222ZM147.181 316.963C147.714 316.963 148.193 317.336 148.311 317.877C148.468 318.618 148.644 319.352 148.836 320.079C148.998 320.699 148.628 321.331 148.012 321.493C147.392 321.658 146.76 321.287 146.598 320.667C146.399 319.908 146.214 319.144 146.045 318.371C145.91 317.741 146.309 317.127 146.931 316.991L147.181 316.963ZM253.45 313.215L253.617 313.225C254.251 313.315 254.688 313.903 254.598 314.537C254.485 315.317 254.357 316.095 254.214 316.868C254.096 317.498 253.494 317.905 252.862 317.792C252.232 317.674 251.818 317.067 251.941 316.44C252.075 315.702 252.198 314.956 252.306 314.211C252.387 313.632 252.885 313.215 253.45 313.215ZM146.005 307.794C146.623 307.794 147.135 308.278 147.163 308.903C147.195 309.662 147.244 310.417 147.302 311.164C147.357 311.801 146.887 312.361 146.248 312.417C145.616 312.479 145.052 311.996 144.996 311.359C144.934 310.581 144.883 309.794 144.848 309.002C144.82 308.361 145.318 307.822 145.954 307.794H146.005ZM253.978 303.984C254.603 303.984 255.119 304.482 255.135 305.109C255.149 305.63 255.158 306.151 255.158 306.674L255.149 307.47C255.144 308.107 254.626 308.614 253.992 308.614H253.978C253.341 308.604 252.83 308.081 252.834 307.442L252.843 306.674C252.843 306.171 252.834 305.674 252.82 305.178C252.804 304.535 253.304 304.007 253.943 303.984H253.978ZM146.403 298.558L146.552 298.567C147.186 298.648 147.633 299.227 147.552 299.866C147.457 300.611 147.376 301.361 147.311 302.116C147.258 302.755 146.707 303.243 146.059 303.169C145.422 303.116 144.947 302.556 145.005 301.917C145.075 301.127 145.156 300.345 145.255 299.567C145.332 298.984 145.829 298.558 146.403 298.558ZM252.934 294.796C253.473 294.796 253.957 295.176 254.066 295.729C254.223 296.498 254.362 297.276 254.485 298.051C254.584 298.685 254.151 299.278 253.522 299.377C252.871 299.472 252.297 299.042 252.198 298.414C252.079 297.667 251.943 296.921 251.795 296.185C251.667 295.56 252.075 294.952 252.705 294.82L252.934 294.796ZM148.373 289.526L148.718 289.579C149.327 289.769 149.667 290.421 149.478 291.03C149.255 291.746 149.047 292.472 148.853 293.202C148.691 293.82 148.063 294.192 147.443 294.028C146.822 293.866 146.452 293.232 146.616 292.614C146.818 291.85 147.035 291.09 147.272 290.338C147.424 289.847 147.88 289.526 148.373 289.526ZM250.325 285.931C250.786 285.931 251.225 286.206 251.401 286.664C251.691 287.396 251.957 288.137 252.216 288.889C252.424 289.493 252.098 290.148 251.492 290.357C250.89 290.57 250.23 290.239 250.022 289.634C249.779 288.919 249.522 288.211 249.244 287.509C249.015 286.912 249.309 286.243 249.906 286.007L250.325 285.931ZM151.869 280.958L152.394 281.083C152.964 281.373 153.188 282.074 152.899 282.644C152.556 283.317 152.221 283.995 151.906 284.688C151.642 285.266 150.957 285.523 150.373 285.252C149.79 284.986 149.535 284.299 149.802 283.72C150.133 283.002 150.48 282.292 150.839 281.59C151.042 281.188 151.447 280.958 151.869 280.958ZM246.239 277.644C246.633 277.644 247.012 277.843 247.232 278.204C247.635 278.873 248.029 279.556 248.408 280.248C248.716 280.808 248.512 281.509 247.952 281.817C247.392 282.125 246.686 281.921 246.378 281.366C246.017 280.699 245.637 280.044 245.248 279.398C244.917 278.852 245.096 278.141 245.642 277.81L246.239 277.644ZM156.779 273.118C157.019 273.118 157.262 273.197 157.471 273.35C157.982 273.734 158.086 274.463 157.702 274.972C157.248 275.574 156.806 276.188 156.376 276.813C156.015 277.336 155.292 277.472 154.767 277.111C154.241 276.748 154.107 276.026 154.468 275.502C154.915 274.85 155.378 274.213 155.853 273.581C156.077 273.278 156.427 273.118 156.779 273.118ZM240.799 270.171C241.126 270.171 241.445 270.308 241.677 270.574C242.193 271.167 242.693 271.771 243.186 272.391C243.584 272.894 243.498 273.62 243.001 274.019C242.503 274.417 241.772 274.331 241.373 273.829C240.904 273.241 240.42 272.658 239.927 272.088C239.505 271.604 239.561 270.877 240.045 270.456C240.262 270.266 240.533 270.171 240.799 270.171ZM162.941 266.225C163.248 266.225 163.552 266.347 163.783 266.59C164.221 267.056 164.198 267.789 163.732 268.227C163.186 268.743 162.647 269.276 162.119 269.815C161.674 270.271 160.943 270.285 160.482 269.836C160.026 269.389 160.017 268.658 160.459 268.199C161.01 267.634 161.57 267.083 162.147 266.542C162.366 266.333 162.656 266.225 162.941 266.225ZM234.177 263.725C234.434 263.725 234.691 263.81 234.908 263.986C235.519 264.489 236.119 265 236.705 265.523C237.184 265.949 237.223 266.681 236.797 267.16C236.369 267.634 235.64 267.676 235.161 267.25C234.596 266.748 234.024 266.257 233.438 265.778C232.945 265.37 232.876 264.641 233.281 264.148C233.51 263.868 233.843 263.725 234.177 263.725ZM170.174 260.479C170.549 260.479 170.917 260.66 171.142 260.993C171.496 261.528 171.35 262.245 170.818 262.6C170.188 263.014 169.57 263.449 168.959 263.891C168.443 264.266 167.716 264.148 167.341 263.634C166.966 263.118 167.077 262.396 167.598 262.021C168.23 261.553 168.878 261.107 169.538 260.669C169.732 260.537 169.954 260.479 170.174 260.479ZM226.549 258.489L227.119 258.644C227.806 259.033 228.485 259.433 229.154 259.854C229.695 260.192 229.857 260.908 229.519 261.449C229.181 261.993 228.466 262.16 227.924 261.817C227.286 261.414 226.635 261.03 225.975 260.655C225.42 260.338 225.225 259.632 225.54 259.076C225.753 258.701 226.147 258.489 226.549 258.489ZM178.281 256.042C178.725 256.042 179.149 256.301 179.339 256.734C179.598 257.317 179.334 258.005 178.746 258.259C178.056 258.565 177.378 258.882 176.7 259.218C176.13 259.502 175.434 259.262 175.154 258.688C174.869 258.118 175.103 257.421 175.677 257.141C176.383 256.794 177.093 256.458 177.816 256.141L178.281 256.042ZM218.135 254.632L218.529 254.699C219.269 254.968 220.012 255.252 220.739 255.551C221.332 255.789 221.617 256.468 221.376 257.056C221.133 257.653 220.454 257.938 219.867 257.692C219.165 257.408 218.461 257.137 217.746 256.88C217.144 256.667 216.834 256.002 217.045 255.401C217.218 254.926 217.661 254.632 218.135 254.632ZM187.033 253.063C187.554 253.063 188.024 253.417 188.156 253.94C188.309 254.565 187.929 255.188 187.311 255.343C186.573 255.523 185.846 255.722 185.126 255.935C184.503 256.116 183.864 255.762 183.688 255.148C183.508 254.537 183.86 253.891 184.471 253.715C185.225 253.489 185.985 253.285 186.753 253.095L187.033 253.063ZM209.188 252.28L209.387 252.294C210.165 252.431 210.943 252.579 211.711 252.752C212.334 252.887 212.728 253.502 212.591 254.125C212.457 254.75 211.836 255.148 211.218 255.012C210.48 254.85 209.739 254.704 208.994 254.579C208.364 254.47 207.941 253.873 208.049 253.241C208.149 252.678 208.637 252.28 209.188 252.28ZM196.167 251.625C196.769 251.625 197.274 252.09 197.32 252.701C197.364 253.34 196.885 253.896 196.248 253.94C195.489 253.995 194.739 254.063 193.991 254.148C193.336 254.211 192.781 253.759 192.709 253.127C192.64 252.489 193.098 251.919 193.73 251.847C194.508 251.757 195.295 251.69 196.082 251.63L196.167 251.625ZM199.978 251.495C200.769 251.495 201.556 251.512 202.343 251.544C202.98 251.572 203.478 252.114 203.45 252.752C203.424 253.389 202.866 253.873 202.244 253.859C201.494 253.826 200.737 253.81 199.978 253.81C199.341 253.81 198.82 253.289 198.82 252.653C198.82 252.009 199.341 251.495 199.978 251.495Z" fill="#0B0A15"/>
<path d="M199.978 335.229C215.725 335.229 228.533 322.422 228.533 306.674C228.533 290.926 215.725 278.118 199.978 278.118C184.232 278.118 171.422 290.926 171.422 306.674C171.422 322.422 184.232 335.229 199.978 335.229ZM199.978 273.491C218.276 273.491 233.165 288.378 233.165 306.674C233.165 324.97 218.276 339.859 199.978 339.859C181.681 339.859 166.793 324.97 166.793 306.674C166.793 288.378 181.681 273.491 199.978 273.491Z" fill="#0B0A15"/>
<path d="M117.35 177.461C117.961 177.461 118.471 177.94 118.508 178.556C118.545 179.192 118.056 179.741 117.413 179.776C116.63 179.822 115.846 179.847 115.054 179.857C114.48 179.94 113.892 179.357 113.883 178.713C113.873 178.077 114.385 177.551 115.022 177.542C115.781 177.533 116.535 177.507 117.288 177.465L117.35 177.461ZM105.818 176.882L105.998 176.901C106.739 177.019 107.489 177.118 108.239 177.204C108.878 177.276 109.334 177.85 109.258 178.489C109.191 179.121 108.619 179.6 107.978 179.505C107.191 179.415 106.408 179.31 105.635 179.183C105.003 179.084 104.572 178.493 104.672 177.859C104.762 177.29 105.255 176.882 105.818 176.882ZM126.505 176.155C127.031 176.155 127.505 176.516 127.63 177.049C127.776 177.674 127.387 178.299 126.762 178.442C125.998 178.618 125.225 178.783 124.447 178.926C123.82 179.035 123.218 178.628 123.1 178C122.985 177.375 123.394 176.769 124.024 176.653C124.769 176.512 125.505 176.359 126.239 176.185L126.505 176.155ZM96.8387 174.658L97.2137 174.722C97.9266 174.961 98.6466 175.192 99.378 175.41C99.9892 175.59 100.341 176.232 100.16 176.847C99.9799 177.456 99.3387 177.815 98.7229 177.627C97.9637 177.403 97.209 177.162 96.466 176.91C95.8618 176.706 95.5354 176.046 95.7438 175.44C95.9058 174.961 96.3595 174.658 96.8387 174.658ZM135.29 173.301C135.741 173.301 136.167 173.565 136.357 174.007C136.605 174.595 136.329 175.273 135.742 175.521C135.019 175.829 134.285 176.118 133.549 176.394C132.952 176.621 132.288 176.317 132.061 175.715C131.836 175.121 132.144 174.449 132.739 174.229C133.445 173.963 134.147 173.685 134.839 173.391L135.29 173.301ZM88.3734 170.915L88.9313 171.06C89.591 171.421 90.2646 171.773 90.9428 172.109C91.5123 172.389 91.7507 173.086 91.466 173.66C91.1812 174.229 90.4891 174.463 89.915 174.183C89.2067 173.836 88.5053 173.47 87.8132 173.09C87.253 172.783 87.0493 172.077 87.3572 171.516C87.5701 171.132 87.9637 170.915 88.3734 170.915ZM143.454 168.979C143.834 168.979 144.207 169.169 144.427 169.514C144.776 170.051 144.621 170.766 144.084 171.114C143.42 171.54 142.751 171.949 142.068 172.347C141.515 172.669 140.806 172.484 140.485 171.933C140.163 171.38 140.35 170.671 140.901 170.35C141.552 169.97 142.193 169.572 142.832 169.165C143.022 169.044 143.239 168.979 143.454 168.979ZM80.679 165.787C80.9336 165.787 81.1859 165.873 81.3988 166.042C81.9914 166.512 82.591 166.972 83.2021 167.415C83.7183 167.794 83.8294 168.519 83.4498 169.035C83.0748 169.549 82.3526 169.662 81.8364 169.287C81.1998 168.822 80.5702 168.343 79.9567 167.85C79.4544 167.452 79.3734 166.725 79.7715 166.227C80.0007 165.938 80.3364 165.787 80.679 165.787ZM150.774 163.334C151.086 163.334 151.399 163.459 151.626 163.709C152.059 164.183 152.026 164.915 151.556 165.345C150.973 165.877 150.38 166.398 149.781 166.905C149.288 167.32 148.559 167.253 148.149 166.764C147.737 166.276 147.799 165.544 148.288 165.132C148.867 164.648 149.436 164.146 149.994 163.641C150.214 163.438 150.494 163.334 150.774 163.334ZM73.9613 159.435C74.2785 159.435 74.5933 159.563 74.8248 159.82C75.3271 160.384 75.841 160.938 76.3664 161.479C76.8132 161.94 76.7993 162.674 76.3433 163.116C75.8826 163.563 75.1488 163.549 74.7067 163.093C74.1604 162.528 73.6211 161.949 73.0979 161.361C72.672 160.887 72.7136 160.155 73.1882 159.729C73.4104 159.53 73.6859 159.435 73.9613 159.435ZM157.035 156.528C157.281 156.528 157.529 156.604 157.742 156.769C158.248 157.162 158.339 157.889 157.95 158.396C157.466 159.014 156.973 159.63 156.461 160.232C156.052 160.725 155.323 160.783 154.829 160.371C154.341 159.961 154.283 159.227 154.695 158.739C155.184 158.16 155.658 157.572 156.119 156.977C156.346 156.683 156.688 156.528 157.035 156.528ZM68.4174 152.04C68.8016 152.04 69.1813 152.229 69.3988 152.581C69.8016 153.225 70.2137 153.852 70.6419 154.477C71.0007 155.005 70.8687 155.725 70.3386 156.086C69.8109 156.447 69.091 156.308 68.7299 155.783C68.2877 155.137 67.8572 154.477 67.4359 153.806C67.0979 153.264 67.2646 152.553 67.8086 152.215L68.4174 152.04ZM162.052 148.757L162.593 148.891C163.158 149.19 163.371 149.891 163.073 150.456C162.702 151.153 162.318 151.845 161.92 152.523C161.593 153.074 160.885 153.259 160.332 152.935C159.781 152.609 159.6 151.903 159.922 151.352C160.306 150.702 160.672 150.042 161.029 149.371C161.237 148.979 161.635 148.757 162.052 148.757ZM64.2183 143.81C64.6743 143.81 65.1095 144.081 65.2947 144.535C65.5747 145.229 65.8734 145.921 66.1882 146.604C66.4521 147.188 66.1974 147.875 65.6141 148.141C65.0354 148.408 64.3479 148.151 64.0817 147.567C63.7576 146.859 63.4451 146.134 63.1465 145.408C62.9058 144.815 63.1905 144.137 63.7831 143.896L64.2183 143.81ZM165.667 140.234L166.024 140.294C166.635 140.493 166.966 141.144 166.767 141.752C166.522 142.505 166.26 143.25 165.985 143.991C165.758 144.593 165.093 144.891 164.492 144.669C163.894 144.445 163.593 143.773 163.813 143.178C164.079 142.468 164.329 141.752 164.568 141.035C164.728 140.546 165.179 140.234 165.667 140.234ZM61.4914 134.977C62.0262 134.977 62.5053 135.347 62.621 135.889C62.7808 136.632 62.9567 137.364 63.1465 138.09C63.3086 138.711 62.9382 139.343 62.3224 139.507C61.7044 139.669 61.0701 139.299 60.9081 138.678C60.709 137.919 60.5238 137.155 60.3572 136.382C60.2206 135.755 60.6187 135.139 61.2437 135.002L61.4914 134.977ZM167.76 131.229L167.929 131.236C168.561 131.329 168.998 131.914 168.908 132.549C168.797 133.331 168.67 134.109 168.524 134.882C168.404 135.509 167.802 135.921 167.172 135.803C166.545 135.685 166.128 135.081 166.251 134.452C166.387 133.715 166.508 132.97 166.617 132.222C166.698 131.644 167.195 131.229 167.76 131.229ZM60.3155 125.808C60.9359 125.808 61.4475 126.292 61.4729 126.915C61.5053 127.674 61.5539 128.431 61.6141 129.176C61.6673 129.813 61.1974 130.373 60.5609 130.428C59.9312 130.491 59.3618 130.007 59.3085 129.371C59.2437 128.593 59.1951 127.806 59.1581 127.014C59.1326 126.373 59.628 125.833 60.2669 125.808H60.3155ZM168.29 121.996C168.913 121.996 169.429 122.493 169.448 123.123C169.461 123.641 169.471 124.162 169.471 124.685L169.461 125.482C169.457 126.123 168.998 126.725 168.29 126.625C167.651 126.616 167.142 126.093 167.147 125.454L167.156 124.685C167.156 124.185 167.147 123.688 167.133 123.19C167.114 122.549 167.617 122.019 168.253 121.996H168.29ZM60.7137 116.572L60.8641 116.579C61.4961 116.662 61.9428 117.241 61.8618 117.877C61.7669 118.623 61.6859 119.373 61.6234 120.13C61.5632 120.766 61.0261 121.264 60.371 121.183C59.7321 121.127 59.2576 120.567 59.3178 119.931C59.385 119.139 59.466 118.357 59.5655 117.579C59.6419 116.996 60.1396 116.572 60.7137 116.572ZM167.246 112.81C167.783 112.81 168.267 113.19 168.376 113.741C168.533 114.509 168.674 115.287 168.797 116.065C168.897 116.697 168.461 117.289 167.834 117.389C167.181 117.479 166.607 117.056 166.508 116.426C166.392 115.681 166.255 114.935 166.105 114.197C165.98 113.574 166.387 112.963 167.015 112.831L167.246 112.81ZM62.6859 107.537L63.0285 107.593C63.6396 107.783 63.9776 108.433 63.7877 109.044C63.5678 109.757 63.3595 110.486 63.165 111.213C63.0007 111.833 62.3687 112.204 61.753 112.042C61.1349 111.877 60.7646 111.246 60.9266 110.625C61.1303 109.861 61.3479 109.102 61.5817 108.352C61.7368 107.859 62.1928 107.537 62.6859 107.537ZM164.637 103.942C165.098 103.942 165.536 104.22 165.714 104.676C166.003 105.408 166.269 106.151 166.526 106.901C166.735 107.507 166.408 108.162 165.804 108.371C165.202 108.577 164.542 108.252 164.334 107.646C164.089 106.931 163.832 106.222 163.556 105.521C163.325 104.924 163.619 104.255 164.216 104.021L164.637 103.942ZM66.1789 98.97L66.7044 99.0974C67.2738 99.3867 67.5007 100.086 67.2113 100.658C66.8664 101.331 66.5331 102.009 66.216 102.699C65.9544 103.278 65.2715 103.537 64.6836 103.264C64.1002 102.998 63.8479 102.31 64.1141 101.732C64.4428 101.014 64.7924 100.303 65.1488 99.602C65.3525 99.2015 65.7599 98.97 66.1789 98.97ZM160.549 95.6552C160.943 95.6552 161.323 95.8543 161.545 96.2177C161.948 96.8867 162.341 97.5696 162.721 98.2594C163.026 98.8219 162.823 99.521 162.262 99.8288C161.702 100.137 160.996 99.933 160.691 99.3774C160.327 98.7131 159.948 98.0557 159.559 97.4099C159.23 96.8636 159.406 96.1529 159.952 95.8242L160.549 95.6552ZM71.091 91.1298C71.3294 91.1298 71.5748 91.2084 71.7808 91.3612C72.2923 91.7455 72.3965 92.4723 72.0123 92.9839C71.5609 93.5858 71.1164 94.1992 70.6882 94.8242C70.3271 95.3497 69.6025 95.4839 69.0771 95.1228C68.5539 94.7617 68.4174 94.0372 68.7808 93.514C69.2276 92.8612 69.6882 92.2247 70.1627 91.5927C70.3896 91.2895 70.7368 91.1298 71.091 91.1298ZM155.11 88.183C155.436 88.183 155.758 88.3173 155.987 88.5858C156.503 89.1784 157.005 89.7825 157.498 90.4029C157.897 90.9052 157.809 91.6321 157.313 92.0302C156.811 92.4284 156.082 92.3427 155.686 91.8404C155.214 91.2524 154.73 90.6691 154.239 90.0997C153.818 89.6159 153.871 88.889 154.355 88.4677C154.573 88.2779 154.843 88.183 155.11 88.183ZM77.253 84.2362C77.5609 84.2362 77.8618 84.3589 78.0933 84.602C78.5308 85.0672 78.5099 85.801 78.0424 86.2385C77.4961 86.7547 76.959 87.2872 76.429 87.8265C75.9868 88.2872 75.253 88.2964 74.7924 87.8474C74.3364 87.4006 74.3271 86.6691 74.7692 86.2108C75.3224 85.646 75.8826 85.095 76.4567 84.5534C76.6789 84.345 76.9683 84.2362 77.253 84.2362ZM148.487 81.7362C148.744 81.7362 149.003 81.8219 149.221 81.9978C149.829 82.5001 150.427 83.0094 151.015 83.5348C151.494 83.9608 151.535 84.6922 151.105 85.1714C150.679 85.646 149.948 85.6876 149.473 85.2617C148.908 84.7594 148.334 84.2663 147.751 83.7871C147.258 83.382 147.186 82.6529 147.591 82.1599C147.818 81.8798 148.154 81.7362 148.487 81.7362ZM84.4868 78.4885C84.8618 78.4885 85.2276 78.6691 85.4544 79.0047C85.8063 79.5371 85.6627 80.257 85.128 80.6089C84.5007 81.0256 83.8804 81.4608 83.2692 81.9029C82.7553 82.2733 82.0262 82.1599 81.6512 81.646C81.2762 81.1298 81.3896 80.4052 81.9081 80.0302C82.5424 79.5649 83.1882 79.1182 83.8479 78.6783C84.0424 78.5487 84.2646 78.4885 84.4868 78.4885ZM140.86 76.5001L141.429 76.6529C142.117 77.0418 142.795 77.4445 143.464 77.8658C144.008 78.2038 144.17 78.9191 143.829 79.4608C143.491 80.0048 142.776 80.1668 142.235 79.8265C141.598 79.426 140.945 79.0418 140.285 78.6668C139.73 78.3497 139.535 77.6436 139.853 77.0881C140.063 76.7131 140.457 76.5001 140.86 76.5001ZM92.5933 74.0534C93.0355 74.0534 93.4613 74.3126 93.6512 74.7455C93.9081 75.3288 93.6465 76.0163 93.0586 76.2686C92.3664 76.5765 91.6882 76.8936 91.01 77.2269C90.4359 77.5117 89.7438 77.2733 89.4637 76.6992C89.179 76.1297 89.4151 75.433 89.9892 75.1529C90.6929 74.8057 91.4035 74.47 92.1257 74.1529L92.5933 74.0534ZM132.445 72.6436L132.839 72.7108C133.582 72.9793 134.322 73.264 135.049 73.5603C135.642 73.801 135.927 74.4793 135.688 75.0672C135.443 75.6645 134.769 75.9492 134.177 75.7038C133.478 75.4191 132.772 75.1483 132.056 74.8913C131.457 74.6784 131.144 74.014 131.357 73.4121C131.529 72.9376 131.971 72.6436 132.445 72.6436ZM101.346 71.0742C101.866 71.0742 102.336 71.4284 102.466 71.9515C102.621 72.5765 102.241 73.1992 101.621 73.3543C100.885 73.5348 100.156 73.7339 99.4382 73.9445C98.8132 74.1228 98.1767 73.7733 98.0007 73.1598C97.8179 72.5487 98.172 71.9029 98.7808 71.7246C99.5377 71.5001 100.297 71.2964 101.066 71.1066L101.346 71.0742ZM123.498 70.2918L123.698 70.3057C124.475 70.4422 125.253 70.5904 126.022 70.7617C126.647 70.8982 127.04 71.514 126.904 72.1367C126.767 72.7617 126.154 73.1598 125.529 73.0233C124.792 72.8612 124.049 72.7154 123.304 72.5904C122.677 72.4816 122.251 71.8843 122.36 71.2501C122.459 70.6899 122.948 70.2918 123.498 70.2918ZM110.478 69.6367C111.079 69.6367 111.586 70.102 111.63 70.7131C111.677 71.3496 111.197 71.9075 110.559 71.9515C109.799 72.0071 109.049 72.0742 108.304 72.1598C107.656 72.2223 107.091 71.7709 107.019 71.139C106.952 70.5001 107.408 69.9306 108.04 69.8589C108.818 69.7686 109.605 69.6992 110.392 69.6413L110.478 69.6367ZM114.29 69.5071C115.079 69.5071 115.866 69.5232 116.654 69.5557C117.292 69.5834 117.788 70.1251 117.762 70.7617C117.735 71.4006 117.165 71.8797 116.554 71.8705C115.804 71.8381 115.049 71.8219 114.29 71.8219C113.651 71.8219 113.133 71.301 113.133 70.6645C113.133 70.0209 113.651 69.5071 114.29 69.5071Z" fill="#0B0A15"/>
<path d="M114.29 153.241C130.035 153.241 142.846 140.433 142.846 124.685C142.846 108.94 130.035 96.1297 114.29 96.1297C98.5423 96.1297 85.7344 108.94 85.7344 124.685C85.7344 140.433 98.5423 153.241 114.29 153.241ZM114.29 91.5C132.586 91.5 147.475 106.389 147.475 124.685C147.475 142.984 132.586 157.87 114.29 157.87C95.9913 157.87 81.1048 142.984 81.1048 124.685C81.1048 106.389 95.9913 91.5 114.29 91.5Z" fill="#0B0A15"/>
<path d="M288.728 177.461C289.339 177.461 289.848 177.94 289.885 178.556C289.922 179.192 289.434 179.741 288.79 179.776C288.01 179.822 287.223 179.847 286.431 179.857C285.802 179.94 285.265 179.357 285.26 178.713C285.251 178.077 285.762 177.551 286.399 177.542C287.158 177.533 287.915 177.507 288.665 177.465L288.728 177.461ZM277.195 176.882L277.376 176.901C278.117 177.019 278.867 177.118 279.619 177.204C280.255 177.276 280.712 177.85 280.635 178.489C280.568 179.121 280.01 179.6 279.355 179.505C278.568 179.415 277.788 179.31 277.015 179.183C276.38 179.084 275.952 178.493 276.052 177.859C276.142 177.29 276.635 176.882 277.195 176.882ZM297.883 176.155C298.408 176.155 298.883 176.516 299.01 177.049C299.154 177.674 298.765 178.299 298.142 178.442C297.376 178.618 296.603 178.783 295.827 178.926C295.202 179.035 294.596 178.628 294.478 178C294.362 177.375 294.772 176.769 295.401 176.653C296.147 176.512 296.885 176.359 297.617 176.185L297.883 176.155ZM268.216 174.658L268.591 174.722C269.304 174.961 270.024 175.192 270.755 175.41C271.367 175.59 271.718 176.232 271.538 176.847C271.357 177.456 270.721 177.815 270.1 177.627C269.341 177.403 268.587 177.162 267.846 176.91C267.239 176.706 266.913 176.046 267.121 175.44C267.283 174.961 267.737 174.658 268.216 174.658ZM306.67 173.301C307.121 173.301 307.545 173.565 307.737 174.007C307.985 174.595 307.709 175.273 307.121 175.521C306.397 175.829 305.665 176.118 304.929 176.394C304.332 176.621 303.668 176.317 303.441 175.715C303.214 175.121 303.522 174.449 304.119 174.229C304.825 173.963 305.524 173.685 306.216 173.391L306.67 173.301ZM259.753 170.915L260.309 171.06C260.968 171.421 261.642 171.773 262.32 172.109C262.89 172.389 263.13 173.086 262.843 173.66C262.559 174.229 261.869 174.463 261.295 174.183C260.584 173.836 259.883 173.47 259.191 173.09C258.63 172.783 258.427 172.077 258.735 171.516C258.948 171.132 259.341 170.915 259.753 170.915ZM314.834 168.979C315.214 168.979 315.584 169.169 315.806 169.514C316.154 170.051 316.001 170.766 315.462 171.114C314.797 171.54 314.128 171.949 313.445 172.347C312.894 172.669 312.184 172.484 311.864 171.933C311.543 171.38 311.728 170.671 312.279 170.35C312.931 169.97 313.573 169.572 314.209 169.165C314.399 169.044 314.617 168.979 314.834 168.979ZM252.056 165.787C252.311 165.787 252.563 165.873 252.776 166.042C253.369 166.512 253.968 166.972 254.58 167.415C255.096 167.794 255.209 168.519 254.83 169.035C254.452 169.549 253.73 169.662 253.214 169.287C252.577 168.822 251.948 168.343 251.334 167.85C250.832 167.452 250.751 166.725 251.149 166.227C251.378 165.938 251.714 165.787 252.056 165.787ZM322.154 163.334C322.466 163.334 322.779 163.459 323.003 163.709C323.438 164.183 323.406 164.915 322.936 165.345C322.353 165.877 321.76 166.398 321.158 166.905C320.67 167.32 319.938 167.253 319.526 166.764C319.117 166.276 319.179 165.544 319.668 165.132C320.246 164.648 320.816 164.146 321.371 163.641C321.593 163.438 321.874 163.334 322.154 163.334ZM245.339 159.435C245.656 159.435 245.971 159.563 246.202 159.82C246.705 160.384 247.218 160.938 247.744 161.479C248.191 161.94 248.179 162.674 247.721 163.116C247.26 163.563 246.529 163.549 246.084 163.093C245.538 162.528 244.999 161.949 244.475 161.361C244.049 160.887 244.091 160.155 244.566 159.729C244.788 159.53 245.063 159.435 245.339 159.435ZM328.415 156.528C328.661 156.528 328.908 156.604 329.121 156.769C329.628 157.162 329.718 157.889 329.33 158.396C328.846 159.014 328.353 159.63 327.841 160.232C327.429 160.725 326.702 160.783 326.209 160.371C325.721 159.961 325.663 159.227 326.073 158.739C326.561 158.16 327.036 157.572 327.499 156.977C327.723 156.683 328.068 156.528 328.415 156.528ZM239.795 152.04C240.179 152.04 240.561 152.229 240.776 152.581C241.179 153.225 241.591 153.852 242.019 154.477C242.378 155.005 242.246 155.725 241.718 156.086C241.188 156.447 240.468 156.308 240.107 155.783C239.665 155.137 239.235 154.477 238.816 153.806C238.475 153.264 238.642 152.553 239.186 152.215L239.795 152.04ZM333.429 148.757L333.971 148.891C334.538 149.19 334.749 149.891 334.452 150.456C334.08 151.153 333.695 151.845 333.297 152.523C332.973 153.074 332.262 153.259 331.712 152.935C331.161 152.609 330.98 151.903 331.3 151.352C331.684 150.702 332.05 150.042 332.408 149.371C332.617 148.979 333.012 148.757 333.429 148.757ZM235.596 143.81C236.054 143.81 236.487 144.081 236.672 144.535C236.952 145.229 237.251 145.921 237.568 146.604C237.83 147.188 237.575 147.875 236.994 148.141C236.413 148.408 235.73 148.151 235.459 147.567C235.135 146.859 234.823 146.134 234.524 145.408C234.288 144.815 234.573 144.137 235.161 143.896L235.596 143.81ZM337.047 140.234L337.404 140.294C338.015 140.493 338.344 141.144 338.144 141.752C337.901 142.505 337.637 143.25 337.362 143.991C337.137 144.593 336.473 144.891 335.871 144.669C335.274 144.445 334.971 143.773 335.193 143.178C335.459 142.468 335.707 141.752 335.948 141.035C336.105 140.546 336.559 140.234 337.047 140.234ZM232.871 134.977C233.404 134.977 233.883 135.347 234.003 135.889C234.158 136.632 234.334 137.364 234.524 138.09C234.686 138.711 234.318 139.343 233.705 139.507C233.082 139.669 232.452 139.299 232.288 138.678C232.086 137.919 231.904 137.155 231.735 136.382C231.598 135.755 231.999 135.139 232.621 135.002L232.871 134.977ZM339.14 131.229L339.306 131.236C339.941 131.329 340.378 131.914 340.288 132.549C340.175 133.331 340.047 134.109 339.904 134.882C339.781 135.509 339.179 135.921 338.552 135.803C337.925 135.685 337.508 135.081 337.631 134.452C337.765 133.715 337.887 132.97 337.996 132.222C338.077 131.644 338.575 131.229 339.14 131.229ZM231.693 125.808C232.313 125.808 232.825 126.292 232.85 126.915C232.883 127.674 232.936 128.431 232.992 129.176C233.045 129.813 232.577 130.373 231.938 130.428C231.304 130.491 230.739 130.007 230.686 129.371C230.626 128.593 230.573 127.806 230.536 127.014C230.51 126.373 231.01 125.833 231.644 125.808H231.693ZM339.668 121.996C340.293 121.996 340.809 122.493 340.825 123.123C340.839 123.641 340.848 124.162 340.848 124.685L340.839 125.482C340.834 126.123 340.325 126.725 339.668 126.625C339.031 126.616 338.519 126.093 338.524 125.454L338.533 124.685C338.533 124.185 338.524 123.688 338.51 123.19C338.494 122.549 338.994 122.019 339.633 121.996H339.668ZM232.091 116.572L232.242 116.579C232.876 116.662 233.325 117.241 233.239 117.877C233.144 118.623 233.066 119.373 233.001 120.13C232.945 120.766 232.408 121.264 231.749 121.183C231.11 121.127 230.635 120.567 230.695 119.931C230.762 119.139 230.846 118.357 230.945 117.579C231.019 116.996 231.519 116.572 232.091 116.572ZM338.624 112.81C339.163 112.81 339.647 113.19 339.756 113.741C339.913 114.509 340.052 115.287 340.175 116.065C340.274 116.697 339.841 117.289 339.212 117.389C338.566 117.479 337.987 117.056 337.887 116.426C337.769 115.681 337.635 114.935 337.485 114.197C337.357 113.574 337.765 112.963 338.394 112.831L338.624 112.81ZM234.063 107.537L234.406 107.593C235.017 107.783 235.355 108.433 235.165 109.044C234.945 109.757 234.737 110.486 234.542 111.213C234.383 111.833 233.751 112.204 233.135 112.042C232.512 111.877 232.142 111.246 232.304 110.625C232.508 109.861 232.725 109.102 232.959 108.352C233.114 107.859 233.57 107.537 234.063 107.537ZM336.015 103.942C336.478 103.942 336.915 104.22 337.091 104.676C337.381 105.408 337.647 106.151 337.906 106.901C338.114 107.507 337.788 108.162 337.181 108.371C336.575 108.577 335.92 108.252 335.712 107.646C335.469 106.931 335.212 106.222 334.936 105.521C334.705 104.924 334.999 104.255 335.596 104.021L336.015 103.942ZM237.559 98.97L238.082 99.0974C238.651 99.3867 238.878 100.086 238.589 100.658C238.246 101.331 237.911 102.009 237.593 102.699C237.332 103.278 236.649 103.537 236.063 103.264C235.48 102.998 235.225 102.31 235.492 101.732C235.825 101.014 236.17 100.303 236.526 99.602C236.732 99.2015 237.137 98.97 237.559 98.97ZM331.929 95.6552C332.323 95.6552 332.702 95.8543 332.922 96.2177C333.325 96.8867 333.719 97.5696 334.098 98.2594C334.406 98.8219 334.202 99.521 333.642 99.8288C333.082 100.137 332.381 99.933 332.068 99.3774C331.707 98.7131 331.327 98.0557 330.938 97.4099C330.607 96.8636 330.786 96.1529 331.332 95.8242L331.929 95.6552ZM242.468 91.1298C242.707 91.1298 242.952 91.2084 243.161 91.3612C243.67 91.7455 243.774 92.4723 243.39 92.9839C242.938 93.5858 242.494 94.1992 242.066 94.8242C241.705 95.3497 240.98 95.4839 240.457 95.1228C239.931 94.7617 239.795 94.0372 240.158 93.514C240.605 92.8612 241.066 92.2247 241.54 91.5927C241.767 91.2895 242.114 91.1298 242.468 91.1298ZM326.489 88.183C326.816 88.183 327.135 88.3173 327.367 88.5858C327.883 89.1784 328.383 89.7825 328.876 90.4029C329.274 90.9052 329.188 91.6321 328.691 92.0302C328.193 92.4284 327.462 92.3427 327.063 91.8404C326.593 91.2524 326.11 90.6691 325.617 90.0997C325.195 89.6159 325.251 88.889 325.735 88.4677C325.952 88.2779 326.223 88.183 326.489 88.183ZM248.63 84.2362C248.938 84.2362 249.242 84.3589 249.471 84.602C249.911 85.0672 249.887 85.801 249.422 86.2385C248.874 86.7547 248.336 87.2872 247.806 87.8265C247.364 88.2872 246.633 88.2964 246.17 87.8474C245.714 87.4006 245.705 86.6691 246.149 86.2108C246.7 85.646 247.26 85.095 247.834 84.5534C248.056 84.345 248.346 84.2362 248.63 84.2362ZM319.867 81.7362C320.124 81.7362 320.381 81.8219 320.598 81.9978C321.209 82.5001 321.806 83.0094 322.394 83.5348C322.874 83.9608 322.913 84.6922 322.485 85.1714C322.059 85.646 321.327 85.6876 320.853 85.2617C320.286 84.7594 319.712 84.2663 319.128 83.7871C318.635 83.382 318.563 82.6529 318.971 82.1599C319.198 81.8798 319.531 81.7362 319.867 81.7362ZM255.864 78.4885C256.239 78.4885 256.605 78.6691 256.832 79.0047C257.184 79.5371 257.04 80.257 256.505 80.6089C255.878 81.0256 255.258 81.4608 254.647 81.9029C254.133 82.2733 253.404 82.1599 253.029 81.646C252.654 81.1298 252.767 80.4052 253.288 80.0302C253.92 79.5649 254.566 79.1182 255.225 78.6783C255.42 78.5487 255.642 78.4885 255.864 78.4885ZM312.239 76.5001L312.809 76.6529C313.496 77.0418 314.175 77.4445 314.843 77.8658C315.385 78.2038 315.55 78.9191 315.209 79.4608C314.871 80.0048 314.161 80.1668 313.614 79.8265C312.975 79.426 312.325 79.0418 311.665 78.6668C311.11 78.3497 310.915 77.6436 311.23 77.0881C311.443 76.7131 311.837 76.5001 312.239 76.5001ZM263.971 74.0534C264.413 74.0534 264.839 74.3126 265.029 74.7455C265.286 75.3288 265.024 76.0163 264.436 76.2686C263.744 76.5765 263.066 76.8936 262.387 77.2269C261.813 77.5117 261.121 77.2733 260.841 76.6992C260.556 76.1297 260.793 75.433 261.367 75.1529C262.07 74.8057 262.781 74.47 263.505 74.1529L263.971 74.0534ZM303.825 72.6436L304.218 72.7108C304.959 72.9793 305.702 73.264 306.429 73.5603C307.022 73.801 307.306 74.4793 307.066 75.0672C306.823 75.6645 306.149 75.9492 305.556 75.7038C304.855 75.4191 304.151 75.1483 303.436 74.8913C302.834 74.6784 302.524 74.014 302.735 73.4121C302.908 72.9376 303.35 72.6436 303.825 72.6436ZM272.723 71.0742C273.244 71.0742 273.714 71.4284 273.843 71.9515C273.999 72.5765 273.619 73.1992 272.999 73.3543C272.262 73.5348 271.533 73.7339 270.816 73.9445C270.191 74.1228 269.554 73.7733 269.378 73.1598C269.198 72.5487 269.549 71.9029 270.161 71.7246C270.915 71.5001 271.674 71.2964 272.443 71.1066L272.723 71.0742ZM294.876 70.2918L295.075 70.3057C295.853 70.4422 296.631 70.5904 297.399 70.7617C298.024 70.8982 298.418 71.514 298.281 72.1367C298.144 72.7617 297.531 73.1598 296.906 73.0233C296.17 72.8612 295.429 72.7154 294.681 72.5904C294.054 72.4816 293.628 71.8843 293.737 71.2501C293.837 70.6899 294.325 70.2918 294.876 70.2918ZM281.855 69.6367C282.457 69.6367 282.964 70.102 283.008 70.7131C283.054 71.3496 282.575 71.9075 281.938 71.9515C281.177 72.0071 280.427 72.0742 279.681 72.1598C279.036 72.2223 278.468 71.7709 278.397 71.139C278.33 70.5001 278.786 69.9306 279.42 69.8589C280.198 69.7686 280.982 69.6992 281.769 69.6413L281.855 69.6367ZM285.668 69.5071C286.459 69.5071 287.244 69.5232 288.031 69.5557C288.67 69.5834 289.168 70.1251 289.14 70.7617C289.112 71.4006 288.529 71.8797 287.931 71.8705C287.181 71.8381 286.427 71.8219 285.668 71.8219C285.029 71.8219 284.51 71.301 284.51 70.6645C284.51 70.0209 285.029 69.5071 285.668 69.5071Z" fill="#0B0A15"/>
<path d="M285.668 153.241C301.415 153.241 314.223 140.433 314.223 124.685C314.223 108.94 301.415 96.1297 285.668 96.1297C269.92 96.1297 257.112 108.94 257.112 124.685C257.112 140.433 269.92 153.241 285.668 153.241ZM285.668 91.5C303.966 91.5 318.853 106.389 318.853 124.685C318.853 142.984 303.966 157.87 285.668 157.87C267.371 157.87 252.482 142.984 252.482 124.685C252.482 106.389 267.371 91.5 285.668 91.5Z" fill="#0B0A15"/>
<path d="M279.654 128.158L120.302 128.158L199.978 266.158L279.654 128.158ZM114.29 121.213L285.667 121.213C286.91 121.213 288.054 121.875 288.674 122.949C289.292 124.021 289.292 125.347 288.674 126.421L202.985 274.838C202.366 275.908 201.221 276.572 199.978 276.572C198.739 276.572 197.591 275.908 196.971 274.838L111.283 126.421C110.663 125.347 110.663 124.021 111.283 122.949C111.901 121.875 113.052 121.213 114.29 121.213Z" fill="#0B0A15"/>
<path d="M263.237 217.723H136.723L199.977 300.938L263.237 217.723ZM129.72 210.778H270.237C271.556 210.778 272.765 211.523 273.348 212.709C273.934 213.889 273.799 215.299 273.003 216.352L202.746 308.776C201.429 310.503 198.526 310.503 197.216 308.776L126.957 216.352C126.158 215.299 126.021 213.889 126.609 212.709C127.197 211.523 128.399 210.778 129.72 210.778Z" fill="#0B0A15"/>
<path d="M285.663 121.213L286.26 121.264C288.149 121.59 289.415 123.384 289.089 125.273L273.658 214.838C273.334 216.727 271.529 218.002 269.649 217.671C267.76 217.347 266.489 215.546 266.813 213.657L282.244 124.095C282.538 122.407 284.003 121.213 285.663 121.213Z" fill="#0B0A15"/>
<path d="M114.295 121.213C115.952 121.213 117.422 122.407 117.711 124.095L133.142 213.657C133.468 215.546 132.202 217.347 130.313 217.671C128.422 218.002 126.623 216.727 126.297 214.838L110.866 125.273C110.542 123.384 111.811 121.59 113.702 121.264L114.295 121.213Z" fill="#0B0A15"/>
</svg>
