<svg width="106" height="51" viewBox="0 0 106 51" fill="none" xmlns="http://www.w3.org/2000/svg">
<path d="M7.82398 0.799971L0.943979 0.799971C0.783979 0.799971 0.703979 0.879971 0.703979 1.03997L0.703979 2.44797C0.703979 2.60797 0.783979 2.68797 0.943979 2.68797H3.34398L3.34398 11.76C3.34398 11.92 3.42398 12 3.58398 12H5.19998C5.35998 12 5.45598 11.92 5.45598 11.76L5.45598 2.68797L7.82398 2.68797C7.98398 2.68797 8.06398 2.60797 8.06398 2.44797V1.03997C8.06398 0.879971 7.98398 0.799971 7.82398 0.799971Z" fill="#DEFB48"/>
<path d="M13.5852 12.08H15.3612C17.6972 12.08 18.6412 10.8 18.6412 8.78397V4.01597C18.6412 1.99997 17.6972 0.719971 15.3612 0.719971L13.5852 0.719971C11.2652 0.719971 10.3052 1.99997 10.3052 4.01597V8.78397C10.3052 10.8 11.2652 12.08 13.5852 12.08ZM13.7612 10.192C12.9132 10.192 12.4172 9.85597 12.4172 8.73597V4.06397C12.4172 2.97597 12.9132 2.60797 13.7612 2.60797H15.1852C16.0332 2.60797 16.5292 2.97597 16.5292 4.06397V8.73597C16.5292 9.85597 16.0332 10.192 15.1852 10.192H13.7612Z" fill="#DEFB48"/>
<path d="M30.0799 11.6L26.1279 5.77597L29.8399 1.21597C30.0159 1.00797 29.9359 0.799971 29.7439 0.799971H27.9199C27.7119 0.799971 27.5999 0.895971 27.4719 1.05597L23.8079 5.66397V1.03997C23.8079 0.879971 23.7279 0.799971 23.5679 0.799971H21.9359C21.7759 0.799971 21.6959 0.879971 21.6959 1.03997V11.76C21.6959 11.92 21.7759 12 21.9359 12H23.5679C23.7279 12 23.8079 11.92 23.8079 11.76V8.62397L24.7679 7.43997L27.6959 11.776C27.8239 11.968 27.9999 12 28.1279 12H29.9839C30.1919 12 30.1599 11.728 30.0799 11.6Z" fill="#DEFB48"/>
<path d="M32.9515 12H39.4155C39.5755 12 39.6555 11.92 39.6555 11.76V10.352C39.6555 10.192 39.5755 10.112 39.4155 10.112H34.8235V7.31197H38.9515C39.1115 7.31197 39.1915 7.23197 39.1915 7.07197V5.72797C39.1915 5.56797 39.1115 5.47197 38.9515 5.47197H34.8235V2.68797L39.3195 2.68797C39.4795 2.68797 39.5595 2.60797 39.5595 2.44797V1.03997C39.5595 0.879971 39.4795 0.799971 39.3195 0.799971L32.9515 0.799971C32.7915 0.799971 32.7115 0.879971 32.7115 1.03997V11.76C32.7115 11.92 32.7915 12 32.9515 12Z" fill="#DEFB48"/>
<path d="M42.4671 12H44.0991C44.2591 12 44.3391 11.92 44.3391 11.76V3.55197H44.4831L47.4591 11.824C47.5071 11.952 47.6191 12 47.7471 12L50.4991 12C50.6591 12 50.7391 11.92 50.7391 11.76V1.03997C50.7391 0.879971 50.6591 0.799971 50.4991 0.799971L48.8671 0.799971C48.7071 0.799971 48.6271 0.879971 48.6271 1.03997V9.24797H48.4831L45.5071 0.975971C45.4591 0.847971 45.3471 0.799971 45.2191 0.799971L42.4671 0.799971C42.3071 0.799971 42.2271 0.879971 42.2271 1.03997V11.76C42.2271 11.92 42.3071 12 42.4671 12Z" fill="#DEFB48"/>
<path d="M1.26398 31H7.72798C7.88798 31 7.96798 30.92 7.96798 30.76V29.352C7.96798 29.192 7.88798 29.112 7.72798 29.112H3.13598L3.13598 26.312H7.26398C7.42398 26.312 7.50398 26.232 7.50398 26.072V24.728C7.50398 24.568 7.42398 24.472 7.26398 24.472H3.13598V21.688H7.63198C7.79198 21.688 7.87198 21.608 7.87198 21.448V20.04C7.87198 19.88 7.79198 19.8 7.63198 19.8H1.26398C1.10398 19.8 1.02398 19.88 1.02398 20.04L1.02398 30.76C1.02398 30.92 1.10398 31 1.26398 31Z" fill="#DEFB48"/>
<path d="M10.7796 31H12.4116C12.5716 31 12.6516 30.92 12.6516 30.76V22.552H12.7956L15.7716 30.824C15.8196 30.952 15.9316 31 16.0596 31H18.8116C18.9716 31 19.0516 30.92 19.0516 30.76V20.04C19.0516 19.88 18.9716 19.8 18.8116 19.8H17.1796C17.0196 19.8 16.9396 19.88 16.9396 20.04V28.248H16.7956L13.8196 19.976C13.7716 19.848 13.6596 19.8 13.5316 19.8H10.7796C10.6196 19.8 10.5396 19.88 10.5396 20.04V30.76C10.5396 30.92 10.6196 31 10.7796 31Z" fill="#DEFB48"/>
<path d="M25.3821 31.08H27.0941C29.4301 31.08 30.3741 29.8 30.3741 27.784V24.808C30.3741 24.584 30.2621 24.472 30.0381 24.472H26.2301C26.0701 24.472 25.9901 24.568 25.9901 24.728V26.072C25.9901 26.232 26.0701 26.312 26.2301 26.312H28.2621V27.736C28.2621 28.856 27.7661 29.192 26.9181 29.192H25.5581C24.7101 29.192 24.2141 28.856 24.2141 27.736V23.064C24.2141 21.976 24.7101 21.608 25.5581 21.608H26.8861C27.6861 21.608 28.2621 21.928 28.2621 23.128C28.2621 23.288 28.3581 23.384 28.5181 23.384H30.1181C30.2781 23.384 30.3741 23.272 30.3741 23.128V23.032C30.3741 20.952 29.4621 19.72 27.0781 19.72H25.3821C23.0461 19.72 22.1021 21 22.1021 23.016V27.784C22.1021 29.8 23.0461 31.08 25.3821 31.08Z" fill="#DEFB48"/>
<path d="M33.6546 31H35.2866C35.4466 31 35.5266 30.92 35.5266 30.76V20.04C35.5266 19.88 35.4466 19.8 35.2866 19.8H33.6546C33.4946 19.8 33.4146 19.88 33.4146 20.04V30.76C33.4146 30.92 33.4946 31 33.6546 31Z" fill="#DEFB48"/>
<path d="M38.8109 31H40.4429C40.6029 31 40.6829 30.92 40.6829 30.76V22.552H40.8269L43.8029 30.824C43.8509 30.952 43.9629 31 44.0909 31H46.8429C47.0029 31 47.0829 30.92 47.0829 30.76V20.04C47.0829 19.88 47.0029 19.8 46.8429 19.8H45.2109C45.0509 19.8 44.9709 19.88 44.9709 20.04V28.248H44.8269L41.8509 19.976C41.8029 19.848 41.6909 19.8 41.5629 19.8H38.8109C38.6509 19.8 38.5709 19.88 38.5709 20.04V30.76C38.5709 30.92 38.6509 31 38.8109 31Z" fill="#DEFB48"/>
<path d="M50.3734 31H56.8374C56.9974 31 57.0774 30.92 57.0774 30.76V29.352C57.0774 29.192 56.9974 29.112 56.8374 29.112H52.2454V26.312H56.3734C56.5334 26.312 56.6134 26.232 56.6134 26.072V24.728C56.6134 24.568 56.5334 24.472 56.3734 24.472H52.2454V21.688H56.7414C56.9014 21.688 56.9814 21.608 56.9814 21.448V20.04C56.9814 19.88 56.9014 19.8 56.7414 19.8H50.3734C50.2134 19.8 50.1334 19.88 50.1334 20.04V30.76C50.1334 30.92 50.2134 31 50.3734 31Z" fill="#DEFB48"/>
<path d="M59.889 31H66.353C66.513 31 66.593 30.92 66.593 30.76V29.352C66.593 29.192 66.513 29.112 66.353 29.112H61.761V26.312H65.889C66.049 26.312 66.129 26.232 66.129 26.072V24.728C66.129 24.568 66.049 24.472 65.889 24.472H61.761V21.688H66.257C66.417 21.688 66.497 21.608 66.497 21.448V20.04C66.497 19.88 66.417 19.8 66.257 19.8H59.889C59.729 19.8 59.649 19.88 59.649 20.04V30.76C59.649 30.92 59.729 31 59.889 31Z" fill="#DEFB48"/>
<path d="M77.1326 24.84V23.112C77.1326 21.096 76.1566 19.8 73.8366 19.8H69.4046C69.2446 19.8 69.1646 19.88 69.1646 20.04V30.76C69.1646 30.92 69.2446 31 69.4046 31H71.0366C71.1966 31 71.2766 30.92 71.2766 30.76V28.136H73.8366L74.9246 30.744C74.9886 30.92 75.1486 31 75.3406 31H76.8126C77.0686 31 77.1806 30.856 77.0846 30.616L75.8366 27.656C76.7326 27.112 77.1326 26.12 77.1326 24.84ZM71.2766 21.688H73.6606C74.5086 21.688 75.0206 22.072 75.0206 23.16V24.776C75.0206 25.896 74.5086 26.248 73.6606 26.248H71.2766V21.688Z" fill="#DEFB48"/>
<path d="M80.2796 31H81.9116C82.0716 31 82.1516 30.92 82.1516 30.76V20.04C82.1516 19.88 82.0716 19.8 81.9116 19.8H80.2796C80.1196 19.8 80.0396 19.88 80.0396 20.04V30.76C80.0396 30.92 80.1196 31 80.2796 31Z" fill="#DEFB48"/>
<path d="M85.4358 31H87.0679C87.2279 31 87.3078 30.92 87.3078 30.76V22.552H87.4518L90.4278 30.824C90.4758 30.952 90.5878 31 90.7158 31H93.4678C93.6278 31 93.7078 30.92 93.7078 30.76V20.04C93.7078 19.88 93.6278 19.8 93.4678 19.8H91.8358C91.6758 19.8 91.5959 19.88 91.5959 20.04V28.248H91.4518L88.4758 19.976C88.4279 19.848 88.3158 19.8 88.1878 19.8H85.4358C85.2758 19.8 85.1958 19.88 85.1958 20.04V30.76C85.1958 30.92 85.2758 31 85.4358 31Z" fill="#DEFB48"/>
<path d="M100.038 31.08H101.75C104.086 31.08 105.03 29.8 105.03 27.784V24.808C105.03 24.584 104.918 24.472 104.694 24.472H100.886C100.726 24.472 100.646 24.568 100.646 24.728V26.072C100.646 26.232 100.726 26.312 100.886 26.312H102.918V27.736C102.918 28.856 102.422 29.192 101.574 29.192H100.214C99.3664 29.192 98.8703 28.856 98.8703 27.736V23.064C98.8703 21.976 99.3664 21.608 100.214 21.608H101.542C102.342 21.608 102.918 21.928 102.918 23.128C102.918 23.288 103.014 23.384 103.174 23.384H104.774C104.934 23.384 105.03 23.272 105.03 23.128V23.032C105.03 20.952 104.118 19.72 101.734 19.72H100.038C97.7023 19.72 96.7583 21 96.7583 23.016V27.784C96.7583 29.8 97.7023 31.08 100.038 31.08Z" fill="#DEFB48"/>
<path d="M4.30398 50.08H5.99998C8.38398 50.08 9.29598 48.864 9.29598 46.816V46.72C9.29598 46.576 9.19998 46.464 9.03998 46.464H7.43998C7.27998 46.464 7.18398 46.56 7.18398 46.72C7.18398 47.888 6.60798 48.192 5.80798 48.192H4.47998C3.63198 48.192 3.13598 47.856 3.13598 46.736L3.13598 42.064C3.13598 40.976 3.63198 40.608 4.47998 40.608H5.80798C6.60798 40.608 7.18398 40.928 7.18398 42.128C7.18398 42.288 7.27998 42.384 7.43998 42.384H9.03998C9.19998 42.384 9.29598 42.272 9.29598 42.128V42.032C9.29598 39.952 8.38398 38.72 5.99998 38.72H4.30398C1.96798 38.72 1.02398 40 1.02398 42.016L1.02398 46.784C1.02398 48.8 1.96798 50.08 4.30398 50.08Z" fill="#DEFB48"/>
<path d="M15.4602 50.08H17.2362C19.5722 50.08 20.5162 48.8 20.5162 46.784V42.016C20.5162 40 19.5722 38.72 17.2362 38.72H15.4602C13.1402 38.72 12.1802 40 12.1802 42.016V46.784C12.1802 48.8 13.1402 50.08 15.4602 50.08ZM15.6362 48.192C14.7882 48.192 14.2922 47.856 14.2922 46.736V42.064C14.2922 40.976 14.7882 40.608 15.6362 40.608H17.0602C17.9082 40.608 18.4042 40.976 18.4042 42.064V46.736C18.4042 47.856 17.9082 48.192 17.0602 48.192H15.6362Z" fill="#DEFB48"/>
<path d="M23.8109 50H25.4429C25.6029 50 25.6829 49.92 25.6829 49.76V41.552H25.8269L27.4749 49.76C27.5069 49.92 27.6349 50 27.7789 50H29.8909C30.0349 50 30.1789 49.92 30.1949 49.76L31.8429 41.552H32.0029V49.76C32.0029 49.92 32.0829 50 32.2429 50H33.8589C34.0189 50 34.1149 49.92 34.1149 49.76V39.04C34.1149 38.88 34.0189 38.8 33.8589 38.8H30.9469C30.7869 38.8 30.6429 38.88 30.6269 39.04L28.8989 47.44H28.7869L27.0589 39.04C27.0269 38.88 26.8989 38.8 26.7389 38.8H23.8109C23.6509 38.8 23.5709 38.88 23.5709 39.04V49.76C23.5709 49.92 23.6509 50 23.8109 50Z" fill="#DEFB48"/>
<path d="M37.4046 50H39.0366C39.1966 50 39.2766 49.92 39.2766 49.76V41.552H39.4206L41.0686 49.76C41.1006 49.92 41.2286 50 41.3726 50H43.4846C43.6286 50 43.7726 49.92 43.7886 49.76L45.4366 41.552H45.5966V49.76C45.5966 49.92 45.6766 50 45.8366 50H47.4526C47.6126 50 47.7086 49.92 47.7086 49.76V39.04C47.7086 38.88 47.6126 38.8 47.4526 38.8H44.5406C44.3806 38.8 44.2366 38.88 44.2206 39.04L42.4926 47.44H42.3806L40.6526 39.04C40.6206 38.88 40.4926 38.8 40.3326 38.8H37.4046C37.2446 38.8 37.1646 38.88 37.1646 39.04V49.76C37.1646 49.92 37.2446 50 37.4046 50Z" fill="#DEFB48"/>
<path d="M54.0384 50.08H55.8144C58.1504 50.08 59.0944 48.8 59.0944 46.784V42.016C59.0944 40 58.1504 38.72 55.8144 38.72H54.0384C51.7184 38.72 50.7584 40 50.7584 42.016V46.784C50.7584 48.8 51.7184 50.08 54.0384 50.08ZM54.2144 48.192C53.3664 48.192 52.8704 47.856 52.8704 46.736V42.064C52.8704 40.976 53.3664 40.608 54.2144 40.608H55.6384C56.4864 40.608 56.9824 40.976 56.9824 42.064V46.736C56.9824 47.856 56.4864 48.192 55.6384 48.192H54.2144Z" fill="#DEFB48"/>
<path d="M62.389 50H64.021C64.181 50 64.261 49.92 64.261 49.76V41.552H64.405L67.381 49.824C67.429 49.952 67.541 50 67.669 50H70.421C70.581 50 70.661 49.92 70.661 49.76V39.04C70.661 38.88 70.581 38.8 70.421 38.8H68.789C68.629 38.8 68.549 38.88 68.549 39.04V47.248H68.405L65.429 38.976C65.381 38.848 65.269 38.8 65.141 38.8L62.389 38.8C62.229 38.8 62.149 38.88 62.149 39.04V49.76C62.149 49.92 62.229 50 62.389 50Z" fill="#DEFB48"/>
<path d="M76.923 50.08H78.475C80.747 50.08 81.771 49.008 81.771 46.752C81.771 44.16 80.107 43.728 78.091 43.472L77.275 43.36C76.107 43.216 75.867 42.656 75.867 41.84C75.867 40.928 76.379 40.608 77.195 40.608H78.075C78.891 40.608 79.307 40.912 79.387 41.696C79.403 41.92 79.531 42.032 79.739 42.032H81.179C81.403 42.032 81.499 41.92 81.499 41.696C81.499 39.808 80.379 38.72 78.267 38.72H77.051C74.859 38.72 73.755 39.744 73.755 41.744C73.755 44.304 75.227 44.848 77.275 45.12L78.107 45.232C79.147 45.376 79.659 45.664 79.659 46.752C79.659 47.936 79.019 48.192 78.203 48.192H77.211C76.395 48.192 75.851 47.936 75.771 47.12C75.755 46.912 75.611 46.784 75.419 46.784H73.979C73.755 46.784 73.659 46.912 73.659 47.12C73.659 48.992 74.683 50.08 76.923 50.08Z" fill="#DEFB48"/>
</svg>
