<svg width="114" height="50" viewBox="0 0 114 50" fill="none" xmlns="http://www.w3.org/2000/svg">
<path d="M3.58399 2.63999H0.23999L0.23999 0.799988L9.10399 0.799988V2.63999L5.75999 2.63999L5.75999 12H3.58399L3.58399 2.63999Z" fill="white"/>
<path d="M10.9894 10.16V2.63999L12.8294 0.799988L18.5894 0.799988L20.4294 2.63999V10.16L18.5894 12L12.8294 12L10.9894 10.16ZM17.4374 10.144L18.2534 9.32799V3.47199L17.4374 2.65599H13.9814L13.1654 3.47199V9.32799L13.9814 10.144L17.4374 10.144Z" fill="white"/>
<path d="M23.3525 0.799988L25.5285 0.799988V5.48799H27.2245L29.9285 0.799988L32.3765 0.799988L29.0965 6.38399L32.6485 12H30.1525L27.2085 7.34399H25.5285V12H23.3525V0.799988Z" fill="white"/>
<path d="M34.7744 0.799988L42.8704 0.799988V2.63999L36.9504 2.63999V5.47199L42.4064 5.47199V7.27999L36.9504 7.27999V10.16H42.8704V12H34.7744V0.799988Z" fill="white"/>
<path d="M45.4775 0.799988L47.4295 0.799988L52.4215 8.39999H52.4535V0.799988L54.5495 0.799988V12H52.5975L47.6055 4.41599H47.5735V12H45.4775V0.799988Z" fill="white"/>
<path d="M1.03999 19.8H9.13599V21.64H3.21599V24.472H8.67199V26.28H3.21599L3.21599 29.16H9.13599V31H1.03999L1.03999 19.8Z" fill="white"/>
<path d="M11.7431 19.8H13.6951L18.6871 27.4H18.7191V19.8H20.8151V31H18.8631L13.8711 23.416H13.8391V31H11.7431V19.8Z" fill="white"/>
<path d="M23.7394 29.16V21.64L25.5794 19.8H31.1474L32.9554 21.608V23.32L30.7794 23.32V22.408L30.0274 21.656H26.7314L25.9154 22.472V28.328L26.7314 29.144H30.0594L30.8434 28.36V26.616H28.4434V24.76L32.9554 24.76V29.16L31.1154 31H25.5794L23.7394 29.16Z" fill="white"/>
<path d="M35.7919 19.8H37.9679V31H35.7919V19.8Z" fill="white"/>
<path d="M41.1337 19.8H43.0857L48.0777 27.4H48.1097V19.8H50.2057V31H48.2537L43.2617 23.416H43.2297V31H41.1337V19.8Z" fill="white"/>
<path d="M53.29 19.8H61.386V21.64H55.466V24.472H60.922V26.28H55.466V29.16H61.386V31H53.29V19.8Z" fill="white"/>
<path d="M63.9931 19.8H72.0891V21.64H66.1691V24.472H71.6251V26.28H66.1691V29.16H72.0891V31H63.9931V19.8Z" fill="white"/>
<path d="M83.4962 27.288V31H81.3202V27.784L80.3602 26.712H76.8722V31H74.6962V19.8H81.7202L83.4322 21.528V24.92L82.3442 26.024L83.4962 27.288ZM76.8722 24.92H80.7282L81.2882 24.36V22.184L80.7282 21.624H76.8722V24.92Z" fill="white"/>
<path d="M86.5731 19.8H88.7491V31H86.5731V19.8Z" fill="white"/>
<path d="M91.915 19.8H93.867L98.859 27.4H98.891V19.8H100.987V31H99.035L94.043 23.416H94.011V31H91.915V19.8Z" fill="white"/>
<path d="M103.911 29.16V21.64L105.751 19.8H111.319L113.127 21.608V23.32H110.951V22.408L110.199 21.656H106.903L106.087 22.472V28.328L106.903 29.144H110.231L111.015 28.36V26.616H108.615V24.76H113.127V29.16L111.287 31H105.751L103.911 29.16Z" fill="white"/>
<path d="M0.87999 48.16L0.87999 40.64L2.71999 38.8H8.19199L9.99999 40.608V42.32H7.82399V41.408L7.07199 40.656H3.87199L3.05599 41.472L3.05599 47.328L3.87199 48.144H7.07199L7.82399 47.392V46.48H9.99999V48.192L8.19199 50H2.71999L0.87999 48.16Z" fill="white"/>
<path d="M12.3644 48.16V40.64L14.2044 38.8H19.9644L21.8044 40.64V48.16L19.9644 50H14.2044L12.3644 48.16ZM18.8124 48.144L19.6284 47.328V41.472L18.8124 40.656H15.3564L14.5404 41.472V47.328L15.3564 48.144H18.8124Z" fill="white"/>
<path d="M24.7275 38.8H26.7435L30.0715 46.032H30.1035L33.4475 38.8H35.4635V50H33.3675V43.184H33.3355L30.7595 48.432H29.4155L26.8555 43.184H26.8235V50H24.7275V38.8Z" fill="white"/>
<path d="M38.54 38.8H40.556L43.884 46.032H43.916L47.26 38.8H49.276V50H47.18V43.184H47.148L44.572 48.432H43.228L40.668 43.184H40.636V50H38.54V38.8Z" fill="white"/>
<path d="M52.1925 48.16V40.64L54.0325 38.8H59.7925L61.6325 40.64V48.16L59.7925 50H54.0325L52.1925 48.16ZM58.6405 48.144L59.4565 47.328V41.472L58.6405 40.656H55.1845L54.3685 41.472V47.328L55.1845 48.144H58.6405Z" fill="white"/>
<path d="M64.5556 38.8H66.5076L71.4996 46.4H71.5316V38.8H73.6276V50H71.6756L66.6836 42.416H66.6516V50H64.5556V38.8Z" fill="white"/>
<path d="M76.4719 48.272V46.672H78.6159V47.616L79.1439 48.144H82.4559L82.9999 47.6V45.744L82.4719 45.216H78.2319L76.5039 43.488V40.528L78.2319 38.8H83.2879L85.0159 40.528V42.144H82.8719V41.184L82.3439 40.656H79.1759L78.6479 41.184V42.832L79.1759 43.36H83.4159L85.1439 45.088V48.24L83.3839 50H78.1999L76.4719 48.272Z" fill="white"/>
</svg>
