<svg width="162" height="79" viewBox="0 0 162 79" fill="none" xmlns="http://www.w3.org/2000/svg">
<path fill-rule="evenodd" clip-rule="evenodd" d="M109.397 78.7506L97.1824 66.4762V41.226L135.222 3H158.604L160 4.40279V15.6251L138.363 37.719L140.457 39.9986H158.255L160 41.9274V53.8511L135.222 78.7506H109.397ZM123.007 17.0279V40.1739L134.873 52.0976H158.604V41.4014H139.759L134.175 35.6148V21.9377L140.457 15.4498H158.604V4.40279H135.571L123.007 17.0279ZM12.1073 78.9353V41.5971H0V28.3848L24.9165 3.36949H37.9011L40.0067 5.48346L42.8142 3.36949H62.8175V16.758L50.7103 29.2656V53.7524L25.2674 78.9353H12.1073ZM38.4275 15.8771V53.0478H49.482V16.758L37.1992 4.42648H26.3202V15.8771H38.4275ZM61.7647 4.42648H45.2707L56.1498 15.3487H61.7647V4.42648Z" fill="white"/>
<path fill-rule="evenodd" clip-rule="evenodd" d="M50.254 78.7506V65.7748V59.2869V47.1879L50.2746 41.0507H50.603V28.2502L75.73 3H113.072V17.0279V28.2502L107.313 35.2642L103.3 39.4725V40.3493H113.072V54.2018L88.6425 78.7506H50.254ZM112.025 41.5767H76.777V52.0976H76.8386V52.1541H112.086V41.6331H112.025V41.5767ZM105.743 22.9897H76.428V32.8093H76.4896V32.8657H105.804V23.0462H105.743V22.9897ZM112.025 4.05209H76.777V14.9237H76.8386V14.9802H112.086V4.10854H112.025V4.05209Z" fill="white"/>
</svg>
