<svg width="290" height="79" viewBox="0 0 290 79" fill="none" xmlns="http://www.w3.org/2000/svg">
<g clip-path="url(#clip0)">
<path fill-rule="evenodd" clip-rule="evenodd" d="M109.397 78.7506L97.1824 66.4762V41.226L135.222 3H158.604L160 4.40279V15.6251L138.363 37.719L140.457 39.9986H158.255L160 41.9274V53.8511L135.222 78.7506H109.397ZM123.007 17.0279V40.1739L134.873 52.0976H158.604V41.4014H139.759L134.175 35.6148V21.9377L140.457 15.4498H158.604V4.40279H135.571L123.007 17.0279ZM12.1073 78.9353V41.5971H0V28.3848L24.9165 3.36949H37.9011L40.0067 5.48346L42.8142 3.36949H62.8175V16.758L50.7103 29.2656V53.7524L25.2674 78.9353H12.1073ZM38.4275 15.8771V53.0478H49.482V16.758L37.1992 4.42648H26.3202V15.8771H38.4275ZM61.7647 4.42648H45.2707L56.1498 15.3487H61.7647V4.42648Z" fill="white"/>
<path fill-rule="evenodd" clip-rule="evenodd" d="M50.254 78.7506V65.7748V59.2869V47.1879L50.2746 41.0507H50.603V28.2502L75.73 3H113.072V17.0279V28.2502L107.313 35.2642L103.3 39.4725V40.3493H113.072V54.2018L88.6425 78.7506H50.254ZM112.025 41.5767H76.777V52.0976H76.8386V52.1541H112.086V41.6331H112.025V41.5767ZM105.743 22.9897H76.428V32.8093H76.4896V32.8657H105.804V23.0462H105.743V22.9897ZM112.025 4.05209H76.777V14.9237H76.8386V14.9802H112.086V4.10854H112.025V4.05209Z" fill="white"/>
<path d="M183.824 4.79997H176.944C176.784 4.79997 176.704 4.87997 176.704 5.03997V6.44797C176.704 6.60797 176.784 6.68797 176.944 6.68797H179.344L179.344 15.76C179.344 15.92 179.424 16 179.584 16H181.2C181.36 16 181.456 15.92 181.456 15.76V6.68797H183.824C183.984 6.68797 184.064 6.60797 184.064 6.44797V5.03997C184.064 4.87997 183.984 4.79997 183.824 4.79997Z" fill="white"/>
<path d="M189.585 16.08H191.361C193.697 16.08 194.641 14.8 194.641 12.784V8.01597C194.641 5.99997 193.697 4.71997 191.361 4.71997H189.585C187.265 4.71997 186.305 5.99997 186.305 8.01597V12.784C186.305 14.8 187.265 16.08 189.585 16.08ZM189.761 14.192C188.913 14.192 188.417 13.856 188.417 12.736V8.06397C188.417 6.97597 188.913 6.60797 189.761 6.60797H191.185C192.033 6.60797 192.529 6.97597 192.529 8.06397V12.736C192.529 13.856 192.033 14.192 191.185 14.192H189.761Z" fill="white"/>
<path d="M206.08 15.6L202.128 9.77597L205.84 5.21597C206.016 5.00797 205.936 4.79997 205.744 4.79997H203.92C203.712 4.79997 203.6 4.89597 203.472 5.05597L199.808 9.66397V5.03997C199.808 4.87997 199.728 4.79997 199.568 4.79997H197.936C197.776 4.79997 197.696 4.87997 197.696 5.03997V15.76C197.696 15.92 197.776 16 197.936 16H199.568C199.728 16 199.808 15.92 199.808 15.76V12.624L200.768 11.44L203.696 15.776C203.824 15.968 204 16 204.128 16H205.984C206.192 16 206.16 15.728 206.08 15.6Z" fill="white"/>
<path d="M208.951 16H215.415C215.575 16 215.655 15.92 215.655 15.76V14.352C215.655 14.192 215.575 14.112 215.415 14.112H210.823V11.312H214.951C215.111 11.312 215.191 11.232 215.191 11.072V9.72797C215.191 9.56797 215.111 9.47197 214.951 9.47197H210.823V6.68797H215.319C215.479 6.68797 215.559 6.60797 215.559 6.44797V5.03997C215.559 4.87997 215.479 4.79997 215.319 4.79997H208.951C208.791 4.79997 208.711 4.87997 208.711 5.03997V15.76C208.711 15.92 208.791 16 208.951 16Z" fill="white"/>
<path d="M218.467 16H220.099C220.259 16 220.339 15.92 220.339 15.76V7.55197H220.483L223.459 15.824C223.507 15.952 223.619 16 223.747 16L226.499 16C226.659 16 226.739 15.92 226.739 15.76V5.03997C226.739 4.87997 226.659 4.79997 226.499 4.79997H224.867C224.707 4.79997 224.627 4.87997 224.627 5.03997V13.248H224.483L221.507 4.97597C221.459 4.84797 221.347 4.79997 221.219 4.79997H218.467C218.307 4.79997 218.227 4.87997 218.227 5.03997V15.76C218.227 15.92 218.307 16 218.467 16Z" fill="white"/>
<path d="M177.264 35H183.728C183.888 35 183.968 34.92 183.968 34.76V33.352C183.968 33.192 183.888 33.112 183.728 33.112H179.136V30.312H183.264C183.424 30.312 183.504 30.232 183.504 30.072V28.728C183.504 28.568 183.424 28.472 183.264 28.472H179.136V25.688H183.632C183.792 25.688 183.872 25.608 183.872 25.448V24.04C183.872 23.88 183.792 23.8 183.632 23.8H177.264C177.104 23.8 177.024 23.88 177.024 24.04V34.76C177.024 34.92 177.104 35 177.264 35Z" fill="white"/>
<path d="M186.78 35H188.412C188.572 35 188.652 34.92 188.652 34.76V26.552H188.796L191.772 34.824C191.82 34.952 191.932 35 192.06 35H194.812C194.972 35 195.052 34.92 195.052 34.76V24.04C195.052 23.88 194.972 23.8 194.812 23.8H193.18C193.02 23.8 192.94 23.88 192.94 24.04V32.248H192.796L189.82 23.976C189.772 23.848 189.66 23.8 189.532 23.8H186.78C186.62 23.8 186.54 23.88 186.54 24.04V34.76C186.54 34.92 186.62 35 186.78 35Z" fill="white"/>
<path d="M201.382 35.08H203.094C205.43 35.08 206.374 33.8 206.374 31.784V28.808C206.374 28.584 206.262 28.472 206.038 28.472H202.23C202.07 28.472 201.99 28.568 201.99 28.728V30.072C201.99 30.232 202.07 30.312 202.23 30.312H204.262V31.736C204.262 32.856 203.766 33.192 202.918 33.192H201.558C200.71 33.192 200.214 32.856 200.214 31.736V27.064C200.214 25.976 200.71 25.608 201.558 25.608H202.886C203.686 25.608 204.262 25.928 204.262 27.128C204.262 27.288 204.358 27.384 204.518 27.384H206.118C206.278 27.384 206.374 27.272 206.374 27.128V27.032C206.374 24.952 205.462 23.72 203.078 23.72H201.382C199.046 23.72 198.102 25 198.102 27.016V31.784C198.102 33.8 199.046 35.08 201.382 35.08Z" fill="white"/>
<path d="M209.655 35H211.287C211.447 35 211.527 34.92 211.527 34.76V24.04C211.527 23.88 211.447 23.8 211.287 23.8H209.655C209.495 23.8 209.415 23.88 209.415 24.04V34.76C209.415 34.92 209.495 35 209.655 35Z" fill="white"/>
<path d="M214.811 35H216.443C216.603 35 216.683 34.92 216.683 34.76V26.552H216.827L219.803 34.824C219.851 34.952 219.963 35 220.091 35H222.843C223.003 35 223.083 34.92 223.083 34.76V24.04C223.083 23.88 223.003 23.8 222.843 23.8H221.211C221.051 23.8 220.971 23.88 220.971 24.04V32.248H220.827L217.851 23.976C217.803 23.848 217.691 23.8 217.563 23.8H214.811C214.651 23.8 214.571 23.88 214.571 24.04V34.76C214.571 34.92 214.651 35 214.811 35Z" fill="white"/>
<path d="M226.373 35H232.837C232.997 35 233.077 34.92 233.077 34.76V33.352C233.077 33.192 232.997 33.112 232.837 33.112H228.245V30.312H232.373C232.533 30.312 232.613 30.232 232.613 30.072V28.728C232.613 28.568 232.533 28.472 232.373 28.472H228.245V25.688H232.741C232.901 25.688 232.981 25.608 232.981 25.448V24.04C232.981 23.88 232.901 23.8 232.741 23.8H226.373C226.213 23.8 226.133 23.88 226.133 24.04V34.76C226.133 34.92 226.213 35 226.373 35Z" fill="white"/>
<path d="M235.889 35H242.353C242.513 35 242.593 34.92 242.593 34.76V33.352C242.593 33.192 242.513 33.112 242.353 33.112H237.761V30.312H241.889C242.049 30.312 242.129 30.232 242.129 30.072V28.728C242.129 28.568 242.049 28.472 241.889 28.472H237.761V25.688H242.257C242.417 25.688 242.497 25.608 242.497 25.448V24.04C242.497 23.88 242.417 23.8 242.257 23.8H235.889C235.729 23.8 235.649 23.88 235.649 24.04V34.76C235.649 34.92 235.729 35 235.889 35Z" fill="white"/>
<path d="M253.133 28.84V27.112C253.133 25.096 252.157 23.8 249.837 23.8H245.405C245.245 23.8 245.165 23.88 245.165 24.04V34.76C245.165 34.92 245.245 35 245.405 35H247.037C247.197 35 247.277 34.92 247.277 34.76V32.136H249.837L250.925 34.744C250.989 34.92 251.149 35 251.341 35H252.813C253.069 35 253.181 34.856 253.085 34.616L251.837 31.656C252.733 31.112 253.133 30.12 253.133 28.84ZM247.277 25.688H249.661C250.509 25.688 251.021 26.072 251.021 27.16V28.776C251.021 29.896 250.509 30.248 249.661 30.248H247.277V25.688Z" fill="white"/>
<path d="M256.28 35H257.912C258.072 35 258.152 34.92 258.152 34.76V24.04C258.152 23.88 258.072 23.8 257.912 23.8H256.28C256.12 23.8 256.04 23.88 256.04 24.04V34.76C256.04 34.92 256.12 35 256.28 35Z" fill="white"/>
<path d="M261.436 35H263.068C263.228 35 263.308 34.92 263.308 34.76V26.552H263.452L266.428 34.824C266.476 34.952 266.588 35 266.716 35H269.468C269.628 35 269.708 34.92 269.708 34.76V24.04C269.708 23.88 269.628 23.8 269.468 23.8H267.836C267.676 23.8 267.596 23.88 267.596 24.04V32.248H267.452L264.476 23.976C264.428 23.848 264.316 23.8 264.188 23.8H261.436C261.276 23.8 261.196 23.88 261.196 24.04V34.76C261.196 34.92 261.276 35 261.436 35Z" fill="white"/>
<path d="M276.038 35.08H277.75C280.086 35.08 281.03 33.8 281.03 31.784V28.808C281.03 28.584 280.918 28.472 280.694 28.472H276.886C276.726 28.472 276.646 28.568 276.646 28.728V30.072C276.646 30.232 276.726 30.312 276.886 30.312H278.918V31.736C278.918 32.856 278.422 33.192 277.574 33.192H276.214C275.366 33.192 274.87 32.856 274.87 31.736V27.064C274.87 25.976 275.366 25.608 276.214 25.608H277.542C278.342 25.608 278.918 25.928 278.918 27.128C278.918 27.288 279.014 27.384 279.174 27.384H280.774C280.934 27.384 281.03 27.272 281.03 27.128V27.032C281.03 24.952 280.118 23.72 277.734 23.72H276.038C273.702 23.72 272.758 25 272.758 27.016V31.784C272.758 33.8 273.702 35.08 276.038 35.08Z" fill="white"/>
<path d="M180.304 54.08H182C184.384 54.08 185.296 52.864 185.296 50.816V50.72C185.296 50.576 185.2 50.464 185.04 50.464H183.44C183.28 50.464 183.184 50.56 183.184 50.72C183.184 51.888 182.608 52.192 181.808 52.192H180.48C179.632 52.192 179.136 51.856 179.136 50.736V46.064C179.136 44.976 179.632 44.608 180.48 44.608H181.808C182.608 44.608 183.184 44.928 183.184 46.128C183.184 46.288 183.28 46.384 183.44 46.384H185.04C185.2 46.384 185.296 46.272 185.296 46.128V46.032C185.296 43.952 184.384 42.72 182 42.72H180.304C177.968 42.72 177.024 44 177.024 46.016V50.784C177.024 52.8 177.968 54.08 180.304 54.08Z" fill="white"/>
<path d="M191.46 54.08H193.236C195.572 54.08 196.516 52.8 196.516 50.784V46.016C196.516 44 195.572 42.72 193.236 42.72H191.46C189.14 42.72 188.18 44 188.18 46.016V50.784C188.18 52.8 189.14 54.08 191.46 54.08ZM191.636 52.192C190.788 52.192 190.292 51.856 190.292 50.736V46.064C190.292 44.976 190.788 44.608 191.636 44.608H193.06C193.908 44.608 194.404 44.976 194.404 46.064V50.736C194.404 51.856 193.908 52.192 193.06 52.192H191.636Z" fill="white"/>
<path d="M199.811 54H201.443C201.603 54 201.683 53.92 201.683 53.76V45.552H201.827L203.475 53.76C203.507 53.92 203.635 54 203.779 54H205.891C206.035 54 206.179 53.92 206.195 53.76L207.843 45.552H208.003V53.76C208.003 53.92 208.083 54 208.243 54H209.859C210.019 54 210.115 53.92 210.115 53.76V43.04C210.115 42.88 210.019 42.8 209.859 42.8H206.947C206.787 42.8 206.643 42.88 206.627 43.04L204.899 51.44H204.787L203.059 43.04C203.027 42.88 202.899 42.8 202.739 42.8H199.811C199.651 42.8 199.571 42.88 199.571 43.04V53.76C199.571 53.92 199.651 54 199.811 54Z" fill="white"/>
<path d="M213.405 54H215.037C215.197 54 215.277 53.92 215.277 53.76V45.552H215.421L217.069 53.76C217.101 53.92 217.229 54 217.373 54H219.485C219.629 54 219.773 53.92 219.789 53.76L221.437 45.552H221.597V53.76C221.597 53.92 221.677 54 221.837 54H223.453C223.613 54 223.709 53.92 223.709 53.76V43.04C223.709 42.88 223.613 42.8 223.453 42.8H220.541C220.381 42.8 220.237 42.88 220.221 43.04L218.493 51.44H218.381L216.653 43.04C216.621 42.88 216.493 42.8 216.333 42.8H213.405C213.245 42.8 213.165 42.88 213.165 43.04V53.76C213.165 53.92 213.245 54 213.405 54Z" fill="white"/>
<path d="M230.038 54.08H231.814C234.15 54.08 235.094 52.8 235.094 50.784V46.016C235.094 44 234.15 42.72 231.814 42.72H230.038C227.718 42.72 226.758 44 226.758 46.016V50.784C226.758 52.8 227.718 54.08 230.038 54.08ZM230.214 52.192C229.366 52.192 228.87 51.856 228.87 50.736V46.064C228.87 44.976 229.366 44.608 230.214 44.608H231.638C232.486 44.608 232.982 44.976 232.982 46.064V50.736C232.982 51.856 232.486 52.192 231.638 52.192H230.214Z" fill="white"/>
<path d="M238.389 54H240.021C240.181 54 240.261 53.92 240.261 53.76V45.552H240.405L243.381 53.824C243.429 53.952 243.541 54 243.669 54H246.421C246.581 54 246.661 53.92 246.661 53.76V43.04C246.661 42.88 246.581 42.8 246.421 42.8H244.789C244.629 42.8 244.549 42.88 244.549 43.04V51.248H244.405L241.429 42.976C241.381 42.848 241.269 42.8 241.141 42.8L238.389 42.8C238.229 42.8 238.149 42.88 238.149 43.04V53.76C238.149 53.92 238.229 54 238.389 54Z" fill="white"/>
<path d="M252.923 54.08H254.475C256.747 54.08 257.771 53.008 257.771 50.752C257.771 48.16 256.107 47.728 254.091 47.472L253.275 47.36C252.107 47.216 251.867 46.656 251.867 45.84C251.867 44.928 252.379 44.608 253.195 44.608H254.075C254.891 44.608 255.307 44.912 255.387 45.696C255.403 45.92 255.531 46.032 255.739 46.032H257.179C257.403 46.032 257.499 45.92 257.499 45.696C257.499 43.808 256.379 42.72 254.267 42.72H253.051C250.859 42.72 249.755 43.744 249.755 45.744C249.755 48.304 251.227 48.848 253.275 49.12L254.107 49.232C255.147 49.376 255.659 49.664 255.659 50.752C255.659 51.936 255.019 52.192 254.203 52.192H253.211C252.395 52.192 251.851 51.936 251.771 51.12C251.755 50.912 251.611 50.784 251.419 50.784H249.979C249.755 50.784 249.659 50.912 249.659 51.12C249.659 52.992 250.683 54.08 252.923 54.08Z" fill="white"/>
</g>
<defs>
<clipPath id="clip0">
<rect width="290" height="78.9353" fill="white"/>
</clipPath>
</defs>
</svg>
