<svg width="257" height="257" viewBox="0 0 257 257" fill="none" xmlns="http://www.w3.org/2000/svg">
<path d="M128.433 226.917C128.039 226.917 127.671 226.74 127.417 226.438L125.583 224.232L87.0222 177.859H90.4717L128.433 223.512L166.395 177.859H169.849L131.288 224.232L129.455 226.438C129.205 226.74 128.828 226.917 128.433 226.917ZM172.055 175.204H168.602L176.431 165.789L178.157 167.866L172.055 175.204ZM88.2654 175.204H84.8159L78.7184 167.87L80.442 165.797L88.2654 175.204ZM75.2688 163.72L47.6706 130.531L49.3965 128.458L76.9925 161.648L75.2688 163.72ZM181.609 163.716L179.881 161.639L207.477 128.452L209.205 130.529L181.609 163.716ZM45.9448 128.456L33.7606 113.803L31.5219 111.109L6.88844 81.4858L6.67513 81.2316C6.56956 81.1045 6.48984 80.9623 6.44028 80.8136C6.3304 80.4926 6.34548 80.1371 6.49415 79.8203C6.61911 79.5532 6.82812 79.3399 7.0802 79.2084C7.2655 79.1115 7.47664 79.0576 7.69426 79.0576H63.5112L65.7175 81.7099H10.5232L32.1855 107.761L34.3574 110.373L47.6706 126.383L45.9448 128.456ZM210.929 128.452L209.203 126.377L222.52 110.362L224.692 107.75L246.346 81.7099H191.152L193.358 79.0576H249.175C249.397 79.0576 249.612 79.1136 249.8 79.2149C250.048 79.3463 250.252 79.5553 250.377 79.8203C250.524 80.1328 250.539 80.484 250.435 80.8007C250.384 80.9558 250.304 81.1002 250.196 81.2316L249.987 81.4815L225.356 111.103L223.119 113.794L210.929 128.452ZM184.25 81.7099H172.064L169.86 79.0576H186.457L184.25 81.7099ZM168.612 81.7099H88.2654L90.4717 79.0576H166.406L168.612 81.7099ZM84.8137 81.7099H72.6187L70.4124 79.0576H87.02L84.8137 81.7099Z" fill="#FEFEFF"/>
<path d="M128.445 155.594C127.656 155.594 126.911 155.247 126.407 154.639L108.052 132.565L111.501 128.416L128.445 148.794L145.395 128.409L148.847 132.559L130.485 154.639C129.985 155.247 129.236 155.594 128.445 155.594ZM104.6 128.416L77.004 95.2263L80.4535 91.0765L108.05 124.266L104.6 128.416ZM152.296 128.409L148.847 124.259L176.443 91.07L179.895 95.2198L152.296 128.409ZM75.2781 93.1492L65.729 81.6674L63.5226 79.0151L54.245 67.8564L52.5191 65.7794L31.8587 40.9347L31.4299 40.4198L6.12206 9.98182L5.66529 9.43456C5.18266 8.85713 4.98012 8.1138 5.07277 7.39201C5.1094 7.12484 5.18482 6.86196 5.30116 6.60987C5.7407 5.67693 6.67795 5.08228 7.70569 5.08228H249.186C250.216 5.08228 251.149 5.67693 251.591 6.60987C252.024 7.54066 251.886 8.64382 251.227 9.43456L225.466 40.4133L225.038 40.9304L204.381 65.7729L202.654 67.85L193.369 79.0151L191.163 81.6674L181.62 93.1449L178.169 88.9952L184.262 81.6674L186.468 79.0151L199.139 63.7756L200.852 61.7158L221.373 37.0371L221.799 36.5243L243.53 10.389H13.3593L35.0971 36.5307L35.5237 37.0435L56.0462 61.7244L57.757 63.7821L70.4238 79.0151L72.6301 81.6674L78.7276 89.0016L75.2781 93.1492Z" fill="#FEFEFF"/>
<path d="M249.189 177.834H193.381L191.174 175.179H246.364L224.706 149.132L222.535 146.519L209.217 130.504L207.489 128.427L179.895 95.2372L176.444 91.0874L168.625 81.6848L166.418 79.0325L128.452 33.368L90.4838 79.0325L88.2775 81.6848L80.4541 91.0939L77.0046 95.2436L49.4086 128.433L47.6827 130.506L34.3695 146.519L32.1977 149.13L10.5375 175.179H65.7318L63.5255 177.834H7.71068C7.49091 177.834 7.2776 177.778 7.08799 177.676C6.83806 177.545 6.63338 177.332 6.51057 177.067C6.3619 176.754 6.34682 176.403 6.45239 176.084C6.5041 175.931 6.58382 175.785 6.69155 175.655L6.8984 175.405L31.5319 145.78L33.7705 143.089L45.9569 128.431L47.6827 126.358L75.2788 93.1666L78.7283 89.019L84.8258 81.6848L87.0321 79.0325L125.584 32.6656L127.431 30.4442C127.683 30.1425 128.066 29.9917 128.452 29.9917C128.836 29.9917 129.221 30.1425 129.473 30.4442L131.32 32.6656L169.872 79.0325L172.076 81.6848L178.169 89.0125L181.621 93.1623L209.215 126.352L210.941 128.427L223.134 143.089L225.37 145.78L250.001 175.405L250.21 175.655C250.318 175.785 250.398 175.931 250.45 176.084C250.555 176.403 250.538 176.754 250.394 177.067C250.269 177.332 250.064 177.545 249.814 177.676C249.627 177.778 249.411 177.834 249.189 177.834ZM186.48 177.834H70.4245L72.6308 175.179H184.273L186.48 177.834Z" fill="#FEFEFF"/>
<path d="M249.183 251.735H7.70409C6.6742 251.735 5.73695 251.141 5.29957 250.21C4.8665 249.279 5.00654 248.178 5.66154 247.387L31.4219 216.406L31.8507 215.891L52.5111 191.045L54.2391 188.968L63.5189 177.809L65.7252 175.154L75.2744 163.67L76.9981 161.598L104.594 128.408L108.044 124.259L126.405 102.178C126.909 101.573 127.678 101.269 128.445 101.269C129.213 101.269 129.982 101.573 130.486 102.178L148.841 124.252L152.29 128.402L179.886 161.589L181.614 163.666L191.168 175.154L193.374 177.809L202.654 188.97L204.38 191.047L225.038 215.891L225.469 216.408L250.775 246.842L251.227 247.387C251.723 247.982 251.923 248.753 251.807 249.497C251.768 249.74 251.697 249.979 251.589 250.21C251.15 251.141 250.217 251.735 249.183 251.735ZM13.3599 246.428H243.531L221.802 220.298L221.375 219.785L200.853 195.102L199.142 193.044L186.473 177.809L184.267 175.154L178.163 167.816L176.437 165.739L148.841 132.552L145.389 128.402L128.445 108.024L111.495 128.408L108.046 132.558L80.4476 165.747L78.7239 167.82L72.6242 175.154L70.4179 177.809L57.7511 193.044L56.0403 195.102L35.5156 219.785L35.089 220.298L13.3599 246.428Z" fill="#FEFEFF"/>
<path d="M121.4 2.25209C120.881 2.25209 120.448 1.84487 120.42 1.32131C120.39 0.778348 120.805 0.312959 121.348 0.282794C122.01 0.244012 122.669 0.216003 123.333 0.190148C123.845 0.155675 124.335 0.590903 124.356 1.13386C124.378 1.67897 123.953 2.13575 123.408 2.15514C122.757 2.18315 122.107 2.21331 121.458 2.24778L121.4 2.25209ZM137.157 2.3512H137.09C136.439 2.3038 135.788 2.26718 135.136 2.23055C134.595 2.20469 134.179 1.7393 134.205 1.1985C134.235 0.655538 134.687 0.213849 135.239 0.265559C135.903 0.302187 136.564 0.338815 137.226 0.386216C137.766 0.420689 138.176 0.892545 138.139 1.4355C138.1 1.95476 137.669 2.3512 137.157 2.3512ZM107.692 3.75385C107.218 3.75385 106.803 3.41342 106.723 2.93079C106.635 2.3943 106.999 1.89012 107.535 1.80178C108.19 1.6919 108.843 1.58848 109.496 1.49152C110.041 1.41827 110.537 1.78024 110.616 2.31889C110.698 2.85754 110.325 3.35956 109.787 3.43928C109.143 3.53623 108.496 3.6375 107.854 3.74307L107.692 3.75385ZM150.843 4.03825L150.668 4.02317C150.026 3.91113 149.384 3.79694 148.742 3.69352C148.203 3.60518 147.839 3.101 147.925 2.56451C148.014 2.02801 148.516 1.66174 149.054 1.75007C149.709 1.85565 150.362 1.96553 151.015 2.08403C151.549 2.17884 151.907 2.68947 151.81 3.22597C151.726 3.70429 151.31 4.03825 150.843 4.03825ZM94.2306 6.73365C93.7996 6.73365 93.4032 6.44925 93.2847 6.01402C93.136 5.49045 93.442 4.94749 93.9655 4.80314C94.6033 4.62215 95.2454 4.45409 95.8831 4.28172C96.4089 4.15245 96.9497 4.4584 97.0854 4.98843C97.2211 5.51199 96.9087 6.05064 96.3852 6.18638C95.7539 6.35013 95.1226 6.52251 94.4956 6.69918L94.2306 6.73365ZM164.264 7.19042L163.986 7.14949C163.361 6.96851 162.734 6.79183 162.107 6.61515C161.581 6.47079 161.273 5.92783 161.419 5.40427C161.564 4.87855 162.113 4.5769 162.63 4.7191C163.268 4.89578 163.906 5.07677 164.539 5.26207C165.061 5.41289 165.36 5.96232 165.207 6.48157C165.082 6.91249 164.688 7.19042 164.264 7.19042ZM81.1651 11.1527C80.7773 11.1527 80.4045 10.92 80.2515 10.5344C80.049 10.028 80.2946 9.45706 80.801 9.25453C81.415 9.01106 82.0356 8.76544 82.6539 8.53059C83.1559 8.33667 83.7312 8.58876 83.923 9.0994C84.1169 9.60788 83.8648 10.1767 83.352 10.3706C82.7466 10.6033 82.139 10.8403 81.5314 11.0838L81.1651 11.1527ZM177.262 11.7776L176.887 11.7022C176.284 11.4522 175.681 11.2066 175.075 10.9674C174.569 10.767 174.323 10.1939 174.524 9.68761C174.726 9.18343 175.295 8.9378 175.804 9.13602C176.415 9.38165 177.027 9.62943 177.637 9.88151C178.141 10.0905 178.38 10.6636 178.171 11.1678C178.016 11.5492 177.65 11.7776 177.262 11.7776ZM68.6577 16.9594C68.3043 16.9594 67.966 16.7698 67.7872 16.4379C67.533 15.9575 67.7161 15.3607 68.1944 15.1064C68.7805 14.794 69.3687 14.4902 69.959 14.1864C70.4417 13.9365 71.0342 14.1282 71.282 14.613C71.5297 15.0978 71.338 15.6903 70.8553 15.9424C70.2714 16.2354 69.694 16.5414 69.1187 16.8452L68.6577 16.9594ZM189.69 17.7436L189.216 17.6208C188.643 17.3084 188.072 17.0003 187.497 16.6944C187.016 16.4401 186.831 15.8454 187.087 15.365C187.341 14.8845 187.934 14.697 188.417 14.9577C189 15.2637 189.584 15.5783 190.166 15.895C190.64 16.1579 190.815 16.7568 190.552 17.233C190.373 17.5605 190.035 17.7436 189.69 17.7436ZM56.8548 24.0803C56.5402 24.0803 56.2321 23.9295 56.0425 23.6472C55.7365 23.1969 55.8529 22.5829 56.3032 22.2791C56.8505 21.9085 57.3956 21.5422 57.9472 21.1802C58.4061 20.8829 59.0115 21.0078 59.311 21.4603C59.6105 21.9128 59.4855 22.5247 59.0309 22.8263C58.4858 23.184 57.9472 23.546 57.4085 23.9079L56.8548 24.0803ZM201.409 25.0176C201.213 25.0176 201.017 24.9615 200.846 24.8409C200.312 24.4681 199.771 24.0997 199.228 23.7313C198.778 23.4275 198.66 22.8134 198.965 22.3631C199.269 21.9128 199.881 21.7943 200.331 22.1002C200.881 22.473 201.43 22.8479 201.973 23.2292C202.419 23.5417 202.527 24.1514 202.215 24.5974C202.023 24.8732 201.721 25.0176 201.409 25.0176ZM45.8987 32.425C45.6186 32.425 45.3406 32.3066 45.1489 32.076C44.7955 31.6623 44.8429 31.0396 45.2609 30.6884C45.7629 30.2597 46.2671 29.8374 46.7777 29.4172C47.1979 29.0703 47.8184 29.1328 48.1631 29.5487C48.5079 29.9688 48.4497 30.5893 48.0317 30.9384C47.5275 31.3521 47.0298 31.7679 46.5343 32.1902C46.349 32.3475 46.1227 32.425 45.8987 32.425ZM212.274 33.5239C212.044 33.5239 211.811 33.442 211.626 33.2783C211.135 32.8495 210.639 32.425 210.141 32.0006C209.73 31.6494 209.674 31.031 210.027 30.6152C210.376 30.1994 210.999 30.1476 211.415 30.4967C211.919 30.9276 212.425 31.3607 212.923 31.7937C213.33 32.1514 213.373 32.7763 213.016 33.1856C212.822 33.4054 212.548 33.5239 212.274 33.5239ZM35.9013 41.9053C35.66 41.9053 35.4166 41.8169 35.2248 41.6359C34.8327 41.2654 34.8133 40.6405 35.186 40.2484C35.6406 39.7679 36.0996 39.2917 36.5606 38.8177C36.9399 38.4256 37.5625 38.4213 37.9525 38.8005C38.3425 39.1797 38.3511 39.8024 37.9719 40.1902C37.5151 40.6556 37.0627 41.1275 36.6167 41.5993C36.4249 41.804 36.1642 41.9053 35.9013 41.9053ZM222.151 43.1506C221.886 43.1506 221.621 43.0429 221.427 42.8339C220.985 42.3513 220.539 41.8773 220.089 41.4033C219.716 41.0068 219.731 40.382 220.128 40.0092C220.522 39.6386 221.145 39.6516 221.52 40.0459C221.974 40.5263 222.429 41.009 222.875 41.4981C223.243 41.8988 223.22 42.5215 222.819 42.8899C222.632 43.0623 222.39 43.1506 222.151 43.1506ZM26.9899 52.4219C26.7809 52.4219 26.5719 52.3551 26.3931 52.2193C25.9622 51.8918 25.876 51.2778 26.2035 50.8425C26.6043 50.3147 27.0072 49.7911 27.4165 49.2675C27.7505 48.8409 28.3689 48.7655 28.7998 49.1016C29.2286 49.4377 29.3018 50.0583 28.9657 50.4849C28.5628 50.9955 28.1663 51.5105 27.7742 52.0319C27.5803 52.2883 27.2851 52.4219 26.9899 52.4219ZM230.929 53.7879C230.629 53.7879 230.33 53.6521 230.136 53.3871C229.748 52.8635 229.358 52.3421 228.962 51.8229C228.632 51.3877 228.716 50.7736 229.149 50.4418C229.582 50.1121 230.198 50.1962 230.528 50.6292C230.929 51.1571 231.33 51.6828 231.722 52.2172C232.045 52.6546 231.952 53.2708 231.513 53.594C231.338 53.7254 231.131 53.7879 230.929 53.7879ZM19.2614 63.8391L18.7529 63.6968C18.2897 63.4146 18.1389 62.8113 18.4189 62.3459C18.7594 61.7793 19.1041 61.2126 19.4553 60.6524C19.7419 60.1892 20.3516 60.0491 20.8106 60.3378C21.2716 60.6244 21.4138 61.2299 21.1273 61.6931C20.7804 62.2468 20.4443 62.8027 20.106 63.3607C19.9207 63.6667 19.5954 63.8391 19.2614 63.8391ZM238.504 65.3085C238.166 65.3085 237.837 65.134 237.653 64.8194C237.324 64.2549 236.992 63.6969 236.656 63.1367C236.376 62.6713 236.524 62.0658 236.99 61.7857C237.453 61.4992 238.061 61.65 238.341 62.1175C238.683 62.6864 239.022 63.2573 239.356 63.8261C239.629 64.2958 239.468 64.8991 239 65.1728L238.504 65.3085ZM12.8127 76.0233L12.399 75.9306C11.9056 75.7044 11.6901 75.1184 11.9207 74.625C12.1943 74.0238 12.4787 73.427 12.7653 72.8302C13.0001 72.3433 13.584 72.1299 14.0796 72.3691C14.5687 72.604 14.7777 73.1943 14.5385 73.6813C14.2584 74.2695 13.9805 74.862 13.7069 75.4545C13.5388 75.8121 13.1833 76.0233 12.8127 76.0233ZM244.789 77.5789C244.412 77.5789 244.053 77.3592 243.889 76.995C243.624 76.396 243.352 75.8035 243.079 75.2153C242.85 74.7219 243.064 74.1359 243.559 73.9096C244.055 73.6791 244.636 73.8924 244.865 74.3858C245.145 74.9869 245.419 75.5881 245.688 76.1935C245.912 76.6891 245.686 77.2687 245.19 77.4927L244.789 77.5789ZM7.71491 88.8388L7.40035 88.7871C6.8854 88.6126 6.60745 88.0546 6.77982 87.5396C6.99097 86.9126 7.20859 86.2856 7.43051 85.663C7.6115 85.1459 8.16738 84.8765 8.68664 85.0618C9.19944 85.2407 9.46876 85.8052 9.28562 86.3136C9.06801 86.9299 8.85901 87.5482 8.65002 88.1688C8.51212 88.5781 8.12644 88.8388 7.71491 88.8388ZM249.711 90.4505C249.29 90.4505 248.907 90.1833 248.773 89.7653C248.573 89.1469 248.368 88.5286 248.161 87.9102C247.987 87.3953 248.26 86.8372 248.775 86.6605C249.295 86.4882 249.851 86.764 250.027 87.2789C250.236 87.9059 250.445 88.535 250.648 89.1642C250.814 89.6834 250.527 90.2372 250.01 90.4031L249.711 90.4505ZM4.03271 102.133L3.82371 102.107C3.29153 101.995 2.95326 101.465 3.07176 100.935C3.21612 100.291 3.36048 99.642 3.51346 98.9978C3.63842 98.4677 4.16846 98.1402 4.69634 98.2652C5.22637 98.3902 5.5517 98.918 5.43104 99.4481C5.28022 100.082 5.13587 100.719 4.99583 101.359C4.89671 101.818 4.48733 102.133 4.03271 102.133ZM253.21 103.779C252.753 103.779 252.341 103.458 252.244 102.992C252.113 102.357 251.979 101.717 251.837 101.081C251.723 100.551 252.057 100.026 252.587 99.9092C253.113 99.7928 253.643 100.122 253.759 100.655C253.903 101.299 254.041 101.947 254.177 102.594C254.283 103.128 253.94 103.647 253.41 103.757L253.21 103.779ZM1.81348 115.745L1.70576 115.741C1.16711 115.683 0.777128 115.198 0.833148 114.66C0.902095 113.998 0.97965 113.339 1.06152 112.679C1.13047 112.141 1.61741 111.759 2.16037 111.824C2.69902 111.889 3.0847 112.382 3.01791 112.921C2.93819 113.571 2.86061 114.218 2.79167 114.866C2.7378 115.373 2.31119 115.745 1.81348 115.745ZM255.25 117.398C254.746 117.398 254.319 117.017 254.27 116.508C254.205 115.86 254.142 115.211 254.071 114.569C254.009 114.03 254.399 113.541 254.942 113.483C255.487 113.431 255.97 113.813 256.028 114.351C256.099 115.006 256.168 115.661 256.23 116.321C256.282 116.862 255.883 117.342 255.345 117.394L255.25 117.398ZM1.07877 129.475C0.533655 129.475 0.0941162 129.089 0.0941162 128.544V128.436C0.0941162 127.809 0.0984183 127.182 0.107037 126.553C0.1135 126.014 0.555194 125.583 1.09169 125.583H1.10678C1.64974 125.59 2.0828 126.036 2.07634 126.581C2.06772 127.197 2.06342 127.818 2.06342 128.436C2.06342 128.983 1.62173 129.475 1.07877 129.475ZM255.799 131.399H255.786C255.241 131.39 254.806 130.942 254.815 130.399C254.826 129.742 254.832 129.093 254.832 128.436V128.221C254.832 127.675 255.272 127.236 255.817 127.236C256.36 127.236 256.801 127.675 256.801 128.221V128.436C256.801 129.104 256.795 129.768 256.784 130.429C256.778 130.968 256.336 131.399 255.799 131.399ZM1.83503 143.292C1.33732 143.292 0.910701 142.919 0.854682 142.411C0.785735 141.758 0.716799 141.099 0.654316 140.441C0.60476 139.901 1.00119 139.422 1.542 139.371C2.07634 139.295 2.56543 139.715 2.61499 140.258C2.67747 140.907 2.74212 141.551 2.81322 142.2C2.87139 142.738 2.48141 143.225 1.94276 143.283L1.83503 143.292ZM254.841 145.166L254.718 145.158C254.179 145.091 253.798 144.598 253.865 144.059C253.944 143.41 254.022 142.762 254.091 142.111C254.149 141.573 254.625 141.18 255.175 141.239C255.718 141.299 256.108 141.782 256.049 142.325C255.974 142.986 255.901 143.645 255.817 144.302C255.756 144.804 255.332 145.166 254.841 145.166ZM4.0715 156.883C3.61904 156.883 3.21182 156.571 3.11055 156.112C2.96835 155.468 2.83045 154.819 2.69687 154.17C2.58698 153.636 2.93386 153.119 3.46605 153.009C3.99608 152.906 4.51965 153.246 4.62738 153.776C4.75665 154.416 4.8924 155.052 5.03245 155.687C5.1488 156.217 4.81484 156.743 4.2848 156.859L4.0715 156.883ZM252.397 158.74L252.173 158.715C251.641 158.59 251.314 158.06 251.441 157.53C251.591 156.894 251.738 156.26 251.876 155.623C251.992 155.091 252.516 154.752 253.048 154.873C253.58 154.987 253.918 155.513 253.8 156.045C253.656 156.691 253.511 157.34 253.356 157.984C253.248 158.439 252.843 158.74 252.397 158.74ZM7.76663 170.158C7.35725 170.158 6.97374 169.899 6.83369 169.49C6.62469 168.863 6.41785 168.236 6.21531 167.604C6.04726 167.087 6.33383 166.536 6.84878 166.368C7.36588 166.202 7.92176 166.484 8.08766 167.001C8.28804 167.624 8.49272 168.242 8.69956 168.858C8.87193 169.371 8.59615 169.931 8.07905 170.108L7.76663 170.158ZM248.502 171.972L248.17 171.916C247.659 171.735 247.39 171.17 247.571 170.657C247.791 170.046 248.002 169.425 248.213 168.807C248.388 168.292 248.95 168.016 249.461 168.193C249.976 168.365 250.251 168.923 250.079 169.438C249.868 170.065 249.648 170.692 249.428 171.315C249.286 171.72 248.907 171.972 248.502 171.972ZM12.8773 182.96C12.5067 182.96 12.1491 182.749 11.9853 182.387C11.7052 181.79 11.4338 181.187 11.1644 180.582C10.9404 180.086 11.1644 179.504 11.66 179.282C12.162 179.058 12.7394 179.287 12.9614 179.78C13.2264 180.375 13.4957 180.969 13.7693 181.562C13.9999 182.055 13.7844 182.639 13.291 182.87L12.8773 182.96ZM243.195 184.699L242.768 184.604C242.279 184.369 242.07 183.781 242.309 183.292C242.592 182.704 242.868 182.111 243.143 181.521C243.372 181.028 243.958 180.81 244.451 181.04C244.945 181.269 245.16 181.853 244.929 182.346C244.654 182.947 244.369 183.546 244.083 184.143C243.915 184.496 243.563 184.699 243.195 184.699ZM19.3433 195.134C19.0093 195.134 18.6818 194.966 18.4987 194.657C18.1582 194.091 17.82 193.522 17.4882 192.949C17.2145 192.479 17.374 191.876 17.8458 191.602C18.3177 191.329 18.921 191.49 19.1903 191.96C19.5178 192.524 19.8496 193.085 20.1836 193.645C20.4637 194.108 20.315 194.714 19.8496 194.994L19.3433 195.134ZM236.548 196.778L236.029 196.629C235.568 196.342 235.423 195.735 235.714 195.274C236.055 194.72 236.399 194.166 236.733 193.606C237.013 193.139 237.617 192.988 238.084 193.27C238.552 193.552 238.703 194.153 238.42 194.621C238.08 195.188 237.733 195.752 237.384 196.314C237.199 196.616 236.876 196.778 236.548 196.778ZM27.0847 206.547C26.7896 206.547 26.4944 206.411 26.3005 206.159C25.9019 205.633 25.5011 205.101 25.109 204.566C24.7858 204.131 24.8806 203.513 25.3201 203.188C25.7575 202.869 26.3737 202.961 26.6969 203.401C27.0826 203.924 27.4726 204.446 27.8669 204.967C28.1965 205.398 28.1125 206.017 27.6816 206.344C27.5027 206.482 27.2916 206.547 27.0847 206.547ZM228.636 208.066C228.421 208.066 228.21 207.999 228.029 207.859C227.602 207.523 227.525 206.904 227.863 206.475C228.264 205.96 228.664 205.448 229.054 204.926C229.386 204.493 230.007 204.411 230.438 204.739C230.869 205.068 230.95 205.689 230.625 206.122C230.224 206.648 229.821 207.169 229.41 207.688C229.218 207.936 228.929 208.066 228.636 208.066ZM36.0177 217.055C35.7548 217.055 35.4963 216.951 35.3024 216.746C34.8456 216.268 34.3953 215.783 33.9471 215.294C33.5765 214.893 33.6045 214.271 34.0053 213.902C34.4061 213.536 35.0287 213.562 35.3972 213.961C35.8367 214.441 36.2827 214.917 36.733 215.391C37.1036 215.785 37.0907 216.41 36.6942 216.785C36.5025 216.966 36.259 217.055 36.0177 217.055ZM219.555 218.433C219.305 218.433 219.059 218.341 218.867 218.153C218.477 217.774 218.469 217.149 218.85 216.759C219.305 216.292 219.755 215.826 220.203 215.35C220.578 214.954 221.201 214.939 221.593 215.316C221.989 215.691 222.005 216.313 221.632 216.705C221.179 217.184 220.72 217.664 220.257 218.136C220.065 218.334 219.809 218.433 219.555 218.433ZM46.0366 226.535C45.8103 226.535 45.5863 226.459 45.401 226.302C44.8946 225.875 44.3926 225.442 43.8949 225.005C43.4834 224.647 43.4424 224.025 43.7979 223.617C44.1577 223.206 44.7804 223.167 45.1877 223.523C45.6832 223.951 46.1744 224.378 46.6765 224.802C47.0902 225.152 47.1419 225.774 46.7885 226.19C46.5946 226.418 46.3167 226.535 46.0366 226.535ZM209.409 227.752C209.122 227.752 208.842 227.629 208.648 227.394C208.301 226.972 208.362 226.349 208.782 226.005C209.282 225.593 209.782 225.175 210.277 224.755C210.693 224.402 211.316 224.456 211.667 224.867C212.018 225.281 211.966 225.901 211.553 226.255C211.051 226.683 210.544 227.106 210.036 227.524C209.85 227.677 209.629 227.752 209.409 227.752ZM57.0271 234.879L56.4756 234.709C55.9262 234.337 55.3789 233.964 54.8359 233.58C54.3921 233.268 54.2822 232.654 54.5946 232.21C54.9049 231.762 55.5211 231.652 55.9649 231.969C56.4971 232.344 57.0358 232.714 57.5787 233.078C58.029 233.382 58.1497 233.994 57.8416 234.446C57.6541 234.727 57.3417 234.879 57.0271 234.879ZM198.317 235.916C197.996 235.916 197.681 235.761 197.494 235.472C197.192 235.015 197.321 234.405 197.778 234.106C198.321 233.753 198.86 233.391 199.396 233.027C199.847 232.721 200.459 232.839 200.762 233.289C201.071 233.74 200.952 234.352 200.502 234.658C199.954 235.028 199.409 235.394 198.856 235.756L198.317 235.916ZM68.8451 241.979L68.384 241.867C67.8023 241.557 67.2206 241.242 66.6388 240.925C66.1626 240.662 65.9881 240.066 66.2488 239.587C66.5117 239.109 67.115 238.939 67.589 239.197C68.1599 239.514 68.7309 239.82 69.3062 240.126C69.7867 240.38 69.9698 240.975 69.7134 241.457C69.5367 241.789 69.1963 241.979 68.8451 241.979ZM186.393 242.845C186.036 242.845 185.689 242.649 185.514 242.309C185.269 241.826 185.46 241.231 185.945 240.981C186.523 240.688 187.104 240.384 187.68 240.079C188.162 239.824 188.755 240.005 189.011 240.486C189.268 240.968 189.084 241.563 188.604 241.817C188.016 242.13 187.43 242.434 186.842 242.737L186.393 242.845ZM81.359 247.766L80.9949 247.699C80.3787 247.452 79.7646 247.202 79.1527 246.95C78.655 246.738 78.4137 246.163 78.6248 245.661C78.8338 245.159 79.4112 244.922 79.9111 245.129C80.5144 245.381 81.1134 245.627 81.721 245.866C82.2273 246.068 82.4729 246.641 82.2726 247.146C82.1196 247.529 81.749 247.766 81.359 247.766ZM173.791 248.447C173.395 248.447 173.022 248.208 172.873 247.814C172.679 247.307 172.934 246.736 173.442 246.544C174.05 246.31 174.657 246.075 175.265 245.829C175.765 245.629 176.342 245.874 176.543 246.379C176.745 246.887 176.499 247.458 175.995 247.661C175.379 247.906 174.763 248.147 174.147 248.385L173.791 248.447ZM94.4245 252.164L94.1616 252.129C93.5239 251.953 92.8839 251.772 92.2505 251.582C91.7291 251.427 91.4296 250.88 91.5847 250.358C91.7398 249.837 92.2871 249.537 92.8107 249.694C93.4355 249.878 94.0582 250.054 94.6852 250.229C95.2109 250.375 95.5169 250.918 95.3725 251.442C95.2518 251.879 94.8554 252.164 94.4245 252.164ZM160.657 252.651C160.217 252.651 159.821 252.36 159.704 251.916C159.567 251.388 159.883 250.849 160.411 250.716C161.04 250.548 161.667 250.38 162.299 250.207C162.824 250.059 163.365 250.369 163.509 250.892C163.658 251.414 163.348 251.957 162.826 252.103C162.187 252.282 161.544 252.455 160.905 252.62L160.657 252.651ZM107.891 255.122L107.731 255.109C107.078 255.003 106.426 254.889 105.775 254.775C105.241 254.678 104.883 254.165 104.978 253.631C105.075 253.094 105.594 252.737 106.124 252.836C106.766 252.95 107.404 253.06 108.048 253.166C108.584 253.254 108.951 253.76 108.862 254.295C108.783 254.781 108.367 255.122 107.891 255.122ZM147.145 255.413C146.665 255.413 146.245 255.062 146.174 254.57C146.09 254.032 146.462 253.532 147.001 253.452C147.645 253.357 148.292 253.258 148.934 253.153C149.477 253.056 149.976 253.426 150.063 253.963C150.153 254.499 149.791 255.008 149.252 255.092C148.6 255.202 147.945 255.303 147.29 255.4L147.145 255.413ZM121.598 256.606L121.547 256.604C120.885 256.57 120.226 256.527 119.562 256.486C119.021 256.445 118.614 255.975 118.649 255.432C118.685 254.889 119.17 254.486 119.7 254.519C120.349 254.562 121.001 254.605 121.652 254.637C122.195 254.667 122.611 255.133 122.581 255.673C122.555 256.199 122.12 256.606 121.598 256.606ZM133.416 256.693C132.89 256.693 132.453 256.279 132.434 255.749C132.41 255.202 132.834 254.745 133.38 254.725C134.03 254.7 134.683 254.667 135.332 254.633C135.847 254.588 136.338 255.021 136.37 255.564C136.396 256.107 135.982 256.57 135.437 256.598C134.778 256.637 134.116 256.667 133.455 256.69L133.416 256.693Z" fill="#FEFEFF"/>
<path d="M40.9198 93.764L128.442 199.02L215.966 93.764H40.9198ZM128.442 201.548C128.149 201.548 127.873 201.416 127.685 201.192L38.0628 93.4085C37.8193 93.1133 37.7654 92.7039 37.927 92.3592C38.0886 92.0123 38.4398 91.7947 38.819 91.7947H218.066C218.446 91.7947 218.797 92.0123 218.958 92.3592C219.12 92.7039 219.068 93.1133 218.823 93.4085L129.2 201.192C129.015 201.416 128.735 201.548 128.442 201.548Z" fill="#FEFEFF"/>
<path d="M43.0158 40.8321L128.439 143.57L213.864 40.8321H43.0158ZM128.439 148.616C127.855 148.616 127.301 148.357 126.927 147.907L37.3018 40.1233C36.8127 39.5372 36.7093 38.7185 37.0325 38.029C37.36 37.3352 38.0538 36.8936 38.8165 36.8936H218.064C218.827 36.8936 219.52 37.3352 219.848 38.029C220.169 38.7185 220.065 39.5372 219.578 40.1233L129.954 147.907C129.581 148.357 129.027 148.616 128.439 148.616Z" fill="#FEFEFF"/>
<path d="M40.9188 163.111H215.967L128.443 57.8483L40.9188 163.111ZM218.065 165.08H38.8202C38.4388 165.08 38.0876 164.856 37.9282 164.512C37.7666 164.167 37.8162 163.757 38.064 163.464L127.684 55.6764C128.057 55.2283 128.828 55.2283 129.201 55.6764L218.822 163.464C219.069 163.757 219.119 164.167 218.957 164.512C218.798 164.856 218.447 165.08 218.065 165.08Z" fill="#FEFEFF"/>
<path d="M43.0299 216.045H213.881L128.455 113.311L43.0299 216.045ZM218.078 219.983H38.8327C38.0679 219.983 37.3741 219.541 37.0466 218.852C36.7255 218.16 36.829 217.344 37.3159 216.756L126.941 108.972C127.69 108.071 129.22 108.071 129.97 108.972L219.595 216.756C220.082 217.344 220.185 218.16 219.864 218.852C219.537 219.541 218.843 219.983 218.078 219.983Z" fill="#FEFEFF"/>
</svg>
