<svg width="368" height="368" viewBox="0 0 368 368" fill="none" xmlns="http://www.w3.org/2000/svg">
<g opacity="0.05">
<g opacity="0.05">
<path opacity="0.05" d="M184.006 288.529C234.554 288.529 279.82 262.394 305.094 218.616C330.368 174.842 330.368 122.573 305.094 78.8014C279.82 35.021 234.554 8.8884 184.006 8.8884C133.458 8.8884 88.1916 35.021 62.9177 78.8014C37.6391 122.573 37.6391 174.842 62.913 218.616C88.1916 262.394 133.458 288.529 184.006 288.529ZM184.006 2.18803C236.975 2.18803 284.412 29.5774 310.896 75.4524C337.381 121.323 337.381 176.092 310.896 221.965C284.412 267.842 236.975 295.227 184.006 295.227C131.037 295.227 83.5997 267.842 57.113 221.965C30.6332 176.092 30.6332 121.323 57.113 75.4524C83.5997 29.5774 131.037 2.18803 184.006 2.18803Z" fill="white"/>
</g>
<g opacity="0.05">
<path opacity="0.05" d="M305.094 78.7398L62.9174 78.7398L184.006 288.467L305.094 78.7398ZM60.0151 75.3908L307.996 75.3908C308.593 75.3908 309.144 75.7056 309.445 76.2263C309.744 76.7448 309.744 77.3836 309.445 77.9043L185.457 292.654C184.857 293.689 183.154 293.689 182.554 292.654L58.5639 77.9043C58.2653 77.3836 58.2653 76.7448 58.5639 76.2263C58.8625 75.7056 59.4156 75.3908 60.0151 75.3908Z" fill="white"/>
</g>
<g opacity="0.05">
<path opacity="0.05" d="M302.194 360.042L184.006 155.339L65.8157 360.042L302.194 360.042ZM184.006 145.29C185.203 145.29 186.309 145.927 186.906 146.966L310.894 361.718C311.492 362.75 311.492 364.028 310.894 365.067C310.297 366.102 309.191 366.743 307.994 366.743L60.0156 366.743C58.8167 366.743 57.715 366.102 57.1133 365.067C56.5161 364.028 56.5161 362.75 57.1133 361.718L181.104 146.966C181.701 145.927 182.807 145.29 184.006 145.29Z" fill="white"/>
</g>
<g opacity="0.05">
<path opacity="0.05" d="M182.458 358.161C183.106 358.161 183.722 358.541 183.997 359.17L185.328 362.242C185.696 363.093 185.305 364.082 184.456 364.447C183.602 364.818 182.625 364.422 182.255 363.577L180.924 360.503C180.558 359.652 180.947 358.668 181.794 358.298C182.011 358.208 182.236 358.161 182.458 358.161ZM189.115 349.906C189.339 349.906 189.566 349.952 189.781 350.042C190.631 350.408 191.019 351.396 190.654 352.245L189.321 355.321C188.953 356.164 187.969 356.555 187.12 356.192C186.27 355.826 185.881 354.835 186.247 353.986L187.578 350.912C187.853 350.285 188.471 349.906 189.115 349.906ZM177.135 345.869C177.781 345.869 178.399 346.244 178.672 346.876L180.005 349.952C180.373 350.801 179.984 351.785 179.132 352.155C178.281 352.514 177.299 352.13 176.931 351.283L175.598 348.207C175.232 347.36 175.621 346.371 176.471 346.006C176.688 345.911 176.913 345.869 177.135 345.869ZM194.442 337.611C194.662 337.611 194.889 337.655 195.107 337.75C195.954 338.116 196.345 339.104 195.977 339.951L194.646 343.022C194.278 343.874 193.301 344.265 192.443 343.895C191.593 343.527 191.205 342.541 191.573 341.694L192.903 338.62C193.179 337.988 193.792 337.611 194.442 337.611ZM171.809 333.572C172.46 333.572 173.075 333.95 173.351 334.584L174.682 337.655C175.047 338.502 174.658 339.49 173.811 339.856C172.955 340.222 171.974 339.831 171.608 338.986L170.277 335.912C169.909 335.065 170.298 334.079 171.147 333.711C171.363 333.616 171.592 333.572 171.809 333.572ZM199.766 325.319C199.986 325.319 200.21 325.361 200.43 325.453C201.277 325.824 201.666 326.807 201.3 327.657L199.969 330.728C199.601 331.577 198.622 331.971 197.766 331.598C196.917 331.235 196.528 330.246 196.896 329.397L198.227 326.328C198.502 325.694 199.118 325.319 199.766 325.319ZM166.488 321.276C167.136 321.276 167.752 321.655 168.027 322.285L169.356 325.361C169.724 326.21 169.335 327.198 168.486 327.564C167.629 327.93 166.653 327.539 166.282 326.694L164.954 323.62C164.586 322.768 164.975 321.782 165.824 321.414C166.042 321.322 166.268 321.276 166.488 321.276ZM205.089 313.022C205.311 313.022 205.533 313.066 205.751 313.159C206.6 313.524 206.992 314.513 206.624 315.364L205.293 318.436C204.925 319.283 203.939 319.665 203.089 319.308C202.242 318.938 201.851 317.954 202.219 317.105L203.55 314.029C203.823 313.402 204.441 313.022 205.089 313.022ZM161.165 308.983C161.813 308.983 162.431 309.363 162.702 309.993L164.033 313.066C164.401 313.913 164.007 314.899 163.16 315.267C162.306 315.638 161.325 315.244 160.957 314.395L159.628 311.323C159.263 310.476 159.651 309.488 160.501 309.122C160.716 309.027 160.943 308.983 161.165 308.983ZM210.412 300.73C210.632 300.73 210.859 300.772 211.074 300.867C211.926 301.232 212.315 302.221 211.947 303.068L210.618 306.139C210.253 306.986 209.269 307.375 208.415 307.012C207.565 306.641 207.177 305.658 207.542 304.811L208.873 301.737C209.146 301.105 209.764 300.73 210.412 300.73ZM155.84 296.684C156.485 296.684 157.103 297.066 157.379 297.696L158.709 300.772C159.075 301.619 158.686 302.607 157.837 302.973C156.981 303.345 156.002 302.952 155.636 302.103L154.303 299.027C153.937 298.177 154.326 297.194 155.175 296.823C155.393 296.731 155.617 296.684 155.84 296.684ZM215.738 288.431C215.958 288.431 216.185 288.475 216.402 288.568C217.249 288.938 217.638 289.922 217.272 290.771L215.942 293.847C215.571 294.694 214.595 295.083 213.74 294.717C212.889 294.349 212.5 293.361 212.868 292.516L214.199 289.44C214.474 288.808 215.09 288.431 215.738 288.431ZM150.514 284.395C151.164 284.395 151.78 284.774 152.055 285.401L153.384 288.475C153.752 289.327 153.363 290.31 152.514 290.681C151.662 291.046 150.678 290.655 150.31 289.806L148.982 286.735C148.614 285.885 149.003 284.897 149.852 284.533C150.067 284.439 150.296 284.395 150.514 284.395ZM221.059 276.137C221.281 276.137 221.508 276.185 221.725 276.275C222.572 276.641 222.961 277.629 222.596 278.479L221.265 281.55C220.895 282.397 219.909 282.781 219.061 282.425C218.212 282.055 217.823 281.069 218.191 280.219L219.522 277.146C219.797 276.518 220.413 276.137 221.059 276.137ZM145.191 272.098C145.841 272.098 146.454 272.475 146.73 273.109L148.063 276.185C148.431 277.03 148.04 278.016 147.19 278.386C146.341 278.747 145.357 278.361 144.987 277.511L143.656 274.438C143.29 273.588 143.679 272.605 144.526 272.237C144.746 272.14 144.973 272.098 145.191 272.098ZM226.384 263.842C226.604 263.842 226.829 263.886 227.049 263.979C227.896 264.349 228.287 265.335 227.919 266.18L226.588 269.256C226.222 270.107 225.241 270.499 224.385 270.128C223.538 269.76 223.149 268.774 223.514 267.927L224.845 264.854C225.121 264.219 225.736 263.842 226.384 263.842ZM139.87 259.801C140.518 259.801 141.136 260.183 141.407 260.813L142.737 263.886C143.105 264.736 142.712 265.724 141.867 266.09C141.015 266.455 140.029 266.064 139.661 265.219L138.333 262.146C137.965 261.294 138.354 260.308 139.205 259.94C139.421 259.847 139.648 259.801 139.87 259.801ZM231.708 251.548C231.93 251.548 232.154 251.592 232.37 251.684C233.221 252.052 233.61 253.038 233.242 253.89L231.914 256.961C231.548 257.808 230.567 258.2 229.71 257.832C228.861 257.468 228.472 256.48 228.838 255.628L230.169 252.557C230.442 251.927 231.06 251.548 231.708 251.548ZM134.544 247.509C135.19 247.509 135.81 247.889 136.083 248.518L137.414 251.592C137.78 252.443 137.391 253.427 136.542 253.797C135.687 254.163 134.706 253.77 134.34 252.923L133.007 249.854C132.642 249.002 133.03 248.016 133.88 247.648C134.095 247.555 134.322 247.509 134.544 247.509ZM237.033 239.256C237.253 239.256 237.48 239.297 237.698 239.392C238.545 239.758 238.933 240.746 238.57 241.593L237.237 244.669C236.867 245.516 235.888 245.905 235.034 245.542C234.184 245.171 233.795 244.188 234.163 243.338L235.494 240.262C235.77 239.631 236.385 239.256 237.033 239.256ZM129.219 235.215C129.864 235.215 130.485 235.592 130.76 236.224L132.088 239.297C132.456 240.142 132.068 241.133 131.216 241.498C130.362 241.864 129.381 241.473 129.015 240.628L127.686 237.552C127.316 236.705 127.705 235.721 128.554 235.351C128.772 235.256 128.996 235.215 129.219 235.215ZM242.357 226.959C242.579 226.959 242.803 227.001 243.021 227.098C243.868 227.466 244.259 228.452 243.891 229.296L242.56 232.372C242.192 233.219 241.216 233.613 240.359 233.243C239.507 232.875 239.119 231.886 239.487 231.042L240.817 227.97C241.091 227.334 241.708 226.959 242.357 226.959ZM123.893 222.918C124.546 222.918 125.159 223.297 125.434 223.929L126.765 227.001C127.136 227.852 126.747 228.841 125.893 229.206C125.041 229.572 124.062 229.181 123.689 228.336L122.361 225.26C121.995 224.411 122.384 223.427 123.233 223.054C123.451 222.964 123.678 222.918 123.893 222.918ZM247.677 214.664C247.9 214.664 248.126 214.708 248.344 214.801C249.191 215.167 249.582 216.155 249.214 217.004L247.883 220.08C247.515 220.923 246.53 221.314 245.68 220.951C244.833 220.583 244.444 219.594 244.81 218.745L246.141 215.671C246.416 215.042 247.032 214.664 247.677 214.664ZM118.572 210.628C119.22 210.628 119.838 211.003 120.111 211.635L121.44 214.708C121.81 215.56 121.416 216.544 120.567 216.914C119.722 217.282 118.732 216.886 118.366 216.037L117.035 212.963C116.669 212.114 117.058 211.13 117.908 210.765C118.125 210.67 118.352 210.628 118.572 210.628ZM253.003 202.37C253.223 202.37 253.45 202.414 253.667 202.509C254.517 202.875 254.906 203.863 254.538 204.71L253.209 207.781C252.841 208.631 251.855 209.019 251.006 208.654C250.156 208.286 249.77 207.3 250.133 206.453L251.464 203.379C251.737 202.747 252.355 202.37 253.003 202.37ZM113.249 198.331C113.894 198.331 114.515 198.706 114.786 199.343L116.119 202.414C116.484 203.261 116.096 204.249 115.246 204.615C114.387 204.983 113.411 204.592 113.045 203.745L111.712 200.671C111.344 199.822 111.733 198.838 112.584 198.468C112.8 198.373 113.027 198.331 113.249 198.331ZM258.329 190.073C258.549 190.073 258.775 190.119 258.993 190.21C259.842 190.58 260.231 191.564 259.865 192.413L258.535 195.487C258.164 196.334 257.188 196.725 256.329 196.357C255.48 195.994 255.091 195.005 255.459 194.158L256.79 191.082C257.065 190.453 257.681 190.073 258.329 190.073ZM107.923 186.034C108.569 186.034 109.189 186.414 109.465 187.044L110.793 190.119C111.159 190.969 110.77 191.955 109.921 192.323C109.066 192.691 108.09 192.295 107.719 191.453L106.391 188.379C106.021 187.527 106.409 186.539 107.259 186.173C107.476 186.081 107.701 186.034 107.923 186.034ZM263.652 177.779C263.872 177.779 264.099 177.825 264.316 177.918C265.163 178.283 265.552 179.272 265.189 180.123L263.856 183.195C263.485 184.042 262.499 184.426 261.655 184.065C260.803 183.697 260.414 182.713 260.782 181.864L262.113 178.788C262.388 178.161 263.004 177.779 263.652 177.779ZM102.602 173.742C103.248 173.742 103.864 174.12 104.139 174.751L105.467 177.825C105.84 178.672 105.451 179.658 104.595 180.026C103.746 180.389 102.764 180.003 102.394 179.154L101.065 176.082C100.7 175.235 101.089 174.247 101.938 173.881C102.155 173.784 102.38 173.742 102.602 173.742ZM268.975 165.484C269.197 165.484 269.422 165.526 269.639 165.623C270.487 165.991 270.878 166.975 270.51 167.824L269.179 170.898C268.813 171.75 267.834 172.141 266.978 171.77C266.128 171.402 265.74 170.416 266.105 169.569L267.436 166.496C267.712 165.859 268.329 165.484 268.975 165.484ZM97.2766 161.443C97.9246 161.443 98.5426 161.825 98.8134 162.457L100.144 165.533C100.515 166.38 100.121 167.366 99.2717 167.732C98.4246 168.097 97.4409 167.709 97.0683 166.861L95.7398 163.786C95.3741 162.936 95.7629 161.952 96.6123 161.58C96.8299 161.49 97.0567 161.443 97.2766 161.443ZM274.298 153.188C274.518 153.188 274.747 153.234 274.963 153.326C275.812 153.694 276.201 154.68 275.833 155.53L274.504 158.606C274.139 159.448 273.157 159.839 272.301 159.476C271.454 159.108 271.065 158.12 271.429 157.27L272.759 154.199C273.032 153.567 273.65 153.188 274.298 153.188ZM91.9533 149.153C92.5991 149.153 93.217 149.531 93.4901 150.158L94.8233 153.234C95.1889 154.086 94.8001 155.069 93.9507 155.44C93.0967 155.805 92.1153 155.412 91.7496 154.565L90.4142 151.493C90.0485 150.644 90.4373 149.656 91.2868 149.288C91.5043 149.197 91.7311 149.153 91.9533 149.153ZM279.622 140.895C279.844 140.895 280.071 140.942 280.288 141.034C281.138 141.4 281.527 142.388 281.161 143.238L279.83 146.309C279.457 147.156 278.471 147.545 277.627 147.184C276.775 146.814 276.386 145.828 276.754 144.978L278.085 141.902C278.36 141.277 278.976 140.895 279.622 140.895ZM86.6277 136.857C87.2781 136.857 87.8938 137.232 88.1692 137.868L89.4977 140.942C89.8634 141.789 89.4745 142.772 88.6251 143.145C87.7757 143.506 86.7898 143.12 86.4241 142.27L85.0956 139.197C84.7229 138.347 85.1118 137.364 85.9635 136.993C86.1787 136.898 86.4055 136.857 86.6277 136.857ZM284.947 128.599C285.167 128.599 285.394 128.645 285.612 128.738C286.461 129.108 286.85 130.092 286.484 130.939L285.153 134.015C284.783 134.862 283.806 135.25 282.948 134.885C282.098 134.519 281.709 133.531 282.077 132.681L283.408 129.612C283.684 128.978 284.299 128.599 284.947 128.599ZM81.3021 124.56C81.9525 124.56 82.5682 124.94 82.8436 125.571L84.1721 128.645C84.5424 129.494 84.1536 130.48 83.3042 130.848C82.4501 131.212 81.4688 130.821 81.0985 129.978L79.77 126.905C79.4043 126.055 79.7931 125.067 80.6425 124.699C80.8601 124.606 81.0846 124.56 81.3021 124.56ZM290.271 116.307C290.493 116.307 290.717 116.351 290.935 116.443C291.782 116.813 292.173 117.795 291.807 118.647L290.474 121.72C290.106 122.565 289.125 122.958 288.273 122.593C287.424 122.227 287.035 121.239 287.401 120.387L288.731 117.316C289.007 116.684 289.623 116.307 290.271 116.307ZM75.9812 112.268C76.6269 112.268 77.2472 112.645 77.518 113.275L78.8511 116.351C79.2191 117.202 78.8303 118.184 77.9786 118.556C77.1199 118.917 76.1432 118.528 75.7775 117.684L74.4444 114.61C74.0787 113.761 74.4675 112.772 75.3169 112.407C75.5345 112.31 75.759 112.268 75.9812 112.268ZM295.594 104.012C295.816 104.012 296.043 104.054 296.258 104.151C297.108 104.514 297.496 105.505 297.128 106.352L295.798 109.428C295.432 110.273 294.453 110.666 293.596 110.301C292.747 109.93 292.358 108.944 292.724 108.095L294.055 105.021C294.33 104.389 294.948 104.012 295.594 104.012ZM70.6556 99.9711C71.3037 99.9711 71.9216 100.351 72.1924 100.985L73.5279 104.054C73.8936 104.901 73.5047 105.892 72.6553 106.255C71.7966 106.625 70.8199 106.232 70.4519 105.387L69.1188 102.311C68.7531 101.464 69.142 100.48 69.9914 100.112C70.2089 100.017 70.4357 99.9711 70.6556 99.9711ZM300.919 91.7177C301.139 91.7177 301.366 91.7571 301.584 91.8543C302.433 92.2246 302.822 93.2082 302.456 94.0576L301.125 97.1312C300.755 97.9783 299.781 98.3672 298.922 98.0015C298.073 97.6358 297.684 96.6475 298.05 95.8004L299.383 92.7291C299.656 92.0927 300.271 91.7177 300.919 91.7177ZM65.3324 87.6767C65.9827 87.6767 66.5961 88.0562 66.8738 88.6834L68.2023 91.7571C68.568 92.6088 68.1791 93.5971 67.3297 93.9651C66.4757 94.3307 65.499 93.9396 65.1287 93.0948L63.7979 90.0189C63.4275 89.1672 63.8164 88.1835 64.6704 87.8132C64.8833 87.7229 65.1102 87.6767 65.3324 87.6767ZM306.24 79.421C306.463 79.421 306.689 79.4672 306.907 79.5575C307.756 79.9232 308.145 80.9138 307.78 81.7632L306.449 84.8368C306.078 85.6839 305.092 86.0658 304.245 85.7094C303.394 85.3414 303.005 84.3531 303.373 83.5037L304.704 80.4301C304.979 79.8005 305.595 79.421 306.24 79.421ZM60.0114 75.3845C60.6571 75.3845 61.2728 75.7595 61.5482 76.3936L62.8767 79.4672C63.247 80.3143 62.8582 81.298 62.0088 81.6683C61.1547 82.0317 60.1734 81.6452 59.8031 80.7958L58.4746 77.7245C58.1066 76.8774 58.4954 75.8891 59.3471 75.5211C59.5624 75.4285 59.7892 75.3845 60.0114 75.3845Z" fill="white"/>
</g>
<g opacity="0.05">
<path opacity="0.05" d="M306.664 358.704C307.31 358.704 307.925 359.086 308.201 359.713L309.531 362.787C309.897 363.636 309.508 364.622 308.661 364.99C307.805 365.351 306.824 364.967 306.458 364.117L305.125 361.046C304.759 360.197 305.148 359.208 305.997 358.843C306.215 358.753 306.439 358.704 306.664 358.704ZM63.0941 354.665C63.314 354.665 63.5454 354.707 63.7583 354.802C64.6078 355.172 64.9966 356.158 64.6309 357.005L63.3024 360.079C62.9298 360.928 61.9461 361.315 61.0944 360.954C60.2496 360.583 59.8608 359.597 60.2265 358.753L61.5573 355.677C61.8327 355.04 62.446 354.665 63.0941 354.665ZM301.338 346.409C301.986 346.409 302.602 346.787 302.875 347.421L304.206 350.495C304.574 351.342 304.185 352.328 303.336 352.696C302.479 353.059 301.503 352.67 301.132 351.821L299.801 348.747C299.436 347.9 299.825 346.916 300.674 346.546C300.892 346.453 301.118 346.409 301.338 346.409ZM68.4174 342.368C68.6395 342.368 68.8664 342.415 69.0839 342.507C69.9333 342.875 70.3222 343.861 69.9565 344.713L68.621 347.787C68.2553 348.629 67.2786 349.018 66.42 348.657C65.5706 348.289 65.1817 347.303 65.5474 346.453L66.8806 343.38C67.1537 342.748 67.7716 342.368 68.4174 342.368ZM296.013 334.113C296.661 334.113 297.279 334.495 297.552 335.124L298.885 338.198C299.251 339.047 298.859 340.035 298.012 340.401C297.158 340.767 296.179 340.376 295.809 339.531L294.478 336.457C294.112 335.606 294.501 334.62 295.351 334.252C295.568 334.159 295.793 334.113 296.013 334.113ZM73.7429 330.076C73.9651 330.076 74.192 330.12 74.4072 330.215C75.2589 330.581 75.6478 331.569 75.2798 332.416L73.9513 335.49C73.5809 336.337 72.6042 336.728 71.7456 336.365C70.8962 335.994 70.5073 335.008 70.873 334.159L72.2061 331.083C72.4816 330.454 73.0972 330.076 73.7429 330.076ZM290.689 321.821C291.335 321.821 291.953 322.198 292.228 322.83L293.559 325.903C293.925 326.755 293.536 327.739 292.687 328.109C291.835 328.468 290.851 328.081 290.483 327.234L289.155 324.161C288.787 323.313 289.176 322.325 290.025 321.959C290.243 321.865 290.467 321.821 290.689 321.821ZM79.0685 317.782C79.2907 317.782 79.5152 317.824 79.7328 317.918C80.5776 318.289 80.971 319.272 80.6053 320.119L79.2722 323.195C78.9065 324.04 77.9252 324.431 77.0712 324.066C76.2217 323.698 75.8329 322.709 76.1986 321.865L77.5271 318.791C77.8025 318.157 78.4228 317.782 79.0685 317.782ZM285.366 309.526C286.014 309.526 286.63 309.901 286.905 310.535L288.236 313.609C288.602 314.454 288.213 315.442 287.366 315.81C286.507 316.18 285.528 315.787 285.16 314.94L283.829 311.864C283.464 311.017 283.852 310.033 284.702 309.663C284.917 309.568 285.146 309.526 285.366 309.526ZM84.3895 305.487C84.6117 305.487 84.8408 305.531 85.0537 305.622C85.9031 305.994 86.292 306.978 85.9263 307.827L84.5978 310.903C84.2321 311.746 83.2508 312.139 82.3921 311.774C81.545 311.406 81.1562 310.42 81.5242 309.568L82.8527 306.497C83.1281 305.865 83.7437 305.487 84.3895 305.487ZM280.043 297.229C280.691 297.229 281.304 297.611 281.582 298.239L282.91 301.312C283.278 302.162 282.89 303.152 282.04 303.518C281.184 303.886 280.205 303.49 279.837 302.648L278.506 299.572C278.14 298.722 278.529 297.734 279.376 297.368C279.596 297.276 279.821 297.229 280.043 297.229ZM89.7151 293.195C89.9349 293.195 90.1618 293.237 90.3793 293.332C91.2287 293.698 91.6176 294.684 91.2519 295.533L89.9187 298.604C89.5461 299.454 88.5625 299.84 87.7154 299.479C86.866 299.106 86.4771 298.123 86.8428 297.276L88.1783 294.202C88.4491 293.57 89.067 293.195 89.7151 293.195ZM274.717 284.937C275.365 284.937 275.983 285.315 276.256 285.944L277.587 289.02C277.955 289.867 277.564 290.853 276.717 291.221C275.861 291.587 274.884 291.196 274.514 290.346L273.183 287.277C272.817 286.43 273.206 285.442 274.055 285.076C274.273 284.981 274.497 284.937 274.717 284.937ZM95.0383 280.899C95.2605 280.899 95.4873 280.94 95.7049 281.035C96.5543 281.405 96.9431 282.389 96.5775 283.238L95.2466 286.312C94.881 287.159 93.895 287.548 93.0409 287.182C92.1915 286.814 91.8027 285.828 92.1684 284.981L93.5015 281.91C93.7746 281.273 94.388 280.899 95.0383 280.899ZM269.396 272.638C270.044 272.638 270.66 273.02 270.933 273.652L272.264 276.728C272.63 277.575 272.241 278.561 271.391 278.924C270.542 279.299 269.556 278.903 269.19 278.054L267.859 274.983C267.491 274.129 267.883 273.145 268.732 272.777C268.95 272.685 269.174 272.638 269.396 272.638ZM100.364 268.602C100.586 268.602 100.813 268.648 101.028 268.741C101.875 269.109 102.264 270.095 101.901 270.946L100.568 274.02C100.202 274.862 99.2252 275.256 98.3665 274.89C97.5171 274.522 97.1283 273.536 97.494 272.685L98.8225 269.611C99.0979 268.981 99.7182 268.602 100.364 268.602ZM264.073 260.346C264.716 260.346 265.334 260.726 265.61 261.355L266.941 264.429C267.306 265.281 266.918 266.264 266.068 266.635C265.216 266.993 264.233 266.607 263.865 265.76L262.534 262.691C262.168 261.837 262.557 260.851 263.406 260.485C263.622 260.392 263.849 260.346 264.073 260.346ZM105.685 256.31C105.907 256.31 106.132 256.354 106.349 256.446C107.199 256.814 107.587 257.803 107.222 258.65L105.893 261.721C105.523 262.57 104.546 262.961 103.688 262.593C102.843 262.225 102.454 261.239 102.82 260.392L104.148 257.316C104.423 256.687 105.039 256.31 105.685 256.31ZM258.745 248.052C259.395 248.052 260.009 248.427 260.284 249.061L261.617 252.137C261.983 252.984 261.594 253.967 260.745 254.338C259.886 254.708 258.909 254.315 258.541 253.465L257.211 250.389C256.845 249.542 257.234 248.559 258.081 248.188C258.301 248.093 258.525 248.052 258.745 248.052ZM111.01 244.011C111.233 244.011 111.457 244.057 111.675 244.147C112.524 244.52 112.913 245.503 112.547 246.353L111.214 249.429C110.848 250.276 109.872 250.669 109.013 250.299C108.161 249.931 107.773 248.945 108.141 248.096L109.474 245.022C109.744 244.39 110.365 244.011 111.01 244.011ZM253.424 235.755C254.07 235.755 254.686 236.134 254.961 236.766L256.292 239.838C256.66 240.687 256.271 241.675 255.422 242.043C254.565 242.407 253.586 242.016 253.218 241.173L251.887 238.097C251.522 237.248 251.911 236.264 252.758 235.891C252.977 235.801 253.202 235.755 253.424 235.755ZM116.336 231.721C116.556 231.721 116.783 231.765 117 231.857C117.845 232.223 118.239 233.211 117.873 234.061L116.542 237.132C116.172 237.979 115.19 238.373 114.336 238.005C113.487 237.637 113.098 236.653 113.464 235.801L114.795 232.725C115.07 232.098 115.683 231.721 116.336 231.721ZM248.099 223.463C248.749 223.463 249.365 223.84 249.638 224.47L250.969 227.546C251.334 228.395 250.945 229.381 250.096 229.751C249.247 230.117 248.261 229.723 247.893 228.874L246.564 225.798C246.198 224.951 246.587 223.967 247.437 223.599C247.654 223.507 247.879 223.463 248.099 223.463ZM121.659 219.424C121.882 219.424 122.108 219.466 122.326 219.561C123.171 219.931 123.56 220.915 123.196 221.764L121.863 224.838C121.493 225.687 120.507 226.074 119.662 225.712C118.813 225.34 118.424 224.356 118.789 223.509L120.118 220.435C120.396 219.799 121.014 219.424 121.659 219.424ZM242.775 211.166C243.421 211.166 244.039 211.543 244.314 212.177L245.645 215.249C246.011 216.098 245.622 217.086 244.773 217.45C243.921 217.82 242.937 217.429 242.572 216.58L241.239 213.506C240.873 212.659 241.262 211.675 242.111 211.305C242.329 211.21 242.553 211.166 242.775 211.166ZM126.98 207.127C127.202 207.127 127.429 207.174 127.645 207.266C128.496 207.634 128.883 208.62 128.517 209.47L127.189 212.545C126.818 213.388 125.837 213.781 124.983 213.416C124.138 213.048 123.749 212.062 124.11 211.21L125.443 208.139C125.719 207.507 126.335 207.127 126.98 207.127ZM237.45 198.872C238.098 198.872 238.713 199.251 238.989 199.881L240.32 202.954C240.688 203.806 240.299 204.792 239.447 205.158C238.593 205.526 237.616 205.132 237.246 204.287L235.915 201.214C235.55 200.362 235.938 199.378 236.785 199.01C237.003 198.918 237.23 198.872 237.45 198.872ZM132.306 194.835C132.528 194.835 132.753 194.877 132.97 194.974C133.82 195.342 134.208 196.328 133.843 197.173L132.51 200.249C132.144 201.096 131.163 201.489 130.308 201.124C129.459 200.751 129.07 199.77 129.436 198.918L130.769 195.844C131.04 195.21 131.66 194.835 132.306 194.835ZM232.126 186.579C232.775 186.579 233.39 186.954 233.666 187.589L234.999 190.662C235.364 191.509 234.976 192.493 234.126 192.863C233.267 193.227 232.291 192.838 231.923 191.991L230.592 188.919C230.226 188.07 230.615 187.084 231.462 186.718C231.682 186.621 231.907 186.579 232.126 186.579ZM137.631 182.541C137.851 182.541 138.078 182.582 138.296 182.677C139.143 183.048 139.532 184.031 139.168 184.878L137.84 187.954C137.469 188.799 136.493 189.197 135.634 188.825C134.782 188.459 134.394 187.468 134.764 186.621L136.092 183.55C136.365 182.916 136.983 182.541 137.631 182.541ZM226.805 174.285C227.454 174.285 228.069 174.66 228.342 175.294L229.673 178.368C230.039 179.213 229.65 180.201 228.801 180.569C227.951 180.932 226.965 180.543 226.597 179.699L225.269 176.623C224.901 175.776 225.292 174.792 226.139 174.422C226.359 174.327 226.583 174.285 226.805 174.285ZM142.957 170.244C143.177 170.244 143.401 170.29 143.621 170.381C144.468 170.749 144.857 171.737 144.494 172.586L143.158 175.662C142.788 176.505 141.811 176.903 140.957 176.532C140.108 176.164 139.719 175.178 140.085 174.327L141.418 171.251C141.691 170.624 142.309 170.244 142.957 170.244ZM221.48 161.988C222.126 161.988 222.744 162.368 223.019 162.995L224.35 166.071C224.716 166.92 224.327 167.909 223.477 168.277C222.621 168.64 221.642 168.249 221.274 167.406L219.943 164.331C219.577 163.481 219.966 162.493 220.816 162.125C221.031 162.035 221.258 161.988 221.48 161.988ZM148.276 157.954C148.5 157.954 148.727 157.996 148.942 158.088C149.794 158.456 150.183 159.445 149.812 160.292L148.484 163.363C148.114 164.212 147.128 164.599 146.281 164.236C145.434 163.865 145.045 162.882 145.408 162.035L146.739 158.959C147.014 158.329 147.63 157.954 148.276 157.954ZM216.154 149.696C216.802 149.696 217.418 150.073 217.693 150.703L219.024 153.779C219.392 154.626 219.003 155.61 218.152 155.98C217.3 156.35 216.319 155.957 215.951 155.107L214.618 152.036C214.254 151.189 214.643 150.201 215.49 149.833C215.708 149.74 215.934 149.696 216.154 149.696ZM153.601 145.653C153.823 145.653 154.05 145.699 154.266 145.792C155.115 146.16 155.504 147.143 155.138 147.995L153.805 151.071C153.439 151.918 152.458 152.307 151.604 151.941C150.754 151.573 150.366 150.587 150.731 149.74L152.062 146.664C152.338 146.032 152.956 145.653 153.601 145.653ZM210.831 137.397C211.479 137.397 212.095 137.777 212.37 138.409L213.701 141.482C214.069 142.332 213.68 143.317 212.831 143.683C211.974 144.053 210.998 143.662 210.627 142.813L209.297 139.739C208.929 138.888 209.32 137.904 210.167 137.534C210.384 137.443 210.611 137.397 210.831 137.397ZM158.927 133.361C159.147 133.361 159.374 133.407 159.591 133.5C160.438 133.863 160.827 134.853 160.464 135.703L159.135 138.774C158.765 139.621 157.784 140.015 156.929 139.649C156.078 139.279 155.691 138.295 156.059 137.443L157.388 134.37C157.661 133.74 158.279 133.361 158.927 133.361ZM205.508 125.107C206.158 125.107 206.774 125.485 207.047 126.114L208.378 129.185C208.741 130.039 208.352 131.023 207.505 131.391C206.651 131.759 205.67 131.368 205.302 130.521L203.973 127.45C203.605 126.595 203.996 125.61 204.844 125.242C205.063 125.151 205.288 125.107 205.508 125.107ZM164.25 121.071C164.472 121.071 164.697 121.11 164.917 121.205C165.764 121.571 166.153 122.561 165.789 123.406L164.456 126.48C164.086 127.329 163.109 127.723 162.253 127.355C161.403 126.982 161.015 125.998 161.383 125.151L162.713 122.075C162.986 121.446 163.604 121.071 164.25 121.071ZM200.185 112.811C200.83 112.811 201.448 113.185 201.724 113.822L203.054 116.896C203.42 117.743 203.031 118.726 202.182 119.097C201.328 119.46 200.347 119.069 199.979 118.222L198.648 115.148C198.28 114.301 198.669 113.317 199.52 112.947C199.736 112.852 199.962 112.811 200.185 112.811ZM169.576 108.769C169.796 108.769 170.022 108.816 170.238 108.906C171.087 109.276 171.478 110.262 171.11 111.112L169.779 114.185C169.409 115.03 168.428 115.424 167.574 115.058C166.729 114.692 166.34 113.702 166.703 112.852L168.037 109.781C168.312 109.149 168.925 108.769 169.576 108.769ZM194.859 100.516C195.507 100.516 196.123 100.893 196.398 101.523L197.729 104.596C198.097 105.448 197.708 106.432 196.856 106.802C196 107.166 195.023 106.774 194.653 105.932L193.322 102.858C192.959 102.007 193.348 101.023 194.195 100.65C194.412 100.56 194.639 100.516 194.859 100.516ZM174.897 96.4774C175.119 96.4774 175.346 96.5236 175.561 96.6139C176.413 96.9796 176.801 97.9702 176.433 98.8196L175.1 101.891C174.735 102.74 173.758 103.131 172.899 102.763C172.05 102.395 171.661 101.412 172.027 100.56L173.358 97.4841C173.631 96.8592 174.251 96.4774 174.897 96.4774ZM189.536 88.2193C190.181 88.2193 190.799 88.5989 191.075 89.2284L192.406 92.3044C192.774 93.1538 192.385 94.1374 191.533 94.5077C190.679 94.8688 189.7 94.48 189.332 93.6352L187.999 90.5616C187.635 89.7145 188.024 88.7262 188.871 88.3605C189.089 88.2633 189.313 88.2193 189.536 88.2193ZM180.22 84.1829C180.442 84.1829 180.669 84.2246 180.887 84.3195C181.734 84.6898 182.122 85.6734 181.759 86.5205L180.426 89.5965C180.056 90.4459 179.07 90.8324 178.225 90.4667C177.375 90.101 176.987 89.115 177.352 88.2656L178.683 85.192C178.956 84.5579 179.574 84.1829 180.22 84.1829ZM184.212 75.9249C184.86 75.9249 185.476 76.3045 185.752 76.9363L187.082 80.0076C187.448 80.857 187.059 81.843 186.212 82.2087C185.353 82.5767 184.377 82.1855 184.009 81.3408L182.678 78.2671C182.31 77.4177 182.701 76.4364 183.548 76.0638C183.766 75.9689 183.993 75.9249 184.212 75.9249Z" fill="white"/>
</g>
<g opacity="0.05">
<path opacity="0.05" d="M184.009 2.14753C185.858 2.14753 187.358 3.64499 187.358 5.49656L187.358 148.667C187.358 150.514 185.858 152.016 184.009 152.016C182.16 152.016 180.66 150.514 180.66 148.667L180.66 5.49656C180.66 3.64499 182.16 2.14753 184.009 2.14753Z" fill="white"/>
</g>
</g>
<path d="M184.007 254.594C218.081 254.594 248.592 236.977 265.629 207.467C282.666 177.962 282.666 142.729 265.629 113.222C248.592 83.7127 218.081 66.0974 184.007 66.0974C149.934 66.0974 119.42 83.7127 102.388 113.222C85.3508 142.729 85.3508 177.962 102.383 207.467C119.42 236.977 149.934 254.594 184.007 254.594ZM184.007 61.5818C219.712 61.5818 251.687 80.0443 269.541 110.968C287.392 141.887 287.392 178.805 269.541 209.726C251.687 240.65 219.712 259.11 184.007 259.11C148.302 259.11 116.328 240.65 98.4715 209.726C80.6223 178.805 80.6223 141.887 98.4715 110.968C116.328 80.0443 148.302 61.5818 184.007 61.5818Z" fill="white"/>
<path d="M265.627 113.136L102.386 113.136L184.005 254.508L265.627 113.136ZM100.43 110.879L267.583 110.879C267.988 110.879 268.358 111.092 268.562 111.444C268.761 111.791 268.761 112.222 268.562 112.571L184.984 257.33C184.579 258.026 183.431 258.026 183.029 257.33L99.4534 112.571C99.2497 112.222 99.2497 111.791 99.4534 111.444C99.6524 111.092 100.027 110.879 100.43 110.879Z" fill="white"/>
<path d="M263.668 302.93L184.001 164.946L104.333 302.93H263.668ZM184.001 158.174C184.807 158.174 185.554 158.602 185.957 159.301L269.532 304.059C269.935 304.756 269.935 305.617 269.532 306.316C269.13 307.015 268.384 307.445 267.577 307.445H100.424C99.6136 307.445 98.873 307.015 98.4656 306.316C98.0629 305.617 98.0629 304.756 98.4656 304.059L182.043 159.301C182.448 158.602 183.194 158.174 184.001 158.174Z" fill="white"/>
<path d="M182.964 301.498C183.4 301.498 183.816 301.753 184.001 302.179L184.899 304.248C185.147 304.824 184.883 305.488 184.312 305.736C183.735 305.984 183.076 305.717 182.826 305.148L181.93 303.077C181.682 302.503 181.946 301.838 182.518 301.591C182.664 301.528 182.816 301.498 182.964 301.498ZM187.452 295.932C187.603 295.932 187.755 295.964 187.901 296.024C188.473 296.272 188.737 296.939 188.489 297.51L187.591 299.584C187.343 300.151 186.679 300.415 186.105 300.17C185.534 299.924 185.272 299.258 185.52 298.684L186.415 296.612C186.601 296.189 187.017 295.932 187.452 295.932ZM179.377 293.212C179.812 293.212 180.229 293.465 180.414 293.89L181.312 295.964C181.557 296.536 181.296 297.2 180.724 297.45C180.15 297.691 179.486 297.432 179.238 296.862L178.34 294.788C178.093 294.217 178.354 293.55 178.928 293.305C179.076 293.24 179.227 293.212 179.377 293.212ZM191.042 287.646C191.19 287.646 191.343 287.676 191.491 287.739C192.063 287.986 192.324 288.653 192.079 289.222L191.181 291.294C190.931 291.868 190.274 292.131 189.695 291.882C189.123 291.634 188.859 290.97 189.107 290.398L190.005 288.326C190.19 287.901 190.605 287.646 191.042 287.646ZM175.787 284.924C176.225 284.924 176.641 285.177 176.827 285.605L177.722 287.676C177.97 288.245 177.708 288.912 177.134 289.16C176.56 289.405 175.898 289.141 175.651 288.574L174.753 286.5C174.505 285.929 174.767 285.264 175.341 285.017C175.486 284.952 175.637 284.924 175.787 284.924ZM194.632 279.36C194.78 279.36 194.93 279.388 195.078 279.451C195.65 279.7 195.912 280.365 195.666 280.936L194.768 283.008C194.521 283.58 193.861 283.843 193.282 283.593C192.711 283.348 192.449 282.682 192.697 282.11L193.593 280.041C193.778 279.613 194.194 279.36 194.632 279.36ZM172.198 276.636C172.637 276.636 173.052 276.891 173.237 277.314L174.132 279.388C174.382 279.96 174.119 280.626 173.545 280.874C172.966 281.119 172.311 280.855 172.063 280.286L171.163 278.215C170.918 277.641 171.182 276.976 171.751 276.729C171.899 276.666 172.052 276.636 172.198 276.636ZM198.219 271.072C198.367 271.072 198.52 271.102 198.666 271.165C199.237 271.41 199.501 272.077 199.254 272.651L198.356 274.72C198.108 275.291 197.444 275.548 196.872 275.31C196.3 275.06 196.037 274.396 196.284 273.822L197.182 271.75C197.367 271.327 197.782 271.072 198.219 271.072ZM168.61 268.35C169.048 268.35 169.464 268.605 169.649 269.028L170.543 271.102C170.793 271.672 170.529 272.336 169.955 272.586C169.381 272.836 168.719 272.57 168.474 271.996L167.576 269.926C167.33 269.355 167.592 268.691 168.163 268.443C168.309 268.378 168.462 268.35 168.61 268.35ZM201.807 262.784C201.957 262.784 202.107 262.814 202.253 262.877C202.827 263.124 203.089 263.791 202.841 264.363L201.945 266.432C201.7 267.003 201.038 267.265 200.462 267.022C199.888 266.772 199.626 266.108 199.874 265.536L200.77 263.465C200.953 263.039 201.371 262.784 201.807 262.784ZM165.023 260.06C165.458 260.06 165.874 260.317 166.06 260.74L166.955 262.814C167.203 263.386 166.941 264.05 166.37 264.298C165.793 264.55 165.132 264.282 164.884 263.71L163.986 261.638C163.741 261.064 164.002 260.402 164.574 260.153C164.722 260.09 164.872 260.06 165.023 260.06ZM205.396 254.494C205.544 254.494 205.697 254.526 205.845 254.586C206.417 254.836 206.678 255.5 206.433 256.074L205.535 258.146C205.285 258.718 204.626 258.979 204.049 258.731C203.478 258.486 203.216 257.82 203.461 257.248L204.359 255.176C204.545 254.751 204.959 254.494 205.396 254.494ZM161.435 251.774C161.868 251.774 162.285 252.029 162.47 252.452L163.37 254.526C163.613 255.1 163.352 255.762 162.782 256.012C162.206 256.26 161.544 255.993 161.294 255.422L160.398 253.353C160.151 252.779 160.412 252.114 160.986 251.867C161.132 251.804 161.285 251.774 161.435 251.774ZM208.984 246.208C209.134 246.208 209.287 246.24 209.433 246.3C210.004 246.548 210.266 247.215 210.021 247.786L209.123 249.858C208.873 250.429 208.208 250.686 207.639 250.446C207.065 250.198 206.803 249.534 207.051 248.96L207.947 246.888C208.134 246.465 208.549 246.208 208.984 246.208ZM157.846 243.486C158.281 243.486 158.695 243.738 158.88 244.166L159.78 246.24C160.026 246.812 159.764 247.474 159.193 247.724C158.619 247.969 157.954 247.708 157.704 247.136L156.811 245.062C156.561 244.491 156.825 243.829 157.399 243.579C157.542 243.514 157.697 243.486 157.846 243.486ZM212.573 237.92C212.722 237.92 212.874 237.95 213.02 238.012C213.592 238.262 213.856 238.927 213.608 239.496L212.712 241.57C212.465 242.144 211.803 242.407 211.226 242.158C210.655 241.91 210.393 241.246 210.639 240.674L211.537 238.603C211.722 238.174 212.136 237.92 212.573 237.92ZM154.256 235.198C154.696 235.198 155.11 235.453 155.293 235.878L156.191 237.95C156.438 238.524 156.172 239.188 155.603 239.436C155.029 239.683 154.365 239.417 154.117 238.85L153.221 236.776C152.974 236.205 153.237 235.538 153.809 235.291C153.955 235.228 154.108 235.198 154.256 235.198ZM216.161 229.634C216.311 229.634 216.464 229.664 216.61 229.727C217.182 229.974 217.443 230.638 217.198 231.212L216.3 233.284C216.054 233.853 215.392 234.117 214.816 233.869C214.244 233.624 213.981 232.958 214.228 232.384L215.124 230.314C215.309 229.889 215.726 229.634 216.161 229.634ZM150.666 226.912C151.104 226.912 151.52 227.167 151.705 227.59L152.601 229.664C152.849 230.236 152.587 230.9 152.013 231.15C151.439 231.395 150.777 231.131 150.53 230.562L149.632 228.491C149.384 227.917 149.645 227.252 150.219 227.005C150.368 226.942 150.518 226.912 150.666 226.912ZM219.753 221.348C219.899 221.348 220.051 221.376 220.2 221.441C220.771 221.686 221.033 222.353 220.787 222.924L219.889 224.996C219.64 225.567 218.98 225.829 218.406 225.586C217.832 225.336 217.57 224.672 217.818 224.1L218.714 222.026C218.899 221.6 219.315 221.348 219.753 221.348ZM147.079 218.624C147.516 218.624 147.933 218.879 148.118 219.305L149.014 221.376C149.261 221.945 149 222.614 148.426 222.86C147.847 223.107 147.187 222.843 146.942 222.274L146.042 220.2C145.796 219.629 146.058 218.967 146.63 218.717C146.778 218.654 146.928 218.624 147.079 218.624ZM223.34 213.06C223.488 213.06 223.641 213.088 223.787 213.153C224.359 213.4 224.623 214.065 224.375 214.636L223.477 216.708C223.229 217.279 222.57 217.543 221.993 217.296C221.419 217.048 221.158 216.381 221.405 215.812L222.303 213.741C222.489 213.312 222.903 213.06 223.34 213.06ZM143.489 210.336C143.926 210.336 144.343 210.593 144.528 211.016L145.424 213.088C145.672 213.662 145.41 214.326 144.836 214.574C144.262 214.821 143.602 214.558 143.352 213.986L142.454 211.914C142.209 211.34 142.471 210.678 143.04 210.429C143.19 210.366 143.341 210.336 143.489 210.336ZM226.928 204.772C227.078 204.772 227.229 204.802 227.374 204.865C227.948 205.11 228.21 205.776 227.962 206.35L227.067 208.422C226.817 208.991 226.152 209.255 225.581 209.01C225.009 208.762 224.748 208.096 224.993 207.522L225.891 205.45C226.076 205.027 226.493 204.772 226.928 204.772ZM139.902 202.05C140.339 202.05 140.753 202.305 140.938 202.731L141.834 204.802C142.082 205.376 141.82 206.038 141.246 206.288C140.677 206.538 140.01 206.269 139.763 205.698L138.867 203.624C138.619 203.052 138.883 202.39 139.457 202.143C139.601 202.078 139.753 202.05 139.902 202.05ZM230.515 196.484C230.666 196.484 230.818 196.514 230.964 196.576C231.536 196.824 231.8 197.491 231.552 198.062L230.654 200.131C230.409 200.705 229.742 200.965 229.17 200.722C228.599 200.472 228.337 199.807 228.583 199.236L229.478 197.164C229.663 196.738 230.08 196.484 230.515 196.484ZM136.312 193.762C136.749 193.762 137.164 194.017 137.351 194.445L138.247 196.514C138.494 197.086 138.23 197.75 137.659 197.998C137.083 198.248 136.423 197.981 136.175 197.412L135.277 195.338C135.032 194.767 135.293 194.105 135.865 193.855C136.011 193.79 136.164 193.762 136.312 193.762ZM234.107 188.196C234.255 188.196 234.408 188.226 234.554 188.286C235.126 188.536 235.387 189.2 235.142 189.774L234.244 191.846C233.996 192.415 233.337 192.679 232.76 192.431C232.186 192.186 231.925 191.519 232.172 190.948L233.068 188.876C233.256 188.45 233.67 188.196 234.107 188.196ZM132.724 185.474C133.159 185.474 133.576 185.729 133.761 186.154L134.659 188.226C134.905 188.8 134.643 189.464 134.071 189.712C133.493 189.962 132.833 189.693 132.586 189.126L131.69 187.052C131.442 186.481 131.704 185.814 132.278 185.567C132.424 185.504 132.576 185.474 132.724 185.474ZM237.695 179.91C237.843 179.91 237.996 179.94 238.141 180.003C238.713 180.248 238.977 180.914 238.729 181.488L237.834 183.558C237.584 184.129 236.919 184.388 236.348 184.145C235.774 183.898 235.512 183.234 235.76 182.662L236.658 180.588C236.843 180.165 237.257 179.91 237.695 179.91ZM129.137 177.188C129.57 177.188 129.986 177.443 130.172 177.866L131.072 179.94C131.315 180.512 131.053 181.176 130.484 181.424C129.91 181.669 129.246 181.407 128.996 180.836L128.1 178.764C127.852 178.195 128.114 177.528 128.688 177.281C128.834 177.216 128.987 177.188 129.137 177.188ZM241.282 171.622C241.433 171.622 241.583 171.65 241.731 171.714C242.303 171.962 242.564 172.626 242.319 173.198L241.421 175.269C241.173 175.843 240.514 176.107 239.935 175.86C239.363 175.61 239.102 174.945 239.347 174.376L240.245 172.302C240.43 171.874 240.847 171.622 241.282 171.622ZM125.547 168.898C125.985 168.898 126.401 169.155 126.582 169.581L127.482 171.654C127.725 172.226 127.464 172.89 126.89 173.136C126.32 173.383 125.656 173.122 125.406 172.55L124.513 170.476C124.263 169.905 124.524 169.24 125.101 168.99C125.244 168.93 125.397 168.898 125.547 168.898ZM244.872 163.334C245.02 163.334 245.173 163.364 245.318 163.426C245.89 163.674 246.154 164.338 245.906 164.912L245.011 166.984C244.763 167.553 244.103 167.815 243.525 167.572C242.953 167.324 242.692 166.657 242.937 166.086L243.833 164.014C244.018 163.588 244.434 163.334 244.872 163.334ZM121.957 160.612C122.393 160.612 122.807 160.869 122.992 161.29L123.892 163.364C124.138 163.938 123.874 164.602 123.305 164.85C122.731 165.097 122.066 164.834 121.819 164.262L120.923 162.19C120.673 161.616 120.937 160.952 121.511 160.705C121.654 160.644 121.809 160.612 121.957 160.612ZM248.459 155.048C248.61 155.048 248.762 155.078 248.908 155.141C249.48 155.388 249.744 156.052 249.496 156.626L248.598 158.696C248.348 159.267 247.684 159.529 247.115 159.286C246.541 159.036 246.279 158.372 246.527 157.8L247.425 155.726C247.61 155.303 248.024 155.048 248.459 155.048ZM118.368 152.324C118.808 152.324 119.222 152.578 119.409 153.007L120.303 155.078C120.553 155.65 120.289 156.314 119.715 156.562C119.141 156.807 118.477 156.548 118.234 155.974L117.333 153.902C117.086 153.328 117.347 152.666 117.921 152.416C118.065 152.354 118.22 152.324 118.368 152.324ZM252.049 146.76C252.197 146.76 252.35 146.788 252.496 146.852C253.07 147.102 253.331 147.764 253.084 148.336L252.188 150.407C251.938 150.979 251.281 151.243 250.702 150.995C250.13 150.748 249.866 150.083 250.114 149.512L251.012 147.44C251.197 147.012 251.612 146.76 252.049 146.76ZM114.78 144.036C115.218 144.036 115.634 144.293 115.82 144.719L116.713 146.788C116.963 147.362 116.701 148.026 116.127 148.274C115.553 148.521 114.891 148.257 114.644 147.688L113.743 145.614C113.5 145.043 113.762 144.378 114.331 144.128C114.482 144.066 114.63 144.036 114.78 144.036ZM255.636 138.472C255.787 138.472 255.937 138.502 256.085 138.564C256.657 138.812 256.921 139.476 256.673 140.05L255.775 142.122C255.528 142.691 254.866 142.957 254.289 142.71C253.718 142.462 253.456 141.798 253.701 141.221L254.6 139.152C254.785 138.726 255.201 138.472 255.636 138.472ZM111.195 135.75C111.628 135.75 112.045 136.005 112.23 136.43L113.125 138.502C113.373 139.076 113.112 139.738 112.538 139.988C111.964 140.233 111.304 139.969 111.054 139.4L110.156 137.326C109.911 136.757 110.172 136.09 110.742 135.843C110.892 135.778 111.04 135.75 111.195 135.75ZM259.226 130.186C259.374 130.186 259.527 130.216 259.673 130.279C260.247 130.524 260.508 131.193 260.261 131.762L259.363 133.836C259.115 134.405 258.455 134.669 257.879 134.424C257.307 134.174 257.044 133.51 257.291 132.938L258.187 130.866C258.374 130.438 258.789 130.186 259.226 130.186ZM107.601 127.462C108.038 127.462 108.455 127.716 108.64 128.145L109.536 130.216C109.783 130.785 109.522 131.452 108.948 131.697C108.369 131.947 107.714 131.681 107.464 131.109L106.566 129.04C106.321 128.469 106.585 127.807 107.154 127.554C107.302 127.492 107.453 127.462 107.601 127.462ZM262.816 121.898C262.964 121.898 263.117 121.926 263.263 121.99C263.834 122.238 264.098 122.902 263.85 123.476L262.955 125.546C262.705 126.117 262.047 126.379 261.469 126.133C260.895 125.886 260.633 125.219 260.881 124.65L261.779 122.581C261.964 122.15 262.378 121.898 262.816 121.898ZM104.016 119.174C104.451 119.174 104.865 119.428 105.05 119.854L105.951 121.926C106.196 122.5 105.932 123.166 105.363 123.412C104.784 123.662 104.125 123.393 103.877 122.824L102.981 120.755C102.731 120.181 102.995 119.516 103.569 119.266C103.713 119.206 103.868 119.174 104.016 119.174ZM266.403 113.61C266.551 113.61 266.704 113.64 266.852 113.702C267.424 113.948 267.685 114.614 267.44 115.188L266.542 117.26C266.292 117.831 265.628 118.088 265.056 117.848C264.485 117.598 264.221 116.933 264.468 116.359L265.366 114.29C265.552 113.864 265.966 113.61 266.403 113.61ZM100.426 110.89C100.861 110.89 101.278 111.143 101.463 111.568L102.361 113.64C102.606 114.214 102.345 114.876 101.773 115.123C101.199 115.371 100.535 115.107 100.287 114.533L99.3914 112.466C99.1438 111.895 99.4053 111.231 99.9793 110.981C100.125 110.918 100.278 110.89 100.426 110.89Z" fill="white"/>
<path d="M266.685 301.859C267.12 301.859 267.537 302.116 267.722 302.537L268.618 304.611C268.866 305.185 268.604 305.849 268.032 306.097C267.456 306.34 266.794 306.081 266.546 305.509L265.648 303.438C265.401 302.866 265.665 302.199 266.236 301.952C266.382 301.892 266.535 301.859 266.685 301.859ZM102.502 299.137C102.652 299.137 102.805 299.165 102.951 299.23C103.525 299.478 103.786 300.142 103.539 300.713L102.643 302.785C102.395 303.359 101.731 303.618 101.155 303.375C100.585 303.125 100.324 302.461 100.569 301.892L101.467 299.818C101.652 299.39 102.069 299.137 102.502 299.137ZM263.096 293.571C263.533 293.571 263.947 293.826 264.133 294.251L265.031 296.325C265.278 296.897 265.014 297.561 264.443 297.809C263.864 298.054 263.207 297.793 262.957 297.221L262.059 295.147C261.813 294.578 262.075 293.914 262.647 293.664C262.795 293.601 262.948 293.571 263.096 293.571ZM106.092 290.849C106.242 290.849 106.395 290.879 106.541 290.942C107.115 291.189 107.376 291.854 107.128 292.428L106.233 294.499C105.983 295.068 105.323 295.33 104.745 295.087C104.175 294.839 103.914 294.173 104.157 293.601L105.057 291.53C105.242 291.104 105.659 290.849 106.092 290.849ZM259.506 285.283C259.943 285.283 260.36 285.54 260.545 285.966L261.441 288.035C261.688 288.609 261.427 289.275 260.853 289.521C260.279 289.768 259.619 289.505 259.369 288.935L258.471 286.864C258.226 286.287 258.488 285.625 259.059 285.376C259.207 285.315 259.358 285.283 259.506 285.283ZM109.681 282.563C109.832 282.563 109.985 282.591 110.128 282.656C110.702 282.904 110.966 283.568 110.716 284.14L109.822 286.211C109.573 286.783 108.913 287.047 108.334 286.801C107.765 286.551 107.503 285.887 107.746 285.315L108.647 283.242C108.832 282.816 109.249 282.563 109.681 282.563ZM255.918 276.997C256.354 276.997 256.77 277.252 256.955 277.678L257.853 279.749C258.099 280.323 257.837 280.985 257.265 281.235C256.689 281.478 256.027 281.219 255.78 280.647L254.882 278.573C254.634 278.004 254.898 277.337 255.469 277.09C255.618 277.027 255.768 276.997 255.918 276.997ZM113.271 274.275C113.419 274.275 113.574 274.303 113.718 274.368C114.292 274.616 114.556 275.28 114.306 275.851L113.41 277.923C113.162 278.492 112.503 278.758 111.924 278.511C111.355 278.263 111.086 277.597 111.336 277.027L112.236 274.956C112.422 274.528 112.836 274.275 113.271 274.275ZM252.329 268.709C252.766 268.709 253.183 268.964 253.368 269.392L254.264 271.461C254.511 272.033 254.247 272.697 253.676 272.945C253.097 273.197 252.44 272.928 252.192 272.359L251.294 270.285C251.047 269.716 251.308 269.052 251.882 268.802C252.028 268.737 252.181 268.709 252.329 268.709ZM116.861 265.987C117.009 265.987 117.162 266.017 117.307 266.08C117.881 266.327 118.143 266.992 117.895 267.566L116.995 269.637C116.752 270.206 116.092 270.47 115.514 270.225C114.94 269.977 114.676 269.311 114.926 268.737L115.819 266.668C116.004 266.242 116.421 265.987 116.861 265.987ZM248.741 260.421C249.179 260.421 249.593 260.678 249.778 261.101L250.676 263.173C250.922 263.747 250.66 264.413 250.088 264.659C249.512 264.909 248.85 264.64 248.602 264.073L247.704 261.999C247.459 261.428 247.721 260.761 248.292 260.514C248.44 260.453 248.593 260.421 248.741 260.421ZM120.448 257.701C120.599 257.701 120.747 257.729 120.897 257.794C121.467 258.039 121.728 258.706 121.485 259.278L120.585 261.349C120.337 261.921 119.671 262.18 119.101 261.937C118.527 261.687 118.266 261.023 118.513 260.453L119.409 258.38C119.594 257.954 120.011 257.701 120.448 257.701ZM245.152 252.135C245.589 252.135 246.003 252.39 246.191 252.816L247.086 254.887C247.334 255.459 247.07 256.123 246.499 256.371C245.922 256.618 245.263 256.354 245.015 255.783L244.117 253.711C243.872 253.142 244.133 252.475 244.705 252.228C244.851 252.165 245.003 252.135 245.152 252.135ZM124.038 249.413C124.184 249.413 124.337 249.441 124.487 249.506C125.056 249.754 125.318 250.418 125.073 250.989L124.174 253.063C123.929 253.633 123.265 253.894 122.691 253.649C122.117 253.401 121.855 252.735 122.103 252.165L122.999 250.094C123.184 249.666 123.601 249.413 124.038 249.413ZM241.564 243.847C242.002 243.847 242.418 244.102 242.601 244.528L243.497 246.601C243.744 247.173 243.483 247.837 242.909 248.083C242.337 248.335 241.673 248.069 241.425 247.497L240.53 245.426C240.282 244.852 240.546 244.187 241.117 243.94C241.263 243.877 241.416 243.847 241.564 243.847ZM127.628 241.125C127.776 241.125 127.926 241.155 128.074 241.218C128.644 241.465 128.908 242.13 128.662 242.704L127.764 244.775C127.514 245.345 126.859 245.608 126.281 245.363C125.707 245.115 125.445 244.449 125.693 243.877L126.588 241.803C126.774 241.38 127.19 241.125 127.628 241.125ZM237.977 235.559C238.412 235.559 238.826 235.816 239.011 236.239L239.909 238.311C240.157 238.885 239.893 239.549 239.321 239.799C238.747 240.04 238.086 239.781 237.838 239.209L236.94 237.14C236.692 236.566 236.954 235.899 237.528 235.654C237.674 235.591 237.826 235.559 237.977 235.559ZM131.213 232.839C131.361 232.839 131.516 232.867 131.659 232.932C132.233 233.18 132.495 233.844 132.247 234.416L131.352 236.485C131.104 237.059 130.444 237.323 129.866 237.075C129.296 236.825 129.033 236.161 129.278 235.591L130.178 233.518C130.363 233.094 130.778 232.839 131.213 232.839ZM234.385 227.271C234.822 227.271 235.239 227.525 235.424 227.954L236.32 230.025C236.567 230.597 236.306 231.261 235.732 231.509C235.153 231.759 234.496 231.495 234.248 230.921L233.35 228.849C233.105 228.278 233.366 227.613 233.938 227.363C234.086 227.301 234.237 227.271 234.385 227.271ZM134.803 224.549C134.951 224.549 135.103 224.579 135.249 224.642C135.823 224.892 136.085 225.554 135.837 226.128L134.941 228.199C134.694 228.771 134.034 229.037 133.455 228.787C132.884 228.539 132.622 227.875 132.868 227.303L133.766 225.23C133.951 224.806 134.367 224.549 134.803 224.549ZM230.797 218.983C231.235 218.983 231.649 219.24 231.834 219.666L232.732 221.735C232.98 222.309 232.718 222.975 232.144 223.221C231.568 223.468 230.908 223.204 230.661 222.635L229.763 220.564C229.515 219.99 229.779 219.325 230.351 219.075C230.496 219.015 230.649 218.983 230.797 218.983ZM138.39 216.263C138.54 216.263 138.693 216.293 138.839 216.356C139.413 216.603 139.674 217.268 139.427 217.842L138.531 219.911C138.281 220.483 137.622 220.749 137.045 220.501C136.474 220.251 136.212 219.589 136.457 219.015L137.355 216.941C137.538 216.518 137.955 216.263 138.39 216.263ZM227.21 210.697C227.647 210.697 228.064 210.952 228.247 211.377L229.142 213.449C229.39 214.023 229.126 214.687 228.555 214.935C227.983 215.182 227.319 214.919 227.071 214.345L226.175 212.271C225.928 211.701 226.189 211.037 226.763 210.79C226.909 210.727 227.059 210.697 227.21 210.697ZM141.98 207.975C142.13 207.975 142.283 208.003 142.426 208.068C143.003 208.315 143.264 208.98 143.014 209.551L142.121 211.625C141.866 212.197 141.204 212.458 140.633 212.213C140.063 211.963 139.799 211.301 140.045 210.729L140.945 208.656C141.13 208.227 141.547 207.975 141.98 207.975ZM223.62 202.409C224.058 202.409 224.472 202.663 224.657 203.092L225.555 205.161C225.8 205.732 225.539 206.399 224.967 206.644C224.393 206.894 223.729 206.63 223.481 206.059L222.586 203.985C222.338 203.416 222.599 202.751 223.173 202.501C223.319 202.439 223.472 202.409 223.62 202.409ZM145.569 199.687C145.718 199.687 145.873 199.717 146.016 199.78C146.59 200.027 146.854 200.694 146.604 201.266L145.706 203.339C145.461 203.906 144.796 204.17 144.222 203.925C143.651 203.677 143.389 203.013 143.635 202.439L144.533 200.368C144.718 199.942 145.132 199.687 145.569 199.687ZM220.03 194.123C220.468 194.123 220.882 194.378 221.07 194.804L221.965 196.873C222.213 197.447 221.951 198.113 221.377 198.359C220.801 198.606 220.144 198.342 219.894 197.773L218.996 195.699C218.75 195.128 219.012 194.463 219.584 194.216C219.729 194.153 219.882 194.123 220.03 194.123ZM149.159 191.401C149.307 191.401 149.46 191.429 149.606 191.494C150.178 191.742 150.439 192.406 150.194 192.977L149.293 195.051C149.048 195.621 148.388 195.884 147.812 195.639C147.238 195.389 146.974 194.725 147.224 194.153L148.118 192.079C148.305 191.654 148.719 191.401 149.159 191.401ZM216.443 185.837C216.878 185.837 217.295 186.09 217.48 186.515L218.378 188.589C218.625 189.159 218.364 189.823 217.79 190.073C217.211 190.316 216.554 190.054 216.304 189.483L215.408 187.413C215.161 186.842 215.425 186.175 215.996 185.93C216.142 185.865 216.295 185.837 216.443 185.837ZM152.747 183.113C152.895 183.113 153.045 183.143 153.196 183.206C153.765 183.456 154.026 184.118 153.783 184.689L152.885 186.763C152.64 187.332 151.978 187.601 151.4 187.349C150.826 187.101 150.564 186.434 150.814 185.865L151.707 183.794C151.893 183.368 152.309 183.113 152.747 183.113ZM212.856 177.549C213.293 177.549 213.707 177.801 213.892 178.23L214.788 180.301C215.036 180.87 214.772 181.537 214.2 181.785C213.629 182.03 212.964 181.768 212.717 181.197L211.819 179.125C211.573 178.554 211.835 177.889 212.407 177.642C212.555 177.577 212.705 177.549 212.856 177.549ZM156.336 174.825C156.487 174.825 156.635 174.855 156.785 174.918C157.355 175.165 157.616 175.83 157.373 176.404L156.473 178.475C156.223 179.047 155.563 179.313 154.989 179.063C154.415 178.815 154.154 178.151 154.401 177.577L155.297 175.503C155.482 175.082 155.899 174.825 156.336 174.825ZM209.266 169.259C209.701 169.259 210.118 169.516 210.303 169.939L211.201 172.011C211.446 172.585 211.184 173.251 210.613 173.499C210.034 173.744 209.375 173.48 209.127 172.911L208.231 170.84C207.984 170.266 208.245 169.599 208.819 169.354C208.965 169.291 209.115 169.259 209.266 169.259ZM159.921 166.539C160.074 166.539 160.225 166.567 160.37 166.632C160.942 166.88 161.206 167.544 160.958 168.115L160.063 170.187C159.813 170.759 159.148 171.02 158.577 170.775C158.005 170.525 157.743 169.863 157.989 169.291L158.887 167.217C159.072 166.794 159.489 166.539 159.921 166.539ZM205.676 160.973C206.113 160.973 206.528 161.228 206.713 161.653L207.611 163.725C207.859 164.297 207.597 164.961 207.023 165.208C206.449 165.458 205.787 165.195 205.54 164.621L204.642 162.551C204.394 161.98 204.658 161.313 205.229 161.066C205.375 161.003 205.528 160.973 205.676 160.973ZM163.511 158.249C163.659 158.249 163.814 158.279 163.958 158.341C164.532 158.591 164.796 159.253 164.546 159.827L163.65 161.901C163.402 162.47 162.74 162.734 162.164 162.487C161.595 162.239 161.331 161.575 161.576 161.003L162.477 158.932C162.662 158.506 163.076 158.249 163.511 158.249ZM202.089 152.683C202.524 152.683 202.94 152.94 203.126 153.365L204.024 155.437C204.271 156.008 204.007 156.675 203.436 156.92C202.859 157.17 202.2 156.906 201.95 156.335L201.054 154.263C200.806 153.689 201.068 153.025 201.64 152.775C201.788 152.715 201.938 152.683 202.089 152.683ZM167.101 149.963C167.249 149.963 167.404 149.993 167.548 150.056C168.122 150.303 168.383 150.97 168.135 151.542L167.24 153.613C166.992 154.182 166.332 154.449 165.756 154.201C165.184 153.951 164.921 153.289 165.168 152.715L166.064 150.644C166.247 150.218 166.663 149.963 167.101 149.963ZM198.501 144.399C198.939 144.399 199.353 144.654 199.538 145.077L200.434 147.149C200.679 147.723 200.418 148.387 199.846 148.635C199.272 148.882 198.608 148.618 198.36 148.047L197.464 145.978C197.217 145.404 197.481 144.737 198.052 144.492C198.2 144.429 198.351 144.399 198.501 144.399ZM170.688 141.677C170.839 141.677 170.991 141.705 171.137 141.77C171.711 142.018 171.973 142.684 171.725 143.253L170.829 145.325C170.582 145.897 169.92 146.163 169.341 145.913C168.772 145.663 168.508 145.001 168.753 144.429L169.654 142.355C169.839 141.93 170.255 141.677 170.688 141.677ZM194.911 136.111C195.347 136.111 195.763 136.363 195.948 136.791L196.846 138.865C197.092 139.435 196.83 140.099 196.259 140.349C195.682 140.592 195.023 140.33 194.773 139.759L193.877 137.687C193.629 137.116 193.891 136.451 194.462 136.204C194.608 136.139 194.761 136.111 194.911 136.111ZM174.278 133.387C174.428 133.387 174.581 133.419 174.727 133.479C175.301 133.729 175.563 134.394 175.313 134.965L174.417 137.039C174.167 137.608 173.505 137.872 172.931 137.625C172.359 137.379 172.098 136.713 172.343 136.139L173.241 134.067C173.426 133.644 173.843 133.387 174.278 133.387ZM191.322 127.823C191.759 127.823 192.173 128.078 192.359 128.503L193.257 130.575C193.504 131.147 193.243 131.813 192.669 132.058C192.092 132.308 191.433 132.04 191.183 131.473L190.287 129.401C190.04 128.827 190.303 128.163 190.875 127.913C191.021 127.853 191.174 127.823 191.322 127.823ZM177.868 125.101C178.016 125.101 178.169 125.134 178.314 125.191C178.886 125.441 179.15 126.106 178.902 126.68L178.004 128.751C177.757 129.323 177.099 129.587 176.521 129.337C175.947 129.089 175.685 128.427 175.933 127.853L176.829 125.779C177.014 125.358 177.43 125.101 177.868 125.101ZM187.734 119.537C188.169 119.537 188.586 119.789 188.771 120.215L189.669 122.289C189.917 122.861 189.653 123.525 189.081 123.773C188.505 124.018 187.845 123.754 187.595 123.185L186.697 121.113C186.452 120.542 186.714 119.877 187.285 119.627C187.433 119.565 187.584 119.537 187.734 119.537ZM181.455 116.813C181.603 116.813 181.756 116.843 181.904 116.906C182.476 117.156 182.737 117.82 182.492 118.389L181.592 120.463C181.344 121.037 180.68 121.296 180.11 121.051C179.536 120.803 179.273 120.139 179.523 119.567L180.418 117.493C180.603 117.068 181.018 116.813 181.455 116.813ZM184.145 111.247C184.582 111.247 184.999 111.501 185.184 111.929L186.079 114.001C186.327 114.57 186.066 115.239 185.492 115.482C184.915 115.732 184.256 115.466 184.008 114.897L183.11 112.825C182.862 112.256 183.126 111.592 183.698 111.342C183.846 111.279 183.996 111.247 184.145 111.247Z" fill="white"/>
<path d="M184.01 61.5959C185.257 61.5959 186.269 62.6073 186.269 63.8548V160.359C186.269 161.604 185.257 162.618 184.01 162.618C182.762 162.618 181.751 161.604 181.751 160.359V63.8548C181.751 62.6073 182.762 61.5959 184.01 61.5959Z" fill="white"/>
</svg>
