<svg width="291" height="335" viewBox="0 0 291 335" fill="none" xmlns="http://www.w3.org/2000/svg">
<g opacity="0.05">
<g opacity="0.05">
<path opacity="0.05" d="M135.405 21.8616C135.199 21.8616 134.992 21.8095 134.799 21.6964C134.21 21.3594 134.01 20.6094 134.349 20.0268L141.693 7.30913C142.027 6.72216 142.775 6.52215 143.362 6.86563C143.949 7.20042 144.147 7.94826 143.81 8.53306L136.466 21.2486C136.242 21.6399 135.829 21.8616 135.405 21.8616ZM157.436 23.9247C157.01 23.9247 156.597 23.7073 156.373 23.3138L149.034 10.5962C148.691 10.0135 148.893 9.26351 149.482 8.92872C150.06 8.5874 150.81 8.78741 151.149 9.37656L158.491 22.0899C158.83 22.6769 158.632 23.4247 158.045 23.7617C157.849 23.8747 157.643 23.9247 157.436 23.9247ZM120.722 47.2926C120.516 47.2926 120.309 47.2405 120.114 47.1296C119.527 46.7905 119.327 46.0383 119.666 45.4578L127.01 32.7401C127.342 32.1553 128.092 31.951 128.679 32.2923C129.266 32.6293 129.466 33.3793 129.125 33.9619L121.783 46.6818C121.559 47.0731 121.146 47.2926 120.722 47.2926ZM172.117 49.3579C171.691 49.3579 171.28 49.1362 171.054 48.7449L163.715 36.0315C163.378 35.4424 163.578 34.6945 164.165 34.3597C164.747 34.0206 165.493 34.2228 165.832 34.8054L173.174 47.5209C173.513 48.1057 173.313 48.8536 172.728 49.1927C172.532 49.3036 172.324 49.3579 172.117 49.3579ZM106.04 72.7215C105.833 72.7215 105.626 72.6693 105.431 72.5563C104.844 72.2193 104.646 71.4715 104.983 70.8867L112.327 58.169C112.659 57.5842 113.411 57.3842 113.994 57.7255C114.581 58.0603 114.781 58.8103 114.442 59.3951L107.1 72.1084C106.876 72.5041 106.466 72.7215 106.04 72.7215ZM186.8 74.7889C186.374 74.7889 185.963 74.5694 185.739 74.1759L178.398 61.4582C178.059 60.8756 178.261 60.1277 178.843 59.7886C179.424 59.4473 180.178 59.6495 180.515 60.2364L187.857 72.9541C188.196 73.5389 187.994 74.2867 187.411 74.6237C187.215 74.7368 187.004 74.7889 186.8 74.7889ZM91.3566 98.1547C91.1522 98.1547 90.9435 98.1003 90.7479 97.9895C90.1631 97.6503 89.9631 96.9047 90.3022 96.3177L97.6437 83.6022C97.9806 83.0152 98.7285 82.813 99.3111 83.1522C99.8981 83.4935 100.1 84.2392 99.7611 84.8283L92.4218 97.5438C92.1957 97.933 91.7849 98.1547 91.3566 98.1547ZM201.483 100.22C201.057 100.22 200.648 100 200.422 99.6069L193.081 86.8914C192.742 86.3088 192.944 85.5566 193.526 85.2218C194.107 84.8805 194.859 85.0827 195.196 85.6674L202.54 98.383C202.877 98.9678 202.677 99.7178 202.092 100.055C201.9 100.166 201.687 100.22 201.483 100.22ZM76.6758 123.584C76.4715 123.584 76.2584 123.534 76.0649 123.42C75.4823 123.084 75.2801 122.338 75.6193 121.749L82.9607 109.033C83.2977 108.446 84.0455 108.244 84.6325 108.588C85.2151 108.927 85.4173 109.675 85.0782 110.257L77.7389 122.97C77.5128 123.366 77.1019 123.584 76.6758 123.584ZM216.162 125.651C215.74 125.651 215.331 125.434 215.103 125.038L207.759 112.322C207.424 111.738 207.624 110.99 208.207 110.651C208.79 110.314 209.542 110.509 209.881 111.101L217.223 123.816C217.559 124.401 217.359 125.149 216.772 125.486C216.581 125.599 216.37 125.651 216.162 125.651ZM61.995 149.017C61.7885 149.017 61.5755 148.962 61.3863 148.854C60.7994 148.512 60.5993 147.767 60.9363 147.18L68.2756 134.466C68.6169 133.877 69.3626 133.679 69.9517 134.016C70.5322 134.356 70.7344 135.101 70.3996 135.69L63.0559 148.404C62.8298 148.795 62.419 149.017 61.995 149.017ZM230.847 151.08C230.425 151.08 230.014 150.862 229.786 150.469L222.442 137.758C222.107 137.171 222.307 136.419 222.89 136.082C223.473 135.747 224.225 135.945 224.564 136.532L231.905 149.245C232.245 149.832 232.045 150.578 231.455 150.919C231.264 151.025 231.053 151.08 230.847 151.08ZM47.3121 174.448C47.1056 174.448 46.8925 174.396 46.7034 174.285C46.1164 173.946 45.9121 173.198 46.2534 172.613L53.5927 159.897C53.9318 159.31 54.6796 159.11 55.2688 159.447C55.8514 159.789 56.0514 160.534 55.7166 161.124L48.373 173.835C48.1447 174.228 47.736 174.448 47.3121 174.448ZM245.53 176.511C245.106 176.511 244.693 176.293 244.467 175.898L237.127 163.187C236.788 162.597 236.99 161.854 237.571 161.515C238.158 161.174 238.906 161.374 239.247 161.961L246.586 174.676C246.928 175.265 246.728 176.009 246.141 176.35C245.947 176.459 245.736 176.511 245.53 176.511ZM32.6291 199.879C32.4226 199.879 32.2117 199.824 32.0183 199.716C31.4335 199.374 31.2313 198.629 31.5704 198.044L38.9119 185.326C39.251 184.744 39.9967 184.541 40.5858 184.881C41.1685 185.218 41.3685 185.963 41.0315 186.552L33.69 199.268C33.4618 199.657 33.0552 199.879 32.6291 199.879ZM260.21 201.944C259.789 201.944 259.376 201.722 259.15 201.333L251.81 188.618C251.471 188.033 251.671 187.285 252.256 186.946C252.841 186.609 253.589 186.807 253.93 187.396L261.269 200.107C261.61 200.694 261.41 201.44 260.819 201.783C260.63 201.892 260.417 201.944 260.21 201.944ZM17.9462 225.31C17.7397 225.31 17.5288 225.26 17.3353 225.147C16.7483 224.81 16.5483 224.06 16.8897 223.475L24.229 210.759C24.5681 210.17 25.3181 209.972 25.9007 210.312C26.4855 210.651 26.6855 211.399 26.3507 211.983L19.0093 224.699C18.781 225.09 18.368 225.31 17.9462 225.31ZM274.893 227.375C274.472 227.375 274.059 227.158 273.832 226.762L266.493 214.046C266.154 213.464 266.356 212.714 266.939 212.379C267.521 212.038 268.271 212.236 268.611 212.823L275.952 225.54C276.293 226.125 276.091 226.875 275.502 227.212C275.311 227.325 275.104 227.375 274.893 227.375ZM7.02638 250.741H3.2676C2.82846 250.741 2.42628 250.508 2.20453 250.132C1.98496 249.749 1.98496 249.282 2.20453 248.906L9.546 236.188C9.88732 235.604 10.6308 235.401 11.2178 235.743C11.8048 236.077 12.0048 236.83 11.6656 237.412L5.38504 248.293H7.02638C7.70248 248.293 8.2525 248.839 8.2525 249.521C8.2525 250.191 7.70248 250.741 7.02638 250.741ZM36.3945 250.741H21.7115C21.0332 250.741 20.4876 250.191 20.4876 249.521C20.4876 248.839 21.0332 248.293 21.7115 248.293H36.3945C37.0684 248.293 37.6184 248.839 37.6184 249.521C37.6184 250.191 37.0684 250.741 36.3945 250.741ZM65.7603 250.741H51.0774C50.3969 250.741 49.8513 250.191 49.8513 249.521C49.8513 248.839 50.3969 248.293 51.0774 248.293H65.7603C66.4321 248.293 66.9799 248.839 66.9799 249.521C66.9799 250.191 66.4321 250.741 65.7603 250.741ZM95.1241 250.741H80.4411C79.765 250.741 79.2172 250.191 79.2172 249.521C79.2172 248.839 79.765 248.293 80.4411 248.293H95.1241C95.798 248.293 96.348 248.839 96.348 249.521C96.348 250.191 95.798 250.741 95.1241 250.741ZM124.49 250.741H109.807C109.129 250.741 108.585 250.191 108.585 249.521C108.585 248.839 109.129 248.293 109.807 248.293H124.49C125.164 248.293 125.714 248.839 125.714 249.521C125.714 250.191 125.164 250.741 124.49 250.741ZM153.856 250.741H139.171C138.495 250.741 137.949 250.191 137.949 249.521C137.949 248.839 138.495 248.293 139.171 248.293H153.856C154.528 248.293 155.078 248.839 155.078 249.521C155.078 250.191 154.528 250.741 153.856 250.741ZM183.22 250.741H168.539C167.858 250.741 167.315 250.191 167.315 249.521C167.315 248.839 167.858 248.293 168.539 248.293H183.22C183.893 248.293 184.443 248.839 184.443 249.521C184.443 250.191 183.893 250.741 183.22 250.741ZM212.585 250.741H197.902C197.224 250.741 196.679 250.191 196.679 249.521C196.679 248.839 197.224 248.293 197.902 248.293H212.585C213.262 248.293 213.809 248.839 213.809 249.521C213.809 250.191 213.262 250.741 212.585 250.741ZM241.951 250.741H227.268C226.59 250.741 226.044 250.191 226.044 249.521C226.044 248.839 226.59 248.293 227.268 248.293H241.951C242.625 248.293 243.175 248.839 243.175 249.521C243.175 250.191 242.625 250.741 241.951 250.741ZM271.315 250.741H256.634C255.954 250.741 255.41 250.191 255.41 249.521C255.41 248.839 255.954 248.293 256.634 248.293H271.315C271.989 248.293 272.539 248.839 272.539 249.521C272.539 250.191 271.989 250.741 271.315 250.741ZM288.385 250.741H285.998C285.32 250.741 284.776 250.191 284.776 249.521C284.776 248.839 285.32 248.293 285.998 248.293H286.263L281.176 239.48C280.835 238.893 281.039 238.145 281.622 237.81C282.202 237.469 282.954 237.669 283.294 238.256L289.442 248.906C289.661 249.282 289.661 249.749 289.442 250.132C289.224 250.508 288.818 250.741 288.385 250.741Z" fill="white"/>
</g>
<g opacity="0.05">
<path opacity="0.05" d="M35.0167 86.8114H20.3338C19.6577 86.8114 19.112 86.2614 19.112 85.5874C19.112 84.9092 19.6577 84.3613 20.3338 84.3613H35.0167C35.6906 84.3613 36.2385 84.9092 36.2385 85.5874C36.2385 86.2614 35.6906 86.8114 35.0167 86.8114ZM64.3826 86.8114H49.7018C49.0192 86.8114 48.4757 86.2614 48.4757 85.5874C48.4757 84.9092 49.0192 84.3613 49.7018 84.3613H64.3826C65.0565 84.3613 65.6044 84.9092 65.6044 85.5874C65.6044 86.2614 65.0565 86.8114 64.3826 86.8114ZM93.7485 86.8114H79.0655C78.3851 86.8114 77.8394 86.2614 77.8394 85.5874C77.8394 84.9092 78.3851 84.3613 79.0655 84.3613H93.7485C94.4224 84.3613 94.9724 84.9092 94.9724 85.5874C94.9724 86.2614 94.4224 86.8114 93.7485 86.8114ZM123.112 86.8114H108.431C107.753 86.8114 107.205 86.2614 107.205 85.5874C107.205 84.9092 107.753 84.3613 108.431 84.3613H123.112C123.786 84.3613 124.336 84.9092 124.336 85.5874C124.336 86.2614 123.786 86.8114 123.112 86.8114ZM152.478 86.8114H137.795C137.117 86.8114 136.573 86.2614 136.573 85.5874C136.573 84.9092 137.117 84.3613 137.795 84.3613H152.478C153.152 84.3613 153.702 84.9092 153.702 85.5874C153.702 86.2614 153.152 86.8114 152.478 86.8114ZM181.844 86.8114H167.161C166.483 86.8114 165.939 86.2614 165.939 85.5874C165.939 84.9092 166.483 84.3613 167.161 84.3613H181.844C182.518 84.3613 183.068 84.9092 183.068 85.5874C183.068 86.2614 182.518 86.8114 181.844 86.8114ZM211.21 86.8114H196.527C195.846 86.8114 195.301 86.2614 195.301 85.5874C195.301 84.9092 195.846 84.3613 196.527 84.3613H211.21C211.884 84.3613 212.434 84.9092 212.434 85.5874C212.434 86.2614 211.884 86.8114 211.21 86.8114ZM240.574 86.8114H225.893C225.212 86.8114 224.669 86.2614 224.669 85.5874C224.669 84.9092 225.212 84.3613 225.893 84.3613H240.574C241.248 84.3613 241.798 84.9092 241.798 85.5874C241.798 86.2614 241.248 86.8114 240.574 86.8114ZM269.939 86.8114H255.257C254.578 86.8114 254.035 86.2614 254.035 85.5874C254.035 84.9092 254.578 84.3613 255.257 84.3613H269.939C270.613 84.3613 271.163 84.9092 271.163 85.5874C271.163 86.2614 270.613 86.8114 269.939 86.8114ZM9.41829 97.4573C8.99219 97.4573 8.58348 97.2399 8.35522 96.8464L2.2029 86.2005C1.98551 85.82 1.98551 85.3527 2.2029 84.9722C2.42682 84.5939 2.82683 84.3613 3.26814 84.3613H5.65081C6.32691 84.3613 6.87692 84.9092 6.87692 85.5874C6.87692 86.2614 6.32691 86.8114 5.65081 86.8114H5.38558L10.4748 95.6246C10.8118 96.2094 10.6118 96.9573 10.0248 97.2964C9.83351 97.4073 9.62264 97.4573 9.41829 97.4573ZM281.042 99.5247C280.833 99.5247 280.622 99.4725 280.433 99.3595C279.844 99.0225 279.642 98.2769 279.983 97.6899L286.262 86.8114H284.622C283.944 86.8114 283.398 86.2614 283.398 85.5874C283.398 84.9092 283.944 84.3613 284.622 84.3613H288.386C288.818 84.3613 289.225 84.5939 289.442 84.9722C289.662 85.3527 289.662 85.82 289.442 86.2005L282.101 98.9116C281.875 99.303 281.464 99.5247 281.042 99.5247ZM24.1012 122.89C23.673 122.89 23.2643 122.669 23.036 122.28L15.6945 109.562C15.3576 108.975 15.5597 108.229 16.1402 107.892C16.7272 107.553 17.475 107.753 17.8163 108.34L25.1556 121.056C25.4947 121.64 25.2926 122.388 24.7099 122.727C24.5165 122.838 24.3056 122.89 24.1012 122.89ZM266.357 124.954C266.15 124.954 265.939 124.901 265.75 124.793C265.159 124.451 264.959 123.706 265.3 123.119L272.64 110.408C272.979 109.821 273.727 109.621 274.314 109.955C274.896 110.297 275.098 111.042 274.761 111.629L267.418 124.345C267.192 124.734 266.779 124.954 266.357 124.954ZM38.7798 148.324C38.3581 148.324 37.9472 148.102 37.7189 147.711L30.3775 134.995C30.0405 134.41 30.2427 133.662 30.8253 133.325C31.4101 132.984 32.1601 133.182 32.4993 133.771L39.8386 146.489C40.1799 147.071 39.9799 147.821 39.3929 148.158C39.1994 148.271 38.9864 148.324 38.7798 148.324ZM251.674 150.387C251.465 150.387 251.259 150.337 251.065 150.226C250.476 149.887 250.278 149.139 250.615 148.552L257.959 135.836C258.294 135.249 259.041 135.049 259.631 135.389C260.215 135.728 260.415 136.476 260.076 137.058L252.735 149.776C252.509 150.169 252.096 150.387 251.674 150.387ZM53.4628 173.753C53.041 173.753 52.6301 173.535 52.4019 173.144L45.0626 160.422C44.7234 159.841 44.9256 159.091 45.5083 158.754C46.093 158.413 46.8409 158.615 47.1822 159.202L54.5237 171.918C54.8628 172.502 54.6606 173.253 54.0737 173.587C53.8824 173.703 53.6737 173.753 53.4628 173.753ZM236.991 175.818C236.784 175.818 236.576 175.766 236.382 175.653C235.793 175.318 235.595 174.566 235.932 173.985L243.276 161.27C243.613 160.68 244.363 160.48 244.945 160.822C245.532 161.157 245.732 161.907 245.393 162.491L238.054 175.209C237.826 175.6 237.415 175.818 236.991 175.818ZM68.1457 199.184C67.724 199.184 67.3109 198.968 67.0848 198.57L59.7455 185.857C59.4064 185.275 59.6064 184.522 60.1912 184.185C60.7738 183.851 61.5238 184.048 61.8651 184.631L69.2066 197.351C69.5458 197.933 69.3436 198.684 68.7566 199.018C68.5653 199.131 68.3544 199.184 68.1457 199.184ZM222.308 201.251C222.101 201.251 221.893 201.197 221.699 201.086C221.112 200.749 220.912 199.999 221.249 199.414L228.593 186.696C228.932 186.114 229.676 185.911 230.265 186.248C230.847 186.588 231.047 187.338 230.713 187.922L223.373 200.638C223.145 201.031 222.734 201.251 222.308 201.251ZM82.8287 224.617C82.4069 224.617 81.9939 224.397 81.77 224.004L74.4263 211.288C74.0915 210.701 74.2915 209.956 74.8741 209.614C75.4568 209.277 76.2068 209.477 76.5459 210.064L83.8874 222.782C84.2265 223.365 84.0265 224.112 83.4374 224.451C83.2461 224.562 83.0374 224.617 82.8287 224.617ZM207.629 226.68C207.419 226.68 207.21 226.628 207.018 226.515C206.434 226.178 206.232 225.432 206.568 224.845L213.91 212.132C214.249 211.545 214.995 211.343 215.584 211.682C216.167 212.019 216.369 212.769 216.034 213.351L208.69 226.071C208.462 226.462 208.051 226.68 207.629 226.68ZM97.5073 250.046C97.0899 250.046 96.6768 249.828 96.4485 249.435L89.1071 236.721C88.7723 236.137 88.9701 235.389 89.5571 235.047C90.1354 234.706 90.8897 234.908 91.2267 235.497L98.5703 248.211C98.9073 248.798 98.7073 249.543 98.1203 249.885C97.9268 249.996 97.7203 250.046 97.5073 250.046ZM192.946 252.113C192.736 252.113 192.525 252.059 192.336 251.948C191.751 251.613 191.551 250.861 191.886 250.274L199.227 237.561C199.566 236.976 200.316 236.774 200.901 237.11C201.486 237.452 201.686 238.2 201.351 238.784L194.007 251.5C193.779 251.893 193.368 252.113 192.946 252.113ZM112.19 275.474C111.771 275.474 111.362 275.259 111.131 274.868L103.79 262.15C103.451 261.563 103.653 260.818 104.24 260.481C104.82 260.139 105.57 260.341 105.91 260.928L113.253 273.64C113.59 274.231 113.388 274.974 112.803 275.314C112.612 275.424 112.403 275.474 112.19 275.474ZM178.263 277.54C178.055 277.54 177.842 277.49 177.653 277.377C177.068 277.04 176.863 276.294 177.203 275.707L184.542 262.994C184.885 262.405 185.629 262.209 186.218 262.544C186.803 262.883 187.003 263.631 186.668 264.215L179.324 276.931C179.096 277.324 178.685 277.54 178.263 277.54ZM126.875 300.908C126.454 300.908 126.043 300.69 125.814 300.297L118.473 287.586C118.134 286.996 118.336 286.251 118.921 285.909C119.499 285.572 120.253 285.772 120.595 286.359L127.934 299.073C128.273 299.658 128.073 300.408 127.486 300.747C127.295 300.855 127.086 300.908 126.875 300.908ZM163.581 302.975C163.372 302.975 163.159 302.919 162.97 302.81C162.385 302.473 162.183 301.727 162.52 301.138L169.861 288.425C170.202 287.84 170.952 287.64 171.535 287.975C172.12 288.314 172.32 289.062 171.983 289.649L164.644 302.36C164.413 302.755 164.002 302.975 163.581 302.975ZM141.558 326.341C141.137 326.341 140.726 326.121 140.497 325.726L133.158 313.012C132.817 312.427 133.019 311.68 133.604 311.343C134.186 311.006 134.939 311.204 135.278 311.79L142.617 324.506C142.956 325.089 142.756 325.839 142.167 326.176C141.978 326.289 141.767 326.341 141.558 326.341ZM148.898 328.406C148.689 328.406 148.478 328.352 148.287 328.243C147.7 327.902 147.5 327.156 147.837 326.571L155.178 313.858C155.519 313.269 156.263 313.069 156.852 313.408C157.439 313.747 157.637 314.491 157.3 315.08L149.961 327.793C149.73 328.184 149.319 328.406 148.898 328.406Z" fill="white"/>
</g>
<g opacity="0.05">
<path opacity="0.05" d="M75.9268 207.566H215.532L145.731 86.6633L75.9268 207.566ZM217.702 210.012H73.8094C73.3681 210.012 72.968 209.781 72.7485 209.403C72.5289 209.023 72.5289 208.555 72.7485 208.177L144.67 83.6045C145.109 82.848 146.352 82.848 146.791 83.6045L218.563 207.925C218.787 208.144 218.924 208.451 218.924 208.788C218.924 209.466 218.376 210.012 217.702 210.012Z" fill="white"/>
</g>
<g opacity="0.05">
<path opacity="0.05" d="M75.9268 127.378L145.731 248.281L215.532 127.378H75.9268ZM145.731 251.953C145.291 251.953 144.891 251.718 144.67 251.34L72.7485 126.767C72.5289 126.391 72.5289 125.924 72.7485 125.544C72.968 125.165 73.3681 124.933 73.8094 124.933H217.652C218.091 124.933 218.495 125.165 218.713 125.544C218.928 125.924 218.928 126.391 218.713 126.767L146.791 251.34C146.572 251.718 146.165 251.953 145.731 251.953Z" fill="white"/>
</g>
<g opacity="0.05">
<path opacity="0.05" d="M145.676 333.611C144.998 333.611 144.452 333.065 144.452 332.389V2.45541C144.452 1.78366 144.998 1.23364 145.676 1.23364C146.352 1.23364 146.9 1.78366 146.9 2.45541V332.389C146.9 333.065 146.352 333.611 145.676 333.611Z" fill="white"/>
</g>
<g opacity="0.05">
<path opacity="0.05" d="M288.381 250.724C288.172 250.724 287.968 250.674 287.772 250.561L2.65248 86.6482C2.06986 86.3069 1.86551 85.5634 2.20247 84.9742C2.54161 84.3873 3.28513 84.1873 3.87428 84.5264L288.99 248.439C289.579 248.776 289.781 249.526 289.446 250.109C289.216 250.504 288.803 250.724 288.381 250.724Z" fill="white"/>
</g>
<g opacity="0.05">
<path opacity="0.05" d="M3.26698 250.585C2.84523 250.585 2.42783 250.366 2.20391 249.972C1.86477 249.388 2.06912 248.638 2.65392 248.301L288.074 83.8642C288.66 83.5251 289.408 83.7273 289.745 84.3142C290.084 84.899 289.88 85.6469 289.297 85.986L3.87569 250.42C3.6822 250.535 3.4735 250.585 3.26698 250.585Z" fill="white"/>
</g>
<g opacity="0.05">
<path opacity="0.05" d="M5.27606 248.556L145.699 329.623L286.106 248.556V86.42L145.699 5.34856L5.27606 86.42V248.556ZM145.699 334.897C145.271 334.897 144.851 334.789 144.473 334.571L1.60641 252.087C0.849872 251.648 0.384644 250.841 0.384644 249.963V85.0069C0.384644 84.1286 0.849872 83.3221 1.60641 82.8895L144.473 0.404963C145.229 -0.034178 146.162 -0.0385259 146.918 0.404963L289.776 82.8895C290.533 83.3221 291 84.1286 291 85.0069V249.963C291 250.841 290.533 251.648 289.776 252.087L146.918 334.571C146.54 334.787 146.116 334.897 145.699 334.897Z" fill="white"/>
</g>
</g>
<path d="M137.672 53.3535C137.511 53.3535 137.348 53.3122 137.196 53.2231C136.735 52.96 136.579 52.3731 136.844 51.9165L142.599 41.9511C142.862 41.4924 143.446 41.3359 143.907 41.6033C144.366 41.8663 144.522 42.4511 144.257 42.9098L138.505 52.8731C138.329 53.1818 138.005 53.3535 137.672 53.3535ZM154.934 54.971C154.601 54.971 154.279 54.7992 154.103 54.4905L148.351 44.5272C148.083 44.0685 148.24 43.4837 148.701 43.2207C149.155 42.9533 149.744 43.1098 150.01 43.5707L155.762 53.534C156.027 53.9927 155.871 54.5775 155.412 54.8449C155.26 54.9318 155.097 54.971 154.934 54.971ZM126.168 73.2822C126.007 73.2822 125.844 73.2388 125.689 73.1518C125.231 72.8866 125.074 72.2996 125.339 71.8431L131.094 61.8776C131.355 61.4211 131.942 61.2602 132.403 61.5276C132.861 61.7929 133.018 62.3776 132.75 62.8364L127 72.8018C126.824 73.1083 126.5 73.2822 126.168 73.2822ZM166.438 74.8997C166.106 74.8997 165.784 74.7258 165.608 74.4192L159.855 64.456C159.59 63.9973 159.747 63.4103 160.205 63.1472C160.664 62.882 161.249 63.0385 161.514 63.4972L167.266 73.4605C167.532 73.9192 167.375 74.504 166.916 74.7714C166.764 74.8584 166.601 74.8997 166.438 74.8997ZM114.663 93.2066C114.502 93.2066 114.339 93.1653 114.185 93.0762C113.726 92.8131 113.57 92.2283 113.835 91.7696L119.589 81.8042C119.85 81.3455 120.437 81.189 120.896 81.4564C121.355 81.7194 121.511 82.3064 121.246 82.7629L115.496 92.7262C115.32 93.0371 114.996 93.2066 114.663 93.2066ZM177.943 94.8262C177.61 94.8262 177.288 94.6545 177.115 94.3458L171.36 84.3803C171.095 83.926 171.251 83.3368 171.71 83.0738C172.164 82.8064 172.756 82.9629 173.019 83.4238L178.771 93.3892C179.036 93.8458 178.88 94.4327 178.421 94.698C178.269 94.7871 178.106 94.8262 177.943 94.8262ZM103.158 113.135C102.998 113.135 102.835 113.092 102.68 113.005C102.222 112.74 102.065 112.155 102.33 111.696L108.085 101.733C108.348 101.272 108.933 101.116 109.391 101.381C109.85 101.646 110.006 102.231 109.741 102.692L103.991 112.655C103.815 112.961 103.491 113.135 103.158 113.135ZM189.447 114.753C189.115 114.753 188.795 114.581 188.619 114.272L182.865 104.309C182.599 103.853 182.756 103.263 183.215 103C183.669 102.735 184.258 102.892 184.523 103.35L190.276 113.314C190.541 113.772 190.384 114.359 189.926 114.625C189.776 114.711 189.61 114.753 189.447 114.753ZM91.6539 133.06C91.493 133.06 91.3278 133.021 91.1756 132.931C90.7169 132.666 90.5604 132.084 90.8256 131.623L96.5801 121.659C96.8431 121.199 97.4279 121.042 97.8866 121.309C98.3453 121.575 98.5019 122.159 98.2366 122.618L92.4865 132.579C92.3104 132.89 91.9865 133.06 91.6539 133.06ZM200.95 134.679C200.619 134.679 200.3 134.51 200.122 134.199L194.367 124.236C194.104 123.779 194.261 123.192 194.717 122.927C195.174 122.662 195.763 122.816 196.03 123.279L201.78 133.242C202.046 133.701 201.889 134.288 201.428 134.551C201.28 134.64 201.115 134.679 200.95 134.679ZM80.1514 152.988C79.9884 152.988 79.8232 152.947 79.6732 152.86C79.2123 152.593 79.0558 152.01 79.321 151.549L85.0733 141.588C85.3407 141.127 85.9233 140.971 86.3842 141.236C86.8407 141.501 86.9973 142.084 86.7342 142.547L80.9819 152.508C80.8058 152.815 80.4819 152.988 80.1514 152.988ZM212.457 154.606C212.126 154.606 211.804 154.434 211.626 154.125L205.872 144.164C205.609 143.708 205.765 143.119 206.222 142.853C206.678 142.59 207.27 142.745 207.535 143.206L213.285 153.167C213.552 153.628 213.396 154.212 212.933 154.48C212.785 154.565 212.62 154.606 212.457 154.606ZM68.6447 172.915C68.4838 172.915 68.3186 172.876 68.1686 172.787C67.7077 172.521 67.549 171.937 67.8164 171.478L73.5687 161.515C73.8339 161.054 74.4187 160.897 74.8796 161.163C75.3361 161.43 75.4926 162.013 75.2296 162.473L69.4773 172.435C69.299 172.743 68.9773 172.915 68.6447 172.915ZM223.961 174.532C223.631 174.532 223.309 174.363 223.131 174.054L217.379 164.091C217.113 163.632 217.27 163.047 217.726 162.782C218.185 162.515 218.774 162.671 219.039 163.132L224.79 173.095C225.057 173.556 224.9 174.141 224.44 174.406C224.29 174.493 224.124 174.532 223.961 174.532ZM57.1401 192.842C56.9792 192.842 56.814 192.802 56.6618 192.713C56.2031 192.448 56.0444 191.863 56.3118 191.405L62.0641 181.441C62.3293 180.983 62.9141 180.826 63.375 181.091C63.8315 181.354 63.988 181.939 63.7228 182.4L57.9727 192.363C57.7944 192.67 57.4727 192.842 57.1401 192.842ZM235.466 194.461C235.135 194.461 234.814 194.287 234.635 193.983L228.883 184.017C228.618 183.561 228.774 182.974 229.233 182.709C229.69 182.446 230.279 182.6 230.544 183.061L236.294 193.022C236.562 193.481 236.405 194.068 235.944 194.335C235.794 194.42 235.629 194.461 235.466 194.461ZM45.6354 212.77C45.4746 212.77 45.3093 212.731 45.1572 212.642C44.6963 212.377 44.5398 211.79 44.8072 211.333L50.5595 201.368C50.8247 200.907 51.4117 200.753 51.8682 201.018C52.3269 201.283 52.4834 201.868 52.2204 202.327L46.4681 212.29C46.2898 212.598 45.9659 212.77 45.6354 212.77ZM246.97 214.388C246.64 214.388 246.318 214.216 246.14 213.909L240.388 203.946C240.123 203.487 240.281 202.9 240.738 202.637C241.194 202.37 241.783 202.524 242.049 202.985L247.801 212.951C248.066 213.409 247.91 213.996 247.449 214.262C247.299 214.349 247.136 214.388 246.97 214.388ZM37.0809 232.697H34.133C33.7895 232.697 33.4743 232.514 33.3004 232.219C33.1286 231.921 33.1286 231.555 33.3004 231.26L39.0549 221.294C39.3201 220.836 39.9027 220.677 40.3636 220.944C40.8223 221.207 40.9788 221.794 40.7136 222.253L35.7939 230.779H37.0809C37.6092 230.779 38.0396 231.208 38.0396 231.74C38.0396 232.266 37.6092 232.697 37.0809 232.697ZM60.0901 232.697H48.5855C48.0529 232.697 47.6268 232.266 47.6268 231.74C47.6268 231.208 48.0529 230.779 48.5855 230.779H60.0901C60.6184 230.779 61.0488 231.208 61.0488 231.74C61.0488 232.266 60.6184 232.697 60.0901 232.697ZM83.0993 232.697H71.5947C71.0621 232.697 70.636 232.266 70.636 231.74C70.636 231.208 71.0621 230.779 71.5947 230.779H83.0993C83.6298 230.779 84.0581 231.208 84.0581 231.74C84.0581 232.266 83.6298 232.697 83.0993 232.697ZM106.109 232.697H94.604C94.0735 232.697 93.6452 232.266 93.6452 231.74C93.6452 231.208 94.0735 230.779 94.604 230.779H106.109C106.639 230.779 107.069 231.208 107.069 231.74C107.069 232.266 106.639 232.697 106.109 232.697ZM129.118 232.697H117.613C117.083 232.697 116.657 232.266 116.657 231.74C116.657 231.208 117.083 230.779 117.613 230.779H129.118C129.648 230.779 130.079 231.208 130.079 231.74C130.079 232.266 129.648 232.697 129.118 232.697ZM152.129 232.697H140.622C140.092 232.697 139.666 232.266 139.666 231.74C139.666 231.208 140.092 230.779 140.622 230.779H152.129C152.657 230.779 153.088 231.208 153.088 231.74C153.088 232.266 152.657 232.697 152.129 232.697ZM175.138 232.697H163.634C163.101 232.697 162.675 232.266 162.675 231.74C162.675 231.208 163.101 230.779 163.634 230.779H175.138C175.667 230.779 176.097 231.208 176.097 231.74C176.097 232.266 175.667 232.697 175.138 232.697ZM198.148 232.697H186.643C186.11 232.697 185.684 232.266 185.684 231.74C185.684 231.208 186.11 230.779 186.643 230.779H198.148C198.678 230.779 199.109 231.208 199.109 231.74C199.109 232.266 198.678 232.697 198.148 232.697ZM221.157 232.697H209.652C209.122 232.697 208.696 232.266 208.696 231.74C208.696 231.208 209.122 230.779 209.652 230.779H221.157C221.687 230.779 222.118 231.208 222.118 231.74C222.118 232.266 221.687 232.697 221.157 232.697ZM244.166 232.697H232.661C232.131 232.697 231.705 232.266 231.705 231.74C231.705 231.208 232.131 230.779 232.661 230.779H244.166C244.694 230.779 245.127 231.208 245.127 231.74C245.127 232.266 244.694 232.697 244.166 232.697ZM257.542 232.697H255.673C255.14 232.697 254.714 232.266 254.714 231.74C254.714 231.208 255.14 230.779 255.673 230.779H255.879L251.892 223.873C251.627 223.414 251.786 222.827 252.242 222.564C252.699 222.297 253.288 222.453 253.553 222.914L258.373 231.26C258.542 231.555 258.542 231.921 258.373 232.219C258.199 232.514 257.882 232.697 257.542 232.697Z" fill="white"/>
<path d="M59.0097 104.166H47.5051C46.9746 104.166 46.5485 103.736 46.5485 103.207C46.5485 102.675 46.9746 102.246 47.5051 102.246H59.0097C59.5379 102.246 59.9684 102.675 59.9684 103.207C59.9684 103.736 59.5379 104.166 59.0097 104.166ZM82.0211 104.166H70.5165C69.9838 104.166 69.5577 103.736 69.5577 103.207C69.5577 102.675 69.9838 102.246 70.5165 102.246H82.0211C82.5493 102.246 82.9776 102.675 82.9776 103.207C82.9776 103.736 82.5493 104.166 82.0211 104.166ZM105.03 104.166H93.5257C92.9931 104.166 92.567 103.736 92.567 103.207C92.567 102.675 92.9931 102.246 93.5257 102.246H105.03C105.559 102.246 105.989 102.675 105.989 103.207C105.989 103.736 105.559 104.166 105.03 104.166ZM128.04 104.166H116.535C116.004 104.166 115.576 103.736 115.576 103.207C115.576 102.675 116.004 102.246 116.535 102.246H128.04C128.568 102.246 128.998 102.675 128.998 103.207C128.998 103.736 128.568 104.166 128.04 104.166ZM151.051 104.166H139.544C139.014 104.166 138.585 103.736 138.585 103.207C138.585 102.675 139.014 102.246 139.544 102.246H151.051C151.577 102.246 152.007 102.675 152.007 103.207C152.007 103.736 151.577 104.166 151.051 104.166ZM174.06 104.166H162.556C162.023 104.166 161.595 103.736 161.595 103.207C161.595 102.675 162.023 102.246 162.556 102.246H174.06C174.586 102.246 175.017 102.675 175.017 103.207C175.017 103.736 174.586 104.166 174.06 104.166ZM197.069 104.166H185.565C185.032 104.166 184.604 103.736 184.604 103.207C184.604 102.675 185.032 102.246 185.565 102.246H197.069C197.598 102.246 198.028 102.675 198.028 103.207C198.028 103.736 197.598 104.166 197.069 104.166ZM220.079 104.166H208.574C208.044 104.166 207.615 103.736 207.615 103.207C207.615 102.675 208.044 102.246 208.574 102.246H220.079C220.607 102.246 221.037 102.675 221.037 103.207C221.037 103.736 220.607 104.166 220.079 104.166ZM243.088 104.166H231.583C231.053 104.166 230.625 103.736 230.625 103.207C230.625 102.675 231.053 102.246 231.583 102.246H243.088C243.616 102.246 244.047 102.675 244.047 103.207C244.047 103.736 243.616 104.166 243.088 104.166ZM38.9505 112.51C38.6179 112.51 38.2983 112.338 38.1201 112.029L33.3004 103.686C33.1286 103.39 33.1286 103.025 33.3004 102.727C33.4743 102.429 33.7873 102.246 34.133 102.246H36.0004C36.5287 102.246 36.9592 102.675 36.9592 103.207C36.9592 103.736 36.5287 104.166 36.0004 104.166H35.7917L39.7788 111.073C40.044 111.531 39.8875 112.116 39.4266 112.381C39.2788 112.468 39.1136 112.51 38.9505 112.51ZM251.788 114.127C251.625 114.127 251.458 114.086 251.31 113.999C250.849 113.734 250.692 113.151 250.958 112.69L255.879 104.166H254.595C254.062 104.166 253.634 103.736 253.634 103.207C253.634 102.675 254.062 102.246 254.595 102.246H257.54C257.882 102.246 258.199 102.429 258.371 102.727C258.54 103.025 258.54 103.39 258.371 103.686L252.618 113.647C252.44 113.955 252.118 114.127 251.788 114.127ZM50.4551 132.436C50.1225 132.436 49.8029 132.264 49.6247 131.958L43.8702 121.992C43.6071 121.534 43.7637 120.949 44.2202 120.686C44.6789 120.421 45.2659 120.575 45.5333 121.036L51.2834 130.999C51.5486 131.458 51.3921 132.043 50.9334 132.308C50.7834 132.395 50.6182 132.436 50.4551 132.436ZM240.281 134.054C240.12 134.054 239.953 134.012 239.805 133.925C239.342 133.66 239.186 133.075 239.453 132.617L245.203 122.656C245.471 122.195 246.055 122.04 246.516 122.303C246.973 122.569 247.129 123.151 246.866 123.612L241.114 133.575C240.936 133.882 240.612 134.054 240.281 134.054ZM61.9597 152.365C61.6293 152.365 61.3075 152.193 61.1293 151.884L55.3748 141.921C55.1118 141.462 55.2683 140.878 55.727 140.612C56.1835 140.347 56.7727 140.502 57.0379 140.962L62.788 150.928C63.0554 151.384 62.8989 151.971 62.438 152.234C62.288 152.324 62.1228 152.365 61.9597 152.365ZM228.777 153.982C228.614 153.982 228.448 153.941 228.298 153.854C227.837 153.589 227.681 153.004 227.946 152.545L233.699 142.58C233.964 142.121 234.549 141.965 235.012 142.23C235.468 142.495 235.625 143.08 235.359 143.539L229.609 153.502C229.431 153.811 229.107 153.982 228.777 153.982ZM73.4644 172.291C73.1339 172.291 72.8122 172.12 72.6339 171.813L66.8816 161.846C66.6164 161.389 66.7729 160.802 67.2316 160.539C67.6881 160.272 68.2773 160.43 68.5425 160.889L74.2948 170.854C74.56 171.311 74.4035 171.898 73.9426 172.161C73.7926 172.25 73.6296 172.291 73.4644 172.291ZM217.272 173.909C217.109 173.909 216.944 173.87 216.794 173.778C216.333 173.515 216.176 172.928 216.442 172.472L222.194 162.509C222.461 162.048 223.046 161.891 223.505 162.159C223.963 162.422 224.12 163.006 223.855 163.465L218.105 173.431C217.926 173.737 217.602 173.909 217.272 173.909ZM84.969 192.218C84.6385 192.218 84.3168 192.048 84.1385 191.738L78.3862 181.774C78.121 181.318 78.2775 180.731 78.7362 180.466C79.1927 180.202 79.7819 180.357 80.0471 180.816L85.7994 190.781C86.0646 191.24 85.9081 191.825 85.4472 192.088C85.2972 192.177 85.1342 192.218 84.969 192.218ZM205.767 193.838C205.604 193.838 205.439 193.796 205.289 193.707C204.828 193.444 204.672 192.857 204.937 192.398L210.689 182.433C210.957 181.976 211.539 181.818 212 182.083C212.457 182.348 212.613 182.935 212.35 183.392L206.6 193.357C206.422 193.666 206.098 193.838 205.767 193.838ZM96.4736 212.145C96.1431 212.145 95.8214 211.975 95.6453 211.666L89.8908 201.701C89.6278 201.242 89.7843 200.657 90.2408 200.392C90.6974 200.127 91.2865 200.283 91.5517 200.744L97.304 210.708C97.5693 211.166 97.4127 211.751 96.9518 212.014C96.8018 212.103 96.6388 212.145 96.4736 212.145ZM194.265 213.762C194.1 213.762 193.935 213.723 193.785 213.634C193.326 213.368 193.169 212.784 193.432 212.325L199.185 202.362C199.452 201.903 200.035 201.746 200.496 202.012C200.954 202.275 201.111 202.862 200.848 203.318L195.095 213.284C194.917 213.592 194.593 213.762 194.265 213.762ZM107.976 232.071C107.648 232.071 107.326 231.902 107.148 231.591L101.393 221.63C101.13 221.171 101.287 220.586 101.745 220.319C102.2 220.053 102.791 220.21 103.056 220.671L108.809 230.634C109.072 231.093 108.915 231.678 108.456 231.943C108.306 232.03 108.143 232.071 107.976 232.071ZM182.76 233.691C182.595 233.691 182.428 233.649 182.28 233.562C181.821 233.297 181.665 232.71 181.928 232.252L187.682 222.288C187.947 221.83 188.534 221.673 188.991 221.936C189.45 222.203 189.606 222.788 189.343 223.247L183.591 233.21C183.413 233.519 183.089 233.691 182.76 233.691ZM119.481 251.998C119.152 251.998 118.833 251.828 118.652 251.519L112.898 241.556C112.635 241.095 112.791 240.513 113.25 240.247C113.707 239.98 114.296 240.139 114.561 240.6L120.313 250.561C120.576 251.022 120.42 251.604 119.961 251.869C119.813 251.956 119.648 251.998 119.481 251.998ZM171.254 253.615C171.091 253.615 170.923 253.576 170.775 253.489C170.317 253.222 170.158 252.639 170.423 252.178L176.175 242.217C176.443 241.756 177.025 241.602 177.486 241.865C177.945 242.13 178.102 242.715 177.839 243.174L172.086 253.137C171.908 253.445 171.584 253.615 171.254 253.615ZM130.987 271.926C130.657 271.926 130.337 271.755 130.157 271.446L124.402 261.485C124.139 261.024 124.296 260.441 124.755 260.174C125.209 259.909 125.8 260.065 126.068 260.526L131.818 270.487C132.083 270.946 131.927 271.533 131.466 271.798C131.318 271.883 131.153 271.926 130.987 271.926ZM159.749 273.544C159.586 273.544 159.421 273.502 159.271 273.418C158.812 273.15 158.653 272.568 158.919 272.105L164.671 262.144C164.938 261.685 165.525 261.528 165.982 261.791C166.44 262.059 166.597 262.641 166.332 263.102L160.582 273.063C160.401 273.372 160.079 273.544 159.749 273.544ZM142.492 291.853C142.164 291.853 141.842 291.681 141.662 291.372L135.909 281.409C135.644 280.95 135.801 280.366 136.259 280.103C136.716 279.837 137.307 279.992 137.572 280.453L143.322 290.416C143.588 290.875 143.431 291.459 142.97 291.725C142.822 291.812 142.657 291.853 142.492 291.853ZM148.244 293.47C148.081 293.47 147.916 293.431 147.764 293.344C147.305 293.077 147.149 292.492 147.414 292.033L153.166 282.072C153.434 281.611 154.016 281.455 154.477 281.72C154.936 281.985 155.092 282.568 154.827 283.029L149.077 292.99C148.897 293.299 148.575 293.47 148.244 293.47Z" fill="white"/>
<path d="M91.1009 198.994H200.49L145.798 104.259L91.1009 198.994ZM202.193 200.911H89.4421C89.0965 200.911 88.7834 200.731 88.6095 200.433C88.4378 200.135 88.4378 199.77 88.6095 199.474L144.965 101.861C145.311 101.27 146.285 101.27 146.628 101.861L202.866 199.277C203.04 199.448 203.149 199.687 203.149 199.953C203.149 200.485 202.721 200.911 202.193 200.911Z" fill="white"/>
<path d="M91.1009 136.123L145.798 230.858L200.49 136.123H91.1009ZM145.798 233.734C145.454 233.734 145.139 233.551 144.965 233.256L88.6095 135.643C88.4378 135.349 88.4378 134.984 88.6095 134.686C88.7834 134.388 89.0965 134.206 89.4421 134.206H202.153C202.495 134.206 202.814 134.388 202.984 134.686C203.153 134.984 203.153 135.349 202.984 135.643L146.628 233.256C146.457 233.551 146.137 233.734 145.798 233.734Z" fill="white"/>
<path d="M145.742 297.773C145.211 297.773 144.783 297.345 144.783 296.815V38.2912C144.783 37.763 145.211 37.3325 145.742 37.3325C146.27 37.3325 146.701 37.763 146.701 38.2912V296.815C146.701 297.345 146.27 297.773 145.742 297.773Z" fill="white"/>
<path d="M257.539 232.602C257.376 232.602 257.215 232.561 257.061 232.474L33.6533 104.038C33.1945 103.771 33.0337 103.188 33.3011 102.728C33.5641 102.267 34.1467 102.11 34.6076 102.375L258.017 230.813C258.478 231.076 258.635 231.663 258.374 232.12C258.193 232.431 257.869 232.602 257.539 232.602Z" fill="white"/>
<path d="M34.1327 232.681C33.8023 232.681 33.4762 232.51 33.3001 232.201C33.0349 231.742 33.1936 231.155 33.6523 230.892L257.297 102.044C257.757 101.778 258.344 101.937 258.61 102.396C258.873 102.854 258.714 103.441 258.257 103.707L34.611 232.551C34.4588 232.64 34.2936 232.681 34.1327 232.681Z" fill="white"/>
<path d="M35.6825 231.042L145.711 294.565L255.731 231.042V103.998L145.711 40.4724L35.6825 103.998V231.042ZM145.711 298.696C145.378 298.696 145.05 298.611 144.752 298.441L32.8063 233.807C32.2128 233.464 31.8476 232.831 31.8476 232.146V102.889C31.8476 102.202 32.2128 101.569 32.8063 101.23L144.752 36.5984C145.344 36.2549 146.074 36.2505 146.67 36.5984L258.607 101.23C259.198 101.569 259.564 102.202 259.564 102.889V232.146C259.564 232.831 259.198 233.464 258.607 233.807L146.67 298.441C146.372 298.609 146.042 298.696 145.711 298.696Z" fill="white"/>
</svg>
