<svg width="367" height="329" viewBox="0 0 367 329" fill="none" xmlns="http://www.w3.org/2000/svg">
<g opacity="0.2">
<path opacity="0.2" d="M51.3932 48.6224L183.709 277.793L316.028 48.6224H51.3932ZM183.709 285.665C182.772 285.665 181.908 285.162 181.44 284.35L44.5815 47.3109C44.1095 46.4974 44.1095 45.4985 44.5815 44.6892C45.0493 43.8779 45.9108 43.3818 46.8507 43.3818H320.565C321.503 43.3818 322.367 43.8779 322.841 44.6892C323.305 45.4985 323.305 46.4974 322.841 47.3109L185.983 284.351C185.511 285.162 184.644 285.665 183.709 285.665Z" fill="white"/>
<path opacity="0.2" d="M51.3932 280.334H316.028L183.709 51.1542L51.3932 280.334ZM320.565 285.577H46.8507C45.9108 285.577 45.0493 285.076 44.5815 284.265C44.1095 283.458 44.1095 282.459 44.5815 281.643L181.44 44.5989C182.376 42.9761 185.045 42.9761 185.983 44.5989L322.841 281.643C323.305 282.459 323.305 283.458 322.841 284.265C322.367 285.076 321.503 285.577 320.565 285.577Z" fill="white"/>
<path opacity="0.2" d="M316.298 50.9754C315.932 50.9754 315.571 50.8208 315.308 50.5206C314.836 49.9765 314.893 49.1458 315.439 48.6691L317.42 46.9529C317.969 46.4851 318.8 46.5394 319.272 47.0855C319.749 47.6358 319.685 48.4645 319.137 48.937L317.157 50.6532C316.909 50.8689 316.605 50.9754 316.298 50.9754ZM308.368 57.8393C308.007 57.8393 307.639 57.6868 307.382 57.3824C306.904 56.8384 306.967 56.0092 307.516 55.5372L309.5 53.8189C310.043 53.3464 310.868 53.4012 311.344 53.9515C311.814 54.5018 311.76 55.3284 311.212 55.8004L309.232 57.515C308.982 57.7302 308.675 57.8393 308.368 57.8393ZM300.445 64.7006C300.084 64.7006 299.714 64.546 299.455 64.2505C298.983 63.7023 299.041 62.871 299.59 62.4011L301.57 60.6849C302.118 60.2082 302.942 60.2693 303.419 60.8196C303.891 61.3636 303.835 62.1902 303.288 62.6664L301.306 64.381C301.052 64.5982 300.751 64.7006 300.445 64.7006ZM292.52 71.5645C292.154 71.5645 291.789 71.412 291.53 71.1118C291.053 70.5662 291.118 69.737 291.666 69.2629L293.646 67.5462C294.186 67.0742 295.019 67.1332 295.494 67.6835C295.966 68.227 295.907 69.0583 295.358 69.5282L293.379 71.2449C293.128 71.46 292.826 71.5645 292.52 71.5645ZM284.596 78.4305C284.226 78.4305 283.861 78.278 283.602 77.9736C283.13 77.4295 283.184 76.6009 283.733 76.1289L285.717 74.4122C286.265 73.9381 287.089 73.9965 287.561 74.5448C288.042 75.093 287.977 75.9201 287.429 76.3921L285.449 78.1109C285.203 78.3218 284.892 78.4305 284.596 78.4305ZM276.666 85.2923C276.301 85.2923 275.935 85.1398 275.676 84.8417C275.2 84.2913 275.261 83.4648 275.809 82.9928L277.789 81.2781C278.337 80.7999 279.166 80.8563 279.636 81.4108C280.112 81.9548 280.054 82.7813 279.505 83.2601L277.526 84.9743C277.278 85.1899 276.973 85.2923 276.666 85.2923ZM268.743 92.1562C268.373 92.1562 268.012 92.0016 267.749 91.7077C267.281 91.1573 267.335 90.3308 267.883 89.8588L269.863 88.142C270.412 87.6659 271.241 87.7264 271.713 88.2747C272.189 88.8187 272.124 89.6473 271.58 90.122L269.596 91.8403C269.35 92.0538 269.043 92.1562 268.743 92.1562ZM260.813 99.0222C260.448 99.0222 260.078 98.8697 259.823 98.5695C259.347 98.0233 259.408 97.1968 259.956 96.7201L261.94 95.0039C262.484 94.5318 263.315 94.5882 263.787 95.1365C264.263 95.6847 264.205 96.5133 263.657 96.9832L261.673 98.7021C261.42 98.9198 261.12 99.0222 260.813 99.0222ZM252.885 105.886C252.524 105.886 252.154 105.734 251.898 105.433C251.423 104.887 251.482 104.061 252.031 103.584L254.015 101.87C254.554 101.398 255.383 101.454 255.859 102.002C256.331 102.549 256.275 103.375 255.727 103.852L253.747 105.566C253.497 105.781 253.19 105.886 252.885 105.886ZM244.96 112.749C244.599 112.749 244.229 112.595 243.97 112.297C243.498 111.751 243.557 110.922 244.105 110.45L246.087 108.736C246.637 108.264 247.458 108.316 247.934 108.866C248.406 109.415 248.352 110.241 247.803 110.718L245.821 112.43C245.567 112.647 245.271 112.749 244.96 112.749ZM237.035 119.615C236.669 119.615 236.304 119.461 236.049 119.161C235.57 118.617 235.634 117.788 236.182 117.314L238.161 115.597C238.709 115.125 239.534 115.179 240.011 115.734C240.481 116.278 240.422 117.107 239.878 117.579L237.894 119.294C237.644 119.509 237.346 119.615 237.035 119.615ZM229.111 126.481C228.742 126.481 228.376 126.327 228.117 126.022C227.645 125.478 227.704 124.652 228.248 124.176L230.232 122.459C230.78 121.991 231.609 122.048 232.076 122.596C232.557 123.142 232.494 123.971 231.946 124.443L229.964 126.16C229.718 126.373 229.411 126.481 229.111 126.481ZM221.182 133.343C220.816 133.343 220.451 133.191 220.192 132.888C219.72 132.34 219.776 131.516 220.324 131.044L222.304 129.327C222.857 128.853 223.681 128.909 224.153 129.46C224.628 130.006 224.569 130.833 224.02 131.309L222.041 133.026C221.795 133.239 221.488 133.343 221.182 133.343ZM213.258 140.207C212.888 140.207 212.527 140.053 212.268 139.757C211.796 139.208 211.851 138.378 212.399 137.908L214.378 136.191C214.927 135.717 215.752 135.775 216.228 136.321C216.704 136.868 216.643 137.696 216.095 138.173L214.111 139.889C213.869 140.105 213.563 140.207 213.258 140.207ZM205.328 147.073C204.963 147.073 204.593 146.919 204.338 146.62C203.862 146.074 203.923 145.244 204.476 144.771L206.455 143.053C206.999 142.578 207.828 142.639 208.302 143.187C208.774 143.734 208.72 144.565 208.172 145.035L206.188 146.753C205.935 146.967 205.635 147.073 205.328 147.073ZM197.401 153.937C197.039 153.937 196.67 153.785 196.415 153.482C195.939 152.936 196.002 152.107 196.546 151.635L198.53 149.919C199.078 149.444 199.898 149.505 200.379 150.051C200.847 150.6 200.795 151.426 200.242 151.903L198.262 153.617C198.012 153.828 197.709 153.937 197.401 153.937ZM189.475 160.798C189.114 160.798 188.744 160.646 188.49 160.348C188.013 159.8 188.074 158.973 188.62 158.499L190.606 156.787C191.146 156.306 191.977 156.362 192.449 156.917C192.926 157.461 192.867 158.288 192.318 158.767L190.339 160.481C190.086 160.699 189.786 160.798 189.475 160.798ZM181.554 167.666C181.182 167.666 180.821 167.512 180.555 167.212C180.09 166.668 180.144 165.837 180.693 165.361L182.672 163.649C183.22 163.176 184.049 163.233 184.521 163.781C184.996 164.329 184.937 165.154 184.389 165.628L182.409 167.343C182.159 167.56 181.852 167.666 181.554 167.666ZM173.626 174.53C173.261 174.53 172.895 174.378 172.632 174.073C172.16 173.53 172.219 172.703 172.763 172.227L174.749 170.51C175.295 170.04 176.124 170.094 176.596 170.647C177.072 171.193 177.01 172.02 176.461 172.492L174.479 174.209C174.238 174.422 173.929 174.53 173.626 174.53ZM165.701 181.392C165.331 181.392 164.966 181.24 164.707 180.939C164.237 180.391 164.291 179.565 164.844 179.095L166.823 177.376C167.372 176.902 168.201 176.96 168.673 177.508C169.143 178.055 169.084 178.882 168.535 179.358L166.556 181.072C166.31 181.288 166.003 181.392 165.701 181.392ZM157.773 188.258C157.408 188.258 157.038 188.101 156.783 187.805C156.307 187.259 156.366 186.429 156.914 185.959L158.894 184.24C159.442 183.766 160.266 183.822 160.747 184.372C161.215 184.919 161.158 185.748 160.61 186.22L158.631 187.938C158.38 188.154 158.078 188.258 157.773 188.258ZM149.843 195.122C149.478 195.122 149.112 194.97 148.858 194.667C148.377 194.123 148.442 193.295 148.991 192.82L150.971 191.104C151.519 190.632 152.343 190.69 152.817 191.236C153.289 191.785 153.235 192.614 152.687 193.086L150.703 194.802C150.457 195.018 150.15 195.122 149.843 195.122ZM141.92 201.988C141.559 201.988 141.185 201.836 140.931 201.533C140.454 200.985 140.517 200.158 141.061 199.684L143.045 197.97C143.589 197.496 144.418 197.554 144.894 198.102C145.366 198.651 145.31 199.477 144.761 199.95L142.781 201.666C142.527 201.879 142.225 201.988 141.92 201.988ZM133.995 208.849C133.625 208.849 133.264 208.697 133 208.399C132.528 207.849 132.585 207.022 133.133 206.55L135.122 204.836C135.67 204.362 136.499 204.418 136.964 204.966C137.441 205.514 137.382 206.339 136.834 206.818L134.85 208.532C134.602 208.745 134.297 208.849 133.995 208.849ZM126.071 215.713C125.702 215.713 125.336 215.561 125.073 215.263C124.605 214.715 124.659 213.888 125.208 213.412L127.188 211.697C127.736 211.223 128.56 211.282 129.036 211.83C129.517 212.374 129.452 213.205 128.904 213.679L126.924 215.396C126.679 215.611 126.367 215.713 126.071 215.713ZM118.142 222.581C117.776 222.581 117.411 222.425 117.148 222.122C116.675 221.579 116.736 220.752 117.282 220.276L119.264 218.559C119.813 218.087 120.639 218.146 121.111 218.694C121.588 219.238 121.529 220.071 120.981 220.543L119.001 222.255C118.753 222.473 118.444 222.581 118.142 222.581ZM110.212 229.445C109.848 229.445 109.483 229.291 109.222 228.99C108.748 228.442 108.811 227.618 109.359 227.142L111.339 225.425C111.887 224.949 112.716 225.009 113.188 225.557C113.662 226.106 113.599 226.933 113.051 227.409L111.071 229.121C110.821 229.339 110.519 229.445 110.212 229.445ZM102.288 236.307C101.923 236.307 101.553 236.154 101.298 235.856C100.822 235.308 100.881 234.48 101.429 234.003L103.411 232.287C103.957 231.817 104.781 231.875 105.262 232.419C105.734 232.967 105.676 233.801 105.128 234.271L103.146 235.987C102.896 236.205 102.595 236.307 102.288 236.307ZM94.3588 243.173C93.9975 243.173 93.6278 243.02 93.373 242.718C92.8947 242.174 92.9574 241.341 93.5056 240.871L95.4897 239.15C96.0338 238.683 96.8582 238.737 97.3349 239.285C97.8048 239.833 97.7505 240.663 97.2023 241.135L95.2224 242.851C94.9723 243.066 94.6653 243.173 94.3588 243.173ZM86.4355 250.037C86.0742 250.037 85.7045 249.882 85.4455 249.582C84.9735 249.038 85.032 248.209 85.5802 247.733L87.5601 246.016C88.1084 245.54 88.9328 245.603 89.4095 246.151C89.8815 246.699 89.8246 247.529 89.2764 248.001L87.297 249.717C87.0422 249.93 86.7399 250.037 86.4355 250.037ZM78.5101 256.903C78.1399 256.903 77.7791 256.744 77.5154 256.448C77.0434 255.9 77.1003 255.071 77.6486 254.599L79.6327 252.882C80.1762 252.406 81.0095 252.471 81.4794 253.019C81.9561 253.563 81.8971 254.39 81.3447 254.862L79.3648 256.583C79.1189 256.796 78.8124 256.903 78.5101 256.903ZM70.5868 263.764C70.2166 263.764 69.8511 263.612 69.5921 263.31C69.1201 262.766 69.1744 261.932 69.7227 261.46L71.7068 259.748C72.255 259.274 73.0841 259.329 73.552 259.881C74.0328 260.425 73.9676 261.254 73.4193 261.73L71.4394 263.447C71.1935 263.658 70.8823 263.764 70.5868 263.764ZM62.6567 270.626C62.2912 270.626 61.9257 270.473 61.6667 270.176C61.1947 269.628 61.2511 268.803 61.7994 268.324L63.7793 266.612C64.3317 266.14 65.1567 266.195 65.6266 266.743C66.1027 267.291 66.0443 268.12 65.496 268.592L63.5161 270.308C63.2681 270.524 62.9637 270.626 62.6567 270.626ZM54.7292 277.494C54.3637 277.494 53.9982 277.335 53.7414 277.039C53.2626 276.496 53.3258 275.667 53.874 275.19L55.8539 273.478C56.398 273.002 57.2266 273.058 57.7033 273.609C58.1753 274.152 58.1142 274.982 57.5701 275.458L55.586 277.17C55.3359 277.387 55.0378 277.494 54.7292 277.494ZM46.8038 284.356C46.4384 284.356 46.0682 284.203 45.8139 283.905C45.3372 283.357 45.3983 282.528 45.9486 282.056L47.9306 280.34C48.4788 279.868 49.3054 279.924 49.7774 280.472C50.2499 281.02 50.1909 281.845 49.6468 282.32L47.6627 284.036C47.4106 284.253 47.1103 284.356 46.8038 284.356Z" fill="white"/>
<path opacity="0.2" d="M50.9568 50.9754C50.6456 50.9754 50.3496 50.8689 50.0953 50.6532L48.1133 48.937C47.565 48.4645 47.5107 47.6358 47.9828 47.0855C48.4548 46.5394 49.2813 46.4851 49.8295 46.9529L51.8115 48.6691C52.3598 49.1458 52.4188 49.9765 51.9421 50.5206C51.6878 50.8208 51.3176 50.9754 50.9568 50.9754ZM58.8822 57.8393C58.5799 57.8393 58.2687 57.7302 58.0269 57.515L56.0475 55.8004C55.4946 55.3284 55.4361 54.5018 55.9102 53.9515C56.3869 53.4012 57.2114 53.3464 57.7596 53.8189L59.7437 55.5372C60.2878 56.0092 60.3462 56.8384 59.8763 57.3824C59.6132 57.6868 59.2518 57.8393 58.8822 57.8393ZM66.8055 64.7006C66.5032 64.7006 66.1982 64.5982 65.9529 64.381L63.9708 62.6664C63.4226 62.1902 63.3636 61.3636 63.8403 60.8196C64.3081 60.2693 65.1368 60.2082 65.685 60.6849L67.6649 62.4011C68.2173 62.871 68.2716 63.7023 67.7996 64.2505C67.5406 64.546 67.1751 64.7006 66.8055 64.7006ZM74.735 71.5645C74.4286 71.5645 74.1215 71.46 73.8761 71.2449L71.8962 69.5282C71.348 69.0583 71.289 68.227 71.7615 67.6835C72.2356 67.1332 73.0642 67.0742 73.6125 67.5462L75.5924 69.2629C76.1406 69.737 76.197 70.5662 75.725 71.1118C75.466 71.412 75.1005 71.5645 74.735 71.5645ZM82.663 78.4305C82.3581 78.4305 82.0516 78.3218 81.8057 78.1109L79.8216 76.3921C79.2734 75.9201 79.217 75.093 79.689 74.5448C80.1652 73.9965 80.9943 73.9381 81.5384 74.4122L83.5178 76.1289C84.066 76.6009 84.1292 77.4295 83.6483 77.9736C83.394 78.278 83.0285 78.4305 82.663 78.4305ZM90.5884 85.2923C90.2814 85.2923 89.9791 85.1899 89.729 84.9743L87.7449 83.2601C87.1967 82.7813 87.1466 81.9548 87.6144 81.4108C88.0885 80.8563 88.9176 80.7999 89.4617 81.2781L91.4458 82.9928C91.9893 83.4648 92.0546 84.2913 91.5784 84.8417C91.3236 85.1398 90.9539 85.2923 90.5884 85.2923ZM98.5159 92.1562C98.2073 92.1562 97.9045 92.0538 97.6544 91.8403L95.675 90.122C95.1268 89.6473 95.0657 88.8187 95.5419 88.2747C96.0144 87.7264 96.8388 87.6659 97.3871 88.142L99.3712 89.8588C99.9147 90.3308 99.9779 91.1573 99.5017 91.7077C99.2469 92.0016 98.8772 92.1562 98.5159 92.1562ZM106.437 99.0222C106.139 99.0222 105.83 98.9198 105.582 98.7021L103.598 96.9832C103.05 96.5133 102.991 95.6847 103.463 95.1365C103.94 94.5882 104.77 94.5318 105.315 95.0039L107.299 96.7201C107.847 97.1968 107.903 98.0233 107.431 98.5695C107.172 98.8697 106.807 99.0222 106.437 99.0222ZM114.365 105.886C114.064 105.886 113.754 105.781 113.508 105.566L111.528 103.852C110.98 103.375 110.919 102.549 111.395 102.002C111.867 101.454 112.696 101.398 113.245 101.87L115.224 103.584C115.772 104.061 115.831 104.887 115.361 105.433C115.096 105.734 114.73 105.886 114.365 105.886ZM122.29 112.749C121.988 112.749 121.679 112.647 121.435 112.43L119.455 110.718C118.907 110.241 118.844 109.415 119.321 108.866C119.793 108.316 120.62 108.264 121.168 108.736L123.149 110.45C123.698 110.922 123.757 111.751 123.285 112.297C123.026 112.595 122.66 112.749 122.29 112.749ZM130.22 119.615C129.914 119.615 129.607 119.509 129.361 119.294L127.377 117.579C126.833 117.107 126.774 116.278 127.244 115.734C127.716 115.179 128.549 115.125 129.097 115.597L131.077 117.314C131.626 117.788 131.68 118.617 131.21 119.161C130.951 119.461 130.586 119.615 130.22 119.615ZM138.148 126.481C137.843 126.481 137.537 126.373 137.286 126.16L135.305 124.443C134.758 123.971 134.701 123.142 135.174 122.596C135.641 122.048 136.475 121.991 137.023 122.459L139.003 124.176C139.551 124.652 139.614 125.478 139.133 126.022C138.879 126.327 138.513 126.481 138.148 126.481ZM146.073 133.343C145.766 133.343 145.464 133.239 145.209 133.026L143.23 131.309C142.682 130.833 142.627 130.006 143.099 129.46C143.573 128.909 144.403 128.853 144.946 129.327L146.93 131.044C147.474 131.516 147.535 132.34 147.063 132.888C146.809 133.191 146.434 133.343 146.073 133.343ZM153.997 140.207C153.692 140.207 153.39 140.105 153.139 139.889L151.16 138.173C150.611 137.696 150.551 136.868 151.023 136.321C151.499 135.775 152.332 135.717 152.872 136.191L154.851 137.908C155.4 138.378 155.463 139.208 154.986 139.757C154.728 140.053 154.362 140.207 153.997 140.207ZM161.922 147.073C161.624 147.073 161.315 146.967 161.067 146.753L159.087 145.035C158.539 144.565 158.476 143.734 158.957 143.187C159.422 142.639 160.256 142.578 160.8 143.053L162.784 144.771C163.332 145.244 163.388 146.074 162.916 146.62C162.657 146.919 162.292 147.073 161.922 147.073ZM169.85 153.937C169.545 153.937 169.238 153.828 168.992 153.617L167.013 151.903C166.465 151.426 166.404 150.6 166.88 150.051C167.352 149.505 168.177 149.444 168.729 149.919L170.709 151.635C171.257 152.107 171.312 152.936 170.844 153.482C170.581 153.785 170.215 153.937 169.85 153.937ZM177.775 160.798C177.469 160.798 177.164 160.699 176.92 160.481L174.936 158.767C174.392 158.288 174.329 157.461 174.806 156.917C175.278 156.362 176.104 156.306 176.652 156.787L178.634 158.499C179.181 158.973 179.242 159.8 178.765 160.348C178.506 160.646 178.145 160.798 177.775 160.798ZM185.705 167.666C185.398 167.666 185.096 167.56 184.846 167.343L182.862 165.628C182.318 165.154 182.259 164.329 182.729 163.781C183.205 163.233 184.03 163.176 184.583 163.649L186.558 165.361C187.11 165.837 187.169 166.668 186.695 167.212C186.438 167.512 186.068 167.666 185.705 167.666ZM193.633 174.53C193.321 174.53 193.021 174.422 192.771 174.209L190.789 172.492C190.237 172.02 190.187 171.193 190.654 170.647C191.135 170.094 191.96 170.04 192.504 170.51L194.488 172.227C195.036 172.703 195.095 173.53 194.618 174.073C194.364 174.378 193.994 174.53 193.633 174.53ZM201.558 181.392C201.251 181.392 200.944 181.288 200.694 181.072L198.714 179.358C198.166 178.882 198.112 178.055 198.582 177.508C199.059 176.96 199.883 176.902 200.427 177.376L202.411 179.095C202.959 179.565 203.018 180.391 202.548 180.939C202.289 181.24 201.919 181.392 201.558 181.392ZM209.481 188.258C209.181 188.258 208.875 188.154 208.629 187.938L206.645 186.22C206.096 185.748 206.035 184.919 206.512 184.372C206.984 183.822 207.813 183.766 208.361 184.24L210.341 185.959C210.893 186.429 210.943 187.259 210.475 187.805C210.212 188.101 209.851 188.258 209.481 188.258ZM217.407 195.122C217.104 195.122 216.798 195.018 216.552 194.802L214.572 193.086C214.02 192.614 213.961 191.785 214.437 191.236C214.907 190.69 215.736 190.632 216.284 191.104L218.268 192.82C218.812 193.295 218.873 194.123 218.401 194.667C218.138 194.97 217.777 195.122 217.407 195.122ZM225.33 201.988C225.03 201.988 224.723 201.879 224.477 201.666L222.497 199.95C221.949 199.477 221.889 198.651 222.365 198.102C222.833 197.554 223.662 197.496 224.21 197.97L226.194 199.684C226.742 200.158 226.797 200.985 226.325 201.533C226.066 201.836 225.7 201.988 225.33 201.988ZM233.26 208.849C232.953 208.849 232.657 208.745 232.401 208.532L230.421 206.818C229.872 206.339 229.814 205.514 230.29 204.966C230.76 204.418 231.589 204.362 232.137 204.836L234.117 206.55C234.666 207.022 234.726 207.849 234.25 208.399C233.995 208.697 233.626 208.849 233.26 208.849ZM241.188 215.713C240.883 215.713 240.576 215.611 240.331 215.396L238.347 213.679C237.798 213.205 237.741 212.374 238.213 211.83C238.69 211.282 239.519 211.223 240.063 211.697L242.043 213.412C242.591 213.888 242.654 214.715 242.175 215.263C241.918 215.561 241.553 215.713 241.188 215.713ZM249.113 222.581C248.806 222.581 248.506 222.473 248.254 222.255L246.27 220.543C245.722 220.071 245.672 219.238 246.139 218.694C246.616 218.146 247.442 218.087 247.986 218.559L249.972 220.276C250.518 220.752 250.58 221.579 250.103 222.122C249.849 222.425 249.478 222.581 249.113 222.581ZM257.043 229.445C256.736 229.445 256.429 229.339 256.184 229.121L254.199 227.409C253.651 226.933 253.597 226.106 254.067 225.557C254.543 225.009 255.372 224.949 255.912 225.425L257.9 227.142C258.449 227.618 258.503 228.442 258.033 228.99C257.772 229.291 257.406 229.445 257.043 229.445ZM264.966 236.307C264.664 236.307 264.359 236.205 264.114 235.987L262.127 234.271C261.579 233.801 261.516 232.967 261.996 232.419C262.464 231.875 263.298 231.817 263.844 232.287L265.826 234.003C266.374 234.48 266.428 235.308 265.956 235.856C265.697 236.154 265.336 236.307 264.966 236.307ZM272.892 243.173C272.589 243.173 272.278 243.066 272.032 242.851L270.053 241.135C269.505 240.663 269.446 239.833 269.92 239.285C270.396 238.737 271.221 238.683 271.769 239.15L273.753 240.871C274.297 241.341 274.358 242.174 273.886 242.718C273.623 243.02 273.261 243.173 272.892 243.173ZM280.815 250.037C280.515 250.037 280.204 249.93 279.962 249.717L277.982 248.001C277.434 247.529 277.369 246.699 277.85 246.151C278.318 245.603 279.146 245.54 279.694 246.016L281.674 247.733C282.223 248.209 282.281 249.038 281.809 249.582C281.55 249.882 281.185 250.037 280.815 250.037ZM288.745 256.903C288.438 256.903 288.136 256.796 287.886 256.583L285.906 254.862C285.357 254.39 285.299 253.563 285.771 253.019C286.249 252.471 287.074 252.406 287.622 252.882L289.602 254.599C290.15 255.071 290.211 255.9 289.734 256.448C289.48 256.744 289.111 256.903 288.745 256.903ZM296.673 263.764C296.368 263.764 296.061 263.658 295.815 263.447L293.831 261.73C293.283 261.254 293.226 260.425 293.698 259.881C294.175 259.329 295.004 259.274 295.548 259.748L297.527 261.46C298.075 261.932 298.139 262.766 297.658 263.31C297.403 263.612 297.038 263.764 296.673 263.764ZM304.598 270.626C304.291 270.626 303.991 270.524 303.738 270.308L301.754 268.592C301.206 268.12 301.152 267.291 301.624 266.743C302.098 266.195 302.927 266.14 303.471 266.612L305.455 268.324C305.999 268.803 306.064 269.628 305.588 270.176C305.333 270.473 304.963 270.626 304.598 270.626ZM312.525 277.494C312.221 277.494 311.914 277.387 311.669 277.17L309.689 275.458C309.14 274.982 309.075 274.152 309.552 273.609C310.024 273.058 310.857 273.002 311.405 273.478L313.385 275.19C313.933 275.667 313.987 276.496 313.517 277.039C313.256 277.335 312.891 277.494 312.525 277.494ZM320.447 284.356C320.148 284.356 319.84 284.253 319.592 284.036L317.612 282.32C317.064 281.845 317.001 281.02 317.481 280.472C317.949 279.924 318.78 279.868 319.324 280.34L321.31 282.056C321.856 282.528 321.913 283.357 321.441 283.905C321.182 284.203 320.821 284.356 320.447 284.356Z" fill="white"/>
<path d="M320.519 5.24186C305.958 5.24186 292.416 13.08 285.176 25.6921C279.763 35.1227 278.342 46.0916 281.186 56.5932C284.025 67.09 290.78 75.8508 300.209 81.2637C306.379 84.8053 313.373 86.674 320.439 86.674V89.2956L320.498 86.674C335.035 86.6568 348.556 78.8207 355.782 66.2306C361.195 56.7979 362.616 45.8285 359.777 35.3295C356.938 24.8347 350.178 16.0718 340.75 10.6548C334.584 7.11473 327.585 5.24186 320.519 5.24186ZM320.439 91.9193C312.464 91.9193 304.56 89.8068 297.6 85.8104C286.955 79.7036 279.328 69.8093 276.13 57.9617C272.921 46.1115 274.518 33.726 280.633 23.0814C288.804 8.84663 304.088 0.000732422 320.519 0.000732422C328.504 0.000732422 336.403 2.11535 343.358 6.10755C354.003 12.2232 361.633 22.1129 364.837 33.961C368.042 45.8071 366.439 58.1987 360.325 68.8434C352.171 83.0562 336.912 91.8979 320.506 91.9193H320.439Z" fill="white"/>
<path d="M320.475 27.7027C313.944 27.7027 307.868 31.2098 304.63 36.8577C299.62 45.5772 302.642 56.7398 311.362 61.7455C314.161 63.3578 317.203 64.1713 320.394 64.1713V64.8239L320.425 64.1713C326.951 64.1603 333.015 60.6516 336.247 55.01C341.253 46.2931 338.236 35.1258 329.521 30.1175C326.769 28.5407 323.636 27.7027 320.475 27.7027ZM320.394 65.4813C316.974 65.4813 313.711 64.6067 310.707 62.879C301.363 57.5141 298.13 45.549 303.491 36.205C306.967 30.1525 313.476 26.3911 320.475 26.3911C323.867 26.3911 327.219 27.2897 330.171 28.9819C339.515 34.3515 342.752 46.3192 337.386 55.6627C333.92 61.711 327.413 65.4724 320.425 65.4813H320.394Z" fill="white"/>
<path d="M46.8285 5.24112C32.2721 5.24112 18.7208 13.0793 11.4851 25.6913C0.308945 45.1578 7.0491 70.0895 26.5177 81.263C32.6835 84.8046 39.6774 86.6733 46.7439 86.6733V89.2949L46.8071 86.6733C61.3395 86.6561 74.8605 78.82 82.0831 66.2299C87.5044 56.7971 88.9209 45.8277 86.0774 35.3288C83.2428 24.834 76.4875 16.0711 67.0547 10.654C60.8889 7.114 53.8992 5.24112 46.8285 5.24112ZM46.7439 91.9186C38.7684 91.9186 30.8691 89.8061 23.905 85.8097C1.93642 73.194 -5.67778 45.0555 6.93789 23.0807C15.1092 8.8459 30.3966 0 46.8285 0C54.8087 0 62.708 2.11462 69.6633 6.10681C80.3121 12.2225 87.9378 22.1121 91.1421 33.9603C94.3511 45.8063 92.7434 58.198 86.6298 68.8426C78.4763 83.0555 63.2212 91.8972 46.8113 91.9186H46.7439Z" fill="white"/>
<path d="M46.8111 27.7027C40.2757 27.7027 34.2038 31.2098 30.9666 36.8577C25.961 45.5772 28.9784 56.7398 37.6979 61.7455C40.5064 63.3578 43.5478 64.1713 46.7307 64.1713V64.8239L46.761 64.1713C53.2876 64.1603 59.3511 60.6516 62.5836 55.01C67.5939 46.2931 64.5724 35.1258 55.857 30.1175C53.1049 28.5407 49.9768 27.7027 46.8111 27.7027ZM46.7307 65.4813C43.315 65.4813 40.0517 64.6067 37.0473 62.879C27.6992 57.5141 24.462 45.549 29.831 36.205C33.3079 30.1525 39.8125 26.3911 46.8111 26.3911C50.2029 26.3911 53.5555 27.2897 56.5076 28.9819C65.8516 34.3515 69.0888 46.3192 63.7218 55.6627C60.2559 61.711 53.7534 65.4724 46.761 65.4813H46.7307Z" fill="white"/>
<path opacity="0.2" d="M320.519 242.216C305.958 242.216 292.416 250.052 285.176 262.661C279.767 272.09 278.342 283.065 281.186 293.562C284.025 304.057 290.78 312.818 300.209 318.235C306.383 321.774 313.377 323.65 320.439 323.65V326.267L320.498 323.65C335.035 323.628 348.556 315.788 355.782 303.202C361.195 293.773 362.616 282.798 359.777 272.299C356.938 261.804 350.178 253.043 340.75 247.624C334.584 244.088 327.585 242.216 320.519 242.216ZM320.439 328.889C312.464 328.889 304.568 326.776 297.6 322.782C286.955 316.669 279.328 306.781 276.13 294.929C272.921 283.083 274.518 270.698 280.633 260.053C288.804 245.814 304.088 236.972 320.519 236.972C328.504 236.972 336.398 239.085 343.358 243.077C354.003 249.192 361.633 259.085 364.837 270.93C368.042 282.778 366.439 295.168 360.325 305.806C352.171 320.021 336.912 328.863 320.506 328.888H320.439V328.889Z" fill="white"/>
<path opacity="0.2" d="M320.471 264.857C313.944 264.857 307.868 268.362 304.63 274.009C299.629 282.724 302.642 293.891 311.362 298.899C314.166 300.507 317.207 301.327 320.394 301.327V301.98L320.425 301.327C326.947 301.314 333.015 297.805 336.247 292.162C338.673 287.946 339.306 283.034 338.031 278.325C336.756 273.622 333.733 269.697 329.521 267.274C326.769 265.69 323.632 264.857 320.471 264.857ZM320.394 302.635C316.975 302.635 313.717 301.76 310.707 300.035C301.367 294.672 298.128 282.698 303.491 273.354C306.967 267.304 313.472 263.542 320.471 263.542C323.867 263.542 327.219 264.441 330.171 266.14C339.515 271.503 342.752 283.473 337.386 292.817C333.92 298.862 327.412 302.626 320.425 302.635H320.394Z" fill="white"/>
<path opacity="0.2" d="M46.8285 242.216C32.2679 242.216 18.7208 250.052 11.4851 262.661C0.308945 282.128 7.05746 307.061 26.5177 318.235C32.6919 321.774 39.6821 323.65 46.7439 323.65V326.267L46.8071 323.65C61.3395 323.628 74.8605 315.788 82.0831 303.202C87.5044 293.773 88.9209 282.798 86.0774 272.299C83.2428 261.804 76.4875 253.043 67.0547 247.624C60.8889 244.088 53.8992 242.216 46.8285 242.216ZM46.7439 328.889C38.7684 328.889 30.8691 326.776 23.905 322.782C1.93642 310.166 -5.67778 282.025 6.93789 260.053C15.1092 245.814 30.3966 236.972 46.8285 236.972C54.8087 236.972 62.708 239.085 69.6633 243.077C80.3121 249.192 87.9378 259.085 91.1421 270.93C94.3511 282.778 92.7434 295.168 86.6298 305.806C78.4763 320.021 63.2212 328.863 46.8113 328.888H46.7439V328.889Z" fill="white"/>
<path opacity="0.2" d="M46.8061 264.857C40.2748 264.857 34.2029 268.362 30.9657 274.009C25.9643 282.724 28.9775 293.891 37.697 298.899C40.5076 300.507 43.5469 301.327 46.7298 301.327V301.98L46.7601 301.327C53.2825 301.314 59.3502 297.805 62.5827 292.162C65.0043 287.946 65.6418 283.034 64.3668 278.325C63.0918 273.622 60.0723 269.697 55.8561 267.274C53.104 265.69 49.967 264.857 46.8061 264.857ZM46.7298 302.635C43.3141 302.635 40.0576 301.76 37.0464 300.035C27.7024 294.672 24.4611 282.698 29.8301 273.354C33.307 267.304 39.8075 263.542 46.8061 263.542C50.202 263.542 53.5546 264.441 56.5067 266.14C65.8507 271.503 69.0879 283.473 63.7209 292.817C60.255 298.862 53.7525 302.626 46.7601 302.635H46.7298Z" fill="white"/>
</g>
<path d="M90.1365 82.5125L183.617 244.414L277.093 82.5125H90.1365ZM183.617 249.972C182.953 249.972 182.342 249.62 182.013 249.045L85.3261 81.5857C84.9956 81.0114 84.9956 80.3039 85.3261 79.7343C85.6572 79.1599 86.266 78.8096 86.9275 78.8096H280.3C280.963 78.8096 281.575 79.1599 281.905 79.7343C282.238 80.3039 282.238 81.0114 281.905 81.5857L185.222 249.045C184.888 249.62 184.274 249.972 183.617 249.972Z" fill="white"/>
<path d="M90.1365 246.387H277.093L183.617 84.4814L90.1365 246.387ZM280.3 250.092H86.9275C86.266 250.092 85.6572 249.74 85.3261 249.165C84.9956 248.597 84.9956 247.89 85.3261 247.314L182.013 79.8522C182.673 78.7036 184.559 78.7036 185.222 79.8522L281.905 247.314C282.238 247.89 282.238 248.597 281.905 249.165C281.575 249.74 280.963 250.092 280.3 250.092Z" fill="white"/>
<path d="M277.298 84.2247C277.039 84.2247 276.78 84.1155 276.597 83.9046C276.26 83.5198 276.303 82.9324 276.691 82.5972L278.088 81.3832C278.475 81.0527 279.062 81.0919 279.397 81.4767C279.732 81.8662 279.686 82.4515 279.299 82.7841L277.901 83.9981C277.726 84.1505 277.511 84.2247 277.298 84.2247ZM271.694 89.0737C271.439 89.0737 271.178 88.9672 270.998 88.752C270.66 88.3667 270.704 87.7835 271.089 87.4467L272.492 86.2349C272.879 85.9017 273.46 85.9388 273.797 86.3283C274.128 86.7178 274.089 87.3005 273.704 87.6336L272.3 88.8455C272.126 88.9974 271.909 89.0737 271.694 89.0737ZM266.098 93.9211C265.837 93.9211 265.578 93.812 265.395 93.6031C265.06 93.2162 265.104 92.6288 265.489 92.2978L266.892 91.0839C267.28 90.7492 267.86 90.7925 268.195 91.1799C268.528 91.5647 268.489 92.15 268.102 92.4853L266.705 93.6966C266.527 93.8491 266.314 93.9211 266.098 93.9211ZM260.496 98.7722C260.237 98.7722 259.978 98.6636 259.8 98.4506C259.461 98.0652 259.506 97.4799 259.894 97.1452L261.292 95.9334C261.673 95.6003 262.26 95.6394 262.596 96.0289C262.931 96.4143 262.889 96.9991 262.502 97.3322L261.105 98.5461C260.927 98.696 260.714 98.7722 260.496 98.7722ZM254.896 103.622C254.637 103.622 254.379 103.513 254.196 103.3C253.865 102.915 253.902 102.329 254.29 101.994L255.69 100.782C256.078 100.448 256.66 100.491 256.996 100.876C257.331 101.263 257.29 101.849 256.902 102.181L255.499 103.395C255.325 103.545 255.11 103.622 254.896 103.622ZM249.296 108.471C249.037 108.471 248.783 108.362 248.596 108.151C248.263 107.762 248.302 107.178 248.69 106.844L250.091 105.634C250.478 105.297 251.063 105.336 251.396 105.727C251.731 106.113 251.69 106.696 251.302 107.033L249.904 108.245C249.729 108.395 249.514 108.471 249.296 108.471ZM243.701 113.318C243.438 113.318 243.181 113.209 242.994 113.002C242.663 112.613 242.707 112.028 243.092 111.695L244.491 110.481C244.878 110.146 245.463 110.19 245.796 110.574C246.135 110.96 246.087 111.547 245.703 111.882L244.304 113.096C244.129 113.246 243.912 113.318 243.701 113.318ZM238.095 118.169C237.84 118.169 237.577 118.061 237.399 117.85C237.063 117.462 237.105 116.879 237.492 116.542L238.891 115.33C239.276 114.997 239.864 115.037 240.198 115.424C240.536 115.811 240.492 116.396 240.105 116.729L238.704 117.943C238.525 118.096 238.312 118.169 238.095 118.169ZM232.495 123.019C232.241 123.019 231.982 122.91 231.799 122.699C231.464 122.314 231.505 121.729 231.892 121.391L233.293 120.179C233.676 119.847 234.264 119.888 234.598 120.273C234.93 120.66 234.892 121.246 234.505 121.581L233.104 122.792C232.928 122.945 232.713 123.019 232.495 123.019ZM226.899 127.868C226.641 127.868 226.382 127.759 226.199 127.548C225.862 127.161 225.905 126.576 226.292 126.241L227.693 125.031C228.081 124.698 228.664 124.735 228.999 125.125C229.334 125.512 229.293 126.095 228.905 126.43L227.506 127.642C227.328 127.794 227.117 127.868 226.899 127.868ZM221.299 132.717C221.041 132.717 220.78 132.608 220.601 132.397C220.262 132.012 220.31 131.425 220.695 131.092L222.094 129.878C222.481 129.545 223.062 129.585 223.399 129.974C223.734 130.359 223.691 130.946 223.305 131.279L221.907 132.491C221.728 132.643 221.515 132.717 221.299 132.717ZM215.7 137.568C215.438 137.568 215.18 137.46 214.997 137.245C214.666 136.859 214.705 136.276 215.091 135.939L216.494 134.728C216.881 134.397 217.466 134.436 217.797 134.823C218.134 135.21 218.091 135.793 217.703 136.126L216.303 137.34C216.128 137.49 215.911 137.568 215.7 137.568ZM210.098 142.416C209.839 142.416 209.584 142.307 209.397 142.096C209.066 141.709 209.103 141.124 209.491 140.79L210.894 139.577C211.279 139.244 211.867 139.285 212.197 139.673C212.532 140.057 212.491 140.643 212.104 140.978L210.707 142.192C210.533 142.342 210.315 142.416 210.098 142.416ZM204.502 147.265C204.239 147.265 203.985 147.156 203.802 146.945C203.464 146.558 203.508 145.973 203.895 145.64L205.292 144.428C205.679 144.093 206.262 144.132 206.597 144.522C206.937 144.907 206.891 145.492 206.504 145.827L205.105 147.041C204.931 147.191 204.716 147.265 204.502 147.265ZM198.898 152.114C198.644 152.114 198.381 152.005 198.202 151.796C197.865 151.41 197.908 150.822 198.295 150.489L199.692 149.275C200.08 148.94 200.665 148.984 201.002 149.369C201.333 149.756 201.293 150.343 200.908 150.676L199.505 151.89C199.327 152.04 199.114 152.114 198.898 152.114ZM193.298 156.965C193.042 156.965 192.783 156.857 192.6 156.644C192.265 156.256 192.308 155.673 192.693 155.339L194.096 154.127C194.484 153.791 195.065 153.833 195.4 154.22C195.733 154.608 195.694 155.19 195.306 155.525L193.905 156.737C193.731 156.887 193.518 156.965 193.298 156.965ZM187.7 161.813C187.442 161.813 187.183 161.704 187 161.495C186.665 161.108 186.706 160.521 187.098 160.188L188.497 158.976C188.878 158.639 189.465 158.68 189.8 159.07C190.137 159.454 190.094 160.04 189.706 160.377L188.31 161.589C188.131 161.741 187.918 161.813 187.7 161.813ZM182.101 166.664C181.842 166.664 181.583 166.555 181.4 166.342C181.069 165.957 181.106 165.372 181.494 165.037L182.891 163.825C183.278 163.492 183.865 163.531 184.2 163.919C184.535 164.306 184.494 164.889 184.107 165.224L182.706 166.436C182.529 166.588 182.314 166.664 182.101 166.664ZM176.501 171.514C176.242 171.514 175.987 171.405 175.801 171.191C175.467 170.807 175.507 170.221 175.894 169.886L177.295 168.672C177.682 168.342 178.268 168.381 178.6 168.768C178.935 169.155 178.894 169.74 178.507 170.074L177.104 171.285C176.934 171.437 176.714 171.514 176.501 171.514ZM170.906 176.363C170.642 176.363 170.386 176.254 170.199 176.041C169.868 175.654 169.907 175.07 170.296 174.736L171.695 173.524C172.082 173.189 172.668 173.23 173 173.617C173.336 174.005 173.292 174.587 172.907 174.923L171.508 176.134C171.334 176.287 171.117 176.363 170.906 176.363ZM165.301 181.21C165.045 181.21 164.782 181.101 164.603 180.892C164.268 180.505 164.309 179.918 164.696 179.587L166.095 178.371C166.481 178.038 167.063 178.079 167.403 178.467C167.736 178.852 167.692 179.439 167.305 179.772L165.908 180.986C165.73 181.138 165.517 181.21 165.301 181.21ZM159.699 186.061C159.445 186.061 159.186 185.952 159.003 185.739C158.668 185.354 158.709 184.769 159.097 184.436L160.497 183.222C160.885 182.889 161.468 182.928 161.803 183.316C162.134 183.703 162.097 184.288 161.709 184.621L160.308 185.835C160.135 185.985 159.917 186.061 159.699 186.061ZM154.104 190.911C153.845 190.911 153.586 190.802 153.403 190.591C153.066 190.204 153.109 189.618 153.497 189.283L154.898 188.071C155.281 187.737 155.868 187.78 156.203 188.165C156.534 188.552 156.497 189.137 156.11 189.471L154.711 190.685C154.532 190.834 154.321 190.911 154.104 190.911ZM148.504 195.76C148.245 195.76 147.986 195.651 147.804 195.44C147.466 195.051 147.51 194.467 147.897 194.135L149.298 192.923C149.685 192.588 150.271 192.627 150.603 193.016C150.938 193.404 150.895 193.984 150.51 194.322L149.107 195.534C148.932 195.684 148.715 195.76 148.504 195.76ZM142.904 200.607C142.643 200.607 142.384 200.498 142.202 200.289C141.871 199.902 141.91 199.317 142.295 198.982L143.694 197.77C144.085 197.435 144.667 197.476 145.001 197.864C145.339 198.249 145.295 198.836 144.908 199.171L143.507 200.383C143.333 200.535 143.115 200.607 142.904 200.607ZM137.302 205.461C137.043 205.461 136.789 205.35 136.602 205.137C136.271 204.751 136.308 204.169 136.695 203.831L138.098 202.619C138.484 202.286 139.071 202.325 139.401 202.713C139.739 203.1 139.695 203.686 139.308 204.018L137.911 205.23C137.737 205.382 137.52 205.461 137.302 205.461ZM131.702 210.308C131.444 210.308 131.185 210.199 131.002 209.988C130.667 209.601 130.713 209.015 131.1 208.68L132.496 207.468C132.884 207.134 133.471 207.175 133.802 207.562C134.141 207.949 134.096 208.535 133.708 208.87L132.309 210.082C132.131 210.234 131.92 210.308 131.702 210.308ZM126.102 215.157C125.848 215.157 125.585 215.046 125.406 214.839C125.069 214.45 125.113 213.864 125.5 213.532L126.896 212.318C127.284 211.985 127.864 212.024 128.206 212.411C128.537 212.799 128.5 213.384 128.108 213.717L126.71 214.933C126.531 215.085 126.32 215.157 126.102 215.157ZM120.502 220.008C120.248 220.008 119.987 219.898 119.804 219.684C119.469 219.301 119.513 218.716 119.898 218.381L121.301 217.165C121.688 216.836 122.269 216.873 122.607 217.263C122.937 217.65 122.898 218.235 122.513 218.566L121.11 219.778C120.936 219.93 120.718 220.008 120.502 220.008ZM114.905 224.855C114.646 224.855 114.387 224.749 114.205 224.534C113.869 224.15 113.911 223.563 114.298 223.228L115.701 222.016C116.086 221.681 116.67 221.725 117.004 222.11C117.337 222.497 117.298 223.085 116.911 223.415L115.514 224.631C115.336 224.78 115.122 224.855 114.905 224.855ZM109.305 229.705C109.046 229.705 108.787 229.598 108.605 229.385C108.27 228.998 108.311 228.413 108.698 228.082L110.097 226.865C110.482 226.531 111.07 226.576 111.404 226.964C111.74 227.346 111.698 227.932 111.307 228.267L109.91 229.479C109.736 229.631 109.518 229.705 109.305 229.705ZM103.706 234.552C103.447 234.552 103.188 234.445 103.005 234.234C102.672 233.847 102.711 233.259 103.098 232.929L104.499 231.717C104.887 231.382 105.474 231.421 105.805 231.811C106.14 232.194 106.099 232.781 105.711 233.116L104.308 234.328C104.134 234.48 103.919 234.552 103.706 234.552ZM98.1058 239.405C97.8468 239.405 97.5899 239.295 97.4051 239.081C97.072 238.694 97.1111 238.113 97.4985 237.778L98.8994 236.567C99.2868 236.231 99.8721 236.273 100.205 236.66C100.54 237.047 100.497 237.632 100.111 237.963L98.7125 239.175C98.5386 239.327 98.3209 239.405 98.1058 239.405ZM92.5059 244.252C92.2449 244.252 91.9859 244.142 91.8073 243.935C91.468 243.547 91.516 242.96 91.9008 242.625L93.2996 241.413C93.6828 241.078 94.2681 241.122 94.6028 241.507C94.9401 241.894 94.8968 242.477 94.5094 242.816L93.1127 244.028C92.9341 244.181 92.7211 244.252 92.5059 244.252ZM86.9035 249.102C86.6492 249.102 86.3861 248.995 86.2075 248.782C85.8723 248.395 85.9141 247.81 86.301 247.479L87.6998 246.263C88.0893 245.932 88.6725 245.969 89.0077 246.356C89.3403 246.743 89.3011 247.329 88.9137 247.664L87.5128 248.876C87.3343 249.028 87.1212 249.102 86.9035 249.102Z" fill="white"/>
<path d="M89.9327 84.2247C89.7149 84.2247 89.504 84.1505 89.3254 83.9981L87.9266 82.7841C87.5392 82.4515 87.5022 81.8662 87.8332 81.4767C88.1658 81.0919 88.7511 81.0527 89.1385 81.3832L90.5394 82.5972C90.9268 82.9324 90.9701 83.5198 90.6328 83.9046C90.4501 84.1155 90.1911 84.2247 89.9327 84.2247ZM95.5325 89.0737C95.321 89.0737 95.1038 88.9974 94.9294 88.8455L93.5307 87.6336C93.1411 87.3005 93.0978 86.7178 93.433 86.3283C93.7745 85.9388 94.3551 85.9017 94.7425 86.2349L96.1413 87.4467C96.5266 87.7835 96.57 88.3667 96.2327 88.752C96.052 88.9672 95.7909 89.0737 95.5325 89.0737ZM101.132 93.9211C100.921 93.9211 100.704 93.8491 100.529 93.6966L99.1284 92.4853C98.741 92.15 98.6976 91.5647 99.0349 91.1799C99.3654 90.7925 99.9507 90.7492 100.338 91.0839L101.741 92.2978C102.126 92.6288 102.166 93.2162 101.835 93.6031C101.652 93.812 101.393 93.9211 101.132 93.9211ZM106.734 98.7722C106.517 98.7722 106.299 98.696 106.125 98.5461L104.728 97.3322C104.341 96.9991 104.3 96.4143 104.635 96.0289C104.965 95.6394 105.553 95.6003 105.938 95.9334L107.341 97.1452C107.728 97.4799 107.765 98.0652 107.434 98.4506C107.247 98.6636 106.993 98.7722 106.734 98.7722ZM112.334 103.622C112.116 103.622 111.905 103.545 111.727 103.395L110.328 102.181C109.941 101.849 109.899 101.263 110.235 100.876C110.57 100.491 111.157 100.448 111.54 100.782L112.937 101.994C113.324 102.329 113.369 102.915 113.03 103.3C112.851 103.513 112.593 103.622 112.334 103.622ZM117.934 108.471C117.716 108.471 117.505 108.395 117.327 108.245L115.924 107.033C115.538 106.696 115.499 106.113 115.83 105.727C116.167 105.336 116.752 105.297 117.14 105.634L118.536 106.844C118.924 107.178 118.967 107.762 118.63 108.151C118.451 108.362 118.188 108.471 117.934 108.471ZM123.534 113.318C123.318 113.318 123.101 113.246 122.926 113.096L121.524 111.882C121.138 111.547 121.099 110.96 121.432 110.574C121.767 110.19 122.348 110.146 122.735 110.481L124.138 111.695C124.524 112.028 124.567 112.613 124.232 113.002C124.049 113.209 123.79 113.318 123.534 113.318ZM129.131 118.169C128.918 118.169 128.701 118.096 128.526 117.943L127.125 116.729C126.738 116.396 126.695 115.811 127.032 115.424C127.367 115.037 127.954 114.997 128.335 115.33L129.738 116.542C130.126 116.879 130.167 117.462 129.832 117.85C129.649 118.061 129.395 118.169 129.131 118.169ZM134.731 123.019C134.518 123.019 134.303 122.945 134.126 122.792L132.725 121.581C132.338 121.246 132.297 120.66 132.632 120.273C132.966 119.888 133.554 119.847 133.941 120.179L135.338 121.391C135.725 121.729 135.767 122.314 135.431 122.699C135.249 122.91 134.99 123.019 134.731 123.019ZM140.331 127.868C140.118 127.868 139.898 127.794 139.728 127.642L138.325 126.43C137.938 126.095 137.896 125.512 138.232 125.125C138.564 124.735 139.15 124.698 139.537 125.031L140.938 126.241C141.325 126.576 141.364 127.161 141.031 127.548C140.849 127.759 140.59 127.868 140.331 127.868ZM145.93 132.717C145.715 132.717 145.498 132.643 145.324 132.491L143.925 131.279C143.54 130.946 143.496 130.359 143.831 129.974C144.164 129.585 144.749 129.545 145.137 129.878L146.54 131.092C146.925 131.425 146.964 132.012 146.631 132.397C146.446 132.608 146.189 132.717 145.93 132.717ZM151.53 137.568C151.315 137.568 151.102 137.49 150.924 137.34L149.527 136.126C149.139 135.793 149.096 135.21 149.433 134.823C149.764 134.436 150.349 134.397 150.737 134.728L152.135 135.939C152.522 136.276 152.568 136.859 152.229 137.245C152.05 137.46 151.791 137.568 151.53 137.568ZM157.133 142.416C156.915 142.416 156.702 142.342 156.523 142.192L155.122 140.978C154.735 140.643 154.698 140.057 155.028 139.673C155.364 139.285 155.951 139.244 156.336 139.577L157.735 140.79C158.122 141.124 158.164 141.709 157.829 142.096C157.65 142.307 157.387 142.416 157.133 142.416ZM162.733 147.265C162.511 147.265 162.299 147.191 162.125 147.041L160.722 145.827C160.335 145.492 160.298 144.907 160.628 144.522C160.964 144.132 161.551 144.093 161.934 144.428L163.335 145.64C163.722 145.973 163.766 146.558 163.429 146.945C163.246 147.156 162.987 147.265 162.733 147.265ZM168.328 152.114C168.117 152.114 167.899 152.04 167.725 151.89L166.326 150.676C165.942 150.343 165.893 149.756 166.233 149.369C166.565 148.984 167.151 148.94 167.538 149.275L168.935 150.489C169.322 150.822 169.366 151.41 169.028 151.796C168.846 152.005 168.591 152.114 168.328 152.114ZM173.927 156.965C173.717 156.965 173.499 156.887 173.325 156.737L171.924 155.525C171.537 155.19 171.493 154.608 171.831 154.22C172.165 153.833 172.746 153.791 173.138 154.127L174.537 155.339C174.922 155.673 174.961 156.256 174.63 156.644C174.447 156.857 174.189 156.965 173.927 156.965ZM179.529 161.813C179.312 161.813 179.094 161.741 178.925 161.589L177.524 160.377C177.136 160.04 177.093 159.454 177.43 159.07C177.761 158.68 178.348 158.639 178.733 158.976L180.137 160.188C180.524 160.521 180.561 161.108 180.23 161.495C180.043 161.704 179.788 161.813 179.53 161.813H179.529ZM185.13 166.664C184.912 166.664 184.701 166.588 184.522 166.436L183.124 165.224C182.736 164.889 182.695 164.306 183.03 163.919C183.365 163.531 183.948 163.492 184.336 163.825L185.732 165.037C186.124 165.372 186.165 165.957 185.83 166.342C185.647 166.555 185.388 166.664 185.129 166.664H185.13ZM190.729 171.514C190.512 171.514 190.301 171.437 190.122 171.285L188.724 170.074C188.332 169.74 188.295 169.155 188.625 168.768C188.965 168.381 189.548 168.342 189.935 168.672L191.332 169.886C191.719 170.221 191.763 170.807 191.426 171.191C191.247 171.405 190.984 171.514 190.729 171.514ZM196.329 176.363C196.114 176.363 195.896 176.287 195.722 176.134L194.319 174.923C193.934 174.587 193.895 174.005 194.225 173.617C194.562 173.23 195.144 173.189 195.531 173.524L196.934 174.736C197.319 175.07 197.363 175.654 197.027 176.041C196.845 176.254 196.584 176.363 196.329 176.363ZM201.927 181.21C201.714 181.21 201.496 181.138 201.322 180.986L199.925 179.772C199.538 179.439 199.495 178.852 199.832 178.467C200.162 178.079 200.75 178.038 201.135 178.371L202.534 179.587C202.925 179.918 202.963 180.505 202.631 180.892C202.445 181.101 202.19 181.21 201.927 181.21ZM207.526 186.061C207.313 186.061 207.096 185.985 206.922 185.835L205.525 184.621C205.134 184.288 205.092 183.703 205.427 183.316C205.762 182.928 206.35 182.889 206.735 183.222L208.134 184.436C208.521 184.769 208.562 185.354 208.227 185.739C208.044 185.952 207.785 186.061 207.526 186.061ZM213.126 190.911C212.913 190.911 212.698 190.834 212.524 190.685L211.121 189.471C210.733 189.137 210.692 188.552 211.027 188.165C211.358 187.78 211.945 187.737 212.332 188.071L213.733 189.283C214.12 189.618 214.16 190.204 213.827 190.591C213.644 190.802 213.385 190.911 213.126 190.911ZM218.726 195.76C218.511 195.76 218.297 195.684 218.119 195.534L216.721 194.322C216.335 193.984 216.292 193.404 216.627 193.016C216.96 192.627 217.545 192.588 217.932 192.923L219.333 194.135C219.72 194.467 219.764 195.051 219.427 195.44C219.244 195.651 218.985 195.76 218.726 195.76ZM224.326 200.607C224.111 200.607 223.897 200.535 223.719 200.383L222.322 199.171C221.935 198.836 221.892 198.249 222.229 197.864C222.564 197.476 223.149 197.435 223.532 197.77L224.931 198.982C225.316 199.317 225.364 199.902 225.024 200.289C224.846 200.498 224.587 200.607 224.326 200.607ZM229.928 205.461C229.711 205.461 229.497 205.382 229.319 205.23L227.918 204.018C227.531 203.686 227.492 203.1 227.824 202.713C228.159 202.325 228.747 202.286 229.132 202.619L230.531 203.831C230.918 204.169 230.959 204.751 230.624 205.137C230.446 205.35 230.183 205.461 229.928 205.461ZM235.528 210.308C235.31 210.308 235.095 210.234 234.921 210.082L233.517 208.87C233.131 208.535 233.093 207.949 233.424 207.562C233.759 207.175 234.347 207.134 234.729 207.468L236.135 208.68C236.522 209.015 236.559 209.601 236.228 209.988C236.041 210.199 235.787 210.308 235.528 210.308ZM241.123 215.157C240.91 215.157 240.695 215.085 240.521 214.933L239.122 213.717C238.735 213.384 238.689 212.799 239.029 212.411C239.361 212.024 239.946 211.985 240.334 212.318L241.731 213.532C242.117 213.864 242.161 214.45 241.824 214.839C241.641 215.046 241.386 215.157 241.123 215.157ZM246.723 220.008C246.512 220.008 246.294 219.93 246.121 219.778L244.717 218.566C244.332 218.235 244.289 217.65 244.624 217.263C244.965 216.873 245.546 216.836 245.934 217.165L247.332 218.381C247.717 218.716 247.761 219.301 247.426 219.684C247.243 219.898 246.982 220.008 246.723 220.008ZM252.325 224.855C252.112 224.855 251.89 224.78 251.72 224.631L250.32 223.415C249.932 223.085 249.889 222.497 250.226 222.11C250.557 221.725 251.144 221.681 251.529 222.016L252.932 223.228C253.319 223.563 253.356 224.15 253.026 224.534C252.843 224.749 252.584 224.855 252.325 224.855ZM257.925 229.705C257.708 229.705 257.494 229.631 257.316 229.479L255.919 228.267C255.532 227.932 255.491 227.346 255.825 226.964C256.161 226.576 256.744 226.531 257.131 226.865L258.532 228.082C258.919 228.413 258.961 228.998 258.626 229.385C258.443 229.598 258.184 229.705 257.925 229.705ZM263.525 234.552C263.307 234.552 263.096 234.48 262.918 234.328L261.519 233.116C261.132 232.781 261.091 232.194 261.425 231.811C261.76 231.421 262.348 231.382 262.731 231.717L264.127 232.929C264.515 233.259 264.563 233.847 264.221 234.234C264.043 234.445 263.784 234.552 263.525 234.552ZM269.125 239.405C268.909 239.405 268.696 239.327 268.518 239.175L267.114 237.963C266.73 237.632 266.69 237.047 267.021 236.66C267.358 236.273 267.943 236.231 268.33 236.567L269.73 237.778C270.114 238.113 270.158 238.694 269.823 239.081C269.642 239.295 269.379 239.405 269.125 239.405ZM274.724 244.252C274.509 244.252 274.291 244.181 274.118 244.028L272.721 242.816C272.334 242.477 272.29 241.894 272.627 241.507C272.958 241.122 273.543 241.078 273.93 241.413L275.334 242.625C275.718 242.96 275.758 243.547 275.427 243.935C275.24 244.142 274.985 244.252 274.724 244.252ZM280.322 249.102C280.109 249.102 279.891 249.028 279.717 248.876L278.321 247.664C277.933 247.329 277.888 246.743 278.227 246.356C278.558 245.969 279.145 245.932 279.53 246.263L280.929 247.479C281.316 247.81 281.357 248.395 281.023 248.782C280.84 248.995 280.585 249.102 280.322 249.102Z" fill="white"/>
<path d="M280.443 51.9651C270.155 51.9651 260.591 57.5018 255.474 66.413C251.648 73.0743 250.649 80.8258 252.655 88.2421C254.659 95.6584 259.432 101.848 266.093 105.673C270.453 108.174 275.396 109.493 280.385 109.493V111.346L280.43 109.493C290.697 109.48 300.249 103.947 305.355 95.0517C309.18 88.3878 310.182 80.6389 308.177 73.2226C306.171 65.8057 301.396 59.6164 294.732 55.7897C290.377 53.2877 285.436 51.9651 280.443 51.9651ZM280.385 113.198C274.75 113.198 269.169 111.708 264.25 108.884C256.73 104.57 251.345 97.5799 249.08 89.2101C246.816 80.8368 247.945 72.0869 252.263 64.5683C258.037 54.5126 268.835 48.2622 280.443 48.2622C286.082 48.2622 291.665 49.755 296.577 52.5766C304.098 56.8972 309.491 63.8848 311.751 72.254C314.016 80.6237 312.884 89.3757 308.564 96.8964C302.801 106.939 292.025 113.185 280.434 113.198H280.385Z" fill="white"/>
<path d="M280.383 67.8067C275.769 67.8067 271.476 70.2847 269.19 74.2748C265.652 80.4338 267.784 88.32 273.946 91.8575C275.925 92.9952 278.073 93.5695 280.329 93.5695V94.0332L280.348 93.5695C284.96 93.5633 289.242 91.0831 291.528 87.0972C295.063 80.9382 292.932 73.0499 286.775 69.5125C284.828 68.3967 282.617 67.8067 280.383 67.8067ZM280.328 94.4963C277.909 94.4963 275.608 93.8765 273.482 92.6579C266.884 88.8683 264.597 80.414 268.387 73.8137C270.843 69.5365 275.442 66.8799 280.383 66.8799C282.78 66.8799 285.145 67.5132 287.231 68.7099C293.836 72.5016 296.121 80.958 292.331 87.5588C289.883 91.8314 285.287 94.49 280.348 94.4963H280.328Z" fill="white"/>
<path d="M87.0186 51.9651C76.7306 51.9651 67.1584 57.5018 62.0457 66.413C54.1527 80.1643 58.915 97.7777 72.6643 105.673C77.024 108.174 81.967 109.493 86.9554 109.493V111.346L87.0014 109.493C97.2675 109.48 106.82 103.947 111.922 95.0517C115.751 88.3878 116.754 80.6389 114.744 73.2226C112.742 65.8057 107.967 59.6164 101.303 55.7897C96.9479 53.2877 92.0112 51.9651 87.0186 51.9651ZM86.9554 113.198C81.3211 113.198 75.7406 111.708 70.8217 108.884C55.2993 99.9707 49.9193 80.0927 58.8346 64.5683C64.6083 54.5126 75.4054 48.2622 87.0186 48.2622C92.6534 48.2622 98.2355 49.755 103.148 52.5766C110.669 56.8972 116.058 63.8848 118.322 72.254C120.587 80.6237 119.456 89.3757 115.135 96.8964C109.372 106.939 98.5968 113.185 87.0014 113.198H86.9554Z" fill="white"/>
<path d="M86.9774 67.8067C82.3628 67.8067 78.0704 70.2847 75.784 74.2748C72.2466 80.4338 74.3789 88.32 80.54 91.8575C82.5194 92.9952 84.669 93.5695 86.9184 93.5695V94.0332L86.9424 93.5695C91.5543 93.5633 95.8358 91.0831 98.1227 87.0972C101.658 80.9382 99.5257 73.0499 93.3687 69.5125C91.4217 68.3967 89.2115 67.8067 86.9774 67.8067ZM86.9184 94.4963C84.5082 94.4963 82.202 93.8765 80.0806 92.6579C73.4736 88.8683 71.1872 80.414 74.9815 73.8137C77.4376 69.5365 82.0323 66.8799 86.9774 66.8799C89.3745 66.8799 91.7397 67.5132 93.8256 68.7099C100.431 72.5016 102.715 80.958 98.9252 87.5588C96.4733 91.8314 91.8807 94.49 86.9424 94.4963H86.9184Z" fill="white"/>
<path d="M280.443 219.525C270.155 219.525 260.591 225.062 255.474 233.973C251.652 240.63 250.649 248.386 252.655 255.8C254.659 263.214 259.432 269.406 266.093 273.23C270.457 275.732 275.4 277.053 280.385 277.053V278.906L280.43 277.053C290.697 277.04 300.249 271.505 305.355 262.612C309.18 255.948 310.182 248.194 308.177 240.78C306.171 233.364 301.396 227.174 294.732 223.35C290.377 220.85 285.436 219.525 280.443 219.525ZM280.385 280.758C274.75 280.758 269.174 279.268 264.25 276.441C256.73 272.125 251.345 265.139 249.08 256.768C246.816 248.397 247.945 239.649 252.263 232.128C258.037 222.071 268.835 215.822 280.443 215.822C286.082 215.822 291.66 217.315 296.577 220.137C304.098 224.455 309.491 231.445 311.751 239.814C314.016 248.181 312.884 256.934 308.564 264.45C302.801 274.492 292.025 280.738 280.434 280.758H280.385Z" fill="white"/>
<path d="M280.379 235.367C275.769 235.367 271.476 237.845 269.19 241.831C265.655 247.992 267.784 255.878 273.946 259.417C275.925 260.551 278.075 261.13 280.329 261.13V261.593L280.348 261.13C284.956 261.121 289.242 258.643 291.528 254.658C293.24 251.679 293.686 248.207 292.785 244.881C291.885 241.559 289.753 238.782 286.773 237.075C284.828 235.955 282.613 235.367 280.379 235.367ZM280.329 262.056C277.91 262.056 275.612 261.434 273.482 260.221C266.884 256.43 264.597 247.97 268.387 241.372C270.843 237.096 275.438 234.44 280.379 234.44C282.78 234.44 285.145 235.073 287.232 236.272C293.837 240.062 296.121 248.518 292.331 255.117C289.884 259.391 285.287 262.048 280.348 262.056H280.329Z" fill="white"/>
<path d="M87.0144 219.525C76.7259 219.525 67.1579 225.062 62.0457 233.973C54.1527 247.722 58.9192 265.335 72.6643 273.23C77.0287 275.732 81.967 277.053 86.9554 277.053V278.906L87.0014 277.053C97.2675 277.04 106.82 271.505 111.922 262.612C115.751 255.948 116.754 248.194 114.744 240.78C112.742 233.364 107.967 227.174 101.303 223.35C96.9479 220.85 92.0112 219.525 87.0144 219.525ZM86.9554 280.758C81.3211 280.758 75.7406 279.268 70.8217 276.441C55.2993 267.531 49.9193 247.651 58.8346 232.128C64.6083 222.071 75.4054 215.822 87.0144 215.822C92.6534 215.822 98.2355 217.315 103.148 220.137C110.669 224.455 116.058 231.445 118.322 239.814C120.587 248.181 119.456 256.934 115.135 264.45C109.372 274.492 98.5968 280.738 87.0014 280.758H86.9554Z" fill="white"/>
<path d="M86.9716 235.367C82.3618 235.367 78.0694 237.845 75.783 241.831C72.2476 247.992 74.3779 255.878 80.539 259.417C82.5231 260.551 84.668 261.13 86.9174 261.13V261.593L86.9414 261.13C91.5491 261.121 95.8348 258.643 98.1217 254.658C99.8291 251.679 100.28 248.207 99.379 244.881C98.4783 241.559 96.3465 238.782 93.3656 237.075C91.4207 235.955 89.2064 235.367 86.9716 235.367ZM86.9174 262.056C84.5072 262.056 82.2051 261.434 80.0796 260.221C73.4772 256.43 71.1861 247.97 74.9805 241.372C77.4365 237.096 82.0313 234.44 86.9716 234.44C89.3734 234.44 91.7387 235.073 93.8246 236.272C100.43 240.062 102.714 248.518 98.9242 255.117C96.4723 259.391 91.8797 262.048 86.9414 262.056H86.9174Z" fill="white"/>
</svg>
