<svg width="400" height="400" viewBox="0 0 400 400" fill="none" xmlns="http://www.w3.org/2000/svg">
<g opacity="0.22">
<path d="M205.163 297.848C212.119 298.616 218.626 300.91 224.334 304.385L220.343 309.635C214.357 306.128 207.394 304.118 199.968 304.118C192.545 304.118 185.579 306.128 179.593 309.632L175.602 304.382C181.313 300.908 187.818 298.616 194.774 297.848L195.711 299.47C196.586 300.986 198.214 301.926 199.968 301.926C201.727 301.926 203.348 300.986 204.225 299.47L205.163 297.848ZM167.778 310.345L171.769 315.593C164.218 322.945 159.524 333.216 159.524 344.563C159.524 366.866 177.665 385.007 199.968 385.007C222.271 385.007 240.413 366.866 240.413 344.563C240.413 333.216 235.718 322.947 228.17 315.595L232.163 310.348C241.271 318.924 246.971 331.093 246.971 344.563C246.971 370.48 225.885 391.565 199.968 391.565C174.052 391.565 152.966 370.48 152.966 344.563C152.966 331.091 158.665 318.922 167.778 310.345Z" fill="#EBEBEC"/>
<path d="M78.6002 8.64588C79.7205 8.64588 80.8363 8.66902 81.9497 8.71532C82.8548 8.75235 83.5562 9.52087 83.5192 10.426C83.4798 11.3195 82.6858 11.9954 81.8317 11.9954H81.8085C80.7483 11.9491 79.6766 11.926 78.6002 11.926C77.6974 11.926 76.9613 11.1876 76.9613 10.2848C76.9613 9.37506 77.6974 8.64588 78.6002 8.64588ZM73.202 8.83106C74.0539 8.83106 74.7692 9.4908 74.8363 10.3542C74.8988 11.257 74.2205 12.044 73.3178 12.1112C72.2437 12.1876 71.1812 12.2825 70.1233 12.4052C70.0655 12.4098 70.0076 12.4121 69.952 12.4121C69.1094 12.4121 68.4011 11.7964 68.3039 10.9584C68.2066 10.0533 68.8548 9.24544 69.7506 9.14359C70.8525 9.01627 71.9659 8.92136 73.0817 8.83802L73.202 8.83106ZM91.6442 9.75931L91.9289 9.77782C92.128 9.81254 92.3294 9.84959 92.5285 9.88431V11.963L92.202 11.5487L91.8455 11.1713L90.6928 10.0649C90.9659 9.87043 91.297 9.75931 91.6442 9.75931ZM93.584 10.0834C94.1326 10.1922 94.6766 10.3056 95.2182 10.426C96.1002 10.6181 96.6604 11.4885 96.4683 12.3727C96.2993 13.1389 95.6233 13.6644 94.8687 13.6644C94.7553 13.6644 94.6372 13.6528 94.5215 13.6274C94.209 13.5579 93.8965 13.4908 93.584 13.4283V10.0834ZM90.0562 11L92.3224 13.1806C92.0053 13.1227 91.6882 13.0649 91.3687 13.0116C90.4798 12.8588 89.878 12.0139 90.0307 11.1158C90.0377 11.0764 90.0469 11.0371 90.0562 11ZM148.29 59.3288H151.772C152.054 60.0811 152.325 60.8427 152.589 61.6089C152.883 62.4677 152.42 63.3959 151.563 63.6899C151.39 63.7501 151.209 63.7802 151.033 63.7802C150.355 63.7802 149.716 63.3473 149.482 62.6644C149.135 61.6529 148.772 60.6482 148.38 59.6575C148.339 59.5487 148.309 59.4399 148.29 59.3288ZM153.605 69.9793C154.369 69.9793 155.052 70.5163 155.207 71.2987C155.431 72.3867 155.63 73.4862 155.802 74.5904C155.943 75.4862 155.327 76.3242 154.438 76.4654C154.357 76.477 154.276 76.4839 154.195 76.4839C153.376 76.4839 152.691 75.9121 152.563 75.1019C152.397 74.0441 152.204 72.9862 151.991 71.9445C151.813 71.0603 152.39 70.1945 153.278 70.0094L153.605 69.9793ZM154.336 96.0673L154.572 96.0788C155.471 96.2085 156.091 97.0395 155.964 97.9376C155.802 99.0441 155.623 100.146 155.417 101.239C155.267 102.028 154.582 102.574 153.809 102.574C153.709 102.574 153.607 102.565 153.503 102.546C152.612 102.382 152.024 101.523 152.197 100.632C152.39 99.5904 152.563 98.5325 152.716 97.477C152.832 96.6552 153.535 96.0673 154.336 96.0673Z" fill="#EBEBEC"/>
<path d="M92.5283 9.88447C92.8802 9.94928 93.2343 10.0164 93.5839 10.0835V13.4285C93.1649 13.3405 92.7436 13.2595 92.3223 13.1808L90.0561 11.0002C90.1533 10.6113 90.3848 10.2849 90.6926 10.065L91.8454 11.1715L92.2019 11.5488L92.5283 11.9632V9.88447Z" fill="#EBEBEC"/>
<path d="M60.2667 10.8657C61.0028 10.8657 61.6695 11.3657 61.8547 12.1111C62.0723 12.9907 61.5352 13.8773 60.6579 14.0949C59.6162 14.3495 58.5838 14.6319 57.5653 14.9328C57.4102 14.9768 57.2551 14.9976 57.1024 14.9976C56.3848 14.9976 55.7343 14.537 55.5283 13.8194C55.2736 12.956 55.7713 12.037 56.6347 11.7893C57.7042 11.4675 58.7806 11.1805 59.8709 10.912L60.2667 10.8657ZM105.501 13.4143C106.343 13.7245 107.179 14.0509 108.005 14.3888C108.845 14.7268 109.248 15.6875 108.91 16.5208C108.646 17.162 108.035 17.5486 107.392 17.5486C107.183 17.5486 106.975 17.5092 106.771 17.4259C105.778 17.0208 104.778 16.6365 103.767 16.2708C102.945 15.9814 102.505 15.0949 102.746 14.2685C102.827 14.2731 102.91 14.2754 102.996 14.2754C103.524 14.2754 104.019 14.1875 104.482 14.0115C104.862 13.868 105.202 13.6689 105.501 13.4143Z" fill="#EBEBEC"/>
<path d="M104.318 13.0879L104.873 13.1851C105.084 13.2615 105.292 13.3379 105.5 13.4143C105.202 13.6689 104.862 13.868 104.482 14.0115C104.019 14.1874 103.524 14.2754 102.996 14.2754C102.91 14.2754 102.827 14.2731 102.746 14.2684C102.753 14.2383 102.764 14.2082 102.774 14.1782C103.019 13.5045 103.644 13.0879 104.318 13.0879Z" fill="#EBEBEC"/>
<path d="M47.8686 15.088C48.4982 15.088 49.1001 15.4514 49.3686 16.0672C49.7321 16.8936 49.3617 17.8658 48.5307 18.2246C47.5492 18.6621 46.5908 19.1088 45.6302 19.5811C45.3964 19.6968 45.1487 19.7524 44.9056 19.7524C44.3015 19.7524 43.7228 19.4144 43.4381 18.8334C43.0353 18.0255 43.3686 17.0394 44.1811 16.6436C45.1788 16.1505 46.1858 15.6783 47.2089 15.2269C47.4288 15.132 47.6533 15.088 47.8686 15.088ZM116.234 18.551C116.51 18.551 116.785 18.6204 117.042 18.7709C118.015 19.3195 118.975 19.8889 119.922 20.4862C120.69 20.9653 120.922 21.9769 120.443 22.7454C120.13 23.2431 119.598 23.5163 119.054 23.5163C118.755 23.5163 118.454 23.4329 118.181 23.2639C117.278 22.6945 116.355 22.1505 115.422 21.6181C114.633 21.1713 114.357 20.1714 114.806 19.3843C115.107 18.8519 115.663 18.551 116.234 18.551ZM36.3871 21.3704C36.9195 21.3704 37.4404 21.6251 37.7575 22.0996C38.2575 22.8542 38.0538 23.8727 37.2969 24.3704C36.408 24.9607 35.5306 25.5765 34.6649 26.2038C34.3755 26.4121 34.0399 26.5116 33.7043 26.5116C33.195 26.5116 32.695 26.2801 32.3732 25.838C31.8431 25.1088 32.0029 24.0834 32.7367 23.5533C33.6348 22.8936 34.5492 22.2593 35.4867 21.6389C35.7621 21.4538 36.0746 21.3704 36.3871 21.3704ZM127.038 25.9676C127.403 25.9676 127.767 26.0903 128.075 26.338C128.445 26.6413 128.811 26.9468 129.172 27.257V31.3403C128.906 31.2825 128.651 31.1551 128.433 30.9607C127.633 30.2524 126.82 29.5533 125.994 28.875C125.297 28.2987 125.195 27.2663 125.769 26.5695C126.089 26.1714 126.563 25.9676 127.038 25.9676ZM130.57 28.4723C130.586 28.4862 130.602 28.5 130.616 28.5163C131.295 29.1158 131.352 30.1552 130.746 30.8334C130.69 30.8936 130.633 30.9515 130.57 31.0024V28.4723Z" fill="#EBEBEC"/>
<path d="M129.172 27.2571C129.642 27.6575 130.107 28.0626 130.57 28.4723V31.0024C130.269 31.2524 129.896 31.3774 129.524 31.3774C129.406 31.3774 129.288 31.3659 129.172 31.3404V27.2571Z" fill="#EBEBEC"/>
<path d="M26.1439 29.5069C26.5768 29.5069 27.0074 29.6805 27.3338 30.0277C27.9542 30.6851 27.9217 31.7222 27.262 32.3448C26.4889 33.074 25.725 33.8286 24.9773 34.5925C24.6578 34.9235 24.2319 35.0902 23.806 35.0902C23.394 35.0902 22.9796 34.9351 22.6601 34.6249C22.012 33.9907 22.0004 32.9536 22.6277 32.3055C23.4078 31.5069 24.2018 30.7245 25.0143 29.956C25.3292 29.662 25.7389 29.5069 26.1439 29.5069ZM136.417 35.0972C136.878 35.0972 137.334 35.2893 137.66 35.6666C138.392 36.5069 139.1 37.3657 139.799 38.243C140.362 38.9513 140.241 39.9837 139.538 40.5485C139.237 40.787 138.878 40.9027 138.521 40.9027C138.035 40.9027 137.556 40.6874 137.232 40.28C136.565 39.4467 135.88 38.6203 135.181 37.8124C134.586 37.1273 134.663 36.0972 135.348 35.5023C135.656 35.2337 136.04 35.0972 136.417 35.0972ZM17.4148 39.2731C17.7551 39.2731 18.1 39.3819 18.394 39.5995C19.1162 40.1435 19.2643 41.1735 18.7227 41.9004C18.0791 42.7499 17.4541 43.6226 16.8453 44.5046C16.5259 44.9652 16.012 45.2152 15.4889 45.2152C15.1694 45.2152 14.8476 45.1203 14.5652 44.9259C13.8199 44.4166 13.6301 43.3912 14.1416 42.6481C14.7736 41.7268 15.431 40.824 16.1023 39.9259C16.4217 39.4976 16.9148 39.2731 17.4148 39.2731ZM144.121 45.6828C144.681 45.6828 145.218 45.9652 145.531 46.4768C146.1 47.4236 146.658 48.3911 147.197 49.3703C147.632 50.1666 147.343 51.1597 146.549 51.5926C146.299 51.7314 146.026 51.7963 145.76 51.7963C145.181 51.7963 144.619 51.4907 144.32 50.9537C143.808 50.0138 143.269 49.0833 142.72 48.1689C142.253 47.3935 142.501 46.3865 143.276 45.9189C143.538 45.7615 143.834 45.6828 144.121 45.6828ZM10.4587 50.3773C10.7111 50.3773 10.9657 50.4352 11.2041 50.5555C12.0097 50.9676 12.3291 51.9583 11.9194 52.7661C11.4333 53.7198 10.9588 54.6805 10.512 55.6597C10.2412 56.2569 9.6532 56.6134 9.03283 56.6134C8.80135 56.6134 8.56756 56.5648 8.34071 56.4606C7.51432 56.0833 7.1555 55.1111 7.53513 54.2893C8.00273 53.2708 8.49577 52.2661 9.0004 51.2754C9.28744 50.7013 9.86384 50.3773 10.4587 50.3773ZM5.512 62.5115L5.9958 62.5879C6.86154 62.8565 7.34301 63.7801 7.07218 64.6435C6.75968 65.6551 6.46569 66.6874 6.18791 67.7175C5.99578 68.456 5.32913 68.9444 4.6046 68.9444C4.46802 68.9444 4.32913 68.9282 4.19024 68.8912C3.31293 68.6597 2.78975 67.7639 3.01892 66.8865C3.30596 65.8032 3.61383 64.7268 3.94716 63.6643C4.16475 62.9652 4.81293 62.5115 5.512 62.5115ZM2.71568 75.3055L2.92867 75.3194C3.82682 75.4329 4.45876 76.2546 4.34534 77.1574C4.20876 78.2129 4.09533 79.2754 4.00505 80.3449C3.92866 81.1828 3.26663 81.8495 2.42866 81.8495C2.36385 81.8495 2.29902 81.8449 2.23189 81.8379C1.32911 81.7592 0.655524 80.9676 0.738857 80.0648C0.83608 78.9444 0.951804 77.8356 1.09069 76.7361C1.19949 75.9074 1.9055 75.3055 2.71568 75.3055ZM2.08375 88.3889H2.15319C3.03051 88.3889 3.75734 89.0741 3.79207 89.956C3.83836 91.0324 3.91015 92.1018 3.99117 93.1597C4.06756 94.0625 3.40318 94.8565 2.5004 94.9328C2.44716 94.9375 2.39392 94.9398 2.34068 94.9398C1.5166 94.9398 0.799031 94.2847 0.727272 93.4329C0.636994 92.3333 0.567561 91.2176 0.51432 90.0995C0.477283 89.1875 1.18097 88.4259 2.08375 88.3889ZM3.81986 101.375C4.57449 101.375 5.25272 101.9 5.41939 102.669C5.64393 103.72 5.89624 104.757 6.16244 105.787C6.39161 106.664 5.86848 107.56 4.99811 107.792C4.85691 107.826 4.71802 107.845 4.57913 107.845C3.85228 107.845 3.18562 107.356 2.99349 106.62C2.71339 105.544 2.44949 104.461 2.21338 103.366C2.02125 102.477 2.58373 101.606 3.46799 101.414L3.81986 101.375ZM150.325 109.201L152.343 112.699C152.172 113.181 151.998 113.662 151.82 114.144C151.57 114.806 150.947 115.208 150.283 115.208C150.091 115.208 149.896 115.174 149.707 115.104C148.859 114.785 148.433 113.836 148.744 112.993C149.126 111.986 149.475 110.975 149.815 109.956C149.915 109.65 150.093 109.394 150.325 109.201ZM7.68098 113.887C8.32681 113.887 8.94256 114.271 9.20414 114.912C9.60229 115.9 10.0259 116.877 10.4726 117.845C10.843 118.671 10.4865 119.646 9.66013 120.023C9.44023 120.123 9.20875 120.171 8.9819 120.171C8.36152 120.171 7.76429 119.815 7.48883 119.208C7.02818 118.204 6.58605 117.178 6.16244 116.148C5.82216 115.31 6.22726 114.35 7.06522 114.009L7.68098 113.887ZM146.248 120.894C146.512 120.894 146.774 120.951 147.017 121.086C147.818 121.507 148.119 122.5 147.695 123.301C147.172 124.289 146.626 125.266 146.063 126.227C145.757 126.748 145.209 127.039 144.646 127.039C144.362 127.039 144.077 126.965 143.815 126.81C143.035 126.35 142.776 125.352 143.232 124.569C143.776 123.646 144.297 122.713 144.801 121.764C145.095 121.206 145.658 120.894 146.248 120.894ZM13.63 125.544C14.174 125.544 14.7111 125.813 15.0189 126.313C15.5884 127.22 16.1717 128.111 16.7805 128.995C17.2852 129.743 17.1 130.759 16.3523 131.273C16.0699 131.468 15.7481 131.56 15.431 131.56C14.9079 131.56 14.3916 131.308 14.0722 130.845C13.4449 129.928 12.8361 128.995 12.2412 128.046C11.7597 127.278 11.9958 126.273 12.7643 125.792C13.0351 125.62 13.3337 125.544 13.63 125.544ZM139.146 131.903C139.491 131.903 139.845 132.009 140.146 132.241C140.862 132.796 140.991 133.829 140.44 134.546C139.755 135.424 139.056 136.294 138.332 137.146C138.01 137.532 137.547 137.731 137.082 137.731C136.709 137.731 136.332 137.604 136.021 137.345C135.332 136.762 135.246 135.725 135.829 135.032C136.521 134.213 137.193 133.38 137.845 132.535C138.167 132.118 138.653 131.903 139.146 131.903ZM21.4796 136.019C21.9287 136.019 22.3778 136.197 22.7041 136.563C23.4148 137.363 24.144 138.146 24.8893 138.914C25.5213 139.565 25.5028 140.602 24.8546 141.232C24.5352 141.542 24.1231 141.694 23.7111 141.694C23.2828 141.694 22.8569 141.53 22.5375 141.199C21.762 140.398 21.0004 139.579 20.2597 138.748C19.6555 138.074 19.7134 137.037 20.3847 136.435C20.6995 136.155 21.0907 136.019 21.4796 136.019ZM130.278 141.539C130.718 141.539 131.163 141.718 131.48 142.069C132.095 142.743 132.054 143.778 131.385 144.389C130.558 145.144 129.72 145.882 128.871 146.597C128.561 146.859 128.186 146.984 127.815 146.984C127.345 146.984 126.882 146.785 126.556 146.398C125.975 145.706 126.065 144.669 126.755 144.086C127.575 143.401 128.382 142.692 129.17 141.975C129.484 141.685 129.88 141.539 130.278 141.539ZM30.9958 145.016C31.3546 145.016 31.7134 145.137 32.0143 145.375C32.8546 146.039 33.7042 146.692 34.5676 147.322C35.3014 147.859 35.4588 148.884 34.9218 149.613C34.6 150.053 34.1023 150.287 33.5977 150.287C33.262 150.287 32.9264 150.185 32.6347 149.972C31.7342 149.313 30.843 148.634 29.9727 147.935C29.2597 147.373 29.1463 146.343 29.7088 145.637C30.0352 145.227 30.5097 145.016 30.9958 145.016ZM120.584 149.683C120.864 149.81 121.109 150.016 121.288 150.292C121.498 150.616 121.579 150.986 121.542 151.343L120.584 149.683ZM41.894 152.275C42.1625 152.275 42.4333 152.35 42.6833 152.482C43.6162 152.995 44.5722 153.495 45.5329 153.968C46.3384 154.366 46.6787 155.35 46.2759 156.164C45.9866 156.741 45.4056 157.074 44.7991 157.074C44.5583 157.074 44.3106 157.021 44.0792 156.907C43.0722 156.412 42.0815 155.896 41.1023 155.357C40.3083 154.921 40.019 153.924 40.4542 153.13C40.7551 152.583 41.3129 152.275 41.894 152.275ZM108.343 155.657C108.987 155.657 109.586 156.028 109.857 156.657C110.209 157.488 109.818 158.449 108.987 158.803C107.961 159.238 106.924 159.648 105.88 160.039C105.69 160.111 105.496 160.144 105.306 160.144C104.644 160.144 104.021 159.738 103.774 159.079C103.452 158.234 103.889 157.285 104.734 156.972C105.732 156.595 106.725 156.204 107.704 155.787C107.917 155.697 108.128 155.657 108.343 155.657ZM53.8824 157.579L54.4125 157.669C55.4264 158.009 56.4426 158.336 57.4819 158.641C58.3454 158.898 58.8477 159.808 58.5884 160.678C58.3801 161.387 57.7296 161.857 57.0213 161.857C56.8685 161.857 56.7111 161.833 56.5537 161.787C55.4773 161.465 54.4079 161.127 53.3569 160.769C52.4981 160.479 52.0375 159.546 52.3338 158.688C52.5629 158.009 53.2042 157.579 53.8824 157.579ZM96.1556 159.72C96.7945 159.822 97.3384 160.299 97.4982 160.968C97.6671 161.701 97.3153 162.438 96.6834 162.782L96.1556 159.72ZM66.6 160.732L66.8546 160.755C67.9079 160.924 68.9704 161.063 70.0329 161.185C70.9357 161.287 71.5838 162.1 71.475 163.002C71.3847 163.824 70.7018 164.461 69.8893 164.461C69.8153 164.461 69.7389 164.456 69.6602 164.444C68.5468 164.317 67.438 164.169 66.3454 163.988C65.4472 163.847 64.8384 163.009 64.9796 162.111C65.1093 161.308 65.806 160.732 66.6 160.732ZM82.9357 161.549C83.8014 161.549 84.5236 162.229 84.5769 163.1C84.6255 164.002 83.9333 164.778 83.0259 164.829C81.9171 164.894 80.8037 164.931 79.6833 164.945C79.6301 164.951 79.5792 164.956 79.5282 164.956C78.769 164.956 78.0352 164.176 78.0259 163.324C78.012 162.419 78.7343 161.678 79.6394 161.664C80.7134 161.651 81.7829 161.616 82.8477 161.556L82.9357 161.549Z" fill="#EBEBEC"/>
<path d="M78.6002 39.7988C81.9659 39.7988 85.2529 40.1529 88.4196 40.8288V41.6483H78.9659V42.9237H89.8039V41.1483C108.783 45.8057 123.274 62.0279 125.348 81.8821H118.748C116.313 61.889 99.2391 46.3566 78.6002 46.3566C56.2969 46.3566 38.1557 64.4955 38.1557 86.8011C38.1557 109.104 56.2969 127.246 78.6002 127.246C79.2599 127.246 79.9173 127.229 80.5701 127.197L81.6905 133.702C80.6696 133.769 79.6372 133.803 78.6002 133.803C52.6835 133.803 31.5978 112.718 31.5978 86.8011C31.5978 60.8867 52.6835 39.7988 78.6002 39.7988ZM118.748 91.7178H125.348C123.931 105.29 116.709 117.165 106.223 124.808L102.924 119.095C111.475 112.639 117.392 102.873 118.748 91.7178ZM94.415 124.026L97.7136 129.739C95.6766 130.648 93.5631 131.419 91.3872 132.035L90.2645 125.53C91.6835 125.104 93.0678 124.6 94.415 124.026Z" fill="#EBEBEC"/>
<path d="M88.4194 40.8287C88.8847 40.9282 89.3431 41.0347 89.8037 41.1481V42.9236H78.9657V41.6481H88.4194V40.8287Z" fill="#EBEBEC"/>
<path d="M321.336 8.64613C322.457 8.64613 323.57 8.66928 324.686 8.71557C325.586 8.75261 326.292 9.52113 326.255 10.4262C326.216 11.3197 325.403 11.9957 324.565 11.9957H324.545C323.48 11.9494 322.41 11.9262 321.336 11.9262C320.434 11.9262 319.697 11.1878 319.697 10.285C319.697 9.37532 320.434 8.64613 321.336 8.64613ZM315.936 8.83132C316.061 8.83132 316.184 8.84521 316.299 8.87067H315.373C315.519 8.8591 315.667 8.84754 315.815 8.83828L315.936 8.83132ZM312.619 9.12993L314.082 12.2758C313.672 12.3151 313.265 12.3568 312.857 12.4054C312.802 12.41 312.744 12.4123 312.686 12.4123C311.843 12.4123 311.133 11.7966 311.038 10.9587C310.943 10.0536 311.591 9.2457 312.487 9.14385C312.531 9.13922 312.575 9.13456 312.619 9.12993ZM317.311 9.58133C317.457 9.80587 317.549 10.0674 317.572 10.3545C317.633 11.2295 316.998 11.9957 316.137 12.1022L317.311 9.58133ZM314.07 9.82438H316.035L315.313 11.4401L315.181 11.8082L315.072 12.1855C315.063 12.1878 315.052 12.1878 315.042 12.1878L314.924 11.792L314.792 11.4401L314.07 9.82438ZM250.415 113.887C251.063 113.887 251.677 114.271 251.94 114.912C252.336 115.901 252.758 116.878 253.207 117.845C253.579 118.672 253.218 119.646 252.394 120.024C252.172 120.123 251.94 120.172 251.714 120.172C251.093 120.172 250.501 119.815 250.223 119.209C249.762 118.204 249.32 117.179 248.896 116.149C248.559 115.311 248.961 114.35 249.802 114.01L250.415 113.887ZM256.364 125.544C256.908 125.544 257.445 125.813 257.753 126.313C258.322 127.22 258.906 128.112 259.515 128.996C260.021 129.743 259.836 130.76 259.084 131.274C258.804 131.468 258.482 131.561 258.165 131.561C257.642 131.561 257.126 131.308 256.806 130.845C256.179 129.929 255.57 128.996 254.975 128.047C254.494 127.278 254.732 126.274 255.501 125.792C255.769 125.621 256.07 125.544 256.364 125.544ZM264.214 136.019C264.663 136.019 265.112 136.197 265.438 136.563C266.149 137.364 266.88 138.146 267.621 138.915C268.255 139.565 268.237 140.602 267.589 141.232C267.269 141.542 266.857 141.695 266.445 141.695C266.017 141.695 265.591 141.531 265.271 141.199C264.496 140.399 263.734 139.579 262.991 138.748C262.39 138.075 262.447 137.037 263.121 136.436C263.434 136.156 263.825 136.019 264.214 136.019ZM273.732 145.017C274.089 145.017 274.447 145.137 274.748 145.375C275.586 146.04 276.44 146.693 277.304 147.322C278.033 147.859 278.193 148.885 277.656 149.614C277.336 150.054 276.836 150.287 276.332 150.287C275.998 150.287 275.66 150.186 275.371 149.973C274.468 149.313 273.577 148.635 272.704 147.936C271.996 147.373 271.88 146.343 272.443 145.637C272.771 145.227 273.244 145.017 273.732 145.017ZM288.241 153.954C288.248 153.959 288.258 153.963 288.267 153.968C289.075 154.366 289.413 155.35 289.01 156.165C288.721 156.741 288.14 157.075 287.535 157.075C287.292 157.075 287.045 157.021 286.813 156.908C286.741 156.873 286.67 156.838 286.598 156.801L288.241 153.954ZM296.616 157.579L297.149 157.669C298.16 158.01 299.179 158.336 300.216 158.642C301.079 158.899 301.579 159.808 301.325 160.679C301.114 161.387 300.468 161.857 299.758 161.857C299.603 161.857 299.445 161.834 299.288 161.787C298.211 161.466 297.142 161.128 296.093 160.769C295.234 160.48 294.772 159.547 295.065 158.688C295.297 158.01 295.938 157.579 296.616 157.579Z" fill="#EBEBEC"/>
<path d="M315.373 8.87028H316.299C316.718 8.9675 317.082 9.22446 317.311 9.58094L316.137 12.1018C316.11 12.1064 316.082 12.1087 316.052 12.111C315.725 12.1342 315.399 12.1596 315.072 12.1851L315.181 11.8078L315.313 11.4397L316.035 9.82399H314.07L314.792 11.4397L314.924 11.7916L315.042 12.1874C314.721 12.2152 314.401 12.243 314.082 12.2754L312.619 9.12953C313.531 9.02537 314.452 8.94203 315.373 8.87028Z" fill="#EBEBEC"/>
<path d="M334.378 9.75937L334.66 9.77788C335.762 9.97232 336.864 10.183 337.952 10.426C338.836 10.6182 339.394 11.4885 339.202 12.3728C339.035 13.139 338.359 13.6645 337.603 13.6645C337.489 13.6645 337.371 13.6529 337.253 13.6274C336.211 13.396 335.16 13.1899 334.105 13.0117C333.214 12.8589 332.614 12.014 332.767 11.1159C332.908 10.3219 333.598 9.75937 334.378 9.75937ZM302.519 10.933C302.343 11.0325 302.197 11.1645 302.084 11.3265C301.913 11.5765 301.825 11.8913 301.825 12.2686C301.825 12.5834 301.885 12.8728 302.008 13.1321C302.128 13.3913 302.297 13.6043 302.515 13.7617C302.686 13.889 302.894 13.9793 303.135 14.0348C303.221 14.0534 303.325 14.0696 303.443 14.0811C303.427 14.0858 303.41 14.0904 303.394 14.095C302.348 14.3497 301.318 14.6321 300.299 14.933C300.144 14.977 299.989 14.9978 299.836 14.9978C299.119 14.9978 298.468 14.5371 298.262 13.8196C298.008 12.9561 298.508 12.0371 299.371 11.7895C300.413 11.477 301.459 11.1969 302.519 10.933ZM303.94 11.1645C304.253 11.382 304.491 11.7108 304.591 12.1112C304.681 12.477 304.642 12.8427 304.501 13.1622H304.48C303.896 13.1622 303.501 13.0858 303.292 12.926C303.084 12.7709 302.98 12.5024 302.98 12.1135C302.98 11.7594 303.093 11.5071 303.318 11.3566C303.461 11.264 303.67 11.1992 303.94 11.1645Z" fill="#EBEBEC"/>
<path d="M303.003 10.8658C303.343 10.8658 303.67 10.9745 303.941 11.1644C303.67 11.1991 303.461 11.2639 303.318 11.3565C303.093 11.507 302.98 11.7593 302.98 12.1134C302.98 12.5023 303.084 12.7708 303.292 12.9259C303.501 13.0857 303.897 13.1621 304.48 13.1621H304.501C304.311 13.5973 303.934 13.9445 303.443 14.0811C303.325 14.0695 303.221 14.0533 303.135 14.0347C302.894 13.9792 302.686 13.8889 302.515 13.7616C302.297 13.6042 302.128 13.3912 302.008 13.132C301.885 12.8727 301.825 12.5834 301.825 12.2685C301.825 11.8912 301.913 11.5764 302.084 11.3264C302.197 11.1644 302.343 11.0324 302.519 10.9329C302.547 10.926 302.575 10.919 302.605 10.9121L303.003 10.8658Z" fill="#EBEBEC"/>
<path d="M347.052 13.0881L347.61 13.1853C348.66 13.5649 349.709 13.9654 350.741 14.389C351.579 14.727 351.985 15.6877 351.644 16.521C351.383 17.1622 350.772 17.5488 350.126 17.5488C349.92 17.5488 349.709 17.5094 349.505 17.4261C348.512 17.021 347.512 16.6367 346.503 16.271C345.649 15.9724 345.209 15.0279 345.51 14.1784C345.753 13.5048 346.38 13.0881 347.052 13.0881ZM290.605 15.0881C291.232 15.0881 291.834 15.4515 292.103 16.0673C292.466 16.8937 292.096 17.8659 291.265 18.2247C290.283 18.6622 289.325 19.1089 288.362 19.5812C288.128 19.6969 287.883 19.7525 287.64 19.7525C287.035 19.7525 286.457 19.4145 286.174 18.8335C285.769 18.0256 286.1 17.0395 286.915 16.6437C287.915 16.1506 288.92 15.6784 289.945 15.227C290.16 15.1321 290.387 15.0881 290.605 15.0881ZM358.968 18.5511C359.244 18.5511 359.522 18.6205 359.776 18.771C360.751 19.3196 361.711 19.889 362.658 20.4863C363.427 20.9654 363.658 21.977 363.179 22.7455C362.866 23.2432 362.336 23.5164 361.79 23.5164C361.494 23.5164 361.191 23.433 360.917 23.264C360.015 22.6946 359.091 22.1506 358.156 21.6182C357.369 21.1714 357.093 20.1714 357.542 19.3844C357.843 18.852 358.399 18.5511 358.968 18.5511ZM279.123 21.3705C279.653 21.3705 280.174 21.6252 280.494 22.0997C280.827 22.6043 280.846 23.227 280.596 23.7339C279.417 23.1344 278.047 22.8312 276.487 22.8242C277.056 22.4214 277.635 22.0279 278.221 21.639C278.494 21.4539 278.809 21.3705 279.123 21.3705ZM276.42 24.1252C277.598 24.1252 278.637 24.3173 279.542 24.6992C278.82 25.1876 278.105 25.6923 277.401 26.2039C277.109 26.4122 276.774 26.5117 276.438 26.5117C275.931 26.5117 275.429 26.2802 275.107 25.8381C274.758 25.3566 274.707 24.7478 274.924 24.2363C275.397 24.1622 275.894 24.1252 276.42 24.1252Z" fill="#EBEBEC"/>
<path d="M276.487 22.8242C278.047 22.8312 279.417 23.1344 280.596 23.734C280.473 23.984 280.283 24.2062 280.031 24.3705C279.869 24.4793 279.707 24.5881 279.542 24.6992C278.637 24.3173 277.598 24.1252 276.42 24.1252C275.894 24.1252 275.396 24.1622 274.924 24.2363C275.038 23.9724 275.221 23.734 275.473 23.5534C275.809 23.3057 276.146 23.0626 276.487 22.8242Z" fill="#EBEBEC"/>
<path d="M369.772 25.9676C370.137 25.9676 370.503 26.0903 370.811 26.338C371.674 27.0486 372.519 27.7709 373.353 28.5162C374.031 29.1158 374.089 30.1551 373.48 30.8334C373.158 31.1945 372.709 31.3774 372.258 31.3774C371.871 31.3774 371.48 31.2408 371.17 30.9607C370.367 30.2523 369.556 29.5533 368.73 28.875C368.031 28.2986 367.927 27.2663 368.503 26.5695C368.825 26.1713 369.299 25.9676 369.772 25.9676ZM269.429 29.6042C269.663 29.6898 269.883 29.831 270.07 30.0278C270.688 30.6852 270.656 31.7223 269.996 32.3449C269.681 32.6436 269.366 32.9445 269.056 33.25C269.054 33.1783 269.054 33.1088 269.054 33.0371C269.054 31.7616 269.179 30.6158 269.429 29.6042ZM267.862 29.8588C267.653 30.831 267.549 31.8912 267.549 33.0371C267.549 33.6042 267.575 34.1505 267.626 34.676C267.316 34.9514 266.927 35.0903 266.538 35.0903C266.126 35.0903 265.714 34.9352 265.394 34.625C264.748 33.9908 264.734 32.9537 265.359 32.3056C266.142 31.507 266.936 30.7246 267.751 29.9561C267.785 29.9213 267.822 29.8889 267.862 29.8588Z" fill="#EBEBEC"/>
<path d="M268.876 29.5068C269.063 29.5068 269.251 29.5392 269.429 29.604C269.179 30.6156 269.054 31.7614 269.054 33.0369C269.054 33.1086 269.054 33.1781 269.056 33.2498C268.603 33.692 268.153 34.141 267.711 34.5924C267.684 34.6202 267.653 34.648 267.626 34.6758C267.575 34.1503 267.549 33.604 267.549 33.0369C267.549 31.891 267.654 30.8309 267.862 29.8586C268.158 29.6271 268.519 29.5068 268.876 29.5068Z" fill="#EBEBEC"/>
<path d="M379.154 35.0973C379.614 35.0973 380.07 35.2894 380.397 35.6667C381.128 36.507 381.836 37.3658 382.535 38.2431C383.098 38.9515 382.975 39.9838 382.274 40.5486C381.975 40.7871 381.616 40.9028 381.26 40.9028C380.774 40.9028 380.292 40.6875 379.968 40.2801C379.302 39.4468 378.616 38.6204 377.917 37.8126C377.322 37.1274 377.399 36.0973 378.084 35.5024C378.392 35.2338 378.776 35.0973 379.154 35.0973ZM260.542 39.3218C260.748 39.3727 260.947 39.4653 261.128 39.5996C261.239 39.6806 261.334 39.7755 261.417 39.8774C261.436 40.3913 261.459 40.9005 261.494 41.4052H261.385L260.542 39.3218ZM259.216 39.5603L260.57 42.9237H260.697C260.318 43.4445 259.945 43.9723 259.579 44.5047C259.262 44.9653 258.746 45.2153 258.223 45.2153C257.903 45.2153 257.582 45.1204 257.299 44.926C256.556 44.4167 256.364 43.3913 256.876 42.6482C257.51 41.7269 258.163 40.8241 258.836 39.926C258.945 39.7801 259.072 39.6575 259.216 39.5603Z" fill="#EBEBEC"/>
<path d="M260.149 39.2731C260.281 39.2731 260.413 39.2893 260.542 39.3217L261.385 41.4051H261.494C261.459 40.9005 261.436 40.3912 261.417 39.8773C261.88 40.4491 261.917 41.2847 261.457 41.9004C261.202 42.2384 260.947 42.5787 260.697 42.9236H260.57L259.216 39.5602C259.491 39.3704 259.818 39.2731 260.149 39.2731Z" fill="#EBEBEC"/>
<path d="M386.857 45.6828C387.413 45.6828 387.952 45.9652 388.267 46.4768C388.836 47.4235 389.394 48.3911 389.929 49.3703C390.367 50.1666 390.08 51.1597 389.283 51.5925C389.033 51.7314 388.762 51.7962 388.494 51.7962C387.917 51.7962 387.357 51.4907 387.056 50.9537C386.542 50.0138 386.005 49.0833 385.455 48.1689C384.989 47.3935 385.237 46.3865 386.012 45.9189C386.274 45.7615 386.57 45.6828 386.857 45.6828ZM253.195 50.3772C253.445 50.3772 253.7 50.4351 253.938 50.5555C254.744 50.9675 255.063 51.9583 254.653 52.7661C254.167 53.7198 253.693 54.6805 253.246 55.6596C253.181 55.8055 253.096 55.9351 252.998 56.0509H250.524C250.112 55.581 249.991 54.8935 250.267 54.2893C250.737 53.2708 251.23 52.2661 251.735 51.2754C252.024 50.7013 252.6 50.3772 253.195 50.3772ZM392.647 57.4212C393.299 57.4212 393.922 57.8124 394.17 58.4583C394.58 59.4953 394.957 60.5439 395.323 61.6087C395.617 62.4675 395.156 63.3958 394.297 63.6898C394.121 63.75 393.943 63.7801 393.765 63.7801C393.084 63.7801 392.45 63.3472 392.218 62.6643C391.871 61.6527 391.508 60.6481 391.117 59.6574C390.788 58.8101 391.205 57.8634 392.049 57.5301L392.647 57.4212ZM248.246 62.5115L248.732 62.5879C249.596 62.8564 250.077 63.7801 249.809 64.6435C249.494 65.6551 249.2 66.6874 248.924 67.7175C248.73 68.456 248.07 68.9444 247.343 68.9444C247.204 68.9444 247.066 68.9282 246.927 68.8912C246.049 68.6597 245.524 67.7638 245.755 66.8865C246.042 65.8032 246.35 64.7268 246.681 63.6643C246.899 62.9652 247.547 62.5115 248.246 62.5115ZM396.341 69.9791C397.103 69.9791 397.788 70.5162 397.941 71.2986C398.167 72.3865 398.364 73.4861 398.538 74.5902C398.679 75.4861 398.063 76.324 397.172 76.4652C397.091 76.4768 397.01 76.4837 396.929 76.4837C396.117 76.4837 395.427 75.912 395.297 75.1018C395.13 74.0439 394.938 72.9861 394.728 71.9444C394.547 71.0601 395.124 70.1944 396.015 70.0092L396.341 69.9791ZM245.452 75.3055L245.665 75.3194C246.559 75.4328 247.195 76.2546 247.079 77.1574C246.943 78.2129 246.832 79.2754 246.739 80.3449C246.67 81.1828 246.008 81.8495 245.165 81.8495C245.1 81.8495 245.033 81.8449 244.966 81.8379C244.063 81.7592 243.39 80.9676 243.473 80.0648C243.57 78.9444 243.684 77.8356 243.827 76.7361C243.936 75.9074 244.637 75.3055 245.452 75.3055ZM397.769 82.9907H397.818C398.705 82.9907 399.434 83.6944 399.461 84.5833C399.478 85.3217 399.492 86.0578 399.492 86.8009L399.478 87.9282C399.473 88.7708 398.85 89.5625 398.019 89.5625C397.955 89.5625 397.887 89.5579 397.818 89.5486C396.918 89.5347 396.193 88.7939 396.2 87.8889L396.214 86.8009C396.214 86.0902 396.2 85.3865 396.179 84.6805C396.156 83.7731 396.864 83.0208 397.769 82.9907ZM243.336 91.7176H246.623C246.653 92.2014 246.688 92.6829 246.728 93.1597C246.804 94.0625 246.14 94.8565 245.235 94.9328C245.181 94.9375 245.128 94.9398 245.075 94.9398C244.241 94.9398 243.535 94.2847 243.461 93.4329C243.415 92.8657 243.373 92.2917 243.336 91.7176ZM397.07 96.0671L397.309 96.0787C398.205 96.2083 398.825 97.0393 398.698 97.9375C398.538 99.044 398.357 100.146 398.154 101.238C398.001 102.028 397.316 102.574 396.545 102.574C396.443 102.574 396.341 102.565 396.239 102.546C395.348 102.382 394.758 101.523 394.931 100.632C395.124 99.5903 395.297 98.5324 395.45 97.4768C395.568 96.6551 396.272 96.0671 397.07 96.0671ZM246.554 101.375C247.311 101.375 247.989 101.9 248.156 102.669C248.283 103.269 248.42 103.866 248.563 104.461L246.684 107.718C246.228 107.528 245.862 107.134 245.728 106.62C245.447 105.544 245.186 104.461 244.945 103.366C244.755 102.477 245.318 101.606 246.202 101.414L246.554 101.375ZM394.107 108.822L394.612 108.905C395.478 109.188 395.943 110.111 395.663 110.975C395.316 112.037 394.945 113.095 394.554 114.144C394.306 114.806 393.684 115.208 393.019 115.208C392.827 115.208 392.633 115.174 392.441 115.104C391.596 114.785 391.167 113.836 391.48 112.993C391.857 111.986 392.211 110.975 392.549 109.956C392.774 109.264 393.415 108.822 394.107 108.822ZM388.985 120.894C389.246 120.894 389.51 120.951 389.751 121.086C390.554 121.507 390.853 122.5 390.431 123.301C389.906 124.289 389.36 125.266 388.797 126.227C388.492 126.748 387.943 127.039 387.38 127.039C387.098 127.039 386.811 126.965 386.549 126.81C385.767 126.35 385.512 125.352 385.966 124.569C386.512 123.646 387.031 122.713 387.536 121.764C387.832 121.206 388.394 120.894 388.985 120.894ZM381.883 131.903C382.228 131.903 382.58 132.009 382.88 132.241C383.598 132.796 383.728 133.829 383.174 134.546C382.489 135.424 381.792 136.294 381.068 137.146C380.744 137.532 380.283 137.731 379.818 137.731C379.443 137.731 379.068 137.604 378.758 137.345C378.066 136.762 377.982 135.725 378.563 135.032C379.255 134.213 379.929 133.38 380.582 132.535C380.901 132.118 381.39 131.903 381.883 131.903ZM373.012 141.539C373.455 141.539 373.899 141.718 374.216 142.069C374.832 142.743 374.786 143.778 374.119 144.389C373.295 145.144 372.457 145.882 371.603 146.597C371.297 146.859 370.924 146.984 370.552 146.984C370.084 146.984 369.617 146.785 369.292 146.398C368.709 145.706 368.797 144.669 369.489 144.086C370.311 143.4 371.117 142.692 371.904 141.975C372.218 141.685 372.617 141.539 373.012 141.539ZM362.644 149.537C363.184 149.537 363.707 149.806 364.022 150.292C364.517 151.053 364.297 152.067 363.536 152.558C362.596 153.16 361.647 153.743 360.681 154.306C360.42 154.458 360.135 154.53 359.855 154.53C359.29 154.53 358.742 154.238 358.438 153.718C357.985 152.935 358.246 151.931 359.029 151.477C359.95 150.938 360.86 150.375 361.762 149.799C362.031 149.627 362.336 149.537 362.644 149.537ZM351.079 155.657C351.721 155.657 352.323 156.028 352.591 156.657C352.945 157.488 352.554 158.449 351.721 158.803C350.695 159.238 349.661 159.648 348.617 160.039C348.427 160.111 348.232 160.144 348.042 160.144C347.38 160.144 346.758 159.738 346.51 159.079C346.188 158.234 346.623 157.285 347.471 156.972C348.468 156.595 349.461 156.204 350.441 155.787C350.651 155.697 350.862 155.657 351.079 155.657ZM338.637 159.699C339.38 159.699 340.052 160.211 340.235 160.968C340.436 161.85 339.887 162.734 339.003 162.94C337.922 163.188 336.827 163.419 335.725 163.625C335.63 163.641 335.533 163.648 335.438 163.648C334.663 163.648 333.966 163.104 333.816 162.31C333.651 161.426 334.235 160.569 335.123 160.403C336.179 160.204 337.223 159.986 338.26 159.743L338.637 159.699ZM313.468 161.433C313.98 161.759 314.288 162.359 314.209 163.002C314.133 163.713 313.621 164.287 312.952 164.428L313.468 161.433ZM325.672 161.549C326.536 161.549 327.258 162.229 327.311 163.1C327.362 164.002 326.67 164.778 325.762 164.829C324.654 164.894 323.54 164.931 322.417 164.945C322.362 164.951 322.306 164.956 322.251 164.956C321.434 164.956 320.765 164.176 320.76 163.324C320.748 162.419 321.471 161.678 322.373 161.664C323.45 161.651 324.519 161.616 325.579 161.556L325.672 161.549Z" fill="#EBEBEC"/>
<path d="M321.336 39.7988C347.251 39.7988 368.339 60.8867 368.339 86.8011C368.339 112.718 347.251 133.803 321.336 133.803C320.297 133.803 319.267 133.769 318.246 133.704L319.366 127.197C320.019 127.229 320.674 127.246 321.336 127.246C343.64 127.246 361.781 109.104 361.781 86.8011C361.781 64.4955 343.64 46.3566 321.336 46.3566C300.695 46.3566 283.621 61.889 281.188 81.8821H274.589C276.51 63.477 289.103 48.1946 306.049 42.3497C307.582 42.94 309.281 43.2363 311.142 43.2363C313.14 43.2363 314.91 42.8103 316.452 41.9608C317.454 41.4099 318.304 40.7062 319.003 39.8543C319.776 39.8173 320.554 39.7988 321.336 39.7988ZM316.998 39.9955C315.517 41.3219 313.593 41.9886 311.223 41.9886C310.228 41.9886 309.248 41.8728 308.29 41.639C311.096 40.8265 314.005 40.271 316.998 39.9955Z" fill="#EBEBEC"/>
<path d="M319.003 39.8541C318.304 40.706 317.455 41.4097 316.452 41.9606C314.911 42.8101 313.14 43.2361 311.142 43.2361C309.281 43.2361 307.582 42.9398 306.049 42.3495C306.788 42.0949 307.536 41.8588 308.29 41.6389C309.249 41.8727 310.228 41.9884 311.223 41.9884C313.593 41.9884 315.517 41.3217 316.999 39.9953C317.663 39.9351 318.332 39.8889 319.003 39.8541Z" fill="#EBEBEC"/>
<path d="M274.589 91.7176H281.188C282.545 102.873 288.461 112.641 297.012 119.095L293.714 124.808C283.225 117.164 276.005 105.292 274.589 91.7176ZM305.522 124.026C306.869 124.6 308.255 125.104 309.672 125.532L308.552 132.037C306.374 131.419 304.26 130.651 302.223 129.739L305.522 124.026Z" fill="#EBEBEC"/>
<path d="M78.6001 81.8821C78.5607 81.8821 78.5144 81.8821 78.4681 81.8844C78.5121 81.8821 78.5561 81.8821 78.6001 81.8821ZM78.6001 81.8821H134.552L140.23 91.7178H87.1163L102.924 119.095L106.223 124.808L120.584 149.683L121.542 151.343L154.681 208.739L143.325 208.739L97.7135 129.739L94.4149 124.026L88.1302 113.139L83.4473 85.9631C83.0399 83.5742 80.9566 81.8821 78.607 81.8821H78.6001ZM138.343 81.8821L261.6 81.8821L255.922 91.7178L144.021 91.7178L138.343 81.8821ZM265.385 81.8821H321.336C318.98 81.8821 316.904 83.5742 316.489 85.9631L311.806 113.139L305.522 124.026L302.223 129.739L288.241 153.954L286.598 156.801L256.61 208.739H245.255L293.714 124.808L297.012 119.095L312.82 91.7178H259.707L265.385 81.8821ZM321.336 81.8821H321.341H321.332H321.336ZM321.346 81.8821H321.383H321.346ZM321.397 81.8821H321.399H321.397ZM149.003 218.574H160.359L199.968 287.174L239.577 218.574H250.931L205.163 297.848L204.225 299.47C203.348 300.986 201.728 301.926 199.968 301.926C198.214 301.926 196.586 300.986 195.711 299.47L194.774 297.848L180.065 272.371L178.373 269.442L149.003 218.574Z" fill="#EBEBEC"/>
<path d="M122.478 56.051L277.457 56.051C278.047 56.051 278.584 56.3659 278.878 56.8705C279.174 57.3751 279.174 58.0048 278.878 58.5117L265.385 81.8821L259.707 91.7178L201.39 192.722C201.096 193.232 200.531 193.486 199.968 193.486C199.404 193.486 198.841 193.232 198.545 192.722L152.343 112.699L150.325 109.202L140.23 91.7178L134.552 81.8821L121.059 58.5117C120.769 58.0048 120.769 57.3751 121.059 56.8705C121.353 56.3659 121.897 56.051 122.478 56.051ZM274.621 59.3288L125.32 59.3288L138.343 81.8821L144.022 91.7178L199.968 188.623L246.684 107.718L248.563 104.461L255.922 91.7178L261.6 81.8821L274.621 59.3288Z" fill="#EBEBEC"/>
<path d="M104.6 208.739L295.334 208.739L294.633 212.818C294.172 215.493 295.971 218.042 298.647 218.505C298.929 218.554 299.211 218.577 299.489 218.577C301.827 218.577 303.915 216.882 304.327 214.489L304.343 214.387C304.225 215.188 303.906 215.961 303.399 216.632L251.068 285.473L249.079 288.088L232.163 310.348L228.17 315.595L203.887 347.54C202.954 348.764 201.461 349.375 199.968 349.375C198.475 349.375 196.982 348.764 196.054 347.54L171.769 315.593L167.778 310.345L96.6487 216.771C97.5654 217.889 98.9542 218.577 100.45 218.577C100.73 218.577 101.012 218.554 101.294 218.505C103.973 218.042 105.764 215.493 105.304 212.818L104.6 208.739ZM289.565 218.574L110.373 218.574L156.693 279.507L158.681 282.123L175.602 304.382L179.593 309.632L199.968 336.438L220.343 309.635L224.334 304.385L289.565 218.574Z" fill="#EBEBEC"/>
<path d="M321.332 81.8821H321.399C321.656 81.8867 321.911 81.9076 322.177 81.9515C324.853 82.4145 326.644 84.9562 326.184 87.6344L319.367 127.197L318.246 133.704L313.468 161.433L312.952 164.428L304.343 214.387L304.327 214.489C303.915 216.882 301.827 218.577 299.489 218.577C299.211 218.577 298.929 218.554 298.647 218.505C295.971 218.042 294.172 215.493 294.633 212.817L295.334 208.739L308.552 132.037L309.672 125.533L311.806 113.139L316.489 85.9631C316.904 83.5742 318.98 81.8821 321.332 81.8821Z" fill="#EBEBEC"/>
<path d="M78.607 81.8821C80.9565 81.8821 83.0399 83.5742 83.4473 85.9631L88.1301 113.139L90.2644 125.53L91.3871 132.035L96.1556 159.72L96.6834 162.783L104.6 208.739L105.304 212.817C105.764 215.493 103.973 218.042 101.294 218.505C101.012 218.554 100.73 218.577 100.45 218.577C98.9542 218.577 97.5654 217.889 96.6487 216.771C96.1279 216.135 95.7575 215.359 95.607 214.489L81.6903 133.702L80.57 127.197L73.7528 87.6344C73.2922 84.9562 75.0908 82.4145 77.7667 81.9515C78.0028 81.9122 78.2389 81.8914 78.4681 81.8844C78.5144 81.8821 78.5607 81.8821 78.607 81.8821Z" fill="#EBEBEC"/>
</g>
<path d="M203.04 359.449C203.649 359.449 204.16 359.929 204.197 360.544C204.232 361.181 203.744 361.727 203.102 361.764C202.32 361.808 201.533 361.836 200.741 361.845H200.727C200.096 361.845 199.575 361.338 199.57 360.702C199.563 360.065 200.072 359.54 200.711 359.53C201.471 359.521 202.225 359.493 202.975 359.454L203.04 359.449ZM191.505 358.871L191.686 358.889C192.429 359.007 193.179 359.104 193.929 359.192C194.565 359.264 195.024 359.838 194.945 360.475C194.873 361.109 194.313 361.584 193.667 361.493C192.88 361.403 192.098 361.299 191.325 361.172C190.693 361.072 190.262 360.479 190.362 359.848C190.452 359.278 190.945 358.871 191.505 358.871ZM212.195 358.142C212.718 358.142 213.193 358.505 213.32 359.037C213.464 359.662 213.075 360.285 212.452 360.431C211.688 360.607 210.915 360.769 210.137 360.915C209.505 361.023 208.908 360.616 208.79 359.986C208.672 359.364 209.084 358.757 209.711 358.639C210.459 358.5 211.195 358.345 211.927 358.174L212.195 358.142ZM182.526 356.646L182.901 356.709C183.616 356.949 184.334 357.179 185.068 357.396C185.679 357.577 186.031 358.22 185.85 358.834C185.67 359.445 185.026 359.797 184.413 359.616C183.653 359.392 182.896 359.151 182.156 358.898C181.549 358.695 181.225 358.035 181.434 357.429C181.596 356.949 182.047 356.646 182.526 356.646ZM220.98 355.29C221.431 355.29 221.855 355.551 222.045 355.996C222.295 356.584 222.019 357.262 221.431 357.51C220.707 357.817 219.975 358.107 219.239 358.382C218.647 358.609 217.973 358.306 217.751 357.704C217.524 357.107 217.832 356.438 218.429 356.216C219.135 355.949 219.834 355.674 220.526 355.38L220.98 355.29ZM174.063 352.903L174.619 353.047C175.278 353.41 175.952 353.762 176.63 354.095C177.2 354.378 177.44 355.072 177.156 355.646C176.871 356.216 176.179 356.452 175.605 356.172C174.894 355.824 174.195 355.456 173.503 355.077C172.943 354.769 172.739 354.065 173.047 353.505C173.258 353.121 173.651 352.903 174.063 352.903ZM229.144 350.968C229.524 350.968 229.894 351.158 230.116 351.5C230.466 352.04 230.311 352.753 229.771 353.102C229.107 353.526 228.438 353.938 227.755 354.336C227.204 354.658 226.494 354.473 226.174 353.919C225.852 353.368 226.038 352.658 226.589 352.338C227.241 351.959 227.883 351.56 228.519 351.153C228.709 351.03 228.927 350.968 229.144 350.968ZM166.369 347.776C166.621 347.776 166.873 347.861 167.086 348.028C167.679 348.498 168.281 348.961 168.892 349.403C169.406 349.783 169.519 350.507 169.14 351.021C168.765 351.537 168.04 351.651 167.526 351.276C166.887 350.81 166.26 350.329 165.644 349.838C165.142 349.44 165.061 348.711 165.459 348.213C165.69 347.924 166.024 347.776 166.369 347.776ZM236.464 345.32C236.776 345.32 237.089 345.447 237.313 345.697C237.748 346.172 237.716 346.903 237.246 347.334C236.663 347.866 236.07 348.387 235.471 348.892C234.98 349.304 234.248 349.241 233.839 348.753C233.424 348.264 233.489 347.53 233.978 347.121C234.556 346.637 235.126 346.135 235.681 345.628C235.903 345.424 236.184 345.32 236.464 345.32ZM159.649 341.424C159.966 341.424 160.283 341.551 160.512 341.808C161.014 342.373 161.531 342.924 162.054 343.468C162.503 343.929 162.489 344.66 162.033 345.104C161.57 345.547 160.839 345.537 160.396 345.081C159.848 344.516 159.311 343.938 158.785 343.35C158.362 342.875 158.401 342.141 158.876 341.718C159.098 341.519 159.373 341.424 159.649 341.424ZM242.725 338.516C242.971 338.516 243.218 338.593 243.431 338.755C243.938 339.148 244.028 339.878 243.64 340.385C243.156 341.003 242.663 341.618 242.151 342.22C241.739 342.709 241.012 342.776 240.519 342.359C240.031 341.947 239.973 341.216 240.383 340.727C240.871 340.148 241.346 339.56 241.809 338.963C242.033 338.669 242.378 338.516 242.725 338.516ZM154.107 334.028C154.491 334.028 154.871 334.218 155.089 334.57C155.491 335.211 155.901 335.841 156.332 336.463C156.688 336.993 156.556 337.711 156.028 338.074C155.498 338.431 154.781 338.294 154.42 337.771C153.975 337.123 153.547 336.463 153.126 335.794C152.788 335.253 152.954 334.542 153.496 334.204L154.107 334.028ZM247.739 330.746L248.281 330.88C248.848 331.179 249.059 331.88 248.76 332.445C248.39 333.141 248.005 333.834 247.607 334.51C247.283 335.063 246.577 335.248 246.022 334.922C245.471 334.598 245.288 333.891 245.609 333.341C245.994 332.688 246.359 332.028 246.718 331.359C246.927 330.966 247.322 330.746 247.739 330.746ZM149.906 325.799C150.364 325.799 150.797 326.07 150.982 326.521C151.262 327.218 151.561 327.91 151.878 328.593C152.139 329.176 151.887 329.864 151.304 330.13C150.725 330.396 150.038 330.139 149.771 329.556C149.445 328.845 149.133 328.123 148.836 327.394C148.596 326.801 148.88 326.123 149.473 325.885L149.906 325.799ZM251.357 322.222L251.714 322.28C252.325 322.479 252.653 323.13 252.454 323.741C252.211 324.491 251.947 325.239 251.672 325.979C251.447 326.577 250.783 326.875 250.181 326.658C249.584 326.431 249.281 325.762 249.503 325.165C249.769 324.456 250.017 323.741 250.258 323.023C250.415 322.535 250.869 322.222 251.357 322.222ZM147.181 316.963C147.714 316.963 148.193 317.336 148.311 317.878C148.468 318.618 148.644 319.352 148.836 320.079C148.998 320.699 148.628 321.331 148.012 321.493C147.392 321.658 146.76 321.287 146.598 320.667C146.399 319.908 146.214 319.144 146.045 318.371C145.91 317.741 146.308 317.128 146.931 316.991L147.181 316.963ZM253.45 313.216L253.616 313.225C254.251 313.315 254.688 313.903 254.598 314.537C254.484 315.317 254.357 316.095 254.214 316.868C254.096 317.498 253.494 317.905 252.862 317.792C252.232 317.674 251.818 317.067 251.94 316.44C252.075 315.702 252.197 314.956 252.306 314.211C252.387 313.632 252.885 313.216 253.45 313.216ZM146.005 307.794C146.623 307.794 147.135 308.278 147.163 308.903C147.195 309.662 147.244 310.417 147.302 311.165C147.357 311.801 146.887 312.361 146.248 312.417C145.616 312.479 145.052 311.996 144.996 311.359C144.933 310.581 144.883 309.794 144.848 309.003C144.82 308.361 145.318 307.822 145.954 307.794H146.005ZM253.978 303.984C254.603 303.984 255.119 304.482 255.135 305.109C255.149 305.63 255.158 306.151 255.158 306.674L255.149 307.47C255.144 308.107 254.626 308.614 253.991 308.614H253.978C253.341 308.604 252.829 308.081 252.834 307.442L252.843 306.674C252.843 306.172 252.834 305.674 252.82 305.179C252.804 304.535 253.304 304.007 253.943 303.984H253.978ZM146.403 298.558L146.552 298.567C147.186 298.648 147.633 299.227 147.552 299.866C147.457 300.611 147.376 301.361 147.311 302.116C147.258 302.755 146.707 303.243 146.058 303.169C145.422 303.116 144.947 302.556 145.005 301.917C145.075 301.128 145.156 300.345 145.255 299.567C145.332 298.984 145.829 298.558 146.403 298.558ZM252.934 294.797C253.473 294.797 253.957 295.176 254.065 295.729C254.223 296.498 254.362 297.276 254.484 298.051C254.584 298.685 254.151 299.278 253.522 299.378C252.871 299.472 252.297 299.042 252.197 298.415C252.079 297.667 251.943 296.922 251.795 296.185C251.667 295.56 252.075 294.952 252.704 294.82L252.934 294.797ZM148.373 289.526L148.718 289.579C149.327 289.769 149.667 290.422 149.477 291.03C149.255 291.746 149.047 292.472 148.852 293.202C148.69 293.82 148.063 294.192 147.443 294.028C146.822 293.866 146.452 293.232 146.616 292.614C146.818 291.85 147.035 291.091 147.271 290.338C147.424 289.847 147.88 289.526 148.373 289.526ZM250.325 285.931C250.785 285.931 251.225 286.206 251.401 286.665C251.691 287.396 251.957 288.137 252.216 288.889C252.424 289.493 252.098 290.148 251.491 290.357C250.89 290.57 250.23 290.239 250.022 289.634C249.778 288.919 249.522 288.211 249.244 287.509C249.015 286.912 249.309 286.243 249.906 286.007L250.325 285.931ZM151.869 280.959L152.394 281.084C152.964 281.373 153.188 282.074 152.899 282.644C152.556 283.317 152.22 283.996 151.906 284.688C151.642 285.266 150.957 285.523 150.373 285.253C149.79 284.986 149.535 284.299 149.802 283.72C150.133 283.003 150.48 282.292 150.839 281.591C151.042 281.188 151.447 280.959 151.869 280.959ZM246.239 277.644C246.633 277.644 247.012 277.843 247.232 278.204C247.635 278.873 248.028 279.556 248.408 280.248C248.716 280.808 248.512 281.509 247.952 281.817C247.392 282.125 246.686 281.922 246.378 281.366C246.017 280.699 245.637 280.044 245.248 279.398C244.917 278.852 245.096 278.141 245.642 277.81L246.239 277.644ZM156.778 273.118C157.019 273.118 157.262 273.197 157.471 273.35C157.982 273.734 158.086 274.463 157.702 274.972C157.248 275.574 156.806 276.188 156.376 276.813C156.014 277.336 155.292 277.472 154.767 277.111C154.241 276.748 154.107 276.026 154.468 275.503C154.915 274.85 155.378 274.213 155.852 273.581C156.077 273.278 156.427 273.118 156.778 273.118ZM240.799 270.172C241.126 270.172 241.445 270.308 241.677 270.574C242.193 271.167 242.693 271.771 243.186 272.391C243.584 272.894 243.498 273.621 243.001 274.019C242.503 274.417 241.772 274.331 241.373 273.829C240.903 273.241 240.42 272.658 239.927 272.088C239.505 271.604 239.561 270.878 240.045 270.456C240.262 270.266 240.533 270.172 240.799 270.172ZM162.94 266.225C163.248 266.225 163.552 266.347 163.783 266.591C164.221 267.056 164.197 267.79 163.732 268.227C163.186 268.743 162.646 269.276 162.119 269.815C161.674 270.271 160.943 270.285 160.482 269.836C160.026 269.389 160.017 268.658 160.459 268.199C161.01 267.634 161.57 267.084 162.146 266.542C162.366 266.334 162.656 266.225 162.94 266.225ZM234.177 263.725C234.434 263.725 234.69 263.81 234.908 263.986C235.519 264.489 236.119 265 236.704 265.523C237.184 265.949 237.223 266.681 236.797 267.16C236.369 267.634 235.64 267.676 235.16 267.25C234.596 266.748 234.024 266.257 233.438 265.778C232.945 265.371 232.876 264.641 233.281 264.148C233.51 263.868 233.843 263.725 234.177 263.725ZM170.174 260.479C170.549 260.479 170.917 260.66 171.142 260.993C171.496 261.528 171.35 262.246 170.818 262.6C170.188 263.014 169.57 263.449 168.959 263.891C168.443 264.266 167.716 264.148 167.341 263.634C166.966 263.118 167.077 262.396 167.598 262.021C168.23 261.553 168.878 261.107 169.538 260.669C169.732 260.537 169.954 260.479 170.174 260.479ZM226.549 258.489L227.119 258.644C227.806 259.033 228.484 259.433 229.153 259.854C229.695 260.192 229.857 260.908 229.519 261.449C229.181 261.993 228.466 262.16 227.924 261.817C227.285 261.415 226.635 261.03 225.975 260.655C225.42 260.338 225.225 259.632 225.54 259.077C225.753 258.702 226.146 258.489 226.549 258.489ZM178.281 256.042C178.725 256.042 179.149 256.301 179.339 256.734C179.598 257.317 179.334 258.005 178.746 258.259C178.056 258.565 177.378 258.882 176.7 259.218C176.13 259.503 175.434 259.262 175.153 258.688C174.869 258.118 175.102 257.422 175.677 257.141C176.383 256.794 177.093 256.459 177.815 256.141L178.281 256.042ZM218.135 254.632L218.528 254.699C219.269 254.968 220.012 255.253 220.739 255.551C221.332 255.79 221.616 256.468 221.376 257.056C221.133 257.653 220.454 257.938 219.866 257.692C219.165 257.408 218.461 257.137 217.746 256.88C217.144 256.667 216.834 256.003 217.045 255.401C217.218 254.926 217.66 254.632 218.135 254.632ZM187.033 253.063C187.554 253.063 188.024 253.417 188.156 253.94C188.308 254.565 187.929 255.188 187.311 255.343C186.572 255.523 185.846 255.722 185.126 255.935C184.503 256.116 183.864 255.762 183.688 255.148C183.508 254.537 183.859 253.891 184.471 253.715C185.225 253.489 185.984 253.285 186.753 253.095L187.033 253.063ZM209.188 252.28L209.387 252.294C210.165 252.431 210.943 252.579 211.711 252.753C212.334 252.887 212.727 253.503 212.591 254.125C212.457 254.75 211.836 255.148 211.218 255.012C210.48 254.85 209.739 254.704 208.994 254.579C208.364 254.47 207.94 253.873 208.049 253.241C208.149 252.678 208.637 252.28 209.188 252.28ZM196.167 251.625C196.769 251.625 197.274 252.091 197.32 252.702C197.364 253.341 196.885 253.896 196.248 253.94C195.489 253.996 194.739 254.063 193.991 254.148C193.336 254.211 192.781 253.759 192.709 253.128C192.64 252.489 193.098 251.919 193.73 251.847C194.508 251.757 195.295 251.69 196.082 251.63L196.167 251.625ZM199.978 251.496C200.769 251.496 201.556 251.512 202.343 251.544C202.98 251.572 203.478 252.114 203.45 252.753C203.424 253.389 202.866 253.873 202.244 253.859C201.494 253.827 200.737 253.81 199.978 253.81C199.341 253.81 198.82 253.29 198.82 252.653C198.82 252.009 199.341 251.496 199.978 251.496Z" fill="white"/>
<path d="M199.978 335.229C215.725 335.229 228.533 322.422 228.533 306.674C228.533 290.926 215.725 278.118 199.978 278.118C184.232 278.118 171.422 290.926 171.422 306.674C171.422 322.422 184.232 335.229 199.978 335.229ZM199.978 273.491C218.276 273.491 233.165 288.378 233.165 306.674C233.165 324.97 218.276 339.859 199.978 339.859C181.681 339.859 166.792 324.97 166.792 306.674C166.792 288.378 181.681 273.491 199.978 273.491Z" fill="white"/>
<path d="M117.35 177.461C117.961 177.461 118.471 177.94 118.508 178.556C118.545 179.192 118.056 179.741 117.413 179.776C116.63 179.822 115.846 179.848 115.054 179.857C114.48 179.94 113.892 179.357 113.883 178.713C113.873 178.077 114.385 177.551 115.021 177.542C115.781 177.533 116.535 177.507 117.288 177.466L117.35 177.461ZM105.818 176.882L105.998 176.901C106.739 177.019 107.489 177.118 108.239 177.204C108.878 177.276 109.334 177.85 109.258 178.489C109.19 179.121 108.619 179.6 107.977 179.505C107.19 179.415 106.408 179.31 105.635 179.183C105.003 179.084 104.572 178.493 104.672 177.859C104.762 177.29 105.255 176.882 105.818 176.882ZM126.505 176.155C127.031 176.155 127.505 176.517 127.63 177.049C127.776 177.674 127.387 178.299 126.762 178.442C125.998 178.618 125.225 178.783 124.447 178.926C123.82 179.035 123.218 178.628 123.1 178C122.984 177.375 123.394 176.769 124.024 176.653C124.769 176.512 125.505 176.359 126.239 176.185L126.505 176.155ZM96.8386 174.658L97.2135 174.723C97.9265 174.961 98.6464 175.192 99.3779 175.41C99.989 175.591 100.341 176.232 100.16 176.848C99.9798 177.456 99.3386 177.815 98.7228 177.628C97.9636 177.403 97.2089 177.162 96.4659 176.91C95.8617 176.706 95.5353 176.047 95.7436 175.44C95.9057 174.961 96.3594 174.658 96.8386 174.658ZM135.29 173.301C135.741 173.301 136.167 173.565 136.357 174.007C136.605 174.595 136.329 175.273 135.741 175.521C135.019 175.829 134.285 176.118 133.549 176.394C132.952 176.621 132.288 176.317 132.061 175.716C131.836 175.121 132.144 174.449 132.739 174.229C133.445 173.963 134.146 173.685 134.839 173.391L135.29 173.301ZM88.3733 170.915L88.9312 171.061C89.5909 171.422 90.2645 171.773 90.9427 172.109C91.5121 172.389 91.7506 173.086 91.4658 173.66C91.1811 174.229 90.489 174.463 89.9149 174.183C89.2066 173.836 88.5052 173.47 87.8131 173.091C87.2529 172.783 87.0492 172.077 87.3571 171.517C87.57 171.132 87.9635 170.915 88.3733 170.915ZM143.454 168.979C143.834 168.979 144.207 169.169 144.427 169.514C144.776 170.051 144.621 170.767 144.084 171.114C143.42 171.54 142.751 171.949 142.068 172.348C141.515 172.669 140.806 172.484 140.484 171.933C140.163 171.38 140.35 170.672 140.901 170.35C141.552 169.97 142.193 169.572 142.832 169.165C143.021 169.044 143.239 168.979 143.454 168.979ZM80.6788 165.787C80.9335 165.787 81.1857 165.873 81.3987 166.042C81.9913 166.512 82.5909 166.973 83.202 167.415C83.7182 167.794 83.8293 168.519 83.4496 169.035C83.0746 169.549 82.3524 169.662 81.8362 169.287C81.1997 168.822 80.57 168.343 79.9566 167.85C79.4543 167.452 79.3733 166.725 79.7714 166.227C80.0006 165.938 80.3362 165.787 80.6788 165.787ZM150.774 163.334C151.086 163.334 151.399 163.459 151.626 163.709C152.059 164.183 152.026 164.915 151.556 165.345C150.973 165.878 150.38 166.398 149.781 166.905C149.288 167.32 148.559 167.253 148.149 166.764C147.737 166.276 147.799 165.544 148.288 165.132C148.866 164.648 149.436 164.146 149.994 163.642C150.214 163.438 150.494 163.334 150.774 163.334ZM73.9612 159.435C74.2783 159.435 74.5932 159.563 74.8246 159.82C75.327 160.385 75.8408 160.938 76.3663 161.479C76.8131 161.94 76.7992 162.674 76.3432 163.116C75.8825 163.563 75.1487 163.549 74.7066 163.093C74.1603 162.528 73.6209 161.949 73.0978 161.361C72.6719 160.887 72.7135 160.155 73.1881 159.729C73.4103 159.53 73.6857 159.435 73.9612 159.435ZM157.035 156.528C157.281 156.528 157.528 156.604 157.741 156.769C158.248 157.162 158.339 157.889 157.95 158.396C157.466 159.014 156.973 159.63 156.461 160.232C156.052 160.725 155.322 160.783 154.829 160.371C154.341 159.961 154.283 159.227 154.695 158.739C155.184 158.16 155.658 157.572 156.119 156.977C156.346 156.683 156.688 156.528 157.035 156.528ZM68.4172 152.04C68.8015 152.04 69.1811 152.229 69.3987 152.581C69.8015 153.225 70.2135 153.852 70.6418 154.477C71.0006 155.005 70.8686 155.725 70.3385 156.086C69.8107 156.447 69.0908 156.308 68.7297 155.783C68.2876 155.137 67.857 154.477 67.4357 153.806C67.0978 153.264 67.2645 152.554 67.8085 152.216L68.4172 152.04ZM162.052 148.757L162.593 148.891C163.158 149.19 163.371 149.892 163.072 150.456C162.702 151.153 162.318 151.845 161.92 152.523C161.593 153.074 160.885 153.26 160.332 152.935C159.781 152.609 159.6 151.903 159.922 151.352C160.306 150.702 160.672 150.042 161.028 149.371C161.237 148.979 161.635 148.757 162.052 148.757ZM64.2181 143.81C64.6742 143.81 65.1093 144.081 65.2945 144.535C65.5746 145.229 65.8732 145.922 66.1881 146.604C66.4519 147.188 66.1973 147.875 65.614 148.142C65.0353 148.408 64.3478 148.151 64.0816 147.567C63.7575 146.859 63.445 146.135 63.1464 145.408C62.9057 144.815 63.1904 144.137 63.783 143.896L64.2181 143.81ZM165.667 140.234L166.024 140.294C166.635 140.493 166.966 141.144 166.767 141.753C166.522 142.505 166.26 143.25 165.984 143.991C165.758 144.593 165.093 144.891 164.491 144.669C163.894 144.445 163.593 143.773 163.813 143.179C164.079 142.468 164.329 141.753 164.568 141.035C164.727 140.547 165.179 140.234 165.667 140.234ZM61.4913 134.977C62.026 134.977 62.5052 135.348 62.6209 135.889C62.7806 136.632 62.9566 137.364 63.1464 138.091C63.3084 138.711 62.9381 139.343 62.3223 139.507C61.7043 139.669 61.07 139.299 60.908 138.679C60.7089 137.919 60.5237 137.155 60.357 136.382C60.2205 135.755 60.6186 135.139 61.2436 135.003L61.4913 134.977ZM167.76 131.229L167.929 131.236C168.561 131.329 168.998 131.915 168.908 132.549C168.797 133.331 168.67 134.109 168.524 134.882C168.403 135.51 167.802 135.922 167.172 135.804C166.545 135.685 166.128 135.081 166.251 134.452C166.387 133.716 166.508 132.97 166.616 132.223C166.697 131.644 167.195 131.229 167.76 131.229ZM60.3154 125.808C60.9358 125.808 61.4473 126.292 61.4728 126.915C61.5052 127.674 61.5538 128.431 61.614 129.176C61.6672 129.813 61.1973 130.373 60.5607 130.429C59.9311 130.491 59.3617 130.007 59.3084 129.371C59.2436 128.593 59.195 127.806 59.158 127.014C59.1325 126.373 59.6279 125.834 60.2668 125.808H60.3154ZM168.29 121.996C168.913 121.996 169.429 122.493 169.447 123.123C169.461 123.641 169.471 124.162 169.471 124.685L169.461 125.482C169.457 126.123 168.998 126.725 168.29 126.625C167.651 126.616 167.142 126.093 167.146 125.454L167.156 124.685C167.156 124.185 167.146 123.688 167.133 123.19C167.114 122.549 167.616 122.019 168.253 121.996H168.29ZM60.7135 116.572L60.864 116.579C61.4959 116.662 61.9427 117.241 61.8617 117.878C61.7668 118.623 61.6857 119.373 61.6232 120.13C61.563 120.766 61.026 121.264 60.3709 121.183C59.732 121.128 59.2575 120.567 59.3177 119.931C59.3848 119.139 59.4658 118.357 59.5654 117.579C59.6418 116.996 60.1395 116.572 60.7135 116.572ZM167.246 112.81C167.783 112.81 168.267 113.19 168.376 113.741C168.533 114.51 168.674 115.287 168.797 116.065C168.897 116.697 168.461 117.29 167.834 117.389C167.181 117.479 166.607 117.056 166.508 116.426C166.392 115.681 166.255 114.935 166.105 114.197C165.98 113.574 166.387 112.963 167.015 112.831L167.246 112.81ZM62.6857 107.537L63.0283 107.593C63.6395 107.783 63.9774 108.433 63.7876 109.044C63.5677 109.757 63.3593 110.486 63.1649 111.213C63.0005 111.834 62.3686 112.204 61.7529 112.042C61.1348 111.878 60.7644 111.246 60.9265 110.625C61.1302 109.861 61.3478 109.102 61.5816 108.352C61.7367 107.859 62.1927 107.537 62.6857 107.537ZM164.637 103.942C165.098 103.942 165.535 104.22 165.714 104.676C166.003 105.408 166.269 106.151 166.526 106.901C166.734 107.507 166.408 108.162 165.804 108.371C165.202 108.577 164.542 108.253 164.334 107.646C164.089 106.931 163.832 106.222 163.556 105.521C163.325 104.924 163.619 104.255 164.216 104.021L164.637 103.942ZM66.1788 98.9702L66.7043 99.0975C67.2737 99.3868 67.5006 100.086 67.2112 100.658C66.8663 101.331 66.533 102.01 66.2158 102.699C65.9543 103.278 65.2714 103.537 64.6834 103.264C64.1001 102.998 63.8478 102.31 64.114 101.732C64.4427 101.014 64.7922 100.303 65.1487 99.6021C65.3524 99.2016 65.7598 98.9702 66.1788 98.9702ZM160.549 95.6553C160.943 95.6553 161.322 95.8544 161.545 96.2179C161.947 96.8868 162.341 97.5697 162.721 98.2595C163.026 98.822 162.822 99.5211 162.262 99.829C161.702 100.137 160.996 99.9331 160.69 99.3776C160.327 98.7132 159.947 98.0558 159.559 97.41C159.23 96.8637 159.406 96.153 159.952 95.8243L160.549 95.6553ZM71.0909 91.1299C71.3293 91.1299 71.5746 91.2086 71.7807 91.3613C72.2922 91.7456 72.3964 92.4725 72.0121 92.984C71.5608 93.5859 71.1163 94.1993 70.6881 94.8243C70.3269 95.3498 69.6024 95.484 69.0769 95.1229C68.5538 94.7618 68.4172 94.0373 68.7807 93.5141C69.2274 92.8614 69.6881 92.2248 70.1626 91.5928C70.3895 91.2896 70.7367 91.1299 71.0909 91.1299ZM155.109 88.1831C155.436 88.1831 155.758 88.3174 155.987 88.5859C156.503 89.1785 157.005 89.7826 157.498 90.403C157.896 90.9053 157.809 91.6322 157.313 92.0303C156.811 92.4285 156.082 92.3428 155.686 91.8405C155.214 91.2526 154.73 90.6692 154.239 90.0998C153.818 89.616 153.871 88.8891 154.355 88.4678C154.572 88.278 154.843 88.1831 155.109 88.1831ZM77.2529 84.2363C77.5607 84.2363 77.8617 84.359 78.0932 84.6021C78.5307 85.0674 78.5098 85.8012 78.0422 86.2387C77.4959 86.7549 76.9589 87.2873 76.4288 87.8266C75.9867 88.2873 75.2529 88.2966 74.7923 87.8475C74.3362 87.4007 74.3269 86.6692 74.7691 86.2109C75.3223 85.6461 75.8825 85.0952 76.4566 84.5535C76.6788 84.3452 76.9682 84.2363 77.2529 84.2363ZM148.487 81.7364C148.744 81.7364 149.003 81.822 149.221 81.9979C149.829 82.5002 150.427 83.0095 151.015 83.535C151.494 83.9609 151.535 84.6924 151.105 85.1715C150.679 85.6461 149.947 85.6877 149.473 85.2618C148.908 84.7595 148.334 84.2664 147.751 83.7873C147.258 83.3822 147.186 82.653 147.591 82.16C147.818 81.8799 148.153 81.7364 148.487 81.7364ZM84.4867 78.4886C84.8617 78.4886 85.2275 78.6692 85.4543 79.0049C85.8062 79.5373 85.6626 80.2572 85.1279 80.609C84.5006 81.0257 83.8802 81.4609 83.2691 81.903C82.7552 82.2734 82.026 82.16 81.651 81.6461C81.276 81.1299 81.3895 80.4053 81.908 80.0303C82.5422 79.565 83.1881 79.1183 83.8478 78.6785C84.0423 78.5488 84.2645 78.4886 84.4867 78.4886ZM140.859 76.5002L141.429 76.653C142.116 77.0419 142.795 77.4447 143.464 77.866C144.008 78.2039 144.17 78.9192 143.829 79.4609C143.491 80.0049 142.776 80.1669 142.234 79.8266C141.598 79.4261 140.945 79.0419 140.285 78.6669C139.73 78.3498 139.535 77.6437 139.853 77.0882C140.063 76.7132 140.457 76.5002 140.859 76.5002ZM92.5932 74.0535C93.0353 74.0535 93.4612 74.3127 93.651 74.7456C93.908 75.3289 93.6464 76.0164 93.0585 76.2687C92.3663 76.5766 91.6881 76.8937 91.0099 77.2271C90.4358 77.5118 89.7436 77.2734 89.4636 76.6993C89.1788 76.1299 89.415 75.4331 89.989 75.153C90.6927 74.8058 91.4034 74.4702 92.1256 74.153L92.5932 74.0535ZM132.445 72.6437L132.839 72.7109C133.582 72.9794 134.322 73.2641 135.049 73.5604C135.642 73.8011 135.927 74.4794 135.688 75.0673C135.443 75.6646 134.769 75.9493 134.177 75.7039C133.477 75.4192 132.771 75.1484 132.056 74.8914C131.457 74.6785 131.144 74.0141 131.357 73.4123C131.528 72.9377 131.971 72.6437 132.445 72.6437ZM101.345 71.0743C101.866 71.0743 102.336 71.4285 102.466 71.9516C102.621 72.5766 102.241 73.1993 101.621 73.3544C100.885 73.535 100.156 73.734 99.4381 73.9447C98.8131 74.1229 98.1765 73.7734 98.0006 73.16C97.8177 72.5489 98.1719 71.903 98.7807 71.7248C99.5376 71.5002 100.297 71.2965 101.065 71.1067L101.345 71.0743ZM123.498 70.2919L123.697 70.3058C124.475 70.4424 125.253 70.5905 126.021 70.7618C126.646 70.8984 127.04 71.5141 126.903 72.1368C126.767 72.7618 126.153 73.16 125.528 73.0234C124.792 72.8613 124.049 72.7155 123.304 72.5905C122.677 72.4817 122.251 71.8845 122.359 71.2502C122.459 70.69 122.947 70.2919 123.498 70.2919ZM110.477 69.6368C111.079 69.6368 111.586 70.1021 111.63 70.7132C111.677 71.3498 111.197 71.9076 110.558 71.9516C109.799 72.0072 109.049 72.0743 108.304 72.1599C107.656 72.2224 107.091 71.7711 107.019 71.1391C106.952 70.5002 107.408 69.9308 108.04 69.859C108.818 69.7687 109.605 69.6993 110.392 69.6414L110.477 69.6368ZM114.29 69.5072C115.079 69.5072 115.866 69.5234 116.653 69.5558C117.292 69.5836 117.788 70.1252 117.762 70.7618C117.734 71.4007 117.165 71.8799 116.554 71.8706C115.804 71.8382 115.049 71.822 114.29 71.822C113.651 71.822 113.133 71.3012 113.133 70.6646C113.133 70.0211 113.651 69.5072 114.29 69.5072Z" fill="white"/>
<path d="M114.29 153.241C130.035 153.241 142.845 140.433 142.845 124.685C142.845 108.94 130.035 96.1298 114.29 96.1298C98.5422 96.1298 85.7343 108.94 85.7343 124.685C85.7343 140.433 98.5422 153.241 114.29 153.241ZM114.29 91.5002C132.586 91.5002 147.475 106.389 147.475 124.685C147.475 142.984 132.586 157.871 114.29 157.871C95.9912 157.871 81.1046 142.984 81.1046 124.685C81.1046 106.389 95.9912 91.5002 114.29 91.5002Z" fill="white"/>
<path d="M288.728 177.461C289.339 177.461 289.848 177.94 289.885 178.556C289.922 179.192 289.434 179.741 288.79 179.776C288.01 179.822 287.223 179.848 286.431 179.857C285.802 179.94 285.265 179.357 285.26 178.713C285.251 178.077 285.762 177.551 286.399 177.542C287.158 177.533 287.915 177.507 288.665 177.466L288.728 177.461ZM277.195 176.882L277.376 176.901C278.116 177.019 278.866 177.118 279.619 177.204C280.255 177.276 280.711 177.85 280.635 178.489C280.568 179.121 280.01 179.6 279.355 179.505C278.568 179.415 277.788 179.31 277.015 179.183C276.38 179.084 275.952 178.493 276.052 177.859C276.142 177.29 276.635 176.882 277.195 176.882ZM297.883 176.155C298.408 176.155 298.883 176.517 299.01 177.049C299.154 177.674 298.765 178.299 298.142 178.442C297.376 178.618 296.603 178.783 295.827 178.926C295.202 179.035 294.596 178.628 294.478 178C294.362 177.375 294.772 176.769 295.401 176.653C296.147 176.512 296.885 176.359 297.616 176.185L297.883 176.155ZM268.216 174.658L268.591 174.723C269.304 174.961 270.024 175.192 270.755 175.41C271.366 175.591 271.718 176.232 271.538 176.848C271.357 177.456 270.721 177.815 270.1 177.628C269.341 177.403 268.586 177.162 267.846 176.91C267.239 176.706 266.913 176.047 267.121 175.44C267.283 174.961 267.737 174.658 268.216 174.658ZM306.67 173.301C307.121 173.301 307.545 173.565 307.737 174.007C307.985 174.595 307.709 175.273 307.121 175.521C306.397 175.829 305.665 176.118 304.929 176.394C304.332 176.621 303.667 176.317 303.441 175.716C303.214 175.121 303.522 174.449 304.119 174.229C304.825 173.963 305.524 173.685 306.216 173.391L306.67 173.301ZM259.753 170.915L260.309 171.061C260.968 171.422 261.642 171.773 262.32 172.109C262.89 172.389 263.13 173.086 262.843 173.66C262.559 174.229 261.869 174.463 261.295 174.183C260.584 173.836 259.883 173.47 259.191 173.091C258.63 172.783 258.427 172.077 258.735 171.517C258.947 171.132 259.341 170.915 259.753 170.915ZM314.834 168.979C315.214 168.979 315.584 169.169 315.806 169.514C316.154 170.051 316.001 170.767 315.461 171.114C314.797 171.54 314.128 171.949 313.445 172.348C312.894 172.669 312.184 172.484 311.864 171.933C311.542 171.38 311.728 170.672 312.279 170.35C312.931 169.97 313.573 169.572 314.209 169.165C314.399 169.044 314.617 168.979 314.834 168.979ZM252.056 165.787C252.311 165.787 252.563 165.873 252.776 166.042C253.369 166.512 253.968 166.973 254.579 167.415C255.096 167.794 255.209 168.519 254.829 169.035C254.452 169.549 253.73 169.662 253.214 169.287C252.577 168.822 251.947 168.343 251.334 167.85C250.832 167.452 250.751 166.725 251.149 166.227C251.378 165.938 251.714 165.787 252.056 165.787ZM322.154 163.334C322.466 163.334 322.779 163.459 323.003 163.709C323.438 164.183 323.406 164.915 322.936 165.345C322.353 165.878 321.76 166.398 321.158 166.905C320.67 167.32 319.938 167.253 319.526 166.764C319.117 166.276 319.179 165.544 319.667 165.132C320.246 164.648 320.816 164.146 321.371 163.642C321.593 163.438 321.873 163.334 322.154 163.334ZM245.339 159.435C245.656 159.435 245.971 159.563 246.202 159.82C246.704 160.385 247.218 160.938 247.744 161.479C248.191 161.94 248.179 162.674 247.721 163.116C247.26 163.563 246.528 163.549 246.084 163.093C245.538 162.528 244.998 161.949 244.475 161.361C244.049 160.887 244.091 160.155 244.566 159.729C244.788 159.53 245.063 159.435 245.339 159.435ZM328.415 156.528C328.661 156.528 328.908 156.604 329.121 156.769C329.628 157.162 329.718 157.889 329.329 158.396C328.846 159.014 328.353 159.63 327.841 160.232C327.429 160.725 326.702 160.783 326.209 160.371C325.721 159.961 325.663 159.227 326.073 158.739C326.561 158.16 327.036 157.572 327.498 156.977C327.723 156.683 328.068 156.528 328.415 156.528ZM239.795 152.04C240.179 152.04 240.561 152.229 240.776 152.581C241.179 153.225 241.591 153.852 242.019 154.477C242.378 155.005 242.246 155.725 241.718 156.086C241.188 156.447 240.468 156.308 240.107 155.783C239.665 155.137 239.235 154.477 238.816 153.806C238.475 153.264 238.642 152.554 239.186 152.216L239.795 152.04ZM333.429 148.757L333.971 148.891C334.538 149.19 334.748 149.892 334.452 150.456C334.079 151.153 333.695 151.845 333.297 152.523C332.973 153.074 332.262 153.26 331.711 152.935C331.161 152.609 330.98 151.903 331.299 151.352C331.684 150.702 332.049 150.042 332.408 149.371C332.617 148.979 333.012 148.757 333.429 148.757ZM235.596 143.81C236.054 143.81 236.487 144.081 236.672 144.535C236.952 145.229 237.251 145.922 237.568 146.604C237.829 147.188 237.575 147.875 236.994 148.142C236.413 148.408 235.73 148.151 235.459 147.567C235.135 146.859 234.822 146.135 234.524 145.408C234.288 144.815 234.572 144.137 235.16 143.896L235.596 143.81ZM337.047 140.234L337.404 140.294C338.015 140.493 338.343 141.144 338.144 141.753C337.901 142.505 337.637 143.25 337.362 143.991C337.137 144.593 336.473 144.891 335.871 144.669C335.274 144.445 334.971 143.773 335.193 143.179C335.459 142.468 335.707 141.753 335.948 141.035C336.105 140.547 336.559 140.234 337.047 140.234ZM232.871 134.977C233.403 134.977 233.883 135.348 234.003 135.889C234.158 136.632 234.334 137.364 234.524 138.091C234.686 138.711 234.318 139.343 233.704 139.507C233.082 139.669 232.452 139.299 232.288 138.679C232.086 137.919 231.903 137.155 231.735 136.382C231.598 135.755 231.998 135.139 232.621 135.003L232.871 134.977ZM339.14 131.229L339.306 131.236C339.941 131.329 340.378 131.915 340.288 132.549C340.174 133.331 340.047 134.109 339.904 134.882C339.781 135.51 339.179 135.922 338.552 135.804C337.924 135.685 337.508 135.081 337.63 134.452C337.765 133.716 337.887 132.97 337.996 132.223C338.077 131.644 338.575 131.229 339.14 131.229ZM231.693 125.808C232.313 125.808 232.825 126.292 232.85 126.915C232.883 127.674 232.936 128.431 232.991 129.176C233.045 129.813 232.577 130.373 231.938 130.429C231.304 130.491 230.739 130.007 230.686 129.371C230.626 128.593 230.572 127.806 230.535 127.014C230.51 126.373 231.01 125.834 231.644 125.808H231.693ZM339.667 121.996C340.292 121.996 340.809 122.493 340.825 123.123C340.839 123.641 340.848 124.162 340.848 124.685L340.839 125.482C340.834 126.123 340.325 126.725 339.667 126.625C339.031 126.616 338.519 126.093 338.524 125.454L338.533 124.685C338.533 124.185 338.524 123.688 338.51 123.19C338.494 122.549 338.994 122.019 339.633 121.996H339.667ZM232.091 116.572L232.241 116.579C232.876 116.662 233.325 117.241 233.239 117.878C233.144 118.623 233.066 119.373 233.001 120.13C232.945 120.766 232.408 121.264 231.748 121.183C231.109 121.128 230.635 120.567 230.695 119.931C230.762 119.139 230.846 118.357 230.945 117.579C231.019 116.996 231.519 116.572 232.091 116.572ZM338.623 112.81C339.163 112.81 339.647 113.19 339.755 113.741C339.913 114.51 340.052 115.287 340.174 116.065C340.274 116.697 339.841 117.29 339.211 117.389C338.566 117.479 337.987 117.056 337.887 116.426C337.769 115.681 337.635 114.935 337.485 114.197C337.357 113.574 337.765 112.963 338.394 112.831L338.623 112.81ZM234.063 107.537L234.406 107.593C235.017 107.783 235.355 108.433 235.165 109.044C234.945 109.757 234.737 110.486 234.542 111.213C234.383 111.834 233.751 112.204 233.135 112.042C232.512 111.878 232.142 111.246 232.304 110.625C232.508 109.861 232.725 109.102 232.959 108.352C233.114 107.859 233.57 107.537 234.063 107.537ZM336.015 103.942C336.478 103.942 336.915 104.22 337.091 104.676C337.38 105.408 337.647 106.151 337.906 106.901C338.114 107.507 337.788 108.162 337.181 108.371C336.575 108.577 335.92 108.253 335.711 107.646C335.468 106.931 335.211 106.222 334.936 105.521C334.704 104.924 334.998 104.255 335.596 104.021L336.015 103.942ZM237.559 98.9702L238.082 99.0975C238.651 99.3868 238.878 100.086 238.589 100.658C238.246 101.331 237.91 102.01 237.593 102.699C237.332 103.278 236.649 103.537 236.063 103.264C235.48 102.998 235.225 102.31 235.491 101.732C235.825 101.014 236.17 100.303 236.526 99.6021C236.732 99.2016 237.137 98.9702 237.559 98.9702ZM331.929 95.6553C332.323 95.6553 332.702 95.8544 332.922 96.2179C333.325 96.8868 333.718 97.5697 334.098 98.2595C334.406 98.822 334.202 99.5211 333.642 99.829C333.082 100.137 332.38 99.9331 332.068 99.3776C331.707 98.7132 331.327 98.0558 330.938 97.41C330.607 96.8637 330.786 96.153 331.332 95.8243L331.929 95.6553ZM242.468 91.1299C242.707 91.1299 242.952 91.2086 243.16 91.3613C243.67 91.7456 243.774 92.4725 243.39 92.984C242.938 93.5859 242.494 94.1993 242.066 94.8243C241.704 95.3498 240.98 95.484 240.457 95.1229C239.931 94.7618 239.795 94.0373 240.158 93.5141C240.605 92.8614 241.066 92.2248 241.54 91.5928C241.767 91.2896 242.114 91.1299 242.468 91.1299ZM326.489 88.1831C326.816 88.1831 327.135 88.3174 327.367 88.5859C327.883 89.1785 328.383 89.7826 328.876 90.403C329.274 90.9053 329.188 91.6322 328.691 92.0303C328.193 92.4285 327.461 92.3428 327.063 91.8405C326.593 91.2526 326.11 90.6692 325.617 90.0998C325.195 89.616 325.251 88.8891 325.735 88.4678C325.952 88.278 326.223 88.1831 326.489 88.1831ZM248.63 84.2363C248.938 84.2363 249.241 84.359 249.471 84.6021C249.91 85.0674 249.887 85.8012 249.422 86.2387C248.873 86.7549 248.336 87.2873 247.806 87.8266C247.364 88.2873 246.633 88.2966 246.17 87.8475C245.714 87.4007 245.704 86.6692 246.149 86.2109C246.7 85.6461 247.26 85.0952 247.834 84.5535C248.056 84.3452 248.346 84.2363 248.63 84.2363ZM319.867 81.7364C320.123 81.7364 320.38 81.822 320.598 81.9979C321.209 82.5002 321.806 83.0095 322.394 83.535C322.873 83.9609 322.913 84.6924 322.485 85.1715C322.059 85.6461 321.327 85.6877 320.853 85.2618C320.286 84.7595 319.711 84.2664 319.128 83.7873C318.635 83.3822 318.563 82.653 318.971 82.16C319.198 81.8799 319.531 81.7364 319.867 81.7364ZM255.864 78.4886C256.239 78.4886 256.605 78.6692 256.832 79.0049C257.184 79.5373 257.04 80.2572 256.505 80.609C255.878 81.0257 255.258 81.4609 254.647 81.903C254.133 82.2734 253.403 82.16 253.028 81.6461C252.653 81.1299 252.767 80.4053 253.288 80.0303C253.92 79.565 254.566 79.1183 255.225 78.6785C255.42 78.5488 255.642 78.4886 255.864 78.4886ZM312.239 76.5002L312.809 76.653C313.496 77.0419 314.174 77.4447 314.843 77.866C315.385 78.2039 315.549 78.9192 315.209 79.4609C314.871 80.0049 314.161 80.1669 313.614 79.8266C312.975 79.4261 312.325 79.0419 311.665 78.6669C311.11 78.3498 310.915 77.6437 311.23 77.0882C311.443 76.7132 311.836 76.5002 312.239 76.5002ZM263.971 74.0535C264.413 74.0535 264.839 74.3127 265.029 74.7456C265.285 75.3289 265.024 76.0164 264.436 76.2687C263.744 76.5766 263.066 76.8937 262.387 77.2271C261.813 77.5118 261.121 77.2734 260.841 76.6993C260.556 76.1299 260.792 75.4331 261.366 75.153C262.07 74.8058 262.781 74.4702 263.505 74.153L263.971 74.0535ZM303.825 72.6437L304.218 72.7109C304.959 72.9794 305.702 73.2641 306.429 73.5604C307.022 73.8011 307.306 74.4794 307.066 75.0673C306.823 75.6646 306.149 75.9493 305.556 75.7039C304.855 75.4192 304.151 75.1484 303.436 74.8914C302.834 74.6785 302.524 74.0141 302.735 73.4123C302.908 72.9377 303.35 72.6437 303.825 72.6437ZM272.723 71.0743C273.244 71.0743 273.714 71.4285 273.843 71.9516C273.998 72.5766 273.619 73.1993 272.998 73.3544C272.262 73.535 271.533 73.734 270.816 73.9447C270.191 74.1229 269.554 73.7734 269.378 73.16C269.198 72.5489 269.549 71.903 270.16 71.7248C270.915 71.5002 271.674 71.2965 272.443 71.1067L272.723 71.0743ZM294.876 70.2919L295.075 70.3058C295.853 70.4424 296.63 70.5905 297.399 70.7618C298.024 70.8984 298.417 71.5141 298.281 72.1368C298.144 72.7618 297.531 73.16 296.906 73.0234C296.17 72.8613 295.429 72.7155 294.681 72.5905C294.054 72.4817 293.628 71.8845 293.737 71.2502C293.836 70.69 294.325 70.2919 294.876 70.2919ZM281.855 69.6368C282.457 69.6368 282.964 70.1021 283.008 70.7132C283.054 71.3498 282.575 71.9076 281.938 71.9516C281.177 72.0072 280.427 72.0743 279.681 72.1599C279.035 72.2224 278.468 71.7711 278.397 71.1391C278.329 70.5002 278.785 69.9308 279.42 69.859C280.198 69.7687 280.982 69.6993 281.769 69.6414L281.855 69.6368ZM285.667 69.5072C286.459 69.5072 287.244 69.5234 288.031 69.5558C288.67 69.5836 289.167 70.1252 289.14 70.7618C289.112 71.4007 288.529 71.8799 287.931 71.8706C287.181 71.8382 286.427 71.822 285.667 71.822C285.029 71.822 284.51 71.3012 284.51 70.6646C284.51 70.0211 285.029 69.5072 285.667 69.5072Z" fill="white"/>
<path d="M285.667 153.241C301.415 153.241 314.223 140.433 314.223 124.685C314.223 108.94 301.415 96.1298 285.667 96.1298C269.92 96.1298 257.112 108.94 257.112 124.685C257.112 140.433 269.92 153.241 285.667 153.241ZM285.667 91.5002C303.966 91.5002 318.853 106.389 318.853 124.685C318.853 142.984 303.966 157.871 285.667 157.871C267.371 157.871 252.482 142.984 252.482 124.685C252.482 106.389 267.371 91.5002 285.667 91.5002Z" fill="white"/>
<path d="M279.654 128.158L120.302 128.158L199.978 266.158L279.654 128.158ZM114.29 121.213L285.667 121.213C286.91 121.213 288.054 121.875 288.674 122.949C289.292 124.021 289.292 125.347 288.674 126.421L202.985 274.838C202.366 275.908 201.221 276.572 199.978 276.572C198.739 276.572 197.591 275.908 196.971 274.838L111.283 126.421C110.663 125.347 110.663 124.021 111.283 122.949C111.901 121.875 113.052 121.213 114.29 121.213Z" fill="white"/>
<path d="M263.237 217.723H136.723L199.977 300.938L263.237 217.723ZM129.72 210.778H270.237C271.556 210.778 272.765 211.523 273.348 212.709C273.934 213.889 273.799 215.299 273.003 216.352L202.746 308.776C201.429 310.503 198.526 310.503 197.216 308.776L126.957 216.352C126.158 215.299 126.021 213.889 126.609 212.709C127.197 211.523 128.399 210.778 129.72 210.778Z" fill="white"/>
<path d="M285.663 121.213L286.26 121.264C288.149 121.59 289.415 123.384 289.089 125.273L273.658 214.838C273.334 216.727 271.529 218.003 269.649 217.672C267.76 217.348 266.489 215.547 266.813 213.658L282.244 124.095C282.538 122.408 284.003 121.213 285.663 121.213Z" fill="white"/>
<path d="M114.295 121.213C115.952 121.213 117.422 122.408 117.711 124.095L133.142 213.658C133.468 215.547 132.202 217.348 130.313 217.672C128.422 218.003 126.623 216.727 126.297 214.838L110.866 125.273C110.542 123.384 111.811 121.59 113.702 121.264L114.295 121.213Z" fill="white"/>
</svg>
