<svg width="313" height="347" viewBox="0 0 313 347" fill="none" xmlns="http://www.w3.org/2000/svg">
<g opacity="0.05">
<g opacity="0.05">
<path opacity="0.05" d="M45.7226 111.813L156.85 304.29L267.979 111.813H45.7226ZM156.85 314.368C155.652 314.368 154.54 313.731 153.943 312.692L36.9931 110.134C36.3949 109.099 36.3949 107.816 36.9931 106.775C37.5933 105.737 38.7071 105.096 39.9055 105.096H273.796C274.999 105.096 276.107 105.737 276.707 106.775C277.311 107.816 277.311 109.099 276.707 110.134L159.76 312.692C159.162 313.731 158.056 314.368 156.85 314.368Z" fill="white"/>
</g>
<g opacity="0.05">
<path opacity="0.05" d="M45.7202 239.139H267.979L156.851 46.6642L45.7202 239.139ZM273.794 245.858H39.905C38.7047 245.858 37.5928 245.219 36.9946 244.181C36.3944 243.142 36.3944 241.863 36.9946 240.82L153.941 38.2637C154.539 37.2287 155.651 36.5824 156.851 36.5824C158.054 36.5824 159.16 37.2287 159.758 38.2637L276.708 240.82C277.31 241.863 277.31 243.142 276.708 244.181C276.108 245.219 275.002 245.858 273.794 245.858Z" fill="white"/>
</g>
<g opacity="0.05">
<path opacity="0.05" d="M102.506 144.397L156.829 238.49L211.161 144.397H102.506ZM156.829 241.849C156.431 241.849 156.062 241.636 155.864 241.287L99.597 143.835C99.3988 143.489 99.3988 143.064 99.597 142.718C99.7932 142.366 100.168 142.158 100.566 142.158H213.098C213.498 142.158 213.866 142.366 214.068 142.718C214.27 143.064 214.27 143.489 214.068 143.835L157.803 241.287C157.601 241.636 157.233 241.849 156.829 241.849Z" fill="white"/>
</g>
<g opacity="0.05">
<path opacity="0.05" d="M102.508 206.592H211.158L156.83 112.495L102.508 206.592ZM213.095 208.829H100.563C100.165 208.829 99.7956 208.62 99.5955 208.269C99.3993 207.925 99.3993 207.502 99.5955 207.154L155.862 109.696C156.26 109.003 157.403 109.003 157.803 109.696L214.068 207.154C214.272 207.502 214.272 207.925 214.068 208.269C213.868 208.62 213.499 208.829 213.095 208.829Z" fill="white"/>
</g>
<g opacity="0.05">
<path opacity="0.05" d="M39.8207 207.671C27.3785 207.671 15.8097 214.363 9.61746 225.139C4.99301 233.199 3.78111 242.575 6.20876 251.549C8.63255 260.515 14.4054 268.002 22.4674 272.626C27.7382 275.652 33.7131 277.255 39.7476 277.255V279.496L39.7995 277.255C52.2224 277.237 63.7759 270.543 69.9508 259.782C74.5791 251.726 75.791 242.344 73.3633 233.378C70.9338 224.412 65.1628 216.923 57.1008 212.297C51.8358 209.271 45.859 207.671 39.8207 207.671ZM39.7476 281.737C32.9302 281.737 26.182 279.929 20.2341 276.514C11.141 271.291 4.62175 262.841 1.88055 252.719C-0.856808 242.593 0.514752 232.007 5.73169 222.91C12.7165 210.748 25.7819 203.192 39.8207 203.192C46.6362 203.192 53.3901 204.995 59.3342 208.413C68.4273 213.638 74.9465 222.086 77.6877 232.211C80.4231 242.333 79.0593 252.917 73.8385 262.012C66.8653 274.158 53.821 281.712 39.8053 281.737H39.7476Z" fill="white"/>
</g>
<g opacity="0.05">
<path opacity="0.05" d="M39.8795 227.534C34.5049 227.534 29.4976 230.42 26.8295 235.071C22.711 242.252 25.2021 251.453 32.3831 255.572C34.6934 256.905 37.1941 257.574 39.8199 257.574V258.696L39.8449 257.574C45.2138 257.566 50.2095 254.675 52.8815 250.031C54.8802 246.557 55.3957 242.508 54.3492 238.632C53.3028 234.752 50.8078 231.516 47.3337 229.523C45.0638 228.225 42.488 227.534 39.8795 227.534ZM39.8199 259.815C36.7998 259.815 33.9182 259.04 31.2654 257.514C23.0149 252.775 20.1564 242.208 24.8866 233.956C27.9606 228.61 33.7046 225.293 39.8795 225.293C42.8766 225.293 45.8448 226.084 48.4513 227.581C52.4448 229.875 55.3091 233.59 56.5133 238.047C57.7156 242.5 57.1174 247.15 54.8263 251.145C51.7542 256.483 46.016 259.807 39.8468 259.815H39.8199Z" fill="white"/>
</g>
<g opacity="0.05">
<path opacity="0.05" d="M273.756 207.671C261.312 207.671 249.743 214.363 243.553 225.139C238.93 233.199 237.717 242.575 240.142 251.549C242.568 260.515 248.341 268.002 256.403 272.626C261.672 275.652 267.649 277.255 273.683 277.255V279.496L273.735 277.255C286.154 277.237 297.709 270.543 303.886 259.782C308.515 251.726 309.726 242.344 307.299 233.378C304.871 224.412 299.096 216.923 291.036 212.297C285.769 209.271 279.796 207.671 273.756 207.671ZM273.683 281.737C266.866 281.737 260.117 279.929 254.168 276.514C245.076 271.291 238.557 262.841 235.814 252.719C233.079 242.593 234.444 232.007 239.663 222.91C246.652 210.748 259.714 203.192 273.756 203.192C280.574 203.192 287.324 204.995 293.27 208.413C302.363 213.638 308.882 222.086 311.623 232.211C314.357 242.333 312.993 252.917 307.772 262.012C300.799 274.158 287.755 281.712 273.739 281.737H273.683Z" fill="white"/>
</g>
<g opacity="0.05">
<path opacity="0.05" d="M273.814 227.534C268.437 227.534 263.432 230.42 260.764 235.071C256.647 242.252 259.138 251.453 266.316 255.572C268.628 256.905 271.129 257.574 273.754 257.574V258.696L273.776 257.574C279.148 257.566 284.144 254.675 286.818 250.031C288.809 246.557 289.33 242.508 288.282 238.632C287.237 234.752 284.742 231.516 281.268 229.523C278.998 228.225 276.421 227.534 273.814 227.534ZM273.754 259.815C270.734 259.815 267.855 259.04 265.198 257.514C256.949 252.775 254.089 242.208 258.821 233.956C261.895 228.61 267.635 225.293 273.814 225.293C276.811 225.293 279.779 226.084 282.384 227.581C286.379 229.875 289.24 233.59 290.446 238.047C291.65 242.5 291.052 247.15 288.761 251.145C285.687 256.483 279.947 259.807 273.781 259.815H273.754Z" fill="white"/>
</g>
<g opacity="0.05">
<path opacity="0.05" d="M39.8207 73.7038C27.3785 73.7038 15.8097 80.3981 9.61746 91.1763C4.99301 99.2326 3.78111 108.61 6.20876 117.58C8.63255 126.548 14.4054 134.035 22.4674 138.662C27.744 141.687 33.715 143.288 39.7476 143.288V145.527L39.7995 143.288C52.2224 143.269 63.7759 136.574 69.9508 125.815C74.5791 117.755 75.791 108.38 73.3633 99.4076C70.9338 90.4415 65.1628 82.9527 57.1008 78.3302C51.8358 75.3062 45.859 73.7038 39.8207 73.7038ZM39.7476 147.766C32.9359 147.766 26.1897 145.962 20.2341 142.547C11.141 137.323 4.62175 128.872 1.88055 118.75C-0.856808 108.626 0.514752 98.0399 5.73169 88.9468C12.7165 76.7836 25.7819 69.2236 39.8207 69.2236C46.6362 69.2236 53.3901 71.0299 59.3342 74.4425C68.4273 79.669 74.9465 88.1158 77.6877 98.2419C80.4231 108.366 79.0593 118.95 73.8385 128.045C66.8653 140.189 53.8268 147.743 39.8053 147.766H39.7476Z" fill="white"/>
</g>
<g opacity="0.05">
<path opacity="0.05" d="M39.8795 93.3964C34.5049 93.3964 29.4976 96.2838 26.8295 100.933C22.711 108.12 25.2021 117.315 32.3831 121.439C34.6934 122.767 37.1941 123.44 39.8199 123.44V124.558L39.8449 123.44C45.2158 123.432 50.2134 120.537 52.8815 115.894C54.8802 112.421 55.3957 108.37 54.3492 104.494C53.3028 100.614 50.8078 97.3822 47.3337 95.3855C45.0638 94.087 42.488 93.3964 39.8795 93.3964ZM39.8199 125.677C36.7998 125.677 33.9182 124.906 31.2654 123.382C23.0149 118.646 20.1564 108.076 24.8866 99.8195C27.9548 94.4756 33.7046 91.1554 39.8795 91.1554C42.8766 91.1554 45.8448 91.9499 48.4513 93.4426C52.4448 95.7375 55.3091 99.454 56.5133 103.909C57.7156 108.362 57.1174 113.012 54.8263 117.007C51.76 122.349 46.0179 125.67 39.8468 125.677H39.8199Z" fill="white"/>
</g>
<g opacity="0.05">
<path opacity="0.05" d="M273.756 73.7038C261.312 73.7038 249.743 80.3981 243.553 91.1763C238.93 99.2326 237.717 108.61 240.142 117.58C242.568 126.548 248.341 134.035 256.403 138.662C261.676 141.687 267.65 143.288 273.683 143.288V145.527L273.735 143.288C286.154 143.269 297.709 136.574 303.886 125.815C308.515 117.755 309.726 108.38 307.299 99.4076C304.871 90.4415 299.096 82.9527 291.036 78.3302C285.769 75.3062 279.796 73.7038 273.756 73.7038ZM273.683 147.766C266.871 147.766 260.123 145.962 254.168 142.547C245.076 137.323 238.557 128.872 235.814 118.75C233.079 108.626 234.444 98.0399 239.663 88.9468C246.652 76.7836 259.714 69.2236 273.756 69.2236C280.574 69.2236 287.324 71.0299 293.27 74.4425C302.363 79.669 308.882 88.1158 311.623 98.2419C314.357 108.366 312.993 118.95 307.772 128.045C300.799 140.189 287.762 147.743 273.739 147.766H273.683Z" fill="white"/>
</g>
<g opacity="0.05">
<path opacity="0.05" d="M273.814 93.3964C268.437 93.3964 263.432 96.2838 260.764 100.933C256.647 108.12 259.138 117.315 266.316 121.439C268.628 122.767 271.129 123.44 273.754 123.44V124.558L273.776 123.44C279.15 123.432 284.15 120.537 286.818 115.894C288.809 112.421 289.33 108.37 288.282 104.494C287.237 100.614 284.742 97.3822 281.268 95.3855C278.998 94.087 276.421 93.3964 273.814 93.3964ZM273.754 125.677C270.734 125.677 267.855 124.906 265.198 123.382C256.949 118.646 254.089 108.076 258.821 99.8195C261.887 94.4756 267.635 91.1554 273.814 91.1554C276.811 91.1554 279.779 91.9499 282.384 93.4426C286.379 95.7375 289.24 99.454 290.446 103.909C291.65 108.362 291.052 113.012 288.761 117.007C285.694 122.349 279.952 125.67 273.781 125.677H273.754Z" fill="white"/>
</g>
<g opacity="0.05">
<path opacity="0.05" d="M156.786 5.18834C144.342 5.18834 132.772 11.8846 126.585 22.6647C121.961 30.719 120.747 40.0987 123.176 49.0687C125.598 58.0348 131.377 65.5217 139.433 70.1519C144.708 73.172 150.681 74.7725 156.715 74.7725V77.0155L156.767 74.7725C169.188 74.7571 180.742 68.0628 186.918 57.3C191.551 49.2437 192.761 39.864 190.329 30.896C187.905 21.9279 182.129 14.4411 174.068 9.81471C168.803 6.79073 162.827 5.18834 156.786 5.18834ZM156.715 79.2527C149.9 79.2527 143.153 77.4464 137.204 74.0338C128.107 68.813 121.587 60.3605 118.85 50.2383C116.109 40.1122 117.48 29.5263 122.699 20.4313C129.682 8.2681 142.746 0.710083 156.786 0.710083C163.606 0.710083 170.356 2.51446 176.3 5.92894C185.399 11.1536 191.918 19.6042 194.653 29.7283C197.393 39.8544 196.029 50.4345 190.806 59.5295C183.835 71.6754 170.792 79.2334 156.773 79.2527H156.715Z" fill="white"/>
</g>
<g opacity="0.05">
<path opacity="0.05" d="M156.86 24.8829C151.48 24.8829 146.478 27.7703 143.808 32.4217C141.814 35.8958 141.29 39.947 142.343 43.8212C143.391 47.6974 145.878 50.933 149.358 52.9239C151.668 54.2512 154.173 54.9245 156.793 54.9245V56.0422L156.82 54.9245C162.191 54.9168 167.19 52.0217 169.86 47.378C173.981 40.1971 171.49 30.9982 164.314 26.872C162.041 25.5716 159.465 24.8829 156.86 24.8829ZM156.793 57.1637C153.775 57.1637 150.901 56.3942 148.244 54.8668C144.249 52.5758 141.383 48.8573 140.18 44.406C138.972 39.9489 139.572 35.2995 141.865 31.304C144.934 25.964 150.682 22.6418 156.86 22.6418C159.855 22.6418 162.82 23.4344 165.43 24.9291C173.679 29.6651 176.539 40.2355 171.803 48.4938C168.735 53.8319 162.993 57.154 156.822 57.1637H156.793Z" fill="white"/>
</g>
<g opacity="0.05">
<path opacity="0.05" d="M156.789 272.784C144.347 272.784 132.771 279.48 126.584 290.258C121.96 298.317 120.746 307.692 123.176 316.662C125.597 325.632 131.376 333.117 139.434 337.744C144.701 340.773 150.678 342.37 156.714 342.37V344.611L156.766 342.37C169.187 342.351 180.741 335.656 186.918 324.899C196.472 308.262 190.709 286.959 174.068 277.406C168.803 274.386 162.826 272.784 156.789 272.784ZM156.714 346.848C149.893 346.848 143.147 345.046 137.203 341.629C128.106 336.409 121.587 327.958 118.849 317.832C116.11 307.708 117.48 297.122 122.698 288.029C129.681 275.866 142.745 268.306 156.789 268.306C163.605 268.306 170.355 270.112 176.299 273.525C195.078 284.305 201.585 308.35 190.805 327.133C183.834 339.275 170.79 346.831 156.772 346.848H156.714Z" fill="white"/>
</g>
<g opacity="0.05">
<path opacity="0.05" d="M156.862 292.475C151.48 292.475 146.48 295.37 143.808 300.017C141.814 303.493 141.29 307.539 142.343 311.417C143.391 315.289 145.878 318.521 149.358 320.519C151.665 321.849 154.167 322.518 156.793 322.518V323.638L156.822 322.518C162.195 322.512 167.19 319.617 169.86 314.97C173.981 307.789 171.49 298.594 164.314 294.467C162.041 293.167 159.465 292.475 156.862 292.475ZM156.793 324.757C153.775 324.757 150.893 323.986 148.244 322.462C144.249 320.167 141.383 316.455 140.18 312C138.972 307.546 139.572 302.893 141.865 298.903C144.936 293.556 150.682 290.237 156.862 290.237C159.861 290.237 162.82 291.03 165.43 292.525C173.679 297.261 176.539 307.833 171.803 316.087C168.735 321.429 162.995 324.749 156.822 324.757H156.793Z" fill="white"/>
</g>
</g>
<path d="M77.4289 129.605L156.629 266.783L235.832 129.605H77.4289ZM156.629 273.966C155.775 273.966 154.983 273.512 154.558 272.771L71.2078 128.409C70.7807 127.67 70.7807 126.756 71.2078 126.014C71.6348 125.273 72.4274 124.817 73.2834 124.817H239.977C240.833 124.817 241.622 125.273 242.051 126.014C242.482 126.756 242.482 127.67 242.051 128.409L158.703 272.771C158.276 273.512 157.487 273.966 156.629 273.966Z" fill="white"/>
<path d="M77.427 220.387H235.83L156.629 83.2094L77.427 220.387ZM239.975 225.175H73.2815C72.4255 225.175 71.6348 224.721 71.2078 223.98C70.7807 223.239 70.7807 222.328 71.2078 221.585L154.556 77.223C154.981 76.4843 155.775 76.0245 156.629 76.0245C157.485 76.0245 158.274 76.4843 158.701 77.223L242.051 221.585C242.48 222.328 242.48 223.239 242.051 223.98C241.622 224.721 240.835 225.175 239.975 225.175Z" fill="white"/>
<path d="M117.949 152.764L156.666 219.824L195.387 152.764H117.949ZM156.666 222.217C156.381 222.217 156.118 222.065 155.977 221.817L115.877 152.364C115.735 152.117 115.735 151.813 115.877 151.567C116.015 151.317 116.283 151.169 116.566 151.169H196.768C197.053 151.169 197.315 151.317 197.459 151.567C197.601 151.813 197.601 152.117 197.459 152.364L157.358 221.817C157.214 222.065 156.953 222.217 156.666 222.217Z" fill="white"/>
<path d="M117.951 197.136H195.386L156.666 130.073L117.951 197.136ZM196.767 198.73H116.564C116.281 198.73 116.018 198.58 115.875 198.332C115.735 198.086 115.735 197.784 115.875 197.536L155.978 128.079C156.261 127.584 157.074 127.584 157.359 128.079L197.459 197.536C197.604 197.784 197.604 198.086 197.459 198.332C197.317 198.58 197.053 198.73 196.767 198.73Z" fill="white"/>
<path d="M73.4071 198.052C64.541 198.052 56.2943 202.821 51.8815 210.502C48.5863 216.246 47.7206 222.929 49.4519 229.323C51.1793 235.714 55.294 241.052 61.038 244.345C64.7949 246.503 69.0539 247.644 73.3552 247.644V249.241L73.3917 247.644C82.2463 247.631 90.4795 242.86 94.8808 235.192C98.1798 229.45 99.0436 222.766 97.3142 216.373C95.581 209.983 91.4682 204.647 85.7223 201.35C81.9693 199.193 77.7103 198.052 73.4071 198.052ZM73.3552 250.837C68.496 250.837 63.6869 249.55 59.4472 247.117C52.9664 243.395 48.3208 237.37 46.3664 230.156C44.4177 222.941 45.393 215.398 49.1114 208.913C54.0898 200.245 63.4022 194.861 73.4071 194.861C78.2643 194.861 83.0773 196.146 87.3132 198.579C93.7958 202.304 98.4415 208.327 100.394 215.542C102.345 222.756 101.373 230.3 97.6528 236.781C92.6821 245.438 83.3851 250.822 73.3956 250.837H73.3552Z" fill="white"/>
<path d="M73.3399 212.099C69.5099 212.099 65.9396 214.155 64.0391 217.47C61.1055 222.589 62.881 229.145 67.9979 232.082C69.6427 233.03 71.4259 233.509 73.2976 233.509V234.308L73.3149 233.509C77.143 233.504 80.7017 231.443 82.6061 228.133C84.0315 225.657 84.399 222.771 83.6526 220.007C82.9062 217.243 81.1288 214.938 78.653 213.517C77.0352 212.592 75.2001 212.099 73.3399 212.099ZM73.2976 235.106C71.145 235.106 69.0925 234.554 67.2015 233.465C61.3209 230.089 59.2819 222.558 62.654 216.675C64.8451 212.865 68.9386 210.502 73.3399 210.502C75.4752 210.502 77.5912 211.066 79.4494 212.134C82.2945 213.767 84.3355 216.416 85.1954 219.592C86.0514 222.766 85.6263 226.08 83.9912 228.927C81.802 232.732 77.7124 235.1 73.3168 235.106H73.2976Z" fill="white"/>
<path d="M240.018 198.052C231.15 198.052 222.905 202.821 218.492 210.502C215.197 216.246 214.331 222.929 216.063 229.323C217.79 235.714 221.905 241.052 227.649 244.345C231.404 246.503 235.665 247.644 239.966 247.644V249.241L240.002 247.644C248.855 247.631 257.09 242.86 261.491 235.192C264.791 229.45 265.654 222.766 263.925 216.373C262.192 209.983 258.079 204.647 252.333 201.35C248.58 199.193 244.321 198.052 240.018 198.052ZM239.966 250.837C235.107 250.837 230.298 249.55 226.058 247.117C219.577 243.395 214.931 237.37 212.977 230.156C211.028 222.941 212.002 215.398 215.72 208.913C220.7 200.245 230.011 194.861 240.018 194.861C244.875 194.861 249.686 196.146 253.924 198.579C260.407 202.304 265.052 208.327 267.005 215.542C268.955 222.756 267.982 230.3 264.262 236.781C259.291 245.438 249.996 250.822 240.006 250.837H239.966Z" fill="white"/>
<path d="M239.95 212.099C236.118 212.099 232.55 214.155 230.649 217.47C227.716 222.589 229.491 229.145 234.606 232.082C236.253 233.03 238.036 233.509 239.908 233.509V234.308L239.923 233.509C243.753 233.504 247.312 231.443 249.216 228.133C250.638 225.657 251.009 222.771 250.261 220.007C249.516 217.243 247.739 214.938 245.263 213.517C243.645 212.592 241.808 212.099 239.95 212.099ZM239.908 235.106C237.755 235.106 235.703 234.554 233.812 233.465C227.931 230.089 225.892 222.558 229.264 216.675C231.455 212.865 235.547 210.502 239.95 210.502C242.085 210.502 244.201 211.066 246.058 212.134C248.905 213.767 250.944 216.416 251.804 219.592C252.662 222.766 252.236 226.08 250.601 228.927C248.41 232.732 244.321 235.1 239.927 235.106H239.908Z" fill="white"/>
<path d="M73.4071 102.34C64.541 102.34 56.2943 107.11 51.8815 114.793C48.5863 120.533 47.7206 127.218 49.4519 133.61C51.1793 140.001 55.294 145.339 61.038 148.634C64.7988 150.791 69.0558 151.931 73.3552 151.931V153.528L73.3917 151.931C82.2463 151.918 90.4795 147.147 94.8808 139.48C98.1798 133.736 99.0436 127.055 97.3142 120.659C95.581 114.268 91.4682 108.932 85.7223 105.637C81.9693 103.482 77.7103 102.34 73.4071 102.34ZM73.3552 155.123C68.4999 155.123 63.6927 153.838 59.4472 151.404C52.9664 147.68 48.3208 141.657 46.3664 134.443C44.4177 127.228 45.393 119.685 49.1114 113.202C54.0898 104.535 63.4022 99.1464 73.4071 99.1464C78.2643 99.1464 83.0773 100.435 87.3132 102.865C93.7958 106.591 98.4415 112.612 100.394 119.828C102.345 127.043 101.373 134.588 97.6528 141.068C92.6821 149.723 83.3889 155.109 73.3956 155.123H73.3552Z" fill="white"/>
<path d="M73.3399 116.553C69.5099 116.553 65.9396 118.609 64.0391 121.924C61.1055 127.047 62.881 133.599 67.9979 136.54C69.6427 137.484 71.4259 137.965 73.2976 137.965V138.762L73.3149 137.965C77.1449 137.959 80.7056 135.897 82.6061 132.587C84.0315 130.111 84.399 127.225 83.6526 124.461C82.9062 121.697 81.1288 119.394 78.653 117.971C77.0352 117.046 75.2001 116.553 73.3399 116.553ZM73.2976 139.56C71.145 139.56 69.0925 139.01 67.2015 137.923C61.3209 134.547 59.2819 127.014 62.654 121.131C64.8412 117.321 68.9386 114.956 73.3399 114.956C75.4752 114.956 77.5912 115.522 79.4494 116.588C82.2945 118.221 84.3355 120.87 85.1954 124.046C86.0514 127.22 85.6263 130.534 83.9912 133.381C81.8059 137.188 77.7143 139.554 73.3168 139.56H73.2976Z" fill="white"/>
<path d="M240.018 102.34C231.15 102.34 222.905 107.11 218.492 114.793C215.197 120.533 214.331 127.218 216.063 133.61C217.79 140.001 221.905 145.339 227.649 148.634C231.408 150.791 235.666 151.931 239.966 151.931V153.528L240.002 151.931C248.855 151.918 257.09 147.147 261.491 139.48C264.791 133.736 265.654 127.055 263.925 120.659C262.192 114.268 258.079 108.932 252.333 105.637C248.58 103.482 244.321 102.34 240.018 102.34ZM239.966 155.123C235.111 155.123 230.301 153.838 226.058 151.404C219.577 147.68 214.931 141.657 212.977 134.443C211.028 127.228 212.002 119.685 215.72 113.202C220.7 104.535 230.011 99.1464 240.018 99.1464C244.875 99.1464 249.686 100.435 253.924 102.865C260.407 106.591 265.052 112.612 267.005 119.828C268.955 127.043 267.982 134.588 264.262 141.068C259.291 149.723 250 155.109 240.006 155.123H239.966Z" fill="white"/>
<path d="M239.95 116.553C236.118 116.553 232.55 118.609 230.649 121.924C227.716 127.047 229.491 133.599 234.606 136.54C236.253 137.484 238.036 137.965 239.908 137.965V138.762L239.923 137.965C243.755 137.959 247.316 135.897 249.216 132.587C250.638 130.111 251.009 127.225 250.261 124.461C249.516 121.697 247.739 119.394 245.263 117.971C243.645 117.046 241.808 116.553 239.95 116.553ZM239.908 139.56C237.755 139.56 235.703 139.01 233.812 137.923C227.931 134.547 225.892 127.014 229.264 121.131C231.449 117.321 235.547 114.956 239.95 114.956C242.085 114.956 244.201 115.522 246.058 116.588C248.905 118.221 250.944 120.87 251.804 124.046C252.662 127.22 252.236 130.534 250.601 133.381C248.416 137.188 244.324 139.554 239.927 139.56H239.908Z" fill="white"/>
<path d="M156.711 53.5447C147.843 53.5447 139.596 58.3173 135.187 66.0004C131.89 71.7405 131.025 78.4271 132.758 84.8175C134.483 91.2079 138.602 96.546 144.344 99.8431C148.101 101.996 152.36 103.136 156.661 103.136V104.735L156.698 103.136C165.55 103.125 173.783 98.3542 178.187 90.6846C181.488 84.9425 182.349 78.2598 180.618 71.8656C178.889 65.4752 174.772 60.139 169.028 56.8419C165.275 54.6874 161.014 53.5447 156.711 53.5447ZM156.661 106.33C151.802 106.33 146.995 105.043 142.755 102.611C136.27 98.889 131.625 92.8641 129.674 85.6504C127.722 78.4348 128.697 70.8922 132.417 64.4076C137.394 55.7396 146.704 50.3534 156.711 50.3534C161.57 50.3534 166.381 51.6403 170.617 54.0718C177.104 57.796 181.749 63.8189 183.698 71.0345C185.652 78.2502 184.679 85.7928 180.957 92.2736C175.988 100.93 166.693 106.318 156.701 106.33H156.661Z" fill="white"/>
<path d="M156.654 67.7604C152.82 67.7604 149.254 69.8188 147.351 73.1332C145.93 75.6089 145.556 78.4963 146.307 81.2587C147.055 84.0211 148.828 86.3256 151.308 87.7472C152.953 88.6917 154.738 89.1726 156.606 89.1726V89.969L156.625 89.1726C160.453 89.1668 164.016 87.1047 165.918 83.7941C168.858 78.6752 167.082 72.1194 161.967 69.1782C160.347 68.2529 158.51 67.7604 156.654 67.7604ZM156.606 90.7673C154.453 90.7673 152.406 90.219 150.514 89.1303C147.667 87.4971 145.624 84.8482 144.766 81.6742C143.906 78.4983 144.333 75.1838 145.966 72.3368C148.153 68.5299 152.251 66.1638 156.654 66.1638C158.787 66.1638 160.901 66.7294 162.761 67.7951C168.64 71.1692 170.679 78.7022 167.303 84.5885C165.116 88.3935 161.022 90.7615 156.627 90.7673H156.606Z" fill="white"/>
<path d="M156.713 244.296C147.846 244.296 139.596 249.068 135.187 256.751C131.89 262.493 131.024 269.176 132.757 275.568C134.483 281.961 138.601 287.297 144.343 290.592C148.096 292.75 152.357 293.889 156.661 293.889V295.486L156.697 293.889C165.55 293.876 173.783 289.105 178.186 281.439C184.994 269.582 180.887 254.399 169.028 247.591C165.275 245.438 161.014 244.296 156.713 244.296ZM156.661 297.081C151.798 297.081 146.99 295.797 142.755 293.362C136.27 289.642 131.624 283.617 129.674 276.401C127.721 269.186 128.698 261.643 132.417 255.16C137.393 246.492 146.704 241.104 156.713 241.104C161.57 241.104 166.381 242.393 170.619 244.823C184.003 252.508 188.639 269.645 180.956 283.03C175.987 291.685 166.69 297.071 156.701 297.081H156.661Z" fill="white"/>
<path d="M156.656 258.34C152.82 258.34 149.256 260.402 147.351 263.717C145.93 266.193 145.556 269.076 146.307 271.84C147.055 274.601 148.828 276.904 151.308 278.329C152.951 279.275 154.734 279.752 156.606 279.752V280.551L156.625 279.752C160.457 279.749 164.016 277.686 165.918 274.374C168.858 269.255 167.082 262.701 161.967 259.76C160.347 258.835 158.51 258.34 156.656 258.34ZM156.606 281.349C154.453 281.349 152.403 280.799 150.514 279.712C147.667 278.079 145.624 275.432 144.766 272.256C143.906 269.082 144.333 265.766 145.966 262.922C148.155 259.11 152.251 256.746 156.656 256.746C158.791 256.746 160.901 257.311 162.761 258.377C168.64 261.751 170.679 269.286 167.303 275.17C165.116 278.977 161.026 281.343 156.627 281.349H156.606Z" fill="white"/>
</svg>
