<svg width="287" height="62" viewBox="0 0 287 62" fill="none" xmlns="http://www.w3.org/2000/svg">
<path fill-rule="evenodd" clip-rule="evenodd" d="M83.9981 59.8539L74.6194 50.1554V30.2041L103.827 0H121.781L122.852 1.10841V9.97567L106.239 27.4331L107.847 29.2342H121.513L122.852 30.7583V40.1797L103.827 59.8539H83.9981ZM94.4486 11.0841V29.3728L103.559 38.7942H121.781V30.3426H107.311L103.023 25.7705V14.9635L107.847 9.83712H121.781V1.10841H104.095L94.4486 11.0841ZM9.29632 60V30.4974H0V20.0578L19.1315 0.292062H29.1015L30.7183 1.9624L32.8739 0.292062H48.2331V10.8709L38.9367 20.7538V40.1019L19.401 60H9.29632ZM29.5057 10.1749V39.5451H37.9936V10.8709L28.5626 1.12723H20.2094V10.1749H29.5057ZM47.4247 1.12723H34.7601L43.1134 9.75734H47.4247V1.12723Z" fill="url(#paint0_linear)"/>
<path fill-rule="evenodd" clip-rule="evenodd" d="M38.5869 59.8539V49.6012V44.4748V34.9148L38.6027 30.0655H38.8549V19.9513L58.1481 0H86.82V11.0841V19.9513L82.3986 25.4934L79.3171 28.8186V29.5113H86.82V40.4569L68.0627 59.8539H38.5869ZM86.0161 30.4812H58.952V38.7942H58.9993V38.8389H86.0634V30.5259H86.0161V30.4812ZM81.1928 15.7948H58.684V23.5536H58.7313V23.5983H81.2401V15.8395H81.1928V15.7948ZM86.0161 0.831304H58.952V9.42146H58.9993V9.46614H86.0634V0.875977H86.0161V0.831304Z" fill="url(#paint1_linear)"/>
<path d="M157.94 4.2439H154V2L164.443 2V4.2439H160.503V15.6585H157.94V4.2439Z" fill="url(#paint2_linear)"/>
<path d="M166.665 13.4146V4.2439L168.832 2L175.619 2L177.786 4.2439V13.4146L175.619 15.6585L168.832 15.6585L166.665 13.4146ZM174.261 13.3951L175.223 12.4V5.25854L174.261 4.26341L170.19 4.26341L169.228 5.25854V12.4L170.19 13.3951H174.261Z" fill="url(#paint3_linear)"/>
<path d="M181.23 2L183.794 2V7.71707H185.792L188.978 2L191.862 2L187.998 8.80976L192.183 15.6585H189.242L185.773 9.98049H183.794V15.6585H181.23V2Z" fill="url(#paint4_linear)"/>
<path d="M194.687 2L204.226 2V4.2439H197.251V7.69756H203.679V9.90244H197.251V13.4146L204.226 13.4146V15.6585L194.687 15.6585V2Z" fill="url(#paint5_linear)"/>
<path d="M207.297 2H209.597L215.479 11.2683H215.516V2H217.986V15.6585H215.686L209.804 6.40976H209.767V15.6585H207.297V2Z" fill="url(#paint6_linear)"/>
<path d="M154.943 25.1707H164.481V27.4146H157.506V30.8683H163.934V33.0732H157.506V36.5854H164.481V38.8293H154.943V25.1707Z" fill="url(#paint7_linear)"/>
<path d="M167.553 25.1707H169.852L175.734 34.439H175.771V25.1707H178.241V38.8293H175.941L170.06 29.5805H170.022V38.8293H167.553V25.1707Z" fill="url(#paint8_linear)"/>
<path d="M181.686 36.5854V27.4146L183.854 25.1707L190.414 25.1707L192.544 27.3756V29.4634H189.98V28.3512L189.094 27.4341H185.211L184.25 28.4293V35.5707L185.211 36.5659H189.132L190.056 35.6098V33.4829H187.228V31.2195H192.544V36.5854L190.376 38.8293H183.854L181.686 36.5854Z" fill="url(#paint9_linear)"/>
<path d="M195.886 25.1707H198.45V38.8293H195.886V25.1707Z" fill="url(#paint10_linear)"/>
<path d="M202.18 25.1707H204.479L210.361 34.439H210.399V25.1707H212.868V38.8293H210.568L204.687 29.5805H204.649V38.8293H202.18V25.1707Z" fill="url(#paint11_linear)"/>
<path d="M216.502 25.1707H226.04V27.4146H219.065V30.8683H225.494V33.0732H219.065V36.5854H226.04V38.8293H216.502V25.1707Z" fill="url(#paint12_linear)"/>
<path d="M229.112 25.1707H238.65V27.4146H231.676V30.8683H238.104V33.0732H231.676V36.5854H238.65V38.8293H229.112V25.1707Z" fill="url(#paint13_linear)"/>
<path d="M252.09 34.3024V38.8293H249.526V34.9073L248.395 33.6L244.286 33.6V38.8293H241.722V25.1707L249.997 25.1707L252.014 27.278V31.4146L250.733 32.761L252.09 34.3024ZM244.286 31.4146L248.829 31.4146L249.488 30.7317V28.078L248.829 27.3951L244.286 27.3951V31.4146Z" fill="url(#paint14_linear)"/>
<path d="M255.715 25.1707H258.279V38.8293H255.715V25.1707Z" fill="url(#paint15_linear)"/>
<path d="M262.008 25.1707H264.308L270.19 34.439H270.227V25.1707H272.697V38.8293H270.397L264.516 29.5805H264.478V38.8293H262.008V25.1707Z" fill="url(#paint16_linear)"/>
<path d="M276.142 36.5854V27.4146L278.31 25.1707H284.87L287 27.3756V29.4634H284.436V28.3512L283.55 27.4341H279.667L278.706 28.4293V35.5707L279.667 36.5659H283.588L284.512 35.6098V33.4829H281.684V31.2195H287V36.5854L284.832 38.8293H278.31L276.142 36.5854Z" fill="url(#paint17_linear)"/>
<path d="M154.754 59.7561V50.5854L156.922 48.3415H163.369L165.499 50.5463V52.6341H162.935V51.522L162.049 50.6049H158.279L157.318 51.6V58.7415L158.279 59.7366H162.049L162.935 58.8195V57.7073H165.499V59.7951L163.369 62H156.922L154.754 59.7561Z" fill="url(#paint18_linear)"/>
<path d="M168.285 59.7561V50.5854L170.452 48.3415H177.239L179.406 50.5854V59.7561L177.239 62H170.452L168.285 59.7561ZM175.881 59.7366L176.843 58.7415V51.6L175.881 50.6049H171.81L170.848 51.6V58.7415L171.81 59.7366H175.881Z" fill="url(#paint19_linear)"/>
<path d="M182.85 48.3415H185.226L189.146 57.161H189.184L193.124 48.3415H195.499V62H193.03V53.6878H192.992L189.957 60.0878H188.374L185.357 53.6878H185.32V62H182.85V48.3415Z" fill="url(#paint20_linear)"/>
<path d="M199.124 48.3415H201.499L205.42 57.161H205.458L209.397 48.3415H211.773V62H209.303V53.6878H209.265L206.23 60.0878H204.647L201.631 53.6878H201.593V62H199.124V48.3415Z" fill="url(#paint21_linear)"/>
<path d="M215.209 59.7561V50.5854L217.377 48.3415H224.163L226.331 50.5854V59.7561L224.163 62H217.377L215.209 59.7561ZM222.806 59.7366L223.767 58.7415V51.6L222.806 50.6049H218.734L217.772 51.6V58.7415L218.734 59.7366H222.806Z" fill="url(#paint22_linear)"/>
<path d="M229.775 48.3415H232.074L237.956 57.6098H237.993V48.3415H240.463V62H238.163L232.282 52.7512H232.244V62H229.775V48.3415Z" fill="url(#paint23_linear)"/>
<path d="M243.814 59.8927V57.9415H246.34V59.0927L246.962 59.7366H250.864L251.505 59.0732V56.8098L250.883 56.1659H245.887L243.852 54.0585V50.4488L245.887 48.3415H251.844L253.88 50.4488V52.4195H251.354V51.2488L250.732 50.6049H247L246.378 51.2488V53.2585L247 53.9024H251.995L254.031 56.0098V59.8537L251.957 62H245.85L243.814 59.8927Z" fill="url(#paint24_linear)"/>
<defs>
<linearGradient id="paint0_linear" x1="108.304" y1="53.4" x2="82.1658" y2="-20.3095" gradientUnits="userSpaceOnUse">
<stop stop-color="#DEFB48"/>
<stop offset="1" stop-color="#03B3FF"/>
</linearGradient>
<linearGradient id="paint1_linear" x1="81.1082" y1="53.27" x2="39.9437" y2="7.5837" gradientUnits="userSpaceOnUse">
<stop stop-color="#DEFB48"/>
<stop offset="1" stop-color="#03B3FF"/>
</linearGradient>
<linearGradient id="paint2_linear" x1="271.25" y1="55.4" x2="246.703" y2="-19.5381" gradientUnits="userSpaceOnUse">
<stop stop-color="#DEFB48"/>
<stop offset="1" stop-color="#03B3FF"/>
</linearGradient>
<linearGradient id="paint3_linear" x1="271.25" y1="55.4" x2="246.703" y2="-19.5381" gradientUnits="userSpaceOnUse">
<stop stop-color="#DEFB48"/>
<stop offset="1" stop-color="#03B3FF"/>
</linearGradient>
<linearGradient id="paint4_linear" x1="271.25" y1="55.4" x2="246.703" y2="-19.5381" gradientUnits="userSpaceOnUse">
<stop stop-color="#DEFB48"/>
<stop offset="1" stop-color="#03B3FF"/>
</linearGradient>
<linearGradient id="paint5_linear" x1="271.25" y1="55.4" x2="246.703" y2="-19.5381" gradientUnits="userSpaceOnUse">
<stop stop-color="#DEFB48"/>
<stop offset="1" stop-color="#03B3FF"/>
</linearGradient>
<linearGradient id="paint6_linear" x1="271.25" y1="55.4" x2="246.703" y2="-19.5381" gradientUnits="userSpaceOnUse">
<stop stop-color="#DEFB48"/>
<stop offset="1" stop-color="#03B3FF"/>
</linearGradient>
<linearGradient id="paint7_linear" x1="271.25" y1="55.4" x2="246.703" y2="-19.5381" gradientUnits="userSpaceOnUse">
<stop stop-color="#DEFB48"/>
<stop offset="1" stop-color="#03B3FF"/>
</linearGradient>
<linearGradient id="paint8_linear" x1="271.25" y1="55.4" x2="246.703" y2="-19.5381" gradientUnits="userSpaceOnUse">
<stop stop-color="#DEFB48"/>
<stop offset="1" stop-color="#03B3FF"/>
</linearGradient>
<linearGradient id="paint9_linear" x1="271.25" y1="55.4" x2="246.703" y2="-19.5381" gradientUnits="userSpaceOnUse">
<stop stop-color="#DEFB48"/>
<stop offset="1" stop-color="#03B3FF"/>
</linearGradient>
<linearGradient id="paint10_linear" x1="271.25" y1="55.4" x2="246.703" y2="-19.5381" gradientUnits="userSpaceOnUse">
<stop stop-color="#DEFB48"/>
<stop offset="1" stop-color="#03B3FF"/>
</linearGradient>
<linearGradient id="paint11_linear" x1="271.25" y1="55.4" x2="246.703" y2="-19.5381" gradientUnits="userSpaceOnUse">
<stop stop-color="#DEFB48"/>
<stop offset="1" stop-color="#03B3FF"/>
</linearGradient>
<linearGradient id="paint12_linear" x1="271.25" y1="55.4" x2="246.703" y2="-19.5381" gradientUnits="userSpaceOnUse">
<stop stop-color="#DEFB48"/>
<stop offset="1" stop-color="#03B3FF"/>
</linearGradient>
<linearGradient id="paint13_linear" x1="271.25" y1="55.4" x2="246.703" y2="-19.5381" gradientUnits="userSpaceOnUse">
<stop stop-color="#DEFB48"/>
<stop offset="1" stop-color="#03B3FF"/>
</linearGradient>
<linearGradient id="paint14_linear" x1="271.25" y1="55.4" x2="246.703" y2="-19.5381" gradientUnits="userSpaceOnUse">
<stop stop-color="#DEFB48"/>
<stop offset="1" stop-color="#03B3FF"/>
</linearGradient>
<linearGradient id="paint15_linear" x1="271.25" y1="55.4" x2="246.703" y2="-19.5381" gradientUnits="userSpaceOnUse">
<stop stop-color="#DEFB48"/>
<stop offset="1" stop-color="#03B3FF"/>
</linearGradient>
<linearGradient id="paint16_linear" x1="271.25" y1="55.4" x2="246.703" y2="-19.5381" gradientUnits="userSpaceOnUse">
<stop stop-color="#DEFB48"/>
<stop offset="1" stop-color="#03B3FF"/>
</linearGradient>
<linearGradient id="paint17_linear" x1="271.25" y1="55.4" x2="246.703" y2="-19.5381" gradientUnits="userSpaceOnUse">
<stop stop-color="#DEFB48"/>
<stop offset="1" stop-color="#03B3FF"/>
</linearGradient>
<linearGradient id="paint18_linear" x1="271.25" y1="55.4" x2="246.703" y2="-19.5381" gradientUnits="userSpaceOnUse">
<stop stop-color="#DEFB48"/>
<stop offset="1" stop-color="#03B3FF"/>
</linearGradient>
<linearGradient id="paint19_linear" x1="271.25" y1="55.4" x2="246.703" y2="-19.5381" gradientUnits="userSpaceOnUse">
<stop stop-color="#DEFB48"/>
<stop offset="1" stop-color="#03B3FF"/>
</linearGradient>
<linearGradient id="paint20_linear" x1="271.25" y1="55.4" x2="246.703" y2="-19.5381" gradientUnits="userSpaceOnUse">
<stop stop-color="#DEFB48"/>
<stop offset="1" stop-color="#03B3FF"/>
</linearGradient>
<linearGradient id="paint21_linear" x1="271.25" y1="55.4" x2="246.703" y2="-19.5381" gradientUnits="userSpaceOnUse">
<stop stop-color="#DEFB48"/>
<stop offset="1" stop-color="#03B3FF"/>
</linearGradient>
<linearGradient id="paint22_linear" x1="271.25" y1="55.4" x2="246.703" y2="-19.5381" gradientUnits="userSpaceOnUse">
<stop stop-color="#DEFB48"/>
<stop offset="1" stop-color="#03B3FF"/>
</linearGradient>
<linearGradient id="paint23_linear" x1="271.25" y1="55.4" x2="246.703" y2="-19.5381" gradientUnits="userSpaceOnUse">
<stop stop-color="#DEFB48"/>
<stop offset="1" stop-color="#03B3FF"/>
</linearGradient>
<linearGradient id="paint24_linear" x1="271.25" y1="55.4" x2="246.703" y2="-19.5381" gradientUnits="userSpaceOnUse">
<stop stop-color="#DEFB48"/>
<stop offset="1" stop-color="#03B3FF"/>
</linearGradient>
</defs>
</svg>
